%TF.GenerationSoftware,Altium Limited,Altium Designer,22.2.1 (43)*%
G04 Layer_Color=12429013*
%FSLAX44Y44*%
%MOMM*%
%TF.SameCoordinates,040CE2E0-B857-4D47-B26F-9B72162B56B4*%
%TF.FilePolarity,Positive*%
%TF.FileFunction,Legend,Bot*%
%TF.Part,Single*%
G01*
G75*
%TA.AperFunction,NonConductor*%
%ADD95C,0.2000*%
%ADD96C,0.5080*%
%ADD97C,0.3000*%
%ADD98C,0.1270*%
D95*
X1485185Y1085850D02*
G03*
X1478835Y1085850I-3175J0D01*
G01*
X1504400Y423949D02*
G03*
X1504400Y423949I-1000J0D01*
G01*
X1623780Y361719D02*
G03*
X1623780Y361719I-1000J0D01*
G01*
X1528260Y1040960D02*
G03*
X1528260Y1040960I-1000J0D01*
G01*
X1504320Y520468D02*
G03*
X1504320Y520468I-1000J0D01*
G01*
Y616988D02*
G03*
X1504320Y616988I-1000J0D01*
G01*
X1503490Y713508D02*
G03*
X1503490Y713508I-1000J0D01*
G01*
X1503960Y810029D02*
G03*
X1503960Y810029I-1000J0D01*
G01*
X1614284Y1244900D02*
G03*
X1614284Y1244900I-1000J0D01*
G01*
X1613724Y1157120D02*
G03*
X1613724Y1157120I-1000J0D01*
G01*
Y1186330D02*
G03*
X1613724Y1186330I-1000J0D01*
G01*
Y1215540D02*
G03*
X1613724Y1215540I-1000J0D01*
G01*
X1438860Y1085850D02*
X1478835D01*
X1485185D02*
X1525160D01*
Y1238250D01*
X1438860D02*
X1525160D01*
X1438860Y1085850D02*
Y1238250D01*
D96*
X1626108Y413766D02*
G03*
X1626108Y406146I0J-3810D01*
G01*
D02*
G03*
X1626108Y413766I0J3810D01*
G01*
D97*
X1175430Y537820D02*
G03*
X1175430Y537820I-1000J0D01*
G01*
D98*
X1526190Y800490D02*
X1539590Y800490D01*
X1526190Y817490D02*
X1539590D01*
X1526190Y775090D02*
X1539590Y775090D01*
X1526190Y792090D02*
X1539590Y792090D01*
X1527460Y510930D02*
X1540860D01*
X1527460Y527930D02*
X1540860D01*
X1527460Y485530D02*
X1540860D01*
X1527460Y502530D02*
X1540860D01*
X1527460Y582050D02*
X1540860D01*
X1527460Y599050D02*
X1540860D01*
X1527460Y607450D02*
X1540860Y607450D01*
X1527460Y624450D02*
X1540860D01*
X1527460Y678570D02*
X1540860Y678570D01*
X1527460Y695570D02*
X1540860D01*
X1527900Y703970D02*
X1541300D01*
X1527900Y720970D02*
X1541300D01*
X1474400Y426649D02*
X1487400D01*
X1474400Y395249D02*
X1487400D01*
X1474400Y417149D02*
Y426649D01*
Y395249D02*
Y404749D01*
X1593780Y364419D02*
X1606780D01*
X1593780Y333019D02*
X1606780D01*
X1593780Y354919D02*
Y364419D01*
Y333019D02*
Y342519D01*
X1476660Y436000D02*
X1490060D01*
X1476660Y453000D02*
X1490060D01*
X1527460Y414410D02*
X1540860D01*
X1527460Y431410D02*
X1540860D01*
X1527460Y389010D02*
X1540860D01*
X1527460Y406010D02*
X1540860D01*
X1597310Y373770D02*
X1610710D01*
X1597310Y390770D02*
X1610710D01*
X1596040Y306460D02*
X1609440D01*
X1596040Y323460D02*
X1609440D01*
X1648110Y326780D02*
X1661510D01*
X1648110Y343780D02*
X1661510D01*
X1648110Y352180D02*
X1661510Y352180D01*
X1648110Y369180D02*
X1661510Y369180D01*
X1476660Y368690D02*
X1490060D01*
X1476660Y385690D02*
X1490060D01*
X1428760Y850760D02*
X1493760D01*
X1428760Y1049160D02*
X1493760D01*
X1476660Y561730D02*
X1490060D01*
X1476660Y578730D02*
X1490060D01*
X1476660Y658250D02*
X1490060D01*
X1476660Y675250D02*
X1490060D01*
X1023270Y871610D02*
X1036670D01*
X1023270Y888610D02*
X1036670D01*
X1698910Y489830D02*
X1712310D01*
X1698910Y472830D02*
X1712310D01*
X1474320Y491769D02*
Y501268D01*
Y513669D02*
Y523169D01*
Y491769D02*
X1487320D01*
X1474320Y523169D02*
X1487320D01*
X1476660Y549520D02*
X1490060D01*
X1476660Y532520D02*
X1490060D01*
X1476660Y482210D02*
X1490060D01*
X1476660Y465210D02*
X1490060D01*
X1474320Y588289D02*
Y597788D01*
Y610188D02*
Y619689D01*
Y588289D02*
X1487320D01*
X1474320Y619689D02*
X1487320D01*
X1476660Y646040D02*
X1490060D01*
X1476660Y629040D02*
X1490060D01*
X1473490Y684809D02*
Y694308D01*
Y706709D02*
Y716209D01*
Y684809D02*
X1486490D01*
X1473490Y716209D02*
X1486490D01*
X1476660Y742560D02*
X1490060D01*
X1476660Y725560D02*
X1490060D01*
X1473960Y781329D02*
Y790829D01*
Y803229D02*
Y812729D01*
Y781329D02*
X1486960D01*
X1473960Y812729D02*
X1486960D01*
X1476660Y839080D02*
X1490060D01*
X1476660Y822080D02*
X1490060D01*
X1476660Y771770D02*
X1490060D01*
X1476660Y754770D02*
X1490060D01*
X1548950Y894190D02*
X1562550D01*
X1548950Y876190D02*
X1562550D01*
X1550220Y946260D02*
X1563820D01*
X1550220Y928260D02*
X1563820D01*
X1548910Y1047860D02*
X1562510D01*
X1548910Y1029860D02*
X1562510D01*
X1550220Y997060D02*
X1563820D01*
X1550220Y979060D02*
X1563820D01*
X1376290Y1046130D02*
Y1059530D01*
X1359290Y1046130D02*
Y1059530D01*
X1362770Y1000660D02*
X1368370D01*
X1362770Y988160D02*
X1368370D01*
X1362450Y979070D02*
X1368050D01*
X1362450Y966570D02*
X1368050D01*
X1362450Y957480D02*
X1368050D01*
X1362450Y944980D02*
X1368050D01*
X1362450Y935890D02*
X1368050D01*
X1362450Y923390D02*
X1368050D01*
X1400460Y1060840D02*
X1413860D01*
X1400460Y1077840D02*
X1413860D01*
X1404230Y1119790D02*
Y1133190D01*
X1387230Y1119790D02*
Y1133190D01*
X1586034Y1250100D02*
X1598534D01*
X1586034Y1226700D02*
X1598534D01*
X784510Y888610D02*
X797910D01*
X784510Y871610D02*
X797910D01*
X943260Y846210D02*
X956660D01*
X943260Y863210D02*
X956660D01*
X1023270Y846210D02*
X1036670D01*
X1023270Y863210D02*
X1036670D01*
X1184560Y889880D02*
X1197960D01*
X1184560Y872880D02*
X1197960D01*
X1104550Y888610D02*
X1117950D01*
X1104550Y871610D02*
X1117950D01*
X943260Y888610D02*
X956660D01*
X943260Y871610D02*
X956660D01*
X864080Y888610D02*
X877480D01*
X864080Y871610D02*
X877480D01*
X1236590Y859440D02*
Y872840D01*
X1219590Y859440D02*
Y872840D01*
X1159120Y858170D02*
Y871570D01*
X1142120Y858170D02*
Y871570D01*
X1079110Y858170D02*
Y871570D01*
X1062110Y858170D02*
Y871570D01*
X997830Y858170D02*
Y871570D01*
X980830Y858170D02*
Y871570D01*
X917820Y858170D02*
Y871570D01*
X900820Y858170D02*
Y871570D01*
X864080Y846210D02*
X877480D01*
X864080Y863210D02*
X877480D01*
X837810Y858610D02*
Y872010D01*
X820810Y858610D02*
Y872010D01*
X784510Y846210D02*
X797910D01*
X784510Y863210D02*
X797910D01*
X943260Y811140D02*
X956660D01*
X943260Y794140D02*
X956660D01*
X864080Y811140D02*
X877480D01*
X864080Y794140D02*
X877480D01*
X784510Y811140D02*
X797910D01*
X784510Y794140D02*
X797910D01*
X784510Y768740D02*
X797910D01*
X784510Y785740D02*
X797910D01*
X837810Y780700D02*
Y794100D01*
X820810Y780700D02*
Y794100D01*
X864080Y767470D02*
X877480D01*
X864080Y784470D02*
X877480D01*
X917820Y779430D02*
Y792830D01*
X900820Y779430D02*
Y792830D01*
X943260Y767470D02*
X956660D01*
X943260Y784470D02*
X956660D01*
X997830Y779430D02*
Y792830D01*
X980830Y779430D02*
Y792830D01*
X1023270Y811140D02*
X1036670D01*
X1023270Y794140D02*
X1036670D01*
X1079110Y780700D02*
Y794100D01*
X1062110Y780700D02*
Y794100D01*
X1023270Y785740D02*
X1036670D01*
X1023270Y768740D02*
X1036670D01*
X1104550Y863210D02*
X1117950D01*
X1104550Y846210D02*
X1117950D01*
X1184560Y864480D02*
X1197960D01*
X1184560Y847480D02*
X1197960D01*
X1585474Y1138920D02*
X1597974D01*
X1585474Y1162320D02*
X1597974D01*
X1585474Y1168130D02*
X1597974D01*
X1585474Y1191530D02*
X1597974D01*
X1585474Y1197340D02*
X1597974D01*
X1585474Y1220740D02*
X1597974D01*
X1084430Y388820D02*
X1094430D01*
X1084430D02*
Y510820D01*
X1100430Y530820D02*
X1199430D01*
Y540820D01*
X1209430D01*
X1224430Y388820D02*
Y519820D01*
X1172430Y388820D02*
X1224430D01*
X1128430D02*
X1150430D01*
X1441290Y1096012D02*
X1446368Y1101090D01*
X1441290D02*
X1446368Y1096012D01*
X1441290Y1098551D02*
X1446368D01*
X1443829Y1101090D02*
Y1096012D01*
X1557021Y591820D02*
Y596898D01*
X1560830D01*
X1559560Y594359D01*
Y593089D01*
X1560830Y591820D01*
X1563369D01*
X1564639Y593089D01*
Y595628D01*
X1563369Y596898D01*
X1557021Y589280D02*
X1562100D01*
X1564639Y586741D01*
X1562100Y584202D01*
X1557021D01*
X1460499Y457196D02*
X1452881D01*
Y453387D01*
X1454151Y452118D01*
X1456690D01*
X1457959Y453387D01*
Y457196D01*
Y454657D02*
X1460499Y452118D01*
Y449578D02*
Y447039D01*
Y448309D01*
X1452881D01*
X1454151Y449578D01*
X1460499Y443230D02*
Y440691D01*
Y441961D01*
X1452881D01*
X1454151Y443230D01*
X1460499Y431804D02*
Y436883D01*
X1455420Y431804D01*
X1454151D01*
X1452881Y433074D01*
Y435613D01*
X1454151Y436883D01*
X1489708Y441320D02*
Y446399D01*
X1492247Y443859D01*
X1488862D01*
X1487169Y441320D02*
Y442167D01*
X1486322D01*
Y441320D01*
X1487169D01*
X1482937Y446399D02*
X1479551D01*
Y445552D01*
X1482937Y442167D01*
Y441320D01*
X1477858Y446399D02*
Y441320D01*
Y443013D01*
X1474473Y446399D01*
X1477012Y443859D01*
X1474473Y441320D01*
X1504951Y364494D02*
X1512569D01*
Y368303D01*
X1511299Y369572D01*
X1508760D01*
X1507490Y368303D01*
Y364494D01*
Y367033D02*
X1504951Y369572D01*
Y372112D02*
Y374651D01*
Y373381D01*
X1512569D01*
X1511299Y372112D01*
X1504951Y378460D02*
Y380999D01*
Y379729D01*
X1512569D01*
X1511299Y378460D01*
Y384808D02*
X1512569Y386077D01*
Y388616D01*
X1511299Y389886D01*
X1510030D01*
X1508760Y388616D01*
Y387347D01*
Y388616D01*
X1507490Y389886D01*
X1506221D01*
X1504951Y388616D01*
Y386077D01*
X1506221Y384808D01*
X1489708Y374651D02*
Y379729D01*
X1492247Y377190D01*
X1488862D01*
X1487169Y374651D02*
Y375497D01*
X1486322D01*
Y374651D01*
X1487169D01*
X1482937Y379729D02*
X1479551D01*
Y378883D01*
X1482937Y375497D01*
Y374651D01*
X1477858Y379729D02*
Y374651D01*
Y376344D01*
X1474473Y379729D01*
X1477012Y377190D01*
X1474473Y374651D01*
X1631949Y327656D02*
X1624331D01*
Y323847D01*
X1625601Y322578D01*
X1628140D01*
X1629409Y323847D01*
Y327656D01*
Y325117D02*
X1631949Y322578D01*
Y320038D02*
Y317499D01*
Y318769D01*
X1624331D01*
X1625601Y320038D01*
X1631949Y313690D02*
Y311151D01*
Y312421D01*
X1624331D01*
X1625601Y313690D01*
X1624331Y307342D02*
Y302264D01*
X1625601D01*
X1630679Y307342D01*
X1631949D01*
X1609088Y312421D02*
Y317499D01*
X1611627Y314960D01*
X1608241D01*
X1606549Y312421D02*
Y313267D01*
X1605702D01*
Y312421D01*
X1606549D01*
X1602317Y317499D02*
X1598931D01*
Y316653D01*
X1602317Y313267D01*
Y312421D01*
X1597238Y317499D02*
Y312421D01*
Y314114D01*
X1593853Y317499D01*
X1596392Y314960D01*
X1593853Y312421D01*
X1555751Y784860D02*
Y789938D01*
X1559560D01*
X1558290Y787399D01*
Y786129D01*
X1559560Y784860D01*
X1562099D01*
X1563369Y786129D01*
Y788668D01*
X1562099Y789938D01*
X1555751Y782320D02*
X1560829D01*
X1563369Y779781D01*
X1560829Y777242D01*
X1555751D01*
X1557021Y432432D02*
X1562100D01*
X1564639Y429893D01*
X1562100Y427354D01*
X1557021D01*
Y424814D02*
Y422275D01*
Y423545D01*
X1564639D01*
Y424814D01*
Y422275D01*
Y418466D02*
X1557021D01*
X1564639Y413388D01*
X1557021D01*
X1557021Y398780D02*
Y403858D01*
X1560830D01*
X1559560Y401319D01*
Y400049D01*
X1560830Y398780D01*
X1563369D01*
X1564639Y400049D01*
Y402588D01*
X1563369Y403858D01*
X1559560Y396240D02*
X1564639Y393701D01*
X1559560Y391162D01*
X1615766Y393371D02*
Y400989D01*
X1611957D01*
X1610688Y399719D01*
Y397180D01*
X1611957Y395910D01*
X1615766D01*
X1613227D02*
X1610688Y393371D01*
X1608148D02*
X1605609D01*
X1606879D01*
Y400989D01*
X1608148Y399719D01*
X1601800Y393371D02*
X1599261D01*
X1600531D01*
Y400989D01*
X1601800Y399719D01*
X1590374Y400989D02*
X1592913Y399719D01*
X1595453Y397180D01*
Y394641D01*
X1594183Y393371D01*
X1591644D01*
X1590374Y394641D01*
Y395910D01*
X1591644Y397180D01*
X1595453D01*
X1610358Y379731D02*
Y384809D01*
X1612897Y382270D01*
X1609512D01*
X1607819Y379731D02*
Y380577D01*
X1606972D01*
Y379731D01*
X1607819D01*
X1603587Y384809D02*
X1600201D01*
Y383963D01*
X1603587Y380577D01*
Y379731D01*
X1598508Y384809D02*
Y379731D01*
Y381424D01*
X1595123Y384809D01*
X1597662Y382270D01*
X1595123Y379731D01*
X1557021Y528952D02*
X1562100D01*
X1564639Y526413D01*
X1562100Y523874D01*
X1557021D01*
Y521334D02*
Y518795D01*
Y520065D01*
X1564639D01*
Y521334D01*
Y518795D01*
Y514986D02*
X1557021D01*
X1564639Y509908D01*
X1557021D01*
Y495300D02*
Y500378D01*
X1560830D01*
X1559560Y497839D01*
Y496569D01*
X1560830Y495300D01*
X1563369D01*
X1564639Y496569D01*
Y499108D01*
X1563369Y500378D01*
X1557021Y492760D02*
X1562100D01*
X1564639Y490221D01*
X1562100Y487682D01*
X1557021D01*
Y688340D02*
Y693418D01*
X1560830D01*
X1559560Y690879D01*
Y689609D01*
X1560830Y688340D01*
X1563369D01*
X1564639Y689609D01*
Y692148D01*
X1563369Y693418D01*
X1557021Y685800D02*
X1562100D01*
X1564639Y683261D01*
X1562100Y680722D01*
X1557021D01*
X1555751Y818512D02*
X1560830D01*
X1563369Y815973D01*
X1560830Y813434D01*
X1555751D01*
Y810894D02*
Y808355D01*
Y809625D01*
X1563369D01*
Y810894D01*
Y808355D01*
Y804546D02*
X1555751D01*
X1563369Y799468D01*
X1555751D01*
X1557021Y721992D02*
X1562100D01*
X1564639Y719453D01*
X1562100Y716914D01*
X1557021D01*
Y714374D02*
Y711835D01*
Y713105D01*
X1564639D01*
Y714374D01*
Y711835D01*
Y708026D02*
X1557021D01*
X1564639Y702948D01*
X1557021D01*
X1677671Y336550D02*
Y341628D01*
X1681480D01*
X1680210Y339089D01*
Y337819D01*
X1681480Y336550D01*
X1684019D01*
X1685289Y337819D01*
Y340358D01*
X1684019Y341628D01*
X1677671Y334010D02*
X1682750D01*
X1685289Y331471D01*
X1682750Y328932D01*
X1677671D01*
X1557021Y625472D02*
X1562100D01*
X1564639Y622933D01*
X1562100Y620394D01*
X1557021D01*
Y617854D02*
Y615315D01*
Y616585D01*
X1564639D01*
Y617854D01*
Y615315D01*
Y611506D02*
X1557021D01*
X1564639Y606428D01*
X1557021D01*
X1677671Y370202D02*
X1682750D01*
X1685289Y367663D01*
X1682750Y365124D01*
X1677671D01*
Y362584D02*
Y360045D01*
Y361315D01*
X1685289D01*
Y362584D01*
Y360045D01*
Y356236D02*
X1677671D01*
X1685289Y351158D01*
X1677671D01*
X1604644Y365761D02*
Y370839D01*
X1605913Y372109D01*
X1608452D01*
X1609722Y370839D01*
Y365761D01*
X1608452Y364491D01*
X1605913D01*
X1607183Y367030D02*
X1604644Y364491D01*
X1605913D02*
X1604644Y365761D01*
X1602104Y364491D02*
X1599565D01*
X1600835D01*
Y372109D01*
X1602104Y370839D01*
X1590678Y372109D02*
X1595756D01*
Y368300D01*
X1593217Y369570D01*
X1591948D01*
X1590678Y368300D01*
Y365761D01*
X1591948Y364491D01*
X1594487D01*
X1595756Y365761D01*
X1625596Y350519D02*
Y345441D01*
X1623056D01*
X1622210Y346287D01*
Y347134D01*
X1623056Y347980D01*
X1625596D01*
X1623056D01*
X1622210Y348826D01*
Y349673D01*
X1623056Y350519D01*
X1625596D01*
X1617132Y349673D02*
X1617978Y350519D01*
X1619671D01*
X1620517Y349673D01*
Y348826D01*
X1619671Y347980D01*
X1617978D01*
X1617132Y347134D01*
Y346287D01*
X1617978Y345441D01*
X1619671D01*
X1620517Y346287D01*
X1612053Y349673D02*
X1612900Y350519D01*
X1614592D01*
X1615439Y349673D01*
Y348826D01*
X1614592Y347980D01*
X1612900D01*
X1612053Y347134D01*
Y346287D01*
X1612900Y345441D01*
X1614592D01*
X1615439Y346287D01*
X1610360Y345441D02*
X1608668D01*
X1609514D01*
Y350519D01*
X1610360Y349673D01*
X1606128D02*
X1605282Y350519D01*
X1603589D01*
X1602743Y349673D01*
Y348826D01*
X1603589Y347980D01*
X1604436D01*
X1603589D01*
X1602743Y347134D01*
Y346287D01*
X1603589Y345441D01*
X1605282D01*
X1606128Y346287D01*
X1601050Y349673D02*
X1600204Y350519D01*
X1598511D01*
X1597664Y349673D01*
Y348826D01*
X1598511Y347980D01*
X1597664Y347134D01*
Y346287D01*
X1598511Y345441D01*
X1600204D01*
X1601050Y346287D01*
Y347134D01*
X1600204Y347980D01*
X1601050Y348826D01*
Y349673D01*
X1600204Y347980D02*
X1598511D01*
X1485264Y427991D02*
Y433069D01*
X1486533Y434339D01*
X1489072D01*
X1490342Y433069D01*
Y427991D01*
X1489072Y426721D01*
X1486533D01*
X1487803Y429260D02*
X1485264Y426721D01*
X1486533D02*
X1485264Y427991D01*
X1482724Y426721D02*
X1480185D01*
X1481455D01*
Y434339D01*
X1482724Y433069D01*
X1472568Y426721D02*
Y434339D01*
X1476376Y430530D01*
X1471298D01*
X1506216Y412749D02*
Y407671D01*
X1503676D01*
X1502830Y408517D01*
Y409364D01*
X1503676Y410210D01*
X1506216D01*
X1503676D01*
X1502830Y411056D01*
Y411903D01*
X1503676Y412749D01*
X1506216D01*
X1497751Y411903D02*
X1498598Y412749D01*
X1500291D01*
X1501137Y411903D01*
Y411056D01*
X1500291Y410210D01*
X1498598D01*
X1497751Y409364D01*
Y408517D01*
X1498598Y407671D01*
X1500291D01*
X1501137Y408517D01*
X1492673Y411903D02*
X1493520Y412749D01*
X1495212D01*
X1496059Y411903D01*
Y411056D01*
X1495212Y410210D01*
X1493520D01*
X1492673Y409364D01*
Y408517D01*
X1493520Y407671D01*
X1495212D01*
X1496059Y408517D01*
X1490980Y407671D02*
X1489288D01*
X1490134D01*
Y412749D01*
X1490980Y411903D01*
X1486748D02*
X1485902Y412749D01*
X1484209D01*
X1483363Y411903D01*
Y411056D01*
X1484209Y410210D01*
X1485056D01*
X1484209D01*
X1483363Y409364D01*
Y408517D01*
X1484209Y407671D01*
X1485902D01*
X1486748Y408517D01*
X1481670Y411903D02*
X1480824Y412749D01*
X1479131D01*
X1478284Y411903D01*
Y411056D01*
X1479131Y410210D01*
X1478284Y409364D01*
Y408517D01*
X1479131Y407671D01*
X1480824D01*
X1481670Y408517D01*
Y409364D01*
X1480824Y410210D01*
X1481670Y411056D01*
Y411903D01*
X1480824Y410210D02*
X1479131D01*
X1654811Y1184908D02*
X1653541Y1186178D01*
Y1188717D01*
X1654811Y1189987D01*
X1659889D01*
X1661159Y1188717D01*
Y1186178D01*
X1659889Y1184908D01*
X1653541Y1182369D02*
Y1177291D01*
X1654811D01*
X1659889Y1182369D01*
X1661159D01*
Y1169673D02*
Y1174752D01*
X1656080Y1169673D01*
X1654811D01*
X1653541Y1170943D01*
Y1173482D01*
X1654811Y1174752D01*
X1634917Y1191341D02*
X1634071Y1190494D01*
Y1188801D01*
X1634917Y1187955D01*
X1638303D01*
X1639149Y1188801D01*
Y1190494D01*
X1638303Y1191341D01*
X1634917D01*
X1639149Y1186262D02*
X1638303D01*
Y1185416D01*
X1639149D01*
Y1186262D01*
Y1182030D02*
Y1180338D01*
Y1181184D01*
X1634071D01*
X1634917Y1182030D01*
X1636610Y1177798D02*
Y1176106D01*
X1637457Y1177798D02*
Y1176106D01*
X1634071D02*
X1639996D01*
X1634071Y1171027D02*
Y1174413D01*
X1636610D01*
Y1172720D01*
Y1174413D01*
X1639149D01*
X1737359Y494661D02*
X1729741D01*
Y490852D01*
X1731011Y489582D01*
X1733550D01*
X1734819Y490852D01*
Y494661D01*
Y492122D02*
X1737359Y489582D01*
Y487043D02*
Y484504D01*
Y485774D01*
X1729741D01*
X1731011Y487043D01*
Y480695D02*
X1729741Y479426D01*
Y476886D01*
X1731011Y475617D01*
X1736089D01*
X1737359Y476886D01*
Y479426D01*
X1736089Y480695D01*
X1731011D01*
X1729741Y473078D02*
Y467999D01*
X1731011D01*
X1736089Y473078D01*
X1737359D01*
X1709929Y478790D02*
Y483868D01*
X1712468Y481329D01*
X1709082D01*
X1707390Y483868D02*
X1704004D01*
Y483022D01*
X1707390Y479636D01*
Y478790D01*
X1702311Y483868D02*
Y478790D01*
Y480483D01*
X1698926Y483868D01*
X1701465Y481329D01*
X1698926Y478790D01*
X1727834Y411479D02*
X1730373D01*
X1729104D01*
Y405131D01*
X1730373Y403861D01*
X1731643D01*
X1732912Y405131D01*
X1725295Y403861D02*
X1722756D01*
X1724025D01*
Y411479D01*
X1725295Y410209D01*
X1718947Y403861D02*
X1716408D01*
X1717677D01*
Y411479D01*
X1718947Y410209D01*
X1706805Y472768D02*
X1701726D01*
X1703419Y471075D01*
X1701726Y469382D01*
X1706805D01*
X1702573Y464304D02*
X1701726Y465150D01*
Y466843D01*
X1702573Y467689D01*
X1705958D01*
X1706805Y466843D01*
Y465150D01*
X1705958Y464304D01*
X1706805Y462611D02*
X1701726D01*
Y460072D01*
X1702573Y459225D01*
X1704265D01*
X1705112Y460072D01*
Y462611D01*
X1706805Y454147D02*
Y457533D01*
X1703419Y454147D01*
X1702573D01*
X1701726Y454993D01*
Y456686D01*
X1702573Y457533D01*
X1701726Y449069D02*
Y452454D01*
X1704265D01*
X1703419Y450761D01*
Y449915D01*
X1704265Y449069D01*
X1705958D01*
X1706805Y449915D01*
Y451608D01*
X1705958Y452454D01*
X1701726Y443990D02*
Y447376D01*
X1704265D01*
X1703419Y445683D01*
Y444837D01*
X1704265Y443990D01*
X1705958D01*
X1706805Y444837D01*
Y446530D01*
X1705958Y447376D01*
X1706805Y442298D02*
Y440605D01*
Y441451D01*
X1701726D01*
X1702573Y442298D01*
X1701726Y438066D02*
Y434680D01*
Y436373D01*
X1706805D01*
X1704265Y432987D02*
Y429602D01*
X1701726Y427909D02*
Y426216D01*
Y427062D01*
X1706805D01*
Y427909D01*
Y426216D01*
Y423677D02*
X1703419Y420291D01*
X1702573Y415213D02*
X1701726Y416059D01*
Y417752D01*
X1702573Y418599D01*
X1703419D01*
X1704265Y417752D01*
Y416059D01*
X1705112Y415213D01*
X1705958D01*
X1706805Y416059D01*
Y417752D01*
X1705958Y418599D01*
X1706805Y413520D02*
X1701726D01*
X1706805Y410135D01*
X1701726D01*
X1757678Y421639D02*
X1758948Y422909D01*
X1761487D01*
X1762757Y421639D01*
Y416561D01*
X1761487Y415291D01*
X1758948D01*
X1757678Y416561D01*
X1755139Y422909D02*
X1750061D01*
Y421639D01*
X1755139Y416561D01*
Y415291D01*
X1747522Y421639D02*
X1746252Y422909D01*
X1743713D01*
X1742443Y421639D01*
Y416561D01*
X1743713Y415291D01*
X1746252D01*
X1747522Y416561D01*
Y421639D01*
X1762760Y442890D02*
X1761914Y443736D01*
X1760221D01*
X1759374Y442890D01*
Y439504D01*
X1760221Y438658D01*
X1761914D01*
X1762760Y439504D01*
Y442890D01*
X1757682Y438658D02*
Y439504D01*
X1756835D01*
Y438658D01*
X1757682D01*
X1753450D02*
X1751757D01*
X1752603D01*
Y443736D01*
X1753450Y442890D01*
X1749218Y441197D02*
X1747525D01*
X1749218Y440351D02*
X1747525D01*
Y443736D02*
Y437812D01*
X1742447Y443736D02*
X1745832D01*
Y441197D01*
X1744139D01*
X1745832D01*
Y438658D01*
X1657348Y410209D02*
X1658618Y411479D01*
X1661157D01*
X1662427Y410209D01*
Y405131D01*
X1661157Y403861D01*
X1658618D01*
X1657348Y405131D01*
X1649731Y411479D02*
X1652270Y410209D01*
X1654809Y407670D01*
Y405131D01*
X1653540Y403861D01*
X1651000D01*
X1649731Y405131D01*
Y406400D01*
X1651000Y407670D01*
X1654809D01*
X1647192Y405131D02*
X1645922Y403861D01*
X1643383D01*
X1642113Y405131D01*
Y410209D01*
X1643383Y411479D01*
X1645922D01*
X1647192Y410209D01*
Y408940D01*
X1645922Y407670D01*
X1642113D01*
X1662430Y431460D02*
X1661584Y432306D01*
X1659891D01*
X1659044Y431460D01*
Y428074D01*
X1659891Y427228D01*
X1661584D01*
X1662430Y428074D01*
Y431460D01*
X1657352Y427228D02*
Y428074D01*
X1656505D01*
Y427228D01*
X1657352D01*
X1653120D02*
X1651427D01*
X1652273D01*
Y432306D01*
X1653120Y431460D01*
X1648888Y429767D02*
X1647195D01*
X1648888Y428921D02*
X1647195D01*
Y432306D02*
Y426382D01*
X1642117Y432306D02*
X1645502D01*
Y429767D01*
X1643809D01*
X1645502D01*
Y427228D01*
X1662428Y449579D02*
X1663698Y450849D01*
X1666237D01*
X1667507Y449579D01*
Y444501D01*
X1666237Y443231D01*
X1663698D01*
X1662428Y444501D01*
X1654811Y450849D02*
X1657350Y449579D01*
X1659889Y447040D01*
Y444501D01*
X1658620Y443231D01*
X1656080D01*
X1654811Y444501D01*
Y445770D01*
X1656080Y447040D01*
X1659889D01*
X1652272Y449579D02*
X1651002Y450849D01*
X1648463D01*
X1647193Y449579D01*
Y448310D01*
X1648463Y447040D01*
X1647193Y445770D01*
Y444501D01*
X1648463Y443231D01*
X1651002D01*
X1652272Y444501D01*
Y445770D01*
X1651002Y447040D01*
X1652272Y448310D01*
Y449579D01*
X1651002Y447040D02*
X1648463D01*
X1667510Y469560D02*
X1666664Y470406D01*
X1664971D01*
X1664124Y469560D01*
Y466174D01*
X1664971Y465328D01*
X1666664D01*
X1667510Y466174D01*
Y469560D01*
X1662432Y465328D02*
Y466174D01*
X1661585D01*
Y465328D01*
X1662432D01*
X1658200D02*
X1656507D01*
X1657353D01*
Y470406D01*
X1658200Y469560D01*
X1653968Y467867D02*
X1652275D01*
X1653968Y467021D02*
X1652275D01*
Y470406D02*
Y464482D01*
X1647197Y470406D02*
X1650582D01*
Y467867D01*
X1648889D01*
X1650582D01*
Y465328D01*
X1402078Y1150621D02*
Y1158239D01*
X1398269D01*
X1397000Y1156969D01*
Y1154430D01*
X1398269Y1153160D01*
X1402078D01*
X1399539D02*
X1397000Y1150621D01*
X1394460Y1158239D02*
X1389382D01*
Y1156969D01*
X1394460Y1151891D01*
Y1150621D01*
X1402080Y1123950D02*
X1400387D01*
X1401234D01*
Y1129028D01*
X1402080Y1128182D01*
X1397848D02*
X1397002Y1129028D01*
X1395309D01*
X1394462Y1128182D01*
Y1124796D01*
X1395309Y1123950D01*
X1397002D01*
X1397848Y1124796D01*
Y1128182D01*
X1392770Y1129028D02*
Y1123950D01*
Y1125643D01*
X1389384Y1129028D01*
X1391923Y1126489D01*
X1389384Y1123950D01*
X1438909Y1078862D02*
X1431291D01*
Y1075053D01*
X1432561Y1073784D01*
X1435100D01*
X1436370Y1075053D01*
Y1078862D01*
Y1076323D02*
X1438909Y1073784D01*
Y1071244D02*
Y1068705D01*
Y1069975D01*
X1431291D01*
X1432561Y1071244D01*
X1431291Y1059818D02*
X1432561Y1062357D01*
X1435100Y1064896D01*
X1437639D01*
X1438909Y1063627D01*
Y1061088D01*
X1437639Y1059818D01*
X1436370D01*
X1435100Y1061088D01*
Y1064896D01*
X1416050Y1066800D02*
X1414357D01*
X1415204D01*
Y1071878D01*
X1416050Y1071032D01*
X1411818D02*
X1410972Y1071878D01*
X1409279D01*
X1408432Y1071032D01*
Y1067646D01*
X1409279Y1066800D01*
X1410972D01*
X1411818Y1067646D01*
Y1071032D01*
X1406740D02*
X1405893Y1071878D01*
X1404200D01*
X1403354Y1071032D01*
Y1067646D01*
X1404200Y1066800D01*
X1405893D01*
X1406740Y1067646D01*
Y1071032D01*
X1401661Y1071878D02*
Y1066800D01*
Y1068493D01*
X1398276Y1071878D01*
X1400815Y1069339D01*
X1398276Y1066800D01*
X1377947Y1021081D02*
Y1028699D01*
X1374138D01*
X1372868Y1027429D01*
Y1024890D01*
X1374138Y1023620D01*
X1377947D01*
X1375408D02*
X1372868Y1021081D01*
X1365251D02*
X1370329D01*
X1365251Y1026160D01*
Y1027429D01*
X1366520Y1028699D01*
X1369060D01*
X1370329Y1027429D01*
X1362712Y1028699D02*
X1357633D01*
Y1027429D01*
X1362712Y1022351D01*
Y1021081D01*
X1374140Y1050290D02*
X1372447D01*
X1373294D01*
Y1055368D01*
X1374140Y1054522D01*
X1366523Y1055368D02*
X1369908D01*
Y1052829D01*
X1368215Y1053676D01*
X1367369D01*
X1366523Y1052829D01*
Y1051136D01*
X1367369Y1050290D01*
X1369062D01*
X1369908Y1051136D01*
X1364830Y1054522D02*
X1363983Y1055368D01*
X1362290D01*
X1361444Y1054522D01*
Y1051136D01*
X1362290Y1050290D01*
X1363983D01*
X1364830Y1051136D01*
Y1054522D01*
X1159507Y833121D02*
Y840739D01*
X1155698D01*
X1154429Y839469D01*
Y836930D01*
X1155698Y835660D01*
X1159507D01*
X1156968D02*
X1154429Y833121D01*
X1151890Y839469D02*
X1150620Y840739D01*
X1148081D01*
X1146811Y839469D01*
Y838200D01*
X1148081Y836930D01*
X1146811Y835660D01*
Y834391D01*
X1148081Y833121D01*
X1150620D01*
X1151890Y834391D01*
Y835660D01*
X1150620Y836930D01*
X1151890Y838200D01*
Y839469D01*
X1150620Y836930D02*
X1148081D01*
X1144272Y833121D02*
X1141733D01*
X1143002D01*
Y840739D01*
X1144272Y839469D01*
X1156970Y862330D02*
X1155277D01*
X1156124D01*
Y867408D01*
X1156970Y866562D01*
X1152738D02*
X1151892Y867408D01*
X1150199D01*
X1149352Y866562D01*
Y863176D01*
X1150199Y862330D01*
X1151892D01*
X1152738Y863176D01*
Y866562D01*
X1147660Y867408D02*
Y862330D01*
Y864023D01*
X1144274Y867408D01*
X1146813Y864869D01*
X1144274Y862330D01*
X999487Y755651D02*
Y763269D01*
X995678D01*
X994408Y761999D01*
Y759460D01*
X995678Y758190D01*
X999487D01*
X996947D02*
X994408Y755651D01*
X991869Y761999D02*
X990600Y763269D01*
X988060D01*
X986791Y761999D01*
Y760730D01*
X988060Y759460D01*
X986791Y758190D01*
Y756921D01*
X988060Y755651D01*
X990600D01*
X991869Y756921D01*
Y758190D01*
X990600Y759460D01*
X991869Y760730D01*
Y761999D01*
X990600Y759460D02*
X988060D01*
X979173Y763269D02*
X984252D01*
Y759460D01*
X981712Y760730D01*
X980443D01*
X979173Y759460D01*
Y756921D01*
X980443Y755651D01*
X982982D01*
X984252Y756921D01*
X995680Y783590D02*
X993987D01*
X994834D01*
Y788668D01*
X995680Y787822D01*
X991448D02*
X990602Y788668D01*
X988909D01*
X988063Y787822D01*
Y784436D01*
X988909Y783590D01*
X990602D01*
X991448Y784436D01*
Y787822D01*
X986370Y788668D02*
Y783590D01*
Y785283D01*
X982984Y788668D01*
X985523Y786129D01*
X982984Y783590D01*
X999487Y833121D02*
Y840739D01*
X995678D01*
X994408Y839469D01*
Y836930D01*
X995678Y835660D01*
X999487D01*
X996947D02*
X994408Y833121D01*
X991869Y840739D02*
X986791D01*
Y839469D01*
X991869Y834391D01*
Y833121D01*
X984252Y834391D02*
X982982Y833121D01*
X980443D01*
X979173Y834391D01*
Y839469D01*
X980443Y840739D01*
X982982D01*
X984252Y839469D01*
Y838200D01*
X982982Y836930D01*
X979173D01*
X995680Y862330D02*
X993987D01*
X994834D01*
Y867408D01*
X995680Y866562D01*
X991448D02*
X990602Y867408D01*
X988909D01*
X988063Y866562D01*
Y863176D01*
X988909Y862330D01*
X990602D01*
X991448Y863176D01*
Y866562D01*
X986370Y867408D02*
Y862330D01*
Y864023D01*
X982984Y867408D01*
X985523Y864869D01*
X982984Y862330D01*
X839467Y833121D02*
Y840739D01*
X835658D01*
X834388Y839469D01*
Y836930D01*
X835658Y835660D01*
X839467D01*
X836927D02*
X834388Y833121D01*
X831849Y840739D02*
X826771D01*
Y839469D01*
X831849Y834391D01*
Y833121D01*
X824232Y840739D02*
X819153D01*
Y839469D01*
X824232Y834391D01*
Y833121D01*
X835660Y862838D02*
X833967D01*
X834814D01*
Y867916D01*
X835660Y867070D01*
X831428D02*
X830582Y867916D01*
X828889D01*
X828043Y867070D01*
Y863684D01*
X828889Y862838D01*
X830582D01*
X831428Y863684D01*
Y867070D01*
X826350Y867916D02*
Y862838D01*
Y864531D01*
X822964Y867916D01*
X825503Y865377D01*
X822964Y862838D01*
X1080767Y754381D02*
Y761999D01*
X1076958D01*
X1075688Y760729D01*
Y758190D01*
X1076958Y756920D01*
X1080767D01*
X1078227D02*
X1075688Y754381D01*
X1073149Y760729D02*
X1071880Y761999D01*
X1069340D01*
X1068071Y760729D01*
Y759460D01*
X1069340Y758190D01*
X1068071Y756920D01*
Y755651D01*
X1069340Y754381D01*
X1071880D01*
X1073149Y755651D01*
Y756920D01*
X1071880Y758190D01*
X1073149Y759460D01*
Y760729D01*
X1071880Y758190D02*
X1069340D01*
X1060453Y761999D02*
X1062992Y760729D01*
X1065532Y758190D01*
Y755651D01*
X1064262Y754381D01*
X1061723D01*
X1060453Y755651D01*
Y756920D01*
X1061723Y758190D01*
X1065532D01*
X1076960Y784860D02*
X1075267D01*
X1076114D01*
Y789938D01*
X1076960Y789092D01*
X1072728D02*
X1071882Y789938D01*
X1070189D01*
X1069342Y789092D01*
Y785706D01*
X1070189Y784860D01*
X1071882D01*
X1072728Y785706D01*
Y789092D01*
X1067650Y789938D02*
Y784860D01*
Y786553D01*
X1064264Y789938D01*
X1066803Y787399D01*
X1064264Y784860D01*
X1080767Y833121D02*
Y840739D01*
X1076958D01*
X1075688Y839469D01*
Y836930D01*
X1076958Y835660D01*
X1080767D01*
X1078227D02*
X1075688Y833121D01*
X1073149Y839469D02*
X1071880Y840739D01*
X1069340D01*
X1068071Y839469D01*
Y838200D01*
X1069340Y836930D01*
X1068071Y835660D01*
Y834391D01*
X1069340Y833121D01*
X1071880D01*
X1073149Y834391D01*
Y835660D01*
X1071880Y836930D01*
X1073149Y838200D01*
Y839469D01*
X1071880Y836930D02*
X1069340D01*
X1065532Y839469D02*
X1064262Y840739D01*
X1061723D01*
X1060453Y839469D01*
Y834391D01*
X1061723Y833121D01*
X1064262D01*
X1065532Y834391D01*
Y839469D01*
X1076960Y862330D02*
X1075267D01*
X1076114D01*
Y867408D01*
X1076960Y866562D01*
X1072728D02*
X1071882Y867408D01*
X1070189D01*
X1069342Y866562D01*
Y863176D01*
X1070189Y862330D01*
X1071882D01*
X1072728Y863176D01*
Y866562D01*
X1067650Y867408D02*
Y862330D01*
Y864023D01*
X1064264Y867408D01*
X1066803Y864869D01*
X1064264Y862330D01*
X980439Y812797D02*
X972821D01*
Y808988D01*
X974091Y807718D01*
X976630D01*
X977900Y808988D01*
Y812797D01*
Y810257D02*
X980439Y807718D01*
X972821Y805179D02*
Y800101D01*
X974091D01*
X979169Y805179D01*
X980439D01*
X974091Y797562D02*
X972821Y796292D01*
Y793753D01*
X974091Y792483D01*
X975360D01*
X976630Y793753D01*
Y795022D01*
Y793753D01*
X977900Y792483D01*
X979169D01*
X980439Y793753D01*
Y796292D01*
X979169Y797562D01*
X955464Y805178D02*
X958850D01*
Y802639D01*
X957157Y803486D01*
X956311D01*
X955464Y802639D01*
Y800946D01*
X956311Y800100D01*
X958004D01*
X958850Y800946D01*
X953772Y800100D02*
Y800946D01*
X952925D01*
Y800100D01*
X953772D01*
X946154Y805178D02*
X947847Y804332D01*
X949540Y802639D01*
Y800946D01*
X948693Y800100D01*
X947001D01*
X946154Y800946D01*
Y801793D01*
X947001Y802639D01*
X949540D01*
X944461Y805178D02*
Y800100D01*
Y801793D01*
X941076Y805178D01*
X943615Y802639D01*
X941076Y800100D01*
X1219199Y891537D02*
X1211581D01*
Y887728D01*
X1212851Y886458D01*
X1215390D01*
X1216660Y887728D01*
Y891537D01*
Y888997D02*
X1219199Y886458D01*
X1211581Y883919D02*
Y878841D01*
X1212851D01*
X1217929Y883919D01*
X1219199D01*
X1212851Y876302D02*
X1211581Y875032D01*
Y872493D01*
X1212851Y871223D01*
X1217929D01*
X1219199Y872493D01*
Y875032D01*
X1217929Y876302D01*
X1212851D01*
X1196764Y883918D02*
X1200150D01*
Y881379D01*
X1198457Y882226D01*
X1197611D01*
X1196764Y881379D01*
Y879686D01*
X1197611Y878840D01*
X1199304D01*
X1200150Y879686D01*
X1195072Y878840D02*
Y879686D01*
X1194225D01*
Y878840D01*
X1195072D01*
X1187454Y883918D02*
X1189147Y883072D01*
X1190840Y881379D01*
Y879686D01*
X1189993Y878840D01*
X1188300D01*
X1187454Y879686D01*
Y880533D01*
X1188300Y881379D01*
X1190840D01*
X1185761Y883918D02*
Y878840D01*
Y880533D01*
X1182376Y883918D01*
X1184915Y881379D01*
X1182376Y878840D01*
X1059179Y890267D02*
X1051561D01*
Y886458D01*
X1052831Y885188D01*
X1055370D01*
X1056640Y886458D01*
Y890267D01*
Y887728D02*
X1059179Y885188D01*
X1051561Y877571D02*
X1052831Y880110D01*
X1055370Y882649D01*
X1057909D01*
X1059179Y881380D01*
Y878840D01*
X1057909Y877571D01*
X1056640D01*
X1055370Y878840D01*
Y882649D01*
X1052831Y875032D02*
X1051561Y873762D01*
Y871223D01*
X1052831Y869953D01*
X1054100D01*
X1055370Y871223D01*
X1056640Y869953D01*
X1057909D01*
X1059179Y871223D01*
Y873762D01*
X1057909Y875032D01*
X1056640D01*
X1055370Y873762D01*
X1054100Y875032D01*
X1052831D01*
X1055370Y873762D02*
Y871223D01*
X1035471Y882649D02*
X1038857D01*
Y880110D01*
X1037164Y880956D01*
X1036318D01*
X1035471Y880110D01*
Y878417D01*
X1036318Y877571D01*
X1038011D01*
X1038857Y878417D01*
X1033779Y877571D02*
Y878417D01*
X1032932D01*
Y877571D01*
X1033779D01*
X1026161Y882649D02*
X1027854Y881803D01*
X1029547Y880110D01*
Y878417D01*
X1028700Y877571D01*
X1027008D01*
X1026161Y878417D01*
Y879264D01*
X1027008Y880110D01*
X1029547D01*
X1024468Y882649D02*
Y877571D01*
Y879264D01*
X1021083Y882649D01*
X1023622Y880110D01*
X1021083Y877571D01*
X767079Y890267D02*
X759461D01*
Y886458D01*
X760731Y885188D01*
X763270D01*
X764540Y886458D01*
Y890267D01*
Y887728D02*
X767079Y885188D01*
Y878840D02*
X759461D01*
X763270Y882649D01*
Y877571D01*
X759461Y869953D02*
X760731Y872492D01*
X763270Y875032D01*
X765809D01*
X767079Y873762D01*
Y871223D01*
X765809Y869953D01*
X764540D01*
X763270Y871223D01*
Y875032D01*
X796714Y882648D02*
X800100D01*
Y880109D01*
X798407Y880956D01*
X797561D01*
X796714Y880109D01*
Y878416D01*
X797561Y877570D01*
X799254D01*
X800100Y878416D01*
X795022Y877570D02*
Y878416D01*
X794175D01*
Y877570D01*
X795022D01*
X787404Y882648D02*
X789097Y881802D01*
X790790Y880109D01*
Y878416D01*
X789943Y877570D01*
X788251D01*
X787404Y878416D01*
Y879263D01*
X788251Y880109D01*
X790790D01*
X785711Y882648D02*
Y877570D01*
Y879263D01*
X782326Y882648D01*
X784865Y880109D01*
X782326Y877570D01*
X839467Y755651D02*
Y763269D01*
X835658D01*
X834388Y761999D01*
Y759460D01*
X835658Y758190D01*
X839467D01*
X836927D02*
X834388Y755651D01*
X831849Y761999D02*
X830580Y763269D01*
X828040D01*
X826771Y761999D01*
Y760730D01*
X828040Y759460D01*
X826771Y758190D01*
Y756921D01*
X828040Y755651D01*
X830580D01*
X831849Y756921D01*
Y758190D01*
X830580Y759460D01*
X831849Y760730D01*
Y761999D01*
X830580Y759460D02*
X828040D01*
X824232Y761999D02*
X822962Y763269D01*
X820423D01*
X819153Y761999D01*
Y760730D01*
X820423Y759460D01*
X821692D01*
X820423D01*
X819153Y758190D01*
Y756921D01*
X820423Y755651D01*
X822962D01*
X824232Y756921D01*
X835660Y784860D02*
X833967D01*
X834814D01*
Y789938D01*
X835660Y789092D01*
X831428D02*
X830582Y789938D01*
X828889D01*
X828043Y789092D01*
Y785706D01*
X828889Y784860D01*
X830582D01*
X831428Y785706D01*
Y789092D01*
X826350Y789938D02*
Y784860D01*
Y786553D01*
X822964Y789938D01*
X825503Y787399D01*
X822964Y784860D01*
X1238247Y834391D02*
Y842009D01*
X1234438D01*
X1233168Y840739D01*
Y838200D01*
X1234438Y836930D01*
X1238247D01*
X1235707D02*
X1233168Y834391D01*
X1230629Y840739D02*
X1229360Y842009D01*
X1226820D01*
X1225551Y840739D01*
Y839470D01*
X1226820Y838200D01*
X1225551Y836930D01*
Y835661D01*
X1226820Y834391D01*
X1229360D01*
X1230629Y835661D01*
Y836930D01*
X1229360Y838200D01*
X1230629Y839470D01*
Y840739D01*
X1229360Y838200D02*
X1226820D01*
X1217933Y834391D02*
X1223012D01*
X1217933Y839470D01*
Y840739D01*
X1219203Y842009D01*
X1221742D01*
X1223012Y840739D01*
X1234440Y863600D02*
X1232747D01*
X1233594D01*
Y868678D01*
X1234440Y867832D01*
X1230208D02*
X1229362Y868678D01*
X1227669D01*
X1226823Y867832D01*
Y864446D01*
X1227669Y863600D01*
X1229362D01*
X1230208Y864446D01*
Y867832D01*
X1225130Y868678D02*
Y863600D01*
Y865293D01*
X1221744Y868678D01*
X1224283Y866139D01*
X1221744Y863600D01*
X979169Y890267D02*
X971551D01*
Y886458D01*
X972821Y885188D01*
X975360D01*
X976630Y886458D01*
Y890267D01*
Y887728D02*
X979169Y885188D01*
Y878840D02*
X971551D01*
X975360Y882649D01*
Y877571D01*
X972821Y875032D02*
X971551Y873762D01*
Y871223D01*
X972821Y869953D01*
X974090D01*
X975360Y871223D01*
X976630Y869953D01*
X977899D01*
X979169Y871223D01*
Y873762D01*
X977899Y875032D01*
X976630D01*
X975360Y873762D01*
X974090Y875032D01*
X972821D01*
X975360Y873762D02*
Y871223D01*
X955464Y882648D02*
X958850D01*
Y880109D01*
X957157Y880956D01*
X956311D01*
X955464Y880109D01*
Y878416D01*
X956311Y877570D01*
X958004D01*
X958850Y878416D01*
X953772Y877570D02*
Y878416D01*
X952925D01*
Y877570D01*
X953772D01*
X946154Y882648D02*
X947847Y881802D01*
X949540Y880109D01*
Y878416D01*
X948693Y877570D01*
X947001D01*
X946154Y878416D01*
Y879263D01*
X947001Y880109D01*
X949540D01*
X944461Y882648D02*
Y877570D01*
Y879263D01*
X941076Y882648D01*
X943615Y880109D01*
X941076Y877570D01*
X919477Y754381D02*
Y761999D01*
X915668D01*
X914398Y760729D01*
Y758190D01*
X915668Y756920D01*
X919477D01*
X916937D02*
X914398Y754381D01*
X911859Y760729D02*
X910590Y761999D01*
X908050D01*
X906781Y760729D01*
Y759460D01*
X908050Y758190D01*
X906781Y756920D01*
Y755651D01*
X908050Y754381D01*
X910590D01*
X911859Y755651D01*
Y756920D01*
X910590Y758190D01*
X911859Y759460D01*
Y760729D01*
X910590Y758190D02*
X908050D01*
X900433Y754381D02*
Y761999D01*
X904242Y758190D01*
X899163D01*
X915670Y783590D02*
X913977D01*
X914824D01*
Y788668D01*
X915670Y787822D01*
X911438D02*
X910592Y788668D01*
X908899D01*
X908053Y787822D01*
Y784436D01*
X908899Y783590D01*
X910592D01*
X911438Y784436D01*
Y787822D01*
X906360Y788668D02*
Y783590D01*
Y785283D01*
X902974Y788668D01*
X905513Y786129D01*
X902974Y783590D01*
X900429Y890267D02*
X892811D01*
Y886458D01*
X894081Y885188D01*
X896620D01*
X897890Y886458D01*
Y890267D01*
Y887728D02*
X900429Y885188D01*
Y878840D02*
X892811D01*
X896620Y882649D01*
Y877571D01*
X892811Y875032D02*
Y869953D01*
X894081D01*
X899159Y875032D01*
X900429D01*
X876216Y882648D02*
X879602D01*
Y880109D01*
X877909Y880956D01*
X877063D01*
X876216Y880109D01*
Y878416D01*
X877063Y877570D01*
X878756D01*
X879602Y878416D01*
X874524Y877570D02*
Y878416D01*
X873677D01*
Y877570D01*
X874524D01*
X866906Y882648D02*
X868599Y881802D01*
X870292Y880109D01*
Y878416D01*
X869445Y877570D01*
X867753D01*
X866906Y878416D01*
Y879263D01*
X867753Y880109D01*
X870292D01*
X865213Y882648D02*
Y877570D01*
Y879263D01*
X861828Y882648D01*
X864367Y880109D01*
X861828Y877570D01*
X1140459Y890267D02*
X1132841D01*
Y886458D01*
X1134111Y885188D01*
X1136650D01*
X1137920Y886458D01*
Y890267D01*
Y887728D02*
X1140459Y885188D01*
X1132841Y877571D02*
X1134111Y880110D01*
X1136650Y882649D01*
X1139189D01*
X1140459Y881380D01*
Y878840D01*
X1139189Y877571D01*
X1137920D01*
X1136650Y878840D01*
Y882649D01*
X1139189Y875032D02*
X1140459Y873762D01*
Y871223D01*
X1139189Y869953D01*
X1134111D01*
X1132841Y871223D01*
Y873762D01*
X1134111Y875032D01*
X1135380D01*
X1136650Y873762D01*
Y869953D01*
X1116754Y882648D02*
X1120140D01*
Y880109D01*
X1118447Y880956D01*
X1117601D01*
X1116754Y880109D01*
Y878416D01*
X1117601Y877570D01*
X1119294D01*
X1120140Y878416D01*
X1115062Y877570D02*
Y878416D01*
X1114215D01*
Y877570D01*
X1115062D01*
X1107444Y882648D02*
X1109137Y881802D01*
X1110830Y880109D01*
Y878416D01*
X1109983Y877570D01*
X1108290D01*
X1107444Y878416D01*
Y879263D01*
X1108290Y880109D01*
X1110830D01*
X1105751Y882648D02*
Y877570D01*
Y879263D01*
X1102366Y882648D01*
X1104905Y880109D01*
X1102366Y877570D01*
X919477Y833121D02*
Y840739D01*
X915668D01*
X914398Y839469D01*
Y836930D01*
X915668Y835660D01*
X919477D01*
X916937D02*
X914398Y833121D01*
X911859Y840739D02*
X906781D01*
Y839469D01*
X911859Y834391D01*
Y833121D01*
X904242Y839469D02*
X902972Y840739D01*
X900433D01*
X899163Y839469D01*
Y838200D01*
X900433Y836930D01*
X899163Y835660D01*
Y834391D01*
X900433Y833121D01*
X902972D01*
X904242Y834391D01*
Y835660D01*
X902972Y836930D01*
X904242Y838200D01*
Y839469D01*
X902972Y836930D02*
X900433D01*
X915670Y862330D02*
X913977D01*
X914824D01*
Y867408D01*
X915670Y866562D01*
X911438D02*
X910592Y867408D01*
X908899D01*
X908053Y866562D01*
Y863176D01*
X908899Y862330D01*
X910592D01*
X911438Y863176D01*
Y866562D01*
X906360Y867408D02*
Y862330D01*
Y864023D01*
X902974Y867408D01*
X905513Y864869D01*
X902974Y862330D01*
X820419Y810257D02*
X812801D01*
Y806448D01*
X814071Y805179D01*
X816610D01*
X817879Y806448D01*
Y810257D01*
Y807718D02*
X820419Y805179D01*
X812801Y802640D02*
Y797561D01*
X814071D01*
X819149Y802640D01*
X820419D01*
Y795022D02*
Y792483D01*
Y793753D01*
X812801D01*
X814071Y795022D01*
X796714Y805178D02*
X800100D01*
Y802639D01*
X798407Y803486D01*
X797561D01*
X796714Y802639D01*
Y800946D01*
X797561Y800100D01*
X799254D01*
X800100Y800946D01*
X795022Y800100D02*
Y800946D01*
X794175D01*
Y800100D01*
X795022D01*
X787404Y805178D02*
X789097Y804332D01*
X790790Y802639D01*
Y800946D01*
X789943Y800100D01*
X788251D01*
X787404Y800946D01*
Y801793D01*
X788251Y802639D01*
X790790D01*
X785711Y805178D02*
Y800100D01*
Y801793D01*
X782326Y805178D01*
X784865Y802639D01*
X782326Y800100D01*
X900429Y812797D02*
X892811D01*
Y808988D01*
X894081Y807718D01*
X896620D01*
X897890Y808988D01*
Y812797D01*
Y810257D02*
X900429Y807718D01*
X892811Y805179D02*
Y800101D01*
X894081D01*
X899159Y805179D01*
X900429D01*
Y792483D02*
Y797562D01*
X895350Y792483D01*
X894081D01*
X892811Y793753D01*
Y796292D01*
X894081Y797562D01*
X876216Y805178D02*
X879602D01*
Y802639D01*
X877909Y803486D01*
X877063D01*
X876216Y802639D01*
Y800946D01*
X877063Y800100D01*
X878756D01*
X879602Y800946D01*
X874524Y800100D02*
Y800946D01*
X873677D01*
Y800100D01*
X874524D01*
X866906Y805178D02*
X868599Y804332D01*
X870292Y802639D01*
Y800946D01*
X869445Y800100D01*
X867753D01*
X866906Y800946D01*
Y801793D01*
X867753Y802639D01*
X870292D01*
X865213Y805178D02*
Y800100D01*
Y801793D01*
X861828Y805178D01*
X864367Y802639D01*
X861828Y800100D01*
X1060449Y812797D02*
X1052831D01*
Y808988D01*
X1054101Y807718D01*
X1056640D01*
X1057910Y808988D01*
Y812797D01*
Y810257D02*
X1060449Y807718D01*
X1052831Y805179D02*
Y800101D01*
X1054101D01*
X1059179Y805179D01*
X1060449D01*
Y793753D02*
X1052831D01*
X1056640Y797562D01*
Y792483D01*
X1035474Y805178D02*
X1038860D01*
Y802639D01*
X1037167Y803486D01*
X1036321D01*
X1035474Y802639D01*
Y800946D01*
X1036321Y800100D01*
X1038014D01*
X1038860Y800946D01*
X1033782Y800100D02*
Y800946D01*
X1032935D01*
Y800100D01*
X1033782D01*
X1026164Y805178D02*
X1027857Y804332D01*
X1029550Y802639D01*
Y800946D01*
X1028703Y800100D01*
X1027010D01*
X1026164Y800946D01*
Y801793D01*
X1027010Y802639D01*
X1029550D01*
X1024471Y805178D02*
Y800100D01*
Y801793D01*
X1021086Y805178D01*
X1023625Y802639D01*
X1021086Y800100D01*
X1504951Y464823D02*
X1512569D01*
Y468632D01*
X1511299Y469902D01*
X1508760D01*
X1507490Y468632D01*
Y464823D01*
Y467363D02*
X1504951Y469902D01*
X1512569Y477519D02*
X1511299Y474980D01*
X1508760Y472441D01*
X1506221D01*
X1504951Y473710D01*
Y476250D01*
X1506221Y477519D01*
X1507490D01*
X1508760Y476250D01*
Y472441D01*
X1512569Y480058D02*
Y485137D01*
X1511299D01*
X1506221Y480058D01*
X1504951D01*
X1489711Y471170D02*
Y476248D01*
X1492250Y473709D01*
X1488864D01*
X1487172Y471170D02*
Y472016D01*
X1486325D01*
Y471170D01*
X1487172D01*
X1482940Y476248D02*
X1479554D01*
Y475402D01*
X1482940Y472016D01*
Y471170D01*
X1477861Y476248D02*
Y471170D01*
Y472863D01*
X1474476Y476248D01*
X1477015Y473709D01*
X1474476Y471170D01*
X1461769Y549907D02*
X1454151D01*
Y546098D01*
X1455421Y544828D01*
X1457960D01*
X1459230Y546098D01*
Y549907D01*
Y547368D02*
X1461769Y544828D01*
X1454151Y537211D02*
X1455421Y539750D01*
X1457960Y542289D01*
X1460499D01*
X1461769Y541020D01*
Y538480D01*
X1460499Y537211D01*
X1459230D01*
X1457960Y538480D01*
Y542289D01*
X1454151Y529593D02*
X1455421Y532132D01*
X1457960Y534672D01*
X1460499D01*
X1461769Y533402D01*
Y530863D01*
X1460499Y529593D01*
X1459230D01*
X1457960Y530863D01*
Y534672D01*
X1489711Y538480D02*
Y543558D01*
X1492250Y541019D01*
X1488864D01*
X1487172Y538480D02*
Y539326D01*
X1486325D01*
Y538480D01*
X1487172D01*
X1482940Y543558D02*
X1479554D01*
Y542712D01*
X1482940Y539326D01*
Y538480D01*
X1477861Y543558D02*
Y538480D01*
Y540173D01*
X1474476Y543558D01*
X1477015Y541019D01*
X1474476Y538480D01*
X1504951Y560073D02*
X1512569D01*
Y563882D01*
X1511299Y565152D01*
X1508760D01*
X1507490Y563882D01*
Y560073D01*
Y562612D02*
X1504951Y565152D01*
X1512569Y572769D02*
X1511299Y570230D01*
X1508760Y567691D01*
X1506221D01*
X1504951Y568960D01*
Y571500D01*
X1506221Y572769D01*
X1507490D01*
X1508760Y571500D01*
Y567691D01*
X1512569Y580387D02*
Y575308D01*
X1508760D01*
X1510030Y577848D01*
Y579117D01*
X1508760Y580387D01*
X1506221D01*
X1504951Y579117D01*
Y576578D01*
X1506221Y575308D01*
X1489711Y567690D02*
Y572768D01*
X1492250Y570229D01*
X1488864D01*
X1487172Y567690D02*
Y568536D01*
X1486325D01*
Y567690D01*
X1487172D01*
X1482940Y572768D02*
X1479554D01*
Y571922D01*
X1482940Y568536D01*
Y567690D01*
X1477861Y572768D02*
Y567690D01*
Y569383D01*
X1474476Y572768D01*
X1477015Y570229D01*
X1474476Y567690D01*
X1461769Y647697D02*
X1454151D01*
Y643888D01*
X1455421Y642618D01*
X1457960D01*
X1459230Y643888D01*
Y647697D01*
Y645157D02*
X1461769Y642618D01*
X1454151Y635001D02*
X1455421Y637540D01*
X1457960Y640079D01*
X1460499D01*
X1461769Y638810D01*
Y636270D01*
X1460499Y635001D01*
X1459230D01*
X1457960Y636270D01*
Y640079D01*
X1461769Y628653D02*
X1454151D01*
X1457960Y632462D01*
Y627383D01*
X1489711Y635000D02*
Y640078D01*
X1492250Y637539D01*
X1488864D01*
X1487172Y635000D02*
Y635846D01*
X1486325D01*
Y635000D01*
X1487172D01*
X1482940Y640078D02*
X1479554D01*
Y639232D01*
X1482940Y635846D01*
Y635000D01*
X1477861Y640078D02*
Y635000D01*
Y636693D01*
X1474476Y640078D01*
X1477015Y637539D01*
X1474476Y635000D01*
X1504951Y656593D02*
X1512569D01*
Y660402D01*
X1511299Y661672D01*
X1508760D01*
X1507490Y660402D01*
Y656593D01*
Y659133D02*
X1504951Y661672D01*
X1512569Y669289D02*
X1511299Y666750D01*
X1508760Y664211D01*
X1506221D01*
X1504951Y665480D01*
Y668020D01*
X1506221Y669289D01*
X1507490D01*
X1508760Y668020D01*
Y664211D01*
X1511299Y671828D02*
X1512569Y673098D01*
Y675637D01*
X1511299Y676907D01*
X1510030D01*
X1508760Y675637D01*
Y674368D01*
Y675637D01*
X1507490Y676907D01*
X1506221D01*
X1504951Y675637D01*
Y673098D01*
X1506221Y671828D01*
X1489711Y664210D02*
Y669288D01*
X1492250Y666749D01*
X1488864D01*
X1487172Y664210D02*
Y665056D01*
X1486325D01*
Y664210D01*
X1487172D01*
X1482940Y669288D02*
X1479554D01*
Y668442D01*
X1482940Y665056D01*
Y664210D01*
X1477861Y669288D02*
Y664210D01*
Y665903D01*
X1474476Y669288D01*
X1477015Y666749D01*
X1474476Y664210D01*
X1461769Y744217D02*
X1454151D01*
Y740408D01*
X1455421Y739138D01*
X1457960D01*
X1459230Y740408D01*
Y744217D01*
Y741677D02*
X1461769Y739138D01*
X1454151Y731521D02*
X1455421Y734060D01*
X1457960Y736599D01*
X1460499D01*
X1461769Y735330D01*
Y732790D01*
X1460499Y731521D01*
X1459230D01*
X1457960Y732790D01*
Y736599D01*
X1461769Y723903D02*
Y728982D01*
X1456690Y723903D01*
X1455421D01*
X1454151Y725173D01*
Y727712D01*
X1455421Y728982D01*
X1489711Y731520D02*
Y736598D01*
X1492250Y734059D01*
X1488864D01*
X1487172Y731520D02*
Y732366D01*
X1486325D01*
Y731520D01*
X1487172D01*
X1482940Y736598D02*
X1479554D01*
Y735752D01*
X1482940Y732366D01*
Y731520D01*
X1477861Y736598D02*
Y731520D01*
Y733213D01*
X1474476Y736598D01*
X1477015Y734059D01*
X1474476Y731520D01*
X1504951Y754383D02*
X1512569D01*
Y758192D01*
X1511299Y759461D01*
X1508760D01*
X1507490Y758192D01*
Y754383D01*
Y756922D02*
X1504951Y759461D01*
X1512569Y767079D02*
X1511299Y764540D01*
X1508760Y762000D01*
X1506221D01*
X1504951Y763270D01*
Y765809D01*
X1506221Y767079D01*
X1507490D01*
X1508760Y765809D01*
Y762000D01*
X1504951Y769618D02*
Y772157D01*
Y770888D01*
X1512569D01*
X1511299Y769618D01*
X1489711Y760730D02*
Y765808D01*
X1492250Y763269D01*
X1488864D01*
X1487172Y760730D02*
Y761576D01*
X1486325D01*
Y760730D01*
X1487172D01*
X1482940Y765808D02*
X1479554D01*
Y764962D01*
X1482940Y761576D01*
Y760730D01*
X1477861Y765808D02*
Y760730D01*
Y762423D01*
X1474476Y765808D01*
X1477015Y763269D01*
X1474476Y760730D01*
X1461769Y840737D02*
X1454151D01*
Y836928D01*
X1455421Y835658D01*
X1457960D01*
X1459230Y836928D01*
Y840737D01*
Y838197D02*
X1461769Y835658D01*
X1454151Y828041D02*
X1455421Y830580D01*
X1457960Y833119D01*
X1460499D01*
X1461769Y831850D01*
Y829310D01*
X1460499Y828041D01*
X1459230D01*
X1457960Y829310D01*
Y833119D01*
X1455421Y825502D02*
X1454151Y824232D01*
Y821693D01*
X1455421Y820423D01*
X1460499D01*
X1461769Y821693D01*
Y824232D01*
X1460499Y825502D01*
X1455421D01*
X1489711Y828040D02*
Y833118D01*
X1492250Y830579D01*
X1488864D01*
X1487172Y828040D02*
Y828886D01*
X1486325D01*
Y828040D01*
X1487172D01*
X1482940Y833118D02*
X1479554D01*
Y832272D01*
X1482940Y828886D01*
Y828040D01*
X1477861Y833118D02*
Y828040D01*
Y829733D01*
X1474476Y833118D01*
X1477015Y830579D01*
X1474476Y828040D01*
X1483994Y524511D02*
Y529589D01*
X1485263Y530859D01*
X1487802D01*
X1489072Y529589D01*
Y524511D01*
X1487802Y523241D01*
X1485263D01*
X1486533Y525780D02*
X1483994Y523241D01*
X1485263D02*
X1483994Y524511D01*
X1481454Y523241D02*
X1478915D01*
X1480185D01*
Y530859D01*
X1481454Y529589D01*
X1470028Y523241D02*
X1475106D01*
X1470028Y528320D01*
Y529589D01*
X1471298Y530859D01*
X1473837D01*
X1475106Y529589D01*
X1507486Y509269D02*
Y504191D01*
X1504946D01*
X1504100Y505037D01*
Y505884D01*
X1504946Y506730D01*
X1507486D01*
X1504946D01*
X1504100Y507576D01*
Y508423D01*
X1504946Y509269D01*
X1507486D01*
X1499021Y508423D02*
X1499868Y509269D01*
X1501561D01*
X1502407Y508423D01*
Y507576D01*
X1501561Y506730D01*
X1499868D01*
X1499021Y505884D01*
Y505037D01*
X1499868Y504191D01*
X1501561D01*
X1502407Y505037D01*
X1493943Y508423D02*
X1494790Y509269D01*
X1496482D01*
X1497329Y508423D01*
Y507576D01*
X1496482Y506730D01*
X1494790D01*
X1493943Y505884D01*
Y505037D01*
X1494790Y504191D01*
X1496482D01*
X1497329Y505037D01*
X1492250Y504191D02*
X1490558D01*
X1491404D01*
Y509269D01*
X1492250Y508423D01*
X1488018D02*
X1487172Y509269D01*
X1485479D01*
X1484633Y508423D01*
Y507576D01*
X1485479Y506730D01*
X1486326D01*
X1485479D01*
X1484633Y505884D01*
Y505037D01*
X1485479Y504191D01*
X1487172D01*
X1488018Y505037D01*
X1482940Y508423D02*
X1482094Y509269D01*
X1480401D01*
X1479554Y508423D01*
Y507576D01*
X1480401Y506730D01*
X1479554Y505884D01*
Y505037D01*
X1480401Y504191D01*
X1482094D01*
X1482940Y505037D01*
Y505884D01*
X1482094Y506730D01*
X1482940Y507576D01*
Y508423D01*
X1482094Y506730D02*
X1480401D01*
X1483994Y621031D02*
Y626109D01*
X1485264Y627379D01*
X1487803D01*
X1489072Y626109D01*
Y621031D01*
X1487803Y619761D01*
X1485264D01*
X1486533Y622300D02*
X1483994Y619761D01*
X1485264D02*
X1483994Y621031D01*
X1481455Y619761D02*
X1478916D01*
X1480185D01*
Y627379D01*
X1481455Y626109D01*
X1475107Y619761D02*
X1472568D01*
X1473837D01*
Y627379D01*
X1475107Y626109D01*
X1506216Y605789D02*
Y600711D01*
X1503676D01*
X1502830Y601557D01*
Y602404D01*
X1503676Y603250D01*
X1506216D01*
X1503676D01*
X1502830Y604096D01*
Y604943D01*
X1503676Y605789D01*
X1506216D01*
X1497751Y604943D02*
X1498598Y605789D01*
X1500291D01*
X1501137Y604943D01*
Y604096D01*
X1500291Y603250D01*
X1498598D01*
X1497751Y602404D01*
Y601557D01*
X1498598Y600711D01*
X1500291D01*
X1501137Y601557D01*
X1492673Y604943D02*
X1493520Y605789D01*
X1495212D01*
X1496059Y604943D01*
Y604096D01*
X1495212Y603250D01*
X1493520D01*
X1492673Y602404D01*
Y601557D01*
X1493520Y600711D01*
X1495212D01*
X1496059Y601557D01*
X1490980Y600711D02*
X1489288D01*
X1490134D01*
Y605789D01*
X1490980Y604943D01*
X1486748D02*
X1485902Y605789D01*
X1484209D01*
X1483363Y604943D01*
Y604096D01*
X1484209Y603250D01*
X1485056D01*
X1484209D01*
X1483363Y602404D01*
Y601557D01*
X1484209Y600711D01*
X1485902D01*
X1486748Y601557D01*
X1481670Y604943D02*
X1480824Y605789D01*
X1479131D01*
X1478284Y604943D01*
Y604096D01*
X1479131Y603250D01*
X1478284Y602404D01*
Y601557D01*
X1479131Y600711D01*
X1480824D01*
X1481670Y601557D01*
Y602404D01*
X1480824Y603250D01*
X1481670Y604096D01*
Y604943D01*
X1480824Y603250D02*
X1479131D01*
X1486534Y717551D02*
Y722629D01*
X1487803Y723899D01*
X1490342D01*
X1491612Y722629D01*
Y717551D01*
X1490342Y716281D01*
X1487803D01*
X1489073Y718820D02*
X1486534Y716281D01*
X1487803D02*
X1486534Y717551D01*
X1483994Y716281D02*
X1481455D01*
X1482725D01*
Y723899D01*
X1483994Y722629D01*
X1477646D02*
X1476377Y723899D01*
X1473838D01*
X1472568Y722629D01*
Y717551D01*
X1473838Y716281D01*
X1476377D01*
X1477646Y717551D01*
Y722629D01*
X1506216Y702309D02*
Y697231D01*
X1503676D01*
X1502830Y698077D01*
Y698924D01*
X1503676Y699770D01*
X1506216D01*
X1503676D01*
X1502830Y700616D01*
Y701463D01*
X1503676Y702309D01*
X1506216D01*
X1497751Y701463D02*
X1498598Y702309D01*
X1500291D01*
X1501137Y701463D01*
Y700616D01*
X1500291Y699770D01*
X1498598D01*
X1497751Y698924D01*
Y698077D01*
X1498598Y697231D01*
X1500291D01*
X1501137Y698077D01*
X1492673Y701463D02*
X1493520Y702309D01*
X1495212D01*
X1496059Y701463D01*
Y700616D01*
X1495212Y699770D01*
X1493520D01*
X1492673Y698924D01*
Y698077D01*
X1493520Y697231D01*
X1495212D01*
X1496059Y698077D01*
X1490980Y697231D02*
X1489288D01*
X1490134D01*
Y702309D01*
X1490980Y701463D01*
X1486748D02*
X1485902Y702309D01*
X1484209D01*
X1483363Y701463D01*
Y700616D01*
X1484209Y699770D01*
X1485056D01*
X1484209D01*
X1483363Y698924D01*
Y698077D01*
X1484209Y697231D01*
X1485902D01*
X1486748Y698077D01*
X1481670Y701463D02*
X1480824Y702309D01*
X1479131D01*
X1478284Y701463D01*
Y700616D01*
X1479131Y699770D01*
X1478284Y698924D01*
Y698077D01*
X1479131Y697231D01*
X1480824D01*
X1481670Y698077D01*
Y698924D01*
X1480824Y699770D01*
X1481670Y700616D01*
Y701463D01*
X1480824Y699770D02*
X1479131D01*
X1482090Y814071D02*
Y819149D01*
X1483359Y820419D01*
X1485898D01*
X1487168Y819149D01*
Y814071D01*
X1485898Y812801D01*
X1483359D01*
X1484629Y815340D02*
X1482090Y812801D01*
X1483359D02*
X1482090Y814071D01*
X1479550Y819149D02*
X1478281Y820419D01*
X1475742D01*
X1474472Y819149D01*
Y817880D01*
X1475742Y816610D01*
X1477011D01*
X1475742D01*
X1474472Y815340D01*
Y814071D01*
X1475742Y812801D01*
X1478281D01*
X1479550Y814071D01*
X1506216Y798829D02*
Y793751D01*
X1503676D01*
X1502830Y794597D01*
Y795444D01*
X1503676Y796290D01*
X1506216D01*
X1503676D01*
X1502830Y797136D01*
Y797983D01*
X1503676Y798829D01*
X1506216D01*
X1497751Y797983D02*
X1498598Y798829D01*
X1500291D01*
X1501137Y797983D01*
Y797136D01*
X1500291Y796290D01*
X1498598D01*
X1497751Y795444D01*
Y794597D01*
X1498598Y793751D01*
X1500291D01*
X1501137Y794597D01*
X1492673Y797983D02*
X1493520Y798829D01*
X1495212D01*
X1496059Y797983D01*
Y797136D01*
X1495212Y796290D01*
X1493520D01*
X1492673Y795444D01*
Y794597D01*
X1493520Y793751D01*
X1495212D01*
X1496059Y794597D01*
X1490980Y793751D02*
X1489288D01*
X1490134D01*
Y798829D01*
X1490980Y797983D01*
X1486748D02*
X1485902Y798829D01*
X1484209D01*
X1483363Y797983D01*
Y797136D01*
X1484209Y796290D01*
X1485056D01*
X1484209D01*
X1483363Y795444D01*
Y794597D01*
X1484209Y793751D01*
X1485902D01*
X1486748Y794597D01*
X1481670Y797983D02*
X1480824Y798829D01*
X1479131D01*
X1478284Y797983D01*
Y797136D01*
X1479131Y796290D01*
X1478284Y795444D01*
Y794597D01*
X1479131Y793751D01*
X1480824D01*
X1481670Y794597D01*
Y795444D01*
X1480824Y796290D01*
X1481670Y797136D01*
Y797983D01*
X1480824Y796290D02*
X1479131D01*
X1565907Y900431D02*
Y908049D01*
X1562098D01*
X1560828Y906779D01*
Y904240D01*
X1562098Y902970D01*
X1565907D01*
X1563367D02*
X1560828Y900431D01*
X1553211Y908049D02*
X1558289D01*
Y904240D01*
X1555750Y905510D01*
X1554480D01*
X1553211Y904240D01*
Y901701D01*
X1554480Y900431D01*
X1557020D01*
X1558289Y901701D01*
X1550672D02*
X1549402Y900431D01*
X1546863D01*
X1545593Y901701D01*
Y906779D01*
X1546863Y908049D01*
X1549402D01*
X1550672Y906779D01*
Y905510D01*
X1549402Y904240D01*
X1545593D01*
X1561341Y887728D02*
X1564727D01*
Y885189D01*
X1563034Y886036D01*
X1562187D01*
X1561341Y885189D01*
Y883496D01*
X1562187Y882650D01*
X1563880D01*
X1564727Y883496D01*
X1559648Y882650D02*
Y883496D01*
X1558802D01*
Y882650D01*
X1559648D01*
X1552031Y887728D02*
X1553723Y886882D01*
X1555416Y885189D01*
Y883496D01*
X1554570Y882650D01*
X1552877D01*
X1552031Y883496D01*
Y884343D01*
X1552877Y885189D01*
X1555416D01*
X1550338Y887728D02*
Y882650D01*
Y884343D01*
X1546952Y887728D01*
X1549491Y885189D01*
X1546952Y882650D01*
X1567177Y951231D02*
Y958849D01*
X1563368D01*
X1562098Y957579D01*
Y955040D01*
X1563368Y953770D01*
X1567177D01*
X1564637D02*
X1562098Y951231D01*
X1554481Y958849D02*
X1559559D01*
Y955040D01*
X1557020Y956310D01*
X1555750D01*
X1554481Y955040D01*
Y952501D01*
X1555750Y951231D01*
X1558290D01*
X1559559Y952501D01*
X1551942Y958849D02*
X1546863D01*
Y957579D01*
X1551942Y952501D01*
Y951231D01*
X1562611Y939798D02*
X1565997D01*
Y937259D01*
X1564304Y938106D01*
X1563457D01*
X1562611Y937259D01*
Y935566D01*
X1563457Y934720D01*
X1565150D01*
X1565997Y935566D01*
X1560918Y934720D02*
Y935566D01*
X1560072D01*
Y934720D01*
X1560918D01*
X1553301Y939798D02*
X1554993Y938952D01*
X1556686Y937259D01*
Y935566D01*
X1555840Y934720D01*
X1554147D01*
X1553301Y935566D01*
Y936413D01*
X1554147Y937259D01*
X1556686D01*
X1551608Y939798D02*
Y934720D01*
Y936413D01*
X1548222Y939798D01*
X1550761Y937259D01*
X1548222Y934720D01*
X1567177Y1002031D02*
Y1009649D01*
X1563368D01*
X1562098Y1008379D01*
Y1005840D01*
X1563368Y1004570D01*
X1567177D01*
X1564637D02*
X1562098Y1002031D01*
X1554481Y1009649D02*
X1559559D01*
Y1005840D01*
X1557020Y1007110D01*
X1555750D01*
X1554481Y1005840D01*
Y1003301D01*
X1555750Y1002031D01*
X1558290D01*
X1559559Y1003301D01*
X1546863Y1009649D02*
X1551942D01*
Y1005840D01*
X1549402Y1007110D01*
X1548133D01*
X1546863Y1005840D01*
Y1003301D01*
X1548133Y1002031D01*
X1550672D01*
X1551942Y1003301D01*
X1562611Y990598D02*
X1565997D01*
Y988059D01*
X1564304Y988906D01*
X1563457D01*
X1562611Y988059D01*
Y986366D01*
X1563457Y985520D01*
X1565150D01*
X1565997Y986366D01*
X1560918Y985520D02*
Y986366D01*
X1560072D01*
Y985520D01*
X1560918D01*
X1553301Y990598D02*
X1554993Y989752D01*
X1556686Y988059D01*
Y986366D01*
X1555840Y985520D01*
X1554147D01*
X1553301Y986366D01*
Y987213D01*
X1554147Y988059D01*
X1556686D01*
X1551608Y990598D02*
Y985520D01*
Y987213D01*
X1548222Y990598D01*
X1550761Y988059D01*
X1548222Y985520D01*
X1565907Y1052831D02*
Y1060449D01*
X1562098D01*
X1560828Y1059179D01*
Y1056640D01*
X1562098Y1055370D01*
X1565907D01*
X1563367D02*
X1560828Y1052831D01*
X1553211Y1060449D02*
X1558289D01*
Y1056640D01*
X1555750Y1057910D01*
X1554480D01*
X1553211Y1056640D01*
Y1054101D01*
X1554480Y1052831D01*
X1557020D01*
X1558289Y1054101D01*
X1550672Y1059179D02*
X1549402Y1060449D01*
X1546863D01*
X1545593Y1059179D01*
Y1057910D01*
X1546863Y1056640D01*
X1548132D01*
X1546863D01*
X1545593Y1055370D01*
Y1054101D01*
X1546863Y1052831D01*
X1549402D01*
X1550672Y1054101D01*
X1561087Y1041398D02*
X1564473D01*
Y1038859D01*
X1562780Y1039706D01*
X1561933D01*
X1561087Y1038859D01*
Y1037166D01*
X1561933Y1036320D01*
X1563626D01*
X1564473Y1037166D01*
X1559394Y1036320D02*
Y1037166D01*
X1558548D01*
Y1036320D01*
X1559394D01*
X1551777Y1041398D02*
X1553469Y1040552D01*
X1555162Y1038859D01*
Y1037166D01*
X1554316Y1036320D01*
X1552623D01*
X1551777Y1037166D01*
Y1038013D01*
X1552623Y1038859D01*
X1555162D01*
X1550084Y1041398D02*
Y1036320D01*
Y1038013D01*
X1546698Y1041398D01*
X1549237Y1038859D01*
X1546698Y1036320D01*
X1473197Y1043939D02*
Y1037591D01*
X1471927Y1036321D01*
X1469388D01*
X1468118Y1037591D01*
Y1043939D01*
X1460501Y1036321D02*
X1465579D01*
X1460501Y1041400D01*
Y1042669D01*
X1461770Y1043939D01*
X1464310D01*
X1465579Y1042669D01*
X1457962D02*
X1456692Y1043939D01*
X1454153D01*
X1452883Y1042669D01*
Y1037591D01*
X1454153Y1036321D01*
X1456692D01*
X1457962Y1037591D01*
Y1042669D01*
X1485392Y952498D02*
Y947420D01*
X1482006D01*
X1480314Y952498D02*
X1476928D01*
X1478621D01*
Y947420D01*
X1475235Y952498D02*
Y949113D01*
X1473542Y947420D01*
X1471850Y949113D01*
Y952498D01*
X1470157Y949959D02*
X1466771D01*
X1465079Y951652D02*
X1464232Y952498D01*
X1462539D01*
X1461693Y951652D01*
Y950806D01*
X1462539Y949959D01*
X1461693Y949113D01*
Y948266D01*
X1462539Y947420D01*
X1464232D01*
X1465079Y948266D01*
Y949113D01*
X1464232Y949959D01*
X1465079Y950806D01*
Y951652D01*
X1464232Y949959D02*
X1462539D01*
X1457461Y947420D02*
Y952498D01*
X1460000Y949959D01*
X1456615D01*
X1451536Y952498D02*
X1453229Y951652D01*
X1454922Y949959D01*
Y948266D01*
X1454075Y947420D01*
X1452383D01*
X1451536Y948266D01*
Y949113D01*
X1452383Y949959D01*
X1454922D01*
X1446458Y951652D02*
X1447304Y952498D01*
X1448997D01*
X1449844Y951652D01*
Y950806D01*
X1448997Y949959D01*
X1447304D01*
X1446458Y949113D01*
Y948266D01*
X1447304Y947420D01*
X1448997D01*
X1449844Y948266D01*
X1338580Y925830D02*
Y933447D01*
X1334771D01*
X1333502Y932178D01*
Y929639D01*
X1334771Y928369D01*
X1338580D01*
X1336041D02*
X1333502Y925830D01*
X1325884Y933447D02*
X1330963D01*
Y929639D01*
X1328423Y930908D01*
X1327154D01*
X1325884Y929639D01*
Y927100D01*
X1327154Y925830D01*
X1329693D01*
X1330963Y927100D01*
X1323345Y932178D02*
X1322075Y933447D01*
X1319536D01*
X1318267Y932178D01*
Y930908D01*
X1319536Y929639D01*
X1318267Y928369D01*
Y927100D01*
X1319536Y925830D01*
X1322075D01*
X1323345Y927100D01*
Y928369D01*
X1322075Y929639D01*
X1323345Y930908D01*
Y932178D01*
X1322075Y929639D02*
X1319536D01*
X1367793Y935987D02*
X1362715D01*
X1365254Y938526D01*
Y935141D01*
X1367793Y933448D02*
X1366947D01*
Y932601D01*
X1367793D01*
Y933448D01*
X1362715Y929216D02*
Y925830D01*
X1363561D01*
X1366947Y929216D01*
X1367793D01*
X1362715Y924138D02*
X1367793D01*
X1366100D01*
X1362715Y920752D01*
X1365254Y923291D01*
X1367793Y920752D01*
X1338580Y947420D02*
Y955038D01*
X1334771D01*
X1333502Y953768D01*
Y951229D01*
X1334771Y949959D01*
X1338580D01*
X1336041D02*
X1333502Y947420D01*
X1325884Y955038D02*
X1330963D01*
Y951229D01*
X1328423Y952498D01*
X1327154D01*
X1325884Y951229D01*
Y948690D01*
X1327154Y947420D01*
X1329693D01*
X1330963Y948690D01*
X1318267Y955038D02*
X1320806Y953768D01*
X1323345Y951229D01*
Y948690D01*
X1322075Y947420D01*
X1319536D01*
X1318267Y948690D01*
Y949959D01*
X1319536Y951229D01*
X1323345D01*
X1367793Y957577D02*
X1362715D01*
X1365254Y960116D01*
Y956731D01*
X1367793Y955038D02*
X1366947D01*
Y954192D01*
X1367793D01*
Y955038D01*
X1362715Y950806D02*
Y947420D01*
X1363561D01*
X1366947Y950806D01*
X1367793D01*
X1362715Y945728D02*
X1367793D01*
X1366100D01*
X1362715Y942342D01*
X1365254Y944881D01*
X1367793Y942342D01*
X1338580Y969010D02*
Y976628D01*
X1334771D01*
X1333502Y975358D01*
Y972819D01*
X1334771Y971549D01*
X1338580D01*
X1336041D02*
X1333502Y969010D01*
X1325884Y976628D02*
X1330963D01*
Y972819D01*
X1328423Y974088D01*
X1327154D01*
X1325884Y972819D01*
Y970280D01*
X1327154Y969010D01*
X1329693D01*
X1330963Y970280D01*
X1319536Y969010D02*
Y976628D01*
X1323345Y972819D01*
X1318267D01*
X1367793Y979167D02*
X1362715D01*
X1365254Y981706D01*
Y978321D01*
X1367793Y976628D02*
X1366947D01*
Y975781D01*
X1367793D01*
Y976628D01*
X1362715Y972396D02*
Y969010D01*
X1363561D01*
X1366947Y972396D01*
X1367793D01*
X1362715Y967318D02*
X1367793D01*
X1366100D01*
X1362715Y963932D01*
X1365254Y966471D01*
X1367793Y963932D01*
X1339088Y990600D02*
Y998217D01*
X1335279D01*
X1334010Y996948D01*
Y994409D01*
X1335279Y993139D01*
X1339088D01*
X1336549D02*
X1334010Y990600D01*
X1326392Y998217D02*
X1331470D01*
Y994409D01*
X1328931Y995678D01*
X1327662D01*
X1326392Y994409D01*
Y991870D01*
X1327662Y990600D01*
X1330201D01*
X1331470Y991870D01*
X1318775Y990600D02*
X1323853D01*
X1318775Y995678D01*
Y996948D01*
X1320044Y998217D01*
X1322583D01*
X1323853Y996948D01*
X1367789Y1000758D02*
X1362711D01*
X1365250Y1003297D01*
Y999911D01*
X1367789Y998219D02*
X1366943D01*
Y997372D01*
X1367789D01*
Y998219D01*
X1362711Y993987D02*
Y990601D01*
X1363557D01*
X1366943Y993987D01*
X1367789D01*
X1362711Y988908D02*
X1367789D01*
X1366096D01*
X1362711Y985523D01*
X1365250Y988062D01*
X1367789Y985523D01*
X927099Y866137D02*
X919481D01*
Y862328D01*
X920751Y861058D01*
X923290D01*
X924560Y862328D01*
Y866137D01*
Y863597D02*
X927099Y861058D01*
Y854710D02*
X919481D01*
X923290Y858519D01*
Y853441D01*
X920751Y850902D02*
X919481Y849632D01*
Y847093D01*
X920751Y845823D01*
X922020D01*
X923290Y847093D01*
Y848362D01*
Y847093D01*
X924560Y845823D01*
X925829D01*
X927099Y847093D01*
Y849632D01*
X925829Y850902D01*
X956320Y852170D02*
Y857248D01*
X958859Y854709D01*
X955473D01*
X953781Y852170D02*
Y853016D01*
X952934D01*
Y852170D01*
X953781D01*
X949549Y857248D02*
X946163D01*
Y856402D01*
X949549Y853016D01*
Y852170D01*
X944470Y857248D02*
Y852170D01*
Y853863D01*
X941085Y857248D01*
X943624Y854709D01*
X941085Y852170D01*
X956308Y755651D02*
Y763269D01*
X952499D01*
X951230Y761999D01*
Y759460D01*
X952499Y758190D01*
X956308D01*
X953769D02*
X951230Y755651D01*
X948690Y756921D02*
X947421Y755651D01*
X944882D01*
X943612Y756921D01*
Y761999D01*
X944882Y763269D01*
X947421D01*
X948690Y761999D01*
Y760730D01*
X947421Y759460D01*
X943612D01*
X956320Y773430D02*
Y778508D01*
X958859Y775969D01*
X955473D01*
X953781Y773430D02*
Y774276D01*
X952934D01*
Y773430D01*
X953781D01*
X949549Y778508D02*
X946163D01*
Y777662D01*
X949549Y774276D01*
Y773430D01*
X944470Y778508D02*
Y773430D01*
Y775123D01*
X941085Y778508D01*
X943624Y775969D01*
X941085Y773430D01*
X767079Y864867D02*
X759461D01*
Y861058D01*
X760731Y859788D01*
X763270D01*
X764540Y861058D01*
Y864867D01*
Y862327D02*
X767079Y859788D01*
Y853440D02*
X759461D01*
X763270Y857249D01*
Y852171D01*
X767079Y845823D02*
X759461D01*
X763270Y849632D01*
Y844553D01*
X797570Y852170D02*
Y857248D01*
X800109Y854709D01*
X796723D01*
X795031Y852170D02*
Y853016D01*
X794184D01*
Y852170D01*
X795031D01*
X790799Y857248D02*
X787413D01*
Y856402D01*
X790799Y853016D01*
Y852170D01*
X785720Y857248D02*
Y852170D01*
Y853863D01*
X782335Y857248D01*
X784874Y854709D01*
X782335Y852170D01*
X879472Y755651D02*
Y763269D01*
X875664D01*
X874394Y761999D01*
Y759460D01*
X875664Y758190D01*
X879472D01*
X876933D02*
X874394Y755651D01*
X871855D02*
X869316D01*
X870585D01*
Y763269D01*
X871855Y761999D01*
X865507Y755651D02*
X862968D01*
X864237D01*
Y763269D01*
X865507Y761999D01*
X877072Y773430D02*
Y778508D01*
X879611Y775969D01*
X876226D01*
X874533Y773430D02*
Y774276D01*
X873686D01*
Y773430D01*
X874533D01*
X870301Y778508D02*
X866915D01*
Y777662D01*
X870301Y774276D01*
Y773430D01*
X865222Y778508D02*
Y773430D01*
Y775123D01*
X861837Y778508D01*
X864376Y775969D01*
X861837Y773430D01*
X1082548Y850900D02*
Y858518D01*
X1078739D01*
X1077470Y857248D01*
Y854709D01*
X1078739Y853439D01*
X1082548D01*
X1080009D02*
X1077470Y850900D01*
X1069852Y858518D02*
X1074930D01*
Y854709D01*
X1072391Y855978D01*
X1071122D01*
X1069852Y854709D01*
Y852170D01*
X1071122Y850900D01*
X1073661D01*
X1074930Y852170D01*
X1067313Y850900D02*
X1064774D01*
X1066043D01*
Y858518D01*
X1067313Y857248D01*
X1117610Y852170D02*
Y857248D01*
X1120149Y854709D01*
X1116764D01*
X1115071Y852170D02*
Y853016D01*
X1114224D01*
Y852170D01*
X1115071D01*
X1110839Y857248D02*
X1107453D01*
Y856402D01*
X1110839Y853016D01*
Y852170D01*
X1105760Y857248D02*
Y852170D01*
Y853863D01*
X1102375Y857248D01*
X1104914Y854709D01*
X1102375Y852170D01*
X1039492Y756921D02*
Y764539D01*
X1035683D01*
X1034414Y763269D01*
Y760730D01*
X1035683Y759460D01*
X1039492D01*
X1036953D02*
X1034414Y756921D01*
X1031874D02*
X1029335D01*
X1030605D01*
Y764539D01*
X1031874Y763269D01*
X1025526D02*
X1024257Y764539D01*
X1021718D01*
X1020448Y763269D01*
Y762000D01*
X1021718Y760730D01*
X1020448Y759460D01*
Y758191D01*
X1021718Y756921D01*
X1024257D01*
X1025526Y758191D01*
Y759460D01*
X1024257Y760730D01*
X1025526Y762000D01*
Y763269D01*
X1024257Y760730D02*
X1021718D01*
X1036330Y774700D02*
Y779778D01*
X1038869Y777239D01*
X1035483D01*
X1033791Y774700D02*
Y775546D01*
X1032944D01*
Y774700D01*
X1033791D01*
X1029559Y779778D02*
X1026173D01*
Y778932D01*
X1029559Y775546D01*
Y774700D01*
X1024480Y779778D02*
Y774700D01*
Y776393D01*
X1021095Y779778D01*
X1023634Y777239D01*
X1021095Y774700D01*
X1007109Y864867D02*
X999491D01*
Y861058D01*
X1000761Y859788D01*
X1003300D01*
X1004570Y861058D01*
Y864867D01*
Y862327D02*
X1007109Y859788D01*
X999491Y852171D02*
Y857249D01*
X1003300D01*
X1002030Y854710D01*
Y853440D01*
X1003300Y852171D01*
X1005839D01*
X1007109Y853440D01*
Y855980D01*
X1005839Y857249D01*
X1000761Y849632D02*
X999491Y848362D01*
Y845823D01*
X1000761Y844553D01*
X1005839D01*
X1007109Y845823D01*
Y848362D01*
X1005839Y849632D01*
X1000761D01*
X1036330Y852170D02*
Y857248D01*
X1038869Y854709D01*
X1035483D01*
X1033791Y852170D02*
Y853016D01*
X1032944D01*
Y852170D01*
X1033791D01*
X1029559Y857248D02*
X1026173D01*
Y856402D01*
X1029559Y853016D01*
Y852170D01*
X1024480Y857248D02*
Y852170D01*
Y853863D01*
X1021095Y857248D01*
X1023634Y854709D01*
X1021095Y852170D01*
X848359Y864867D02*
X840741D01*
Y861058D01*
X842011Y859788D01*
X844550D01*
X845820Y861058D01*
Y864867D01*
Y862327D02*
X848359Y859788D01*
Y853440D02*
X840741D01*
X844550Y857249D01*
Y852171D01*
X840741Y844553D02*
Y849632D01*
X844550D01*
X843280Y847092D01*
Y845823D01*
X844550Y844553D01*
X847089D01*
X848359Y845823D01*
Y848362D01*
X847089Y849632D01*
X877072Y852170D02*
Y857248D01*
X879611Y854709D01*
X876226D01*
X874533Y852170D02*
Y853016D01*
X873686D01*
Y852170D01*
X874533D01*
X870301Y857248D02*
X866915D01*
Y856402D01*
X870301Y853016D01*
Y852170D01*
X865222Y857248D02*
Y852170D01*
Y853863D01*
X861837Y857248D01*
X864376Y854709D01*
X861837Y852170D01*
X1162558D02*
Y859788D01*
X1158749D01*
X1157480Y858518D01*
Y855979D01*
X1158749Y854709D01*
X1162558D01*
X1160019D02*
X1157480Y852170D01*
X1151132D02*
Y859788D01*
X1154940Y855979D01*
X1149862D01*
X1147323Y853440D02*
X1146053Y852170D01*
X1143514D01*
X1142245Y853440D01*
Y858518D01*
X1143514Y859788D01*
X1146053D01*
X1147323Y858518D01*
Y857248D01*
X1146053Y855979D01*
X1142245D01*
X1197620Y853440D02*
Y858518D01*
X1200159Y855979D01*
X1196774D01*
X1195081Y853440D02*
Y854286D01*
X1194234D01*
Y853440D01*
X1195081D01*
X1190849Y858518D02*
X1187463D01*
Y857672D01*
X1190849Y854286D01*
Y853440D01*
X1185770Y858518D02*
Y853440D01*
Y855133D01*
X1182385Y858518D01*
X1184924Y855979D01*
X1182385Y853440D01*
X800732Y756921D02*
Y764539D01*
X796923D01*
X795654Y763269D01*
Y760730D01*
X796923Y759460D01*
X800732D01*
X798193D02*
X795654Y756921D01*
X793114D02*
X790575D01*
X791845D01*
Y764539D01*
X793114Y763269D01*
X786766D02*
X785497Y764539D01*
X782958D01*
X781688Y763269D01*
Y758191D01*
X782958Y756921D01*
X785497D01*
X786766Y758191D01*
Y763269D01*
X797570Y774700D02*
Y779778D01*
X800109Y777239D01*
X796723D01*
X795031Y774700D02*
Y775546D01*
X794184D01*
Y774700D01*
X795031D01*
X790799Y779778D02*
X787413D01*
Y778932D01*
X790799Y775546D01*
Y774700D01*
X785720Y779778D02*
Y774700D01*
Y776393D01*
X782335Y779778D01*
X784874Y777239D01*
X782335Y774700D01*
X881381Y826770D02*
X880111Y828039D01*
Y830578D01*
X881381Y831848D01*
X886459D01*
X887729Y830578D01*
Y828039D01*
X886459Y826770D01*
X881381Y824230D02*
X880111Y822961D01*
Y820422D01*
X881381Y819152D01*
X882650D01*
X883920Y820422D01*
X885190Y819152D01*
X886459D01*
X887729Y820422D01*
Y822961D01*
X886459Y824230D01*
X885190D01*
X883920Y822961D01*
X882650Y824230D01*
X881381D01*
X883920Y822961D02*
Y820422D01*
X861487Y835741D02*
X860641Y834894D01*
Y833202D01*
X861487Y832355D01*
X864873D01*
X865719Y833202D01*
Y834894D01*
X864873Y835741D01*
X861487D01*
X865719Y830662D02*
X864873D01*
Y829816D01*
X865719D01*
Y830662D01*
Y826430D02*
Y824737D01*
Y825584D01*
X860641D01*
X861487Y826430D01*
X863180Y822198D02*
Y820506D01*
X864026Y822198D02*
Y820506D01*
X860641D02*
X866566D01*
X860641Y815427D02*
Y818813D01*
X863180D01*
Y817120D01*
Y818813D01*
X865719D01*
X1201421Y909318D02*
X1200151Y910588D01*
Y913127D01*
X1201421Y914397D01*
X1206499D01*
X1207769Y913127D01*
Y910588D01*
X1206499Y909318D01*
X1207769Y902970D02*
X1200151D01*
X1203960Y906779D01*
Y901701D01*
X1200151Y899162D02*
Y894083D01*
X1201421D01*
X1206499Y899162D01*
X1207769D01*
X1181527Y914481D02*
X1180681Y913634D01*
Y911942D01*
X1181527Y911095D01*
X1184913D01*
X1185759Y911942D01*
Y913634D01*
X1184913Y914481D01*
X1181527D01*
X1185759Y909402D02*
X1184913D01*
Y908556D01*
X1185759D01*
Y909402D01*
Y905170D02*
Y903477D01*
Y904324D01*
X1180681D01*
X1181527Y905170D01*
X1183220Y900938D02*
Y899246D01*
X1184066Y900938D02*
Y899246D01*
X1180681D02*
X1186606D01*
X1180681Y894167D02*
Y897553D01*
X1183220D01*
Y895860D01*
Y897553D01*
X1185759D01*
X1499871Y1253490D02*
X1498601Y1254759D01*
Y1257298D01*
X1499871Y1258568D01*
X1504949D01*
X1506219Y1257298D01*
Y1254759D01*
X1504949Y1253490D01*
X1498601Y1245872D02*
Y1250950D01*
X1502410D01*
X1501140Y1248411D01*
Y1247142D01*
X1502410Y1245872D01*
X1504949D01*
X1506219Y1247142D01*
Y1249681D01*
X1504949Y1250950D01*
X1478707Y1262461D02*
X1477861Y1261614D01*
Y1259921D01*
X1478707Y1259075D01*
X1482093D01*
X1482939Y1259921D01*
Y1261614D01*
X1482093Y1262461D01*
X1478707D01*
X1482939Y1257382D02*
X1482093D01*
Y1256536D01*
X1482939D01*
Y1257382D01*
Y1253150D02*
Y1251458D01*
Y1252304D01*
X1477861D01*
X1478707Y1253150D01*
X1480400Y1248918D02*
Y1247226D01*
X1481246Y1248918D02*
Y1247226D01*
X1477861D02*
X1483786D01*
X1477861Y1242147D02*
Y1245533D01*
X1480400D01*
Y1243840D01*
Y1245533D01*
X1482939D01*
X915926Y828038D02*
X917195Y829307D01*
X919734D01*
X921004Y828038D01*
Y822960D01*
X919734Y821690D01*
X917195D01*
X915926Y822960D01*
X908308Y829307D02*
X910847Y828038D01*
X913387Y825499D01*
Y822960D01*
X912117Y821690D01*
X909578D01*
X908308Y822960D01*
Y824229D01*
X909578Y825499D01*
X913387D01*
X952500Y827700D02*
X951654Y828546D01*
X949961D01*
X949114Y827700D01*
Y824314D01*
X949961Y823468D01*
X951654D01*
X952500Y824314D01*
Y827700D01*
X947422Y823468D02*
Y824314D01*
X946575D01*
Y823468D01*
X947422D01*
X943190D02*
X941497D01*
X942343D01*
Y828546D01*
X943190Y827700D01*
X938958Y826007D02*
X937265D01*
X938958Y825161D02*
X937265D01*
Y828546D02*
Y822622D01*
X932187Y828546D02*
X935572D01*
Y826007D01*
X933879D01*
X935572D01*
Y823468D01*
X1040131Y829944D02*
X1038861Y831213D01*
Y833752D01*
X1040131Y835022D01*
X1045209D01*
X1046479Y833752D01*
Y831213D01*
X1045209Y829944D01*
X1046479Y827404D02*
Y824865D01*
Y826135D01*
X1038861D01*
X1040131Y827404D01*
Y821056D02*
X1038861Y819787D01*
Y817248D01*
X1040131Y815978D01*
X1045209D01*
X1046479Y817248D01*
Y819787D01*
X1045209Y821056D01*
X1040131D01*
X1020237Y835741D02*
X1019391Y834894D01*
Y833202D01*
X1020237Y832355D01*
X1023623D01*
X1024469Y833202D01*
Y834894D01*
X1023623Y835741D01*
X1020237D01*
X1024469Y830662D02*
X1023623D01*
Y829816D01*
X1024469D01*
Y830662D01*
Y826430D02*
Y824737D01*
Y825584D01*
X1019391D01*
X1020237Y826430D01*
X1021930Y822198D02*
Y820506D01*
X1022776Y822198D02*
Y820506D01*
X1019391D02*
X1025316D01*
X1019391Y815427D02*
Y818813D01*
X1021930D01*
Y817120D01*
Y818813D01*
X1024469D01*
X960121Y908048D02*
X958851Y909318D01*
Y911857D01*
X960121Y913127D01*
X965199D01*
X966469Y911857D01*
Y909318D01*
X965199Y908048D01*
X966469Y901700D02*
X958851D01*
X962660Y905509D01*
Y900431D01*
X966469Y894083D02*
X958851D01*
X962660Y897892D01*
Y892813D01*
X940227Y913211D02*
X939381Y912364D01*
Y910671D01*
X940227Y909825D01*
X943613D01*
X944459Y910671D01*
Y912364D01*
X943613Y913211D01*
X940227D01*
X944459Y908132D02*
X943613D01*
Y907286D01*
X944459D01*
Y908132D01*
Y903900D02*
Y902207D01*
Y903054D01*
X939381D01*
X940227Y903900D01*
X941920Y899668D02*
Y897976D01*
X942766Y899668D02*
Y897976D01*
X939381D02*
X945306D01*
X939381Y892897D02*
Y896283D01*
X941920D01*
Y894590D01*
Y896283D01*
X944459D01*
X1040131Y908048D02*
X1038861Y909318D01*
Y911857D01*
X1040131Y913127D01*
X1045209D01*
X1046479Y911857D01*
Y909318D01*
X1045209Y908048D01*
X1046479Y901700D02*
X1038861D01*
X1042670Y905509D01*
Y900431D01*
X1040131Y897892D02*
X1038861Y896622D01*
Y894083D01*
X1040131Y892813D01*
X1041400D01*
X1042670Y894083D01*
X1043940Y892813D01*
X1045209D01*
X1046479Y894083D01*
Y896622D01*
X1045209Y897892D01*
X1043940D01*
X1042670Y896622D01*
X1041400Y897892D01*
X1040131D01*
X1042670Y896622D02*
Y894083D01*
X1020237Y913211D02*
X1019391Y912364D01*
Y910671D01*
X1020237Y909825D01*
X1023623D01*
X1024469Y910671D01*
Y912364D01*
X1023623Y913211D01*
X1020237D01*
X1024469Y908132D02*
X1023623D01*
Y907286D01*
X1024469D01*
Y908132D01*
Y903900D02*
Y902207D01*
Y903054D01*
X1019391D01*
X1020237Y903900D01*
X1021930Y899668D02*
Y897976D01*
X1022776Y899668D02*
Y897976D01*
X1019391D02*
X1025316D01*
X1019391Y892897D02*
Y896283D01*
X1021930D01*
Y894590D01*
Y896283D01*
X1024469D01*
X801371Y826770D02*
X800101Y828039D01*
Y830578D01*
X801371Y831848D01*
X806449D01*
X807719Y830578D01*
Y828039D01*
X806449Y826770D01*
X800101Y824230D02*
Y819152D01*
X801371D01*
X806449Y824230D01*
X807719D01*
X781477Y835741D02*
X780631Y834894D01*
Y833202D01*
X781477Y832355D01*
X784863D01*
X785709Y833202D01*
Y834894D01*
X784863Y835741D01*
X781477D01*
X785709Y830662D02*
X784863D01*
Y829816D01*
X785709D01*
Y830662D01*
Y826430D02*
Y824737D01*
Y825584D01*
X780631D01*
X781477Y826430D01*
X783170Y822198D02*
Y820506D01*
X784016Y822198D02*
Y820506D01*
X780631D02*
X786556D01*
X780631Y815427D02*
Y818813D01*
X783170D01*
Y817120D01*
Y818813D01*
X785709D01*
X801371Y908048D02*
X800101Y909318D01*
Y911857D01*
X801371Y913127D01*
X806449D01*
X807719Y911857D01*
Y909318D01*
X806449Y908048D01*
X807719Y901700D02*
X800101D01*
X803910Y905509D01*
Y900431D01*
X800101Y892813D02*
Y897892D01*
X803910D01*
X802640Y895352D01*
Y894083D01*
X803910Y892813D01*
X806449D01*
X807719Y894083D01*
Y896622D01*
X806449Y897892D01*
X781477Y913211D02*
X780631Y912364D01*
Y910671D01*
X781477Y909825D01*
X784863D01*
X785709Y910671D01*
Y912364D01*
X784863Y913211D01*
X781477D01*
X785709Y908132D02*
X784863D01*
Y907286D01*
X785709D01*
Y908132D01*
Y903900D02*
Y902207D01*
Y903054D01*
X780631D01*
X781477Y903900D01*
X783170Y899668D02*
Y897976D01*
X784016Y899668D02*
Y897976D01*
X780631D02*
X786556D01*
X780631Y892897D02*
Y896283D01*
X783170D01*
Y894590D01*
Y896283D01*
X785709D01*
X1121411Y908048D02*
X1120141Y909318D01*
Y911857D01*
X1121411Y913127D01*
X1126489D01*
X1127759Y911857D01*
Y909318D01*
X1126489Y908048D01*
X1127759Y901700D02*
X1120141D01*
X1123950Y905509D01*
Y900431D01*
X1126489Y897892D02*
X1127759Y896622D01*
Y894083D01*
X1126489Y892813D01*
X1121411D01*
X1120141Y894083D01*
Y896622D01*
X1121411Y897892D01*
X1122680D01*
X1123950Y896622D01*
Y892813D01*
X1101517Y913211D02*
X1100671Y912364D01*
Y910671D01*
X1101517Y909825D01*
X1104903D01*
X1105749Y910671D01*
Y912364D01*
X1104903Y913211D01*
X1101517D01*
X1105749Y908132D02*
X1104903D01*
Y907286D01*
X1105749D01*
Y908132D01*
Y903900D02*
Y902207D01*
Y903054D01*
X1100671D01*
X1101517Y903900D01*
X1103210Y899668D02*
Y897976D01*
X1104056Y899668D02*
Y897976D01*
X1100671D02*
X1106596D01*
X1100671Y892897D02*
Y896283D01*
X1103210D01*
Y894590D01*
Y896283D01*
X1105749D01*
X1061721Y568958D02*
X1060451Y570228D01*
Y572767D01*
X1061721Y574037D01*
X1066799D01*
X1068069Y572767D01*
Y570228D01*
X1066799Y568958D01*
X1068069Y562610D02*
X1060451D01*
X1064260Y566419D01*
Y561341D01*
X1061721Y558802D02*
X1060451Y557532D01*
Y554993D01*
X1061721Y553723D01*
X1062990D01*
X1064260Y554993D01*
Y556262D01*
Y554993D01*
X1065530Y553723D01*
X1066799D01*
X1068069Y554993D01*
Y557532D01*
X1066799Y558802D01*
X1083737Y574121D02*
X1082891Y573274D01*
Y571581D01*
X1083737Y570735D01*
X1087123D01*
X1087969Y571581D01*
Y573274D01*
X1087123Y574121D01*
X1083737D01*
X1087969Y569042D02*
X1087123D01*
Y568196D01*
X1087969D01*
Y569042D01*
Y564810D02*
Y563117D01*
Y563964D01*
X1082891D01*
X1083737Y564810D01*
X1085430Y560578D02*
Y558886D01*
X1086276Y560578D02*
Y558886D01*
X1082891D02*
X1088816D01*
X1082891Y553807D02*
Y557193D01*
X1085430D01*
Y555500D01*
Y557193D01*
X1087969D01*
X881381Y908048D02*
X880111Y909318D01*
Y911857D01*
X881381Y913127D01*
X886459D01*
X887729Y911857D01*
Y909318D01*
X886459Y908048D01*
X887729Y901700D02*
X880111D01*
X883920Y905509D01*
Y900431D01*
X880111Y892813D02*
X881381Y895352D01*
X883920Y897892D01*
X886459D01*
X887729Y896622D01*
Y894083D01*
X886459Y892813D01*
X885190D01*
X883920Y894083D01*
Y897892D01*
X861487Y913211D02*
X860641Y912364D01*
Y910671D01*
X861487Y909825D01*
X864873D01*
X865719Y910671D01*
Y912364D01*
X864873Y913211D01*
X861487D01*
X865719Y908132D02*
X864873D01*
Y907286D01*
X865719D01*
Y908132D01*
Y903900D02*
Y902207D01*
Y903054D01*
X860641D01*
X861487Y903900D01*
X863180Y899668D02*
Y897976D01*
X864026Y899668D02*
Y897976D01*
X860641D02*
X866566D01*
X860641Y892897D02*
Y896283D01*
X863180D01*
Y894590D01*
Y896283D01*
X865719D01*
X1566926Y1212848D02*
Y1206500D01*
X1565656Y1205230D01*
X1563117D01*
X1561848Y1206500D01*
Y1212848D01*
X1559308Y1205230D02*
X1556769D01*
X1558039D01*
Y1212848D01*
X1559308Y1211578D01*
X1552961D02*
X1551691Y1212848D01*
X1549152D01*
X1547882Y1211578D01*
Y1206500D01*
X1549152Y1205230D01*
X1551691D01*
X1552961Y1206500D01*
Y1211578D01*
X1566926Y1183637D02*
Y1177290D01*
X1565656Y1176020D01*
X1563117D01*
X1561848Y1177290D01*
Y1183637D01*
X1559308Y1176020D02*
X1556769D01*
X1558039D01*
Y1183637D01*
X1559308Y1182368D01*
X1552961Y1176020D02*
X1550421D01*
X1551691D01*
Y1183637D01*
X1552961Y1182368D01*
X1567688Y1242311D02*
Y1235964D01*
X1566418Y1234694D01*
X1563879D01*
X1562610Y1235964D01*
Y1242311D01*
X1560070Y1234694D02*
X1557531D01*
X1558801D01*
Y1242311D01*
X1560070Y1241042D01*
X1553723D02*
X1552453Y1242311D01*
X1549914D01*
X1548644Y1241042D01*
Y1239772D01*
X1549914Y1238503D01*
X1551183D01*
X1549914D01*
X1548644Y1237233D01*
Y1235964D01*
X1549914Y1234694D01*
X1552453D01*
X1553723Y1235964D01*
X1566926Y1154427D02*
Y1148080D01*
X1565656Y1146810D01*
X1563117D01*
X1561848Y1148080D01*
Y1154427D01*
X1559308Y1148080D02*
X1558039Y1146810D01*
X1555500D01*
X1554230Y1148080D01*
Y1153158D01*
X1555500Y1154427D01*
X1558039D01*
X1559308Y1153158D01*
Y1151888D01*
X1558039Y1150619D01*
X1554230D01*
X520698Y961389D02*
X521968Y962659D01*
X524507D01*
X525777Y961389D01*
Y956311D01*
X524507Y955041D01*
X521968D01*
X520698Y956311D01*
X518159Y961389D02*
X516890Y962659D01*
X514350D01*
X513081Y961389D01*
Y960120D01*
X514350Y958850D01*
X515620D01*
X514350D01*
X513081Y957580D01*
Y956311D01*
X514350Y955041D01*
X516890D01*
X518159Y956311D01*
X510542Y961389D02*
X509272Y962659D01*
X506733D01*
X505463Y961389D01*
Y960120D01*
X506733Y958850D01*
X505463Y957580D01*
Y956311D01*
X506733Y955041D01*
X509272D01*
X510542Y956311D01*
Y957580D01*
X509272Y958850D01*
X510542Y960120D01*
Y961389D01*
X509272Y958850D02*
X506733D01*
X525780Y939460D02*
X524934Y940306D01*
X523241D01*
X522394Y939460D01*
Y936074D01*
X523241Y935228D01*
X524934D01*
X525780Y936074D01*
Y939460D01*
X520702Y935228D02*
Y936074D01*
X519855D01*
Y935228D01*
X520702D01*
X516470D02*
X514777D01*
X515623D01*
Y940306D01*
X516470Y939460D01*
X512238Y937767D02*
X510545D01*
X512238Y936921D02*
X510545D01*
Y940306D02*
Y934382D01*
X505467Y940306D02*
X508852D01*
Y937767D01*
X507159D01*
X508852D01*
Y935228D01*
X520698Y1080769D02*
X521968Y1082039D01*
X524507D01*
X525777Y1080769D01*
Y1075691D01*
X524507Y1074421D01*
X521968D01*
X520698Y1075691D01*
X518159Y1080769D02*
X516890Y1082039D01*
X514350D01*
X513081Y1080769D01*
Y1079500D01*
X514350Y1078230D01*
X515620D01*
X514350D01*
X513081Y1076960D01*
Y1075691D01*
X514350Y1074421D01*
X516890D01*
X518159Y1075691D01*
X510542Y1082039D02*
X505463D01*
Y1080769D01*
X510542Y1075691D01*
Y1074421D01*
X525780Y1058840D02*
X524934Y1059686D01*
X523241D01*
X522394Y1058840D01*
Y1055454D01*
X523241Y1054608D01*
X524934D01*
X525780Y1055454D01*
Y1058840D01*
X520702Y1054608D02*
Y1055454D01*
X519855D01*
Y1054608D01*
X520702D01*
X516470D02*
X514777D01*
X515623D01*
Y1059686D01*
X516470Y1058840D01*
X512238Y1057147D02*
X510545D01*
X512238Y1056301D02*
X510545D01*
Y1059686D02*
Y1053762D01*
X505467Y1059686D02*
X508852D01*
Y1057147D01*
X507159D01*
X508852D01*
Y1054608D01*
X1080768Y698499D02*
X1082038Y699769D01*
X1084577D01*
X1085847Y698499D01*
Y693421D01*
X1084577Y692151D01*
X1082038D01*
X1080768Y693421D01*
X1073151Y692151D02*
X1078229D01*
X1073151Y697230D01*
Y698499D01*
X1074420Y699769D01*
X1076960D01*
X1078229Y698499D01*
X1070612D02*
X1069342Y699769D01*
X1066803D01*
X1065533Y698499D01*
Y697230D01*
X1066803Y695960D01*
X1068072D01*
X1066803D01*
X1065533Y694690D01*
Y693421D01*
X1066803Y692151D01*
X1069342D01*
X1070612Y693421D01*
X1085850Y719750D02*
X1085004Y720596D01*
X1083311D01*
X1082464Y719750D01*
Y716364D01*
X1083311Y715518D01*
X1085004D01*
X1085850Y716364D01*
Y719750D01*
X1080772Y715518D02*
Y716364D01*
X1079925D01*
Y715518D01*
X1080772D01*
X1076540D02*
X1074847D01*
X1075693D01*
Y720596D01*
X1076540Y719750D01*
X1072308Y718057D02*
X1070615D01*
X1072308Y717211D02*
X1070615D01*
Y720596D02*
Y714672D01*
X1065537Y720596D02*
X1068922D01*
Y718057D01*
X1067229D01*
X1068922D01*
Y715518D01*
X1458592Y1250949D02*
Y1244601D01*
X1457322Y1243331D01*
X1454783D01*
X1453514Y1244601D01*
Y1250949D01*
X1450974Y1243331D02*
X1448435D01*
X1449705D01*
Y1250949D01*
X1450974Y1249679D01*
X1439548Y1243331D02*
X1444626D01*
X1439548Y1248410D01*
Y1249679D01*
X1440818Y1250949D01*
X1443357D01*
X1444626Y1249679D01*
X1490131Y1178983D02*
X1490977Y1179829D01*
X1492670D01*
X1493516Y1178983D01*
Y1175597D01*
X1492670Y1174751D01*
X1490977D01*
X1490131Y1175597D01*
X1485052Y1179829D02*
X1486745D01*
X1485899D01*
Y1175597D01*
X1486745Y1174751D01*
X1487592D01*
X1488438Y1175597D01*
X1483360Y1174751D02*
X1481667D01*
X1482513D01*
Y1179829D01*
X1483360Y1178983D01*
X1475742Y1174751D02*
X1479128D01*
X1475742Y1178136D01*
Y1178983D01*
X1476588Y1179829D01*
X1478281D01*
X1479128Y1178983D01*
X1470664Y1179829D02*
X1474049D01*
Y1177290D01*
X1472357Y1178136D01*
X1471510D01*
X1470664Y1177290D01*
Y1175597D01*
X1471510Y1174751D01*
X1473203D01*
X1474049Y1175597D01*
X900432Y662938D02*
X901701Y664208D01*
X904240D01*
X905510Y662938D01*
Y657860D01*
X904240Y656590D01*
X901701D01*
X900432Y657860D01*
X897893Y656590D02*
X895353D01*
X896623D01*
Y664208D01*
X897893Y662938D01*
X891544Y664208D02*
X886466D01*
Y662938D01*
X891544Y657860D01*
Y656590D01*
X929640Y662600D02*
X928794Y663446D01*
X927101D01*
X926254Y662600D01*
Y659214D01*
X927101Y658368D01*
X928794D01*
X929640Y659214D01*
Y662600D01*
X924562Y658368D02*
Y659214D01*
X923715D01*
Y658368D01*
X924562D01*
X920330D02*
X918637D01*
X919483D01*
Y663446D01*
X920330Y662600D01*
X916098Y660907D02*
X914405D01*
X916098Y660061D02*
X914405D01*
Y663446D02*
Y657522D01*
X909327Y663446D02*
X912712D01*
Y660907D01*
X911019D01*
X912712D01*
Y658368D01*
X1642111Y1210944D02*
X1640841Y1212213D01*
Y1214752D01*
X1642111Y1216022D01*
X1647189D01*
X1648459Y1214752D01*
Y1212213D01*
X1647189Y1210944D01*
X1648459Y1208404D02*
Y1205865D01*
Y1207135D01*
X1640841D01*
X1642111Y1208404D01*
Y1202056D02*
X1640841Y1200787D01*
Y1198248D01*
X1642111Y1196978D01*
X1643380D01*
X1644650Y1198248D01*
X1645920Y1196978D01*
X1647189D01*
X1648459Y1198248D01*
Y1200787D01*
X1647189Y1202056D01*
X1645920D01*
X1644650Y1200787D01*
X1643380Y1202056D01*
X1642111D01*
X1644650Y1200787D02*
Y1198248D01*
X1637030Y1208700D02*
X1636184Y1209546D01*
X1634491D01*
X1633644Y1208700D01*
Y1205314D01*
X1634491Y1204468D01*
X1636184D01*
X1637030Y1205314D01*
Y1208700D01*
X1631952Y1204468D02*
Y1205314D01*
X1631105D01*
Y1204468D01*
X1631952D01*
X1627720D02*
X1626027D01*
X1626873D01*
Y1209546D01*
X1627720Y1208700D01*
X1623488Y1207007D02*
X1621795D01*
X1623488Y1206161D02*
X1621795D01*
Y1209546D02*
Y1203622D01*
X1616717Y1209546D02*
X1620102D01*
Y1207007D01*
X1618409D01*
X1620102D01*
Y1204468D01*
X1631948Y1164589D02*
X1633218Y1165859D01*
X1635757D01*
X1637027Y1164589D01*
Y1159511D01*
X1635757Y1158241D01*
X1633218D01*
X1631948Y1159511D01*
X1629409Y1164589D02*
X1628140Y1165859D01*
X1625600D01*
X1624331Y1164589D01*
Y1163320D01*
X1625600Y1162050D01*
X1626870D01*
X1625600D01*
X1624331Y1160780D01*
Y1159511D01*
X1625600Y1158241D01*
X1628140D01*
X1629409Y1159511D01*
X1621792Y1164589D02*
X1620522Y1165859D01*
X1617983D01*
X1616713Y1164589D01*
Y1163320D01*
X1617983Y1162050D01*
X1619252D01*
X1617983D01*
X1616713Y1160780D01*
Y1159511D01*
X1617983Y1158241D01*
X1620522D01*
X1621792Y1159511D01*
X1637030Y1142660D02*
X1636184Y1143506D01*
X1634491D01*
X1633644Y1142660D01*
Y1139274D01*
X1634491Y1138428D01*
X1636184D01*
X1637030Y1139274D01*
Y1142660D01*
X1631952Y1138428D02*
Y1139274D01*
X1631105D01*
Y1138428D01*
X1631952D01*
X1627720D02*
X1626027D01*
X1626873D01*
Y1143506D01*
X1627720Y1142660D01*
X1623488Y1140967D02*
X1621795D01*
X1623488Y1140121D02*
X1621795D01*
Y1143506D02*
Y1137582D01*
X1616717Y1143506D02*
X1620102D01*
Y1140967D01*
X1618409D01*
X1620102D01*
Y1138428D01*
X1642111Y1244598D02*
X1640841Y1245868D01*
Y1248407D01*
X1642111Y1249677D01*
X1647189D01*
X1648459Y1248407D01*
Y1245868D01*
X1647189Y1244598D01*
X1648459Y1236981D02*
Y1242059D01*
X1643380Y1236981D01*
X1642111D01*
X1640841Y1238250D01*
Y1240790D01*
X1642111Y1242059D01*
X1640841Y1234442D02*
Y1229363D01*
X1642111D01*
X1647189Y1234442D01*
X1648459D01*
X1637030Y1241720D02*
X1636184Y1242566D01*
X1634491D01*
X1633644Y1241720D01*
Y1238334D01*
X1634491Y1237488D01*
X1636184D01*
X1637030Y1238334D01*
Y1241720D01*
X1631952Y1237488D02*
Y1238334D01*
X1631105D01*
Y1237488D01*
X1631952D01*
X1627720D02*
X1626027D01*
X1626873D01*
Y1242566D01*
X1627720Y1241720D01*
X1623488Y1240027D02*
X1621795D01*
X1623488Y1239181D02*
X1621795D01*
Y1242566D02*
Y1236642D01*
X1616717Y1242566D02*
X1620102D01*
Y1240027D01*
X1618409D01*
X1620102D01*
Y1237488D01*
X1065278Y466092D02*
Y468631D01*
Y467361D01*
X1071626D01*
X1072896Y468631D01*
Y469900D01*
X1071626Y471170D01*
X1072896Y459744D02*
X1065278D01*
X1069087Y463553D01*
Y458474D01*
X1157224Y485649D02*
X1152146D01*
X1154685Y488188D01*
Y484802D01*
X1152146Y483110D02*
Y479724D01*
X1152992D01*
X1156378Y483110D01*
X1157224D01*
X1152992Y478031D02*
X1152146Y477185D01*
Y475492D01*
X1152992Y474646D01*
X1153838D01*
X1154685Y475492D01*
Y476339D01*
Y475492D01*
X1155531Y474646D01*
X1156378D01*
X1157224Y475492D01*
Y477185D01*
X1156378Y478031D01*
X1152146Y469567D02*
Y472953D01*
X1154685D01*
X1153838Y471260D01*
Y470414D01*
X1154685Y469567D01*
X1156378D01*
X1157224Y470414D01*
Y472107D01*
X1156378Y472953D01*
X1157224Y464489D02*
Y467875D01*
X1153838Y464489D01*
X1152992D01*
X1152146Y465335D01*
Y467028D01*
X1152992Y467875D01*
X1154685Y462796D02*
Y459411D01*
X1157224Y457718D02*
Y456025D01*
Y456871D01*
X1152146D01*
X1152992Y457718D01*
Y453486D02*
X1152146Y452640D01*
Y450947D01*
X1152992Y450100D01*
X1156378D01*
X1157224Y450947D01*
Y452640D01*
X1156378Y453486D01*
X1152992D01*
Y448408D02*
X1152146Y447561D01*
Y445868D01*
X1152992Y445022D01*
X1156378D01*
X1157224Y445868D01*
Y447561D01*
X1156378Y448408D01*
X1152992D01*
X1157224Y443329D02*
Y441637D01*
Y442483D01*
X1152146D01*
X1152992Y443329D01*
%TF.MD5,8127fc711b26b4fdf358bac5781482e0*%
M02*
