%TF.GenerationSoftware,Altium Limited,Altium Designer,22.2.1 (43)*%
G04 Layer_Color=2752767*
%FSLAX44Y44*%
%MOMM*%
%TF.SameCoordinates,040CE2E0-B857-4D47-B26F-9B72162B56B4*%
%TF.FilePolarity,Positive*%
%TF.FileFunction,Drawing*%
%TF.Part,Single*%
G01*
G75*
%TA.AperFunction,NonConductor*%
%ADD98C,0.1270*%
%ADD208C,0.1693*%
%ADD209C,0.1016*%
D98*
X1649476Y1016000D02*
Y1026160D01*
X1659636D01*
Y1016000D01*
X1649476D01*
Y508000D02*
Y518160D01*
X1659636D01*
Y508000D01*
X1649476D01*
X1701038Y910336D02*
X1695958Y920496D01*
X1706118D01*
X1701038Y910336D01*
X1676146D02*
X1671066Y920496D01*
X1681226D01*
X1676146Y910336D01*
X1651000D02*
X1645920Y920496D01*
X1656080D01*
X1651000Y910336D01*
X1626108D02*
X1621028Y920496D01*
X1631188D01*
X1626108Y910336D01*
X1701038Y873506D02*
X1695958Y883666D01*
X1706118D01*
X1701038Y873506D01*
X1676146D02*
X1671066Y883666D01*
X1681226D01*
X1676146Y873506D01*
X1651000D02*
X1645920Y883666D01*
X1656080D01*
X1651000Y873506D01*
X1626108D02*
X1621028Y883666D01*
X1631188D01*
X1626108Y873506D01*
X1701038Y838454D02*
X1695958Y848614D01*
X1706118D01*
X1701038Y838454D01*
X1676146D02*
X1671066Y848614D01*
X1681226D01*
X1676146Y838454D01*
X1651000D02*
X1645920Y848614D01*
X1656080D01*
X1651000Y838454D01*
X1626108D02*
X1621028Y848614D01*
X1631188D01*
X1626108Y838454D01*
X1701038Y813308D02*
X1695958Y823468D01*
X1706118D01*
X1701038Y813308D01*
X1676146D02*
X1671066Y823468D01*
X1681226D01*
X1676146Y813308D01*
X1651000D02*
X1645920Y823468D01*
X1656080D01*
X1651000Y813308D01*
X1626108D02*
X1621028Y823468D01*
X1631188D01*
X1626108Y813308D01*
X1701038Y788416D02*
X1695958Y798576D01*
X1706118D01*
X1701038Y788416D01*
X1676146D02*
X1671066Y798576D01*
X1681226D01*
X1676146Y788416D01*
X1651000D02*
X1645920Y798576D01*
X1656080D01*
X1651000Y788416D01*
X1626108D02*
X1621028Y798576D01*
X1631188D01*
X1626108Y788416D01*
X1701038Y763524D02*
X1695958Y773684D01*
X1706118D01*
X1701038Y763524D01*
X1676146D02*
X1671066Y773684D01*
X1681226D01*
X1676146Y763524D01*
X1651000D02*
X1645920Y773684D01*
X1656080D01*
X1651000Y763524D01*
X1626108D02*
X1621028Y773684D01*
X1631188D01*
X1626108Y763524D01*
X1701038Y738378D02*
X1695958Y748538D01*
X1706118D01*
X1701038Y738378D01*
X1676146D02*
X1671066Y748538D01*
X1681226D01*
X1676146Y738378D01*
X1651000D02*
X1645920Y748538D01*
X1656080D01*
X1651000Y738378D01*
X1626108D02*
X1621028Y748538D01*
X1631188D01*
X1626108Y738378D01*
X1701038Y713486D02*
X1695958Y723646D01*
X1706118D01*
X1701038Y713486D01*
X1676146D02*
X1671066Y723646D01*
X1681226D01*
X1676146Y713486D01*
X1651000D02*
X1645920Y723646D01*
X1656080D01*
X1651000Y713486D01*
X1626108D02*
X1621028Y723646D01*
X1631188D01*
X1626108Y713486D01*
X1701038Y688340D02*
X1695958Y698500D01*
X1706118D01*
X1701038Y688340D01*
X1676146D02*
X1671066Y698500D01*
X1681226D01*
X1676146Y688340D01*
X1651000D02*
X1645920Y698500D01*
X1656080D01*
X1651000Y688340D01*
X1626108D02*
X1621028Y698500D01*
X1631188D01*
X1626108Y688340D01*
X1701038Y663448D02*
X1695958Y673608D01*
X1706118D01*
X1701038Y663448D01*
X1676146D02*
X1671066Y673608D01*
X1681226D01*
X1676146Y663448D01*
X1651000D02*
X1645920Y673608D01*
X1656080D01*
X1651000Y663448D01*
X1626108D02*
X1621028Y673608D01*
X1631188D01*
X1626108Y663448D01*
X1701038Y638302D02*
X1695958Y648462D01*
X1706118D01*
X1701038Y638302D01*
X1676146D02*
X1671066Y648462D01*
X1681226D01*
X1676146Y638302D01*
X1651000D02*
X1645920Y648462D01*
X1656080D01*
X1651000Y638302D01*
X1626108D02*
X1621028Y648462D01*
X1631188D01*
X1626108Y638302D01*
X1701038Y613410D02*
X1695958Y623570D01*
X1706118D01*
X1701038Y613410D01*
X1676146D02*
X1671066Y623570D01*
X1681226D01*
X1676146Y613410D01*
X1651000D02*
X1645920Y623570D01*
X1656080D01*
X1651000Y613410D01*
X1626108D02*
X1621028Y623570D01*
X1631188D01*
X1626108Y613410D01*
X1383030Y270510D02*
X1385570Y273050D01*
X1388110D01*
X1385570Y275590D01*
X1388110Y278130D01*
X1385570D01*
X1383030Y280670D01*
X1380490Y278130D01*
X1377950D01*
X1380490Y275590D01*
X1377950Y273050D01*
X1380490D01*
X1383030Y270510D01*
X1357630D02*
X1360170Y273050D01*
X1362710D01*
X1360170Y275590D01*
X1362710Y278130D01*
X1360170D01*
X1357630Y280670D01*
X1355090Y278130D01*
X1352550D01*
X1355090Y275590D01*
X1352550Y273050D01*
X1355090D01*
X1357630Y270510D01*
X1332230D02*
X1334770Y273050D01*
X1337310D01*
X1334770Y275590D01*
X1337310Y278130D01*
X1334770D01*
X1332230Y280670D01*
X1329690Y278130D01*
X1327150D01*
X1329690Y275590D01*
X1327150Y273050D01*
X1329690D01*
X1332230Y270510D01*
X1306830D02*
X1309370Y273050D01*
X1311910D01*
X1309370Y275590D01*
X1311910Y278130D01*
X1309370D01*
X1306830Y280670D01*
X1304290Y278130D01*
X1301750D01*
X1304290Y275590D01*
X1301750Y273050D01*
X1304290D01*
X1306830Y270510D01*
X528930Y1230630D02*
X531470Y1235710D01*
X528930Y1240790D01*
X534010Y1238250D01*
X539090Y1240790D01*
X536550Y1235710D01*
X539090Y1230630D01*
X534010Y1233170D01*
X528930Y1230630D01*
X624230D02*
X626770Y1235710D01*
X624230Y1240790D01*
X629310Y1238250D01*
X634390Y1240790D01*
X631850Y1235710D01*
X634390Y1230630D01*
X629310Y1233170D01*
X624230Y1230630D01*
X1018870Y703580D02*
Y701040D01*
X1023950D01*
Y703580D01*
X1026490D01*
Y708660D01*
X1023950D01*
Y711200D01*
X1018870D01*
Y708660D01*
X1016330D01*
Y703580D01*
X1018870D01*
Y678180D02*
Y675640D01*
X1023950D01*
Y678180D01*
X1026490D01*
Y683260D01*
X1023950D01*
Y685800D01*
X1018870D01*
Y683260D01*
X1016330D01*
Y678180D01*
X1018870D01*
Y652780D02*
Y650240D01*
X1023950D01*
Y652780D01*
X1026490D01*
Y657860D01*
X1023950D01*
Y660400D01*
X1018870D01*
Y657860D01*
X1016330D01*
Y652780D01*
X1018870D01*
Y627380D02*
Y624840D01*
X1023950D01*
Y627380D01*
X1026490D01*
Y632460D01*
X1023950D01*
Y635000D01*
X1018870D01*
Y632460D01*
X1016330D01*
Y627380D01*
X1018870D01*
X939470D02*
Y624840D01*
X944550D01*
Y627380D01*
X947090D01*
Y632460D01*
X944550D01*
Y635000D01*
X939470D01*
Y632460D01*
X936930D01*
Y627380D01*
X939470D01*
Y652780D02*
Y650240D01*
X944550D01*
Y652780D01*
X947090D01*
Y657860D01*
X944550D01*
Y660400D01*
X939470D01*
Y657860D01*
X936930D01*
Y652780D01*
X939470D01*
Y703580D02*
Y701040D01*
X944550D01*
Y703580D01*
X947090D01*
Y708660D01*
X944550D01*
Y711200D01*
X939470D01*
Y708660D01*
X936930D01*
Y703580D01*
X939470D01*
Y678180D02*
Y675640D01*
X944550D01*
Y678180D01*
X947090D01*
Y683260D01*
X944550D01*
Y685800D01*
X939470D01*
Y683260D01*
X936930D01*
Y678180D01*
X939470D01*
X843280Y582930D02*
X845820D01*
X848360Y585470D01*
X850900Y582930D01*
X853440D01*
Y585470D01*
X850900Y588010D01*
X853440Y590550D01*
Y593090D01*
X850900D01*
X848360Y590550D01*
X845820Y593090D01*
X843280D01*
Y590550D01*
X845820Y588010D01*
X843280Y585470D01*
Y582930D01*
X640080Y533400D02*
X645160Y538480D01*
X650240Y533400D01*
X645160Y528320D01*
X640080Y533400D01*
Y588010D02*
X645160Y593090D01*
X650240Y588010D01*
X645160Y582930D01*
X640080Y588010D01*
Y642620D02*
X645160Y647700D01*
X650240Y642620D01*
X645160Y637540D01*
X640080Y642620D01*
X1329690Y1108650D02*
Y1118810D01*
X1339850D01*
Y1108650D01*
X1329690D01*
X1331722Y1110682D02*
Y1116778D01*
X1337818D01*
Y1110682D01*
X1331722D01*
X1329690Y1085850D02*
Y1096010D01*
X1339850D01*
Y1085850D01*
X1329690D01*
X1331722Y1087882D02*
Y1093978D01*
X1337818D01*
Y1087882D01*
X1331722D01*
X1329690Y1063050D02*
Y1073210D01*
X1339850D01*
Y1063050D01*
X1329690D01*
X1331722Y1065082D02*
Y1071178D01*
X1337818D01*
Y1065082D01*
X1331722D01*
X488950Y974090D02*
X483870Y984250D01*
X494030D01*
X488950Y974090D01*
Y976122D02*
X485902Y982218D01*
X491998D01*
X488950Y976122D01*
Y948690D02*
X483870Y958850D01*
X494030D01*
X488950Y948690D01*
Y950722D02*
X485902Y956818D01*
X491998D01*
X488950Y950722D01*
Y923290D02*
X483870Y933450D01*
X494030D01*
X488950Y923290D01*
Y925322D02*
X485902Y931418D01*
X491998D01*
X488950Y925322D01*
Y897890D02*
X483870Y908050D01*
X494030D01*
X488950Y897890D01*
Y899922D02*
X485902Y906018D01*
X491998D01*
X488950Y899922D01*
X412750Y897890D02*
X407670Y908050D01*
X417830D01*
X412750Y897890D01*
Y899922D02*
X409702Y906018D01*
X415798D01*
X412750Y899922D01*
Y923290D02*
X407670Y933450D01*
X417830D01*
X412750Y923290D01*
Y925322D02*
X409702Y931418D01*
X415798D01*
X412750Y925322D01*
Y948690D02*
X407670Y958850D01*
X417830D01*
X412750Y948690D01*
Y950722D02*
X409702Y956818D01*
X415798D01*
X412750Y950722D01*
Y974090D02*
X407670Y984250D01*
X417830D01*
X412750Y974090D01*
Y976122D02*
X409702Y982218D01*
X415798D01*
X412750Y976122D01*
X487680Y1094740D02*
X482600Y1104900D01*
X492760D01*
X487680Y1094740D01*
Y1096772D02*
X484632Y1102868D01*
X490728D01*
X487680Y1096772D01*
Y1069340D02*
X482600Y1079500D01*
X492760D01*
X487680Y1069340D01*
Y1071372D02*
X484632Y1077468D01*
X490728D01*
X487680Y1071372D01*
Y1043940D02*
X482600Y1054100D01*
X492760D01*
X487680Y1043940D01*
Y1045972D02*
X484632Y1052068D01*
X490728D01*
X487680Y1045972D01*
Y1018540D02*
X482600Y1028700D01*
X492760D01*
X487680Y1018540D01*
Y1020572D02*
X484632Y1026668D01*
X490728D01*
X487680Y1020572D01*
X411480Y1018540D02*
X406400Y1028700D01*
X416560D01*
X411480Y1018540D01*
Y1020572D02*
X408432Y1026668D01*
X414528D01*
X411480Y1020572D01*
Y1043940D02*
X406400Y1054100D01*
X416560D01*
X411480Y1043940D01*
Y1045972D02*
X408432Y1052068D01*
X414528D01*
X411480Y1045972D01*
Y1069340D02*
X406400Y1079500D01*
X416560D01*
X411480Y1069340D01*
Y1071372D02*
X408432Y1077468D01*
X414528D01*
X411480Y1071372D01*
Y1094740D02*
X406400Y1104900D01*
X416560D01*
X411480Y1094740D01*
Y1096772D02*
X408432Y1102868D01*
X414528D01*
X411480Y1096772D01*
X764140Y1090930D02*
X766680Y1093470D01*
X769220D01*
X766680Y1096010D01*
X769220Y1098550D01*
X766680D01*
X764140Y1101090D01*
X761600Y1098550D01*
X759060D01*
X761600Y1096010D01*
X759060Y1093470D01*
X761600D01*
X764140Y1090930D01*
Y1092962D02*
X765664Y1094486D01*
X767188D01*
X765664Y1096010D01*
X767188Y1097534D01*
X765664D01*
X764140Y1099058D01*
X762616Y1097534D01*
X761092D01*
X762616Y1096010D01*
X761092Y1094486D01*
X762616D01*
X764140Y1092962D01*
X714140Y1090930D02*
X716680Y1093470D01*
X719220D01*
X716680Y1096010D01*
X719220Y1098550D01*
X716680D01*
X714140Y1101090D01*
X711600Y1098550D01*
X709060D01*
X711600Y1096010D01*
X709060Y1093470D01*
X711600D01*
X714140Y1090930D01*
Y1092962D02*
X715664Y1094486D01*
X717188D01*
X715664Y1096010D01*
X717188Y1097534D01*
X715664D01*
X714140Y1099058D01*
X712616Y1097534D01*
X711092D01*
X712616Y1096010D01*
X711092Y1094486D01*
X712616D01*
X714140Y1092962D01*
X314960Y829260D02*
X317500Y834340D01*
X314960Y839420D01*
X320040Y836880D01*
X325120Y839420D01*
X322580Y834340D01*
X325120Y829260D01*
X320040Y831800D01*
X314960Y829260D01*
X316992Y831292D02*
X318516Y834340D01*
X316992Y837388D01*
X320040Y835864D01*
X323088Y837388D01*
X321564Y834340D01*
X323088Y831292D01*
X320040Y832816D01*
X316992Y831292D01*
X314960Y803910D02*
X317500Y808990D01*
X314960Y814070D01*
X320040Y811530D01*
X325120Y814070D01*
X322580Y808990D01*
X325120Y803910D01*
X320040Y806450D01*
X314960Y803910D01*
X316992Y805942D02*
X318516Y808990D01*
X316992Y812038D01*
X320040Y810514D01*
X323088Y812038D01*
X321564Y808990D01*
X323088Y805942D01*
X320040Y807466D01*
X316992Y805942D01*
X314960Y778560D02*
X317500Y783640D01*
X314960Y788720D01*
X320040Y786180D01*
X325120Y788720D01*
X322580Y783640D01*
X325120Y778560D01*
X320040Y781100D01*
X314960Y778560D01*
X316992Y780592D02*
X318516Y783640D01*
X316992Y786688D01*
X320040Y785164D01*
X323088Y786688D01*
X321564Y783640D01*
X323088Y780592D01*
X320040Y782116D01*
X316992Y780592D01*
X313690Y957514D02*
X316230Y962594D01*
X313690Y967673D01*
X318770Y965134D01*
X323850Y967673D01*
X321310Y962594D01*
X323850Y957514D01*
X318770Y960053D01*
X313690Y957514D01*
X315722Y959546D02*
X317246Y962594D01*
X315722Y965641D01*
X318770Y964118D01*
X321818Y965641D01*
X320294Y962594D01*
X321818Y959546D01*
X318770Y961069D01*
X315722Y959546D01*
X313690Y932163D02*
X316230Y937243D01*
X313690Y942323D01*
X318770Y939783D01*
X323850Y942323D01*
X321310Y937243D01*
X323850Y932163D01*
X318770Y934703D01*
X313690Y932163D01*
X315722Y934195D02*
X317246Y937243D01*
X315722Y940291D01*
X318770Y938767D01*
X321818Y940291D01*
X320294Y937243D01*
X321818Y934195D01*
X318770Y935719D01*
X315722Y934195D01*
X313690Y906814D02*
X316230Y911893D01*
X313690Y916973D01*
X318770Y914434D01*
X323850Y916973D01*
X321310Y911893D01*
X323850Y906814D01*
X318770Y909353D01*
X313690Y906814D01*
X315722Y908846D02*
X317246Y911893D01*
X315722Y914941D01*
X318770Y913418D01*
X321818Y914941D01*
X320294Y911893D01*
X321818Y908846D01*
X318770Y910369D01*
X315722Y908846D01*
X313690Y1085767D02*
X316230Y1090847D01*
X313690Y1095927D01*
X318770Y1093387D01*
X323850Y1095927D01*
X321310Y1090847D01*
X323850Y1085767D01*
X318770Y1088307D01*
X313690Y1085767D01*
X315722Y1087799D02*
X317246Y1090847D01*
X315722Y1093895D01*
X318770Y1092371D01*
X321818Y1093895D01*
X320294Y1090847D01*
X321818Y1087799D01*
X318770Y1089323D01*
X315722Y1087799D01*
X313690Y1060416D02*
X316230Y1065497D01*
X313690Y1070576D01*
X318770Y1068036D01*
X323850Y1070576D01*
X321310Y1065497D01*
X323850Y1060416D01*
X318770Y1062956D01*
X313690Y1060416D01*
X315722Y1062449D02*
X317246Y1065497D01*
X315722Y1068544D01*
X318770Y1067020D01*
X321818Y1068544D01*
X320294Y1065497D01*
X321818Y1062449D01*
X318770Y1063972D01*
X315722Y1062449D01*
X313690Y1035067D02*
X316230Y1040147D01*
X313690Y1045227D01*
X318770Y1042687D01*
X323850Y1045227D01*
X321310Y1040147D01*
X323850Y1035067D01*
X318770Y1037607D01*
X313690Y1035067D01*
X315722Y1037099D02*
X317246Y1040147D01*
X315722Y1043195D01*
X318770Y1041671D01*
X321818Y1043195D01*
X320294Y1040147D01*
X321818Y1037099D01*
X318770Y1038623D01*
X315722Y1037099D01*
X313690Y1214020D02*
X316230Y1219100D01*
X313690Y1224180D01*
X318770Y1221640D01*
X323850Y1224180D01*
X321310Y1219100D01*
X323850Y1214020D01*
X318770Y1216560D01*
X313690Y1214020D01*
X315722Y1216052D02*
X317246Y1219100D01*
X315722Y1222148D01*
X318770Y1220624D01*
X321818Y1222148D01*
X320294Y1219100D01*
X321818Y1216052D01*
X318770Y1217576D01*
X315722Y1216052D01*
X313690Y1188670D02*
X316230Y1193750D01*
X313690Y1198830D01*
X318770Y1196290D01*
X323850Y1198830D01*
X321310Y1193750D01*
X323850Y1188670D01*
X318770Y1191210D01*
X313690Y1188670D01*
X315722Y1190702D02*
X317246Y1193750D01*
X315722Y1196798D01*
X318770Y1195274D01*
X321818Y1196798D01*
X320294Y1193750D01*
X321818Y1190702D01*
X318770Y1192226D01*
X315722Y1190702D01*
X313690Y1163320D02*
X316230Y1168400D01*
X313690Y1173480D01*
X318770Y1170940D01*
X323850Y1173480D01*
X321310Y1168400D01*
X323850Y1163320D01*
X318770Y1165860D01*
X313690Y1163320D01*
X315722Y1165352D02*
X317246Y1168400D01*
X315722Y1171448D01*
X318770Y1169924D01*
X321818Y1171448D01*
X320294Y1168400D01*
X321818Y1165352D01*
X318770Y1166876D01*
X315722Y1165352D01*
X1017600Y594360D02*
Y591820D01*
X1022680D01*
Y594360D01*
X1025220D01*
Y599440D01*
X1022680D01*
Y601980D01*
X1017600D01*
Y599440D01*
X1015060D01*
Y594360D01*
X1017600D01*
Y568960D02*
Y566420D01*
X1022680D01*
Y568960D01*
X1025220D01*
Y574040D01*
X1022680D01*
Y576580D01*
X1017600D01*
Y574040D01*
X1015060D01*
Y568960D01*
X1017600D01*
Y543560D02*
Y541020D01*
X1022680D01*
Y543560D01*
X1025220D01*
Y548640D01*
X1022680D01*
Y551180D01*
X1017600D01*
Y548640D01*
X1015060D01*
Y543560D01*
X1017600D01*
Y518160D02*
Y515620D01*
X1022680D01*
Y518160D01*
X1025220D01*
Y523240D01*
X1022680D01*
Y525780D01*
X1017600D01*
Y523240D01*
X1015060D01*
Y518160D01*
X1017600D01*
X938200D02*
Y515620D01*
X943280D01*
Y518160D01*
X945820D01*
Y523240D01*
X943280D01*
Y525780D01*
X938200D01*
Y523240D01*
X935660D01*
Y518160D01*
X938200D01*
Y543560D02*
Y541020D01*
X943280D01*
Y543560D01*
X945820D01*
Y548640D01*
X943280D01*
Y551180D01*
X938200D01*
Y548640D01*
X935660D01*
Y543560D01*
X938200D01*
Y594360D02*
Y591820D01*
X943280D01*
Y594360D01*
X945820D01*
Y599440D01*
X943280D01*
Y601980D01*
X938200D01*
Y599440D01*
X935660D01*
Y594360D01*
X938200D01*
Y568960D02*
Y566420D01*
X943280D01*
Y568960D01*
X945820D01*
Y574040D01*
X943280D01*
Y576580D01*
X938200D01*
Y574040D01*
X935660D01*
Y568960D01*
X938200D01*
Y459740D02*
Y457200D01*
X943280D01*
Y459740D01*
X945820D01*
Y464820D01*
X943280D01*
Y467360D01*
X938200D01*
Y464820D01*
X935660D01*
Y459740D01*
X938200D01*
Y485140D02*
Y482600D01*
X943280D01*
Y485140D01*
X945820D01*
Y490220D01*
X943280D01*
Y492760D01*
X938200D01*
Y490220D01*
X935660D01*
Y485140D01*
X938200D01*
Y434340D02*
Y431800D01*
X943280D01*
Y434340D01*
X945820D01*
Y439420D01*
X943280D01*
Y441960D01*
X938200D01*
Y439420D01*
X935660D01*
Y434340D01*
X938200D01*
Y408940D02*
Y406400D01*
X943280D01*
Y408940D01*
X945820D01*
Y414020D01*
X943280D01*
Y416560D01*
X938200D01*
Y414020D01*
X935660D01*
Y408940D01*
X938200D01*
X1017600D02*
Y406400D01*
X1022680D01*
Y408940D01*
X1025220D01*
Y414020D01*
X1022680D01*
Y416560D01*
X1017600D01*
Y414020D01*
X1015060D01*
Y408940D01*
X1017600D01*
Y434340D02*
Y431800D01*
X1022680D01*
Y434340D01*
X1025220D01*
Y439420D01*
X1022680D01*
Y441960D01*
X1017600D01*
Y439420D01*
X1015060D01*
Y434340D01*
X1017600D01*
Y459740D02*
Y457200D01*
X1022680D01*
Y459740D01*
X1025220D01*
Y464820D01*
X1022680D01*
Y467360D01*
X1017600D01*
Y464820D01*
X1015060D01*
Y459740D01*
X1017600D01*
Y485140D02*
Y482600D01*
X1022680D01*
Y485140D01*
X1025220D01*
Y490220D01*
X1022680D01*
Y492760D01*
X1017600D01*
Y490220D01*
X1015060D01*
Y485140D01*
X1017600D01*
X939470Y350520D02*
Y347980D01*
X944550D01*
Y350520D01*
X947090D01*
Y355600D01*
X944550D01*
Y358140D01*
X939470D01*
Y355600D01*
X936930D01*
Y350520D01*
X939470D01*
Y375920D02*
Y373380D01*
X944550D01*
Y375920D01*
X947090D01*
Y381000D01*
X944550D01*
Y383540D01*
X939470D01*
Y381000D01*
X936930D01*
Y375920D01*
X939470D01*
Y325120D02*
Y322580D01*
X944550D01*
Y325120D01*
X947090D01*
Y330200D01*
X944550D01*
Y332740D01*
X939470D01*
Y330200D01*
X936930D01*
Y325120D01*
X939470D01*
Y299720D02*
Y297180D01*
X944550D01*
Y299720D01*
X947090D01*
Y304800D01*
X944550D01*
Y307340D01*
X939470D01*
Y304800D01*
X936930D01*
Y299720D01*
X939470D01*
X1018870D02*
Y297180D01*
X1023950D01*
Y299720D01*
X1026490D01*
Y304800D01*
X1023950D01*
Y307340D01*
X1018870D01*
Y304800D01*
X1016330D01*
Y299720D01*
X1018870D01*
Y325120D02*
Y322580D01*
X1023950D01*
Y325120D01*
X1026490D01*
Y330200D01*
X1023950D01*
Y332740D01*
X1018870D01*
Y330200D01*
X1016330D01*
Y325120D01*
X1018870D01*
Y350520D02*
Y347980D01*
X1023950D01*
Y350520D01*
X1026490D01*
Y355600D01*
X1023950D01*
Y358140D01*
X1018870D01*
Y355600D01*
X1016330D01*
Y350520D01*
X1018870D01*
Y375920D02*
Y373380D01*
X1023950D01*
Y375920D01*
X1026490D01*
Y381000D01*
X1023950D01*
Y383540D01*
X1018870D01*
Y381000D01*
X1016330D01*
Y375920D01*
X1018870D01*
X843280Y419100D02*
X845820D01*
X848360Y421640D01*
X850900Y419100D01*
X853440D01*
Y421640D01*
X850900Y424180D01*
X853440Y426720D01*
Y429260D01*
X850900D01*
X848360Y426720D01*
X845820Y429260D01*
X843280D01*
Y426720D01*
X845820Y424180D01*
X843280Y421640D01*
Y419100D01*
X640080Y369570D02*
X645160Y374650D01*
X650240Y369570D01*
X645160Y364490D01*
X640080Y369570D01*
Y424180D02*
X645160Y429260D01*
X650240Y424180D01*
X645160Y419100D01*
X640080Y424180D01*
Y478790D02*
X645160Y483870D01*
X650240Y478790D01*
X645160Y473710D01*
X640080Y478790D01*
X516890Y582930D02*
X519430D01*
X521970Y585470D01*
X524510Y582930D01*
X527050D01*
Y585470D01*
X524510Y588010D01*
X527050Y590550D01*
Y593090D01*
X524510D01*
X521970Y590550D01*
X519430Y593090D01*
X516890D01*
Y590550D01*
X519430Y588010D01*
X516890Y585470D01*
Y582930D01*
X313690Y533400D02*
X318770Y538480D01*
X323850Y533400D01*
X318770Y528320D01*
X313690Y533400D01*
Y588010D02*
X318770Y593090D01*
X323850Y588010D01*
X318770Y582930D01*
X313690Y588010D01*
Y642620D02*
X318770Y647700D01*
X323850Y642620D01*
X318770Y637540D01*
X313690Y642620D01*
X1513130Y320626D02*
Y318086D01*
X1518210D01*
Y320626D01*
X1520750D01*
Y325706D01*
X1518210D01*
Y328246D01*
X1513130D01*
Y325706D01*
X1510590D01*
Y320626D01*
X1513130D01*
X1514146Y321642D02*
Y320118D01*
X1517194D01*
Y321642D01*
X1518718D01*
Y324690D01*
X1517194D01*
Y326214D01*
X1514146D01*
Y324690D01*
X1512622D01*
Y321642D01*
X1514146D01*
X1488130Y320626D02*
Y318086D01*
X1493210D01*
Y320626D01*
X1495750D01*
Y325706D01*
X1493210D01*
Y328246D01*
X1488130D01*
Y325706D01*
X1485590D01*
Y320626D01*
X1488130D01*
X1489146Y321642D02*
Y320118D01*
X1492194D01*
Y321642D01*
X1493718D01*
Y324690D01*
X1492194D01*
Y326214D01*
X1489146D01*
Y324690D01*
X1487622D01*
Y321642D01*
X1489146D01*
X1488130Y300625D02*
Y298085D01*
X1493210D01*
Y300625D01*
X1495750D01*
Y305705D01*
X1493210D01*
Y308245D01*
X1488130D01*
Y305705D01*
X1485590D01*
Y300625D01*
X1488130D01*
X1489146Y301641D02*
Y300117D01*
X1492194D01*
Y301641D01*
X1493718D01*
Y304689D01*
X1492194D01*
Y306213D01*
X1489146D01*
Y304689D01*
X1487622D01*
Y301641D01*
X1489146D01*
X1513130Y300625D02*
Y298085D01*
X1518210D01*
Y300625D01*
X1520750D01*
Y305705D01*
X1518210D01*
Y308245D01*
X1513130D01*
Y305705D01*
X1510590D01*
Y300625D01*
X1513130D01*
X1514146Y301641D02*
Y300117D01*
X1517194D01*
Y301641D01*
X1518718D01*
Y304689D01*
X1517194D01*
Y306213D01*
X1514146D01*
Y304689D01*
X1512622D01*
Y301641D01*
X1514146D01*
X1437890Y270986D02*
X1440430D01*
X1442970Y273526D01*
X1445510Y270986D01*
X1448050D01*
Y273526D01*
X1445510Y276066D01*
X1448050Y278605D01*
Y281145D01*
X1445510D01*
X1442970Y278605D01*
X1440430Y281145D01*
X1437890D01*
Y278605D01*
X1440430Y276066D01*
X1437890Y273526D01*
Y270986D01*
X1439922Y273018D02*
X1441446D01*
X1442970Y274541D01*
X1444494Y273018D01*
X1446018D01*
Y274541D01*
X1444494Y276066D01*
X1446018Y277589D01*
Y279114D01*
X1444494D01*
X1442970Y277589D01*
X1441446Y279114D01*
X1439922D01*
Y277589D01*
X1441446Y276066D01*
X1439922Y274541D01*
Y273018D01*
X1558290Y270986D02*
X1560830D01*
X1563370Y273526D01*
X1565910Y270986D01*
X1568450D01*
Y273526D01*
X1565910Y276066D01*
X1568450Y278605D01*
Y281145D01*
X1565910D01*
X1563370Y278605D01*
X1560830Y281145D01*
X1558290D01*
Y278605D01*
X1560830Y276066D01*
X1558290Y273526D01*
Y270986D01*
X1560322Y273018D02*
X1561846D01*
X1563370Y274541D01*
X1564894Y273018D01*
X1566418D01*
Y274541D01*
X1564894Y276066D01*
X1566418Y277589D01*
Y279114D01*
X1564894D01*
X1563370Y277589D01*
X1561846Y279114D01*
X1560322D01*
Y277589D01*
X1561846Y276066D01*
X1560322Y274541D01*
Y273018D01*
X313690Y478790D02*
X318770Y483870D01*
X323850Y478790D01*
X318770Y473710D01*
X313690Y478790D01*
Y424180D02*
X318770Y429260D01*
X323850Y424180D01*
X318770Y419100D01*
X313690Y424180D01*
Y369570D02*
X318770Y374650D01*
X323850Y369570D01*
X318770Y364490D01*
X313690Y369570D01*
X516890Y419100D02*
X519430D01*
X521970Y421640D01*
X524510Y419100D01*
X527050D01*
Y421640D01*
X524510Y424180D01*
X527050Y426720D01*
Y429260D01*
X524510D01*
X521970Y426720D01*
X519430Y429260D01*
X516890D01*
Y426720D01*
X519430Y424180D01*
X516890Y421640D01*
Y419100D01*
X824230Y812800D02*
Y821264D01*
X828462Y825496D01*
X832694Y821264D01*
Y812800D01*
Y819148D01*
X824230D01*
X1559560Y834390D02*
Y842854D01*
X1563792Y847086D01*
X1568024Y842854D01*
Y834390D01*
Y840738D01*
X1559560D01*
X1593850Y814070D02*
Y822534D01*
X1598082Y826766D01*
X1602314Y822534D01*
Y814070D01*
Y820418D01*
X1593850D01*
X1249680Y838200D02*
Y846664D01*
X1253912Y850896D01*
X1258144Y846664D01*
Y838200D01*
Y844548D01*
X1249680D01*
X1243330Y773430D02*
Y781894D01*
X1247562Y786126D01*
X1251794Y781894D01*
Y773430D01*
Y779778D01*
X1243330D01*
X1217930Y775970D02*
Y784434D01*
X1222162Y788666D01*
X1226394Y784434D01*
Y775970D01*
Y782318D01*
X1217930D01*
X1229360Y784860D02*
Y793324D01*
X1233592Y797556D01*
X1237824Y793324D01*
Y784860D01*
Y791208D01*
X1229360D01*
X1217930Y820420D02*
Y828884D01*
X1222162Y833116D01*
X1226394Y828884D01*
Y820420D01*
Y826768D01*
X1217930D01*
X1239520Y792480D02*
Y800944D01*
X1243752Y805176D01*
X1247984Y800944D01*
Y792480D01*
Y798828D01*
X1239520D01*
X1336040Y859790D02*
Y868254D01*
X1340272Y872486D01*
X1344504Y868254D01*
Y859790D01*
Y866138D01*
X1336040D01*
X1250950Y693420D02*
Y701884D01*
X1255182Y706116D01*
X1259414Y701884D01*
Y693420D01*
Y699768D01*
X1250950D01*
X1591310Y448310D02*
Y456774D01*
X1595542Y461006D01*
X1599774Y456774D01*
Y448310D01*
Y454658D01*
X1591310D01*
X1573530Y388620D02*
Y397084D01*
X1577762Y401316D01*
X1581994Y397084D01*
Y388620D01*
Y394968D01*
X1573530D01*
X1558290Y374650D02*
Y383114D01*
X1562522Y387346D01*
X1566754Y383114D01*
Y374650D01*
Y380998D01*
X1558290D01*
X1569542Y848327D02*
Y856791D01*
X1573774Y861023D01*
X1578006Y856791D01*
Y848327D01*
Y854675D01*
X1569542D01*
X1643380Y377190D02*
Y385654D01*
X1647612Y389886D01*
X1651844Y385654D01*
Y377190D01*
Y383538D01*
X1643380D01*
X1572260Y443226D02*
Y430530D01*
X1578608D01*
X1580724Y432646D01*
Y434762D01*
X1578608Y436878D01*
X1572260D01*
X1578608D01*
X1580724Y438994D01*
Y441110D01*
X1578608Y443226D01*
X1572260D01*
X1699647Y372106D02*
Y359410D01*
X1705995D01*
X1708111Y361526D01*
Y363642D01*
X1705995Y365758D01*
X1699647D01*
X1705995D01*
X1708111Y367874D01*
Y369990D01*
X1705995Y372106D01*
X1699647D01*
X1541780Y369570D02*
Y378034D01*
X1546012Y382266D01*
X1550244Y378034D01*
Y369570D01*
Y375918D01*
X1541780D01*
X1717040Y372110D02*
Y380574D01*
X1721272Y384806D01*
X1725504Y380574D01*
Y372110D01*
Y378458D01*
X1717040D01*
X1757680Y736600D02*
Y745064D01*
X1761912Y749296D01*
X1766144Y745064D01*
Y736600D01*
Y742948D01*
X1757680D01*
X1390650Y463550D02*
Y472014D01*
X1394882Y476246D01*
X1399114Y472014D01*
Y463550D01*
Y469898D01*
X1390650D01*
X1526540Y643890D02*
Y652354D01*
X1530772Y656586D01*
X1535004Y652354D01*
Y643890D01*
Y650238D01*
X1526540D01*
X1449070Y568960D02*
Y577424D01*
X1453302Y581656D01*
X1457534Y577424D01*
Y568960D01*
Y575308D01*
X1449070D01*
X1593850Y830580D02*
Y839044D01*
X1598082Y843276D01*
X1602314Y839044D01*
Y830580D01*
Y836928D01*
X1593850D01*
X1770380Y608330D02*
Y616794D01*
X1774612Y621026D01*
X1778844Y616794D01*
Y608330D01*
Y614678D01*
X1770380D01*
X1534160Y723900D02*
Y732364D01*
X1538392Y736596D01*
X1542624Y732364D01*
Y723900D01*
Y730248D01*
X1534160D01*
X1645920Y387350D02*
Y395814D01*
X1650152Y400046D01*
X1654384Y395814D01*
Y387350D01*
Y393698D01*
X1645920D01*
X1527810Y796290D02*
Y804754D01*
X1532042Y808986D01*
X1536274Y804754D01*
Y796290D01*
Y802638D01*
X1527810D01*
X1595120Y725170D02*
Y733634D01*
X1599352Y737866D01*
X1603584Y733634D01*
Y725170D01*
Y731518D01*
X1595120D01*
X1583690Y690880D02*
Y699344D01*
X1587922Y703576D01*
X1592154Y699344D01*
Y690880D01*
Y697228D01*
X1583690D01*
Y674370D02*
Y682834D01*
X1587922Y687066D01*
X1592154Y682834D01*
Y674370D01*
Y680718D01*
X1583690D01*
X1593850Y674370D02*
Y682834D01*
X1598082Y687066D01*
X1602314Y682834D01*
Y674370D01*
Y680718D01*
X1593850D01*
X1586230Y427990D02*
Y436454D01*
X1590462Y440686D01*
X1594694Y436454D01*
Y427990D01*
Y434338D01*
X1586230D01*
X1590040Y516890D02*
Y525354D01*
X1594272Y529586D01*
X1598504Y525354D01*
Y516890D01*
Y523238D01*
X1590040D01*
X1588770Y506730D02*
Y515194D01*
X1593002Y519426D01*
X1597234Y515194D01*
Y506730D01*
Y513078D01*
X1588770D01*
X1574800Y402590D02*
Y411054D01*
X1579032Y415286D01*
X1583264Y411054D01*
Y402590D01*
Y408938D01*
X1574800D01*
X1291590Y365760D02*
Y374224D01*
X1295822Y378456D01*
X1300054Y374224D01*
Y365760D01*
Y372108D01*
X1291590D01*
X1438910Y869950D02*
Y878414D01*
X1443142Y882646D01*
X1447374Y878414D01*
Y869950D01*
Y876298D01*
X1438910D01*
Y880110D02*
Y888574D01*
X1443142Y892806D01*
X1447374Y888574D01*
Y880110D01*
Y886458D01*
X1438910D01*
X1442720Y1022350D02*
Y1030814D01*
X1446952Y1035046D01*
X1451184Y1030814D01*
Y1022350D01*
Y1028698D01*
X1442720D01*
X1445260Y805180D02*
Y813644D01*
X1449492Y817876D01*
X1453724Y813644D01*
Y805180D01*
Y811528D01*
X1445260D01*
X1441450Y816610D02*
Y825074D01*
X1445682Y829306D01*
X1449914Y825074D01*
Y816610D01*
Y822958D01*
X1441450D01*
X1437640Y746760D02*
Y755224D01*
X1441872Y759456D01*
X1446104Y755224D01*
Y746760D01*
Y753108D01*
X1437640D01*
X1609090Y637540D02*
Y646004D01*
X1613322Y650236D01*
X1617554Y646004D01*
Y637540D01*
Y643888D01*
X1609090D01*
X1450340Y472440D02*
Y480904D01*
X1454572Y485136D01*
X1458804Y480904D01*
Y472440D01*
Y478788D01*
X1450340D01*
X1463040Y590550D02*
Y599014D01*
X1467272Y603246D01*
X1471504Y599014D01*
Y590550D01*
Y596898D01*
X1463040D01*
X1295400Y783590D02*
Y792054D01*
X1299632Y796286D01*
X1303864Y792054D01*
Y783590D01*
Y789938D01*
X1295400D01*
X1306830Y960120D02*
Y968584D01*
X1311062Y972816D01*
X1315294Y968584D01*
Y960120D01*
Y966468D01*
X1306830D01*
X1250950Y914400D02*
Y922864D01*
X1255182Y927096D01*
X1259414Y922864D01*
Y914400D01*
Y920748D01*
X1250950D01*
X1084580Y904240D02*
Y912704D01*
X1088812Y916936D01*
X1093044Y912704D01*
Y904240D01*
Y910588D01*
X1084580D01*
X1094740Y914400D02*
Y922864D01*
X1098972Y927096D01*
X1103204Y922864D01*
Y914400D01*
Y920748D01*
X1094740D01*
X890270Y916940D02*
Y925404D01*
X894502Y929636D01*
X898734Y925404D01*
Y916940D01*
Y923288D01*
X890270D01*
X919480Y946150D02*
Y954614D01*
X923712Y958846D01*
X927944Y954614D01*
Y946150D01*
Y952498D01*
X919480D01*
X1153160Y982980D02*
Y991444D01*
X1157392Y995676D01*
X1161624Y991444D01*
Y982980D01*
Y989328D01*
X1153160D01*
X1108710Y802640D02*
Y811104D01*
X1112942Y815336D01*
X1117174Y811104D01*
Y802640D01*
Y808988D01*
X1108710D01*
X867410Y801370D02*
Y809834D01*
X871642Y814066D01*
X875874Y809834D01*
Y801370D01*
Y807718D01*
X867410D01*
X843280Y866140D02*
Y874604D01*
X847512Y878836D01*
X851744Y874604D01*
Y866140D01*
Y872488D01*
X843280D01*
X1366520Y929640D02*
Y938104D01*
X1370752Y942336D01*
X1374984Y938104D01*
Y929640D01*
Y935988D01*
X1366520D01*
X1107690Y763020D02*
Y771484D01*
X1111922Y775716D01*
X1116154Y771484D01*
Y763020D01*
Y769368D01*
X1107690D01*
X1195070Y839470D02*
Y847934D01*
X1199302Y852166D01*
X1203534Y847934D01*
Y839470D01*
Y845818D01*
X1195070D01*
X1083310Y830580D02*
Y839044D01*
X1087542Y843276D01*
X1091774Y839044D01*
Y830580D01*
Y836928D01*
X1083310D01*
X1136650Y866140D02*
Y874604D01*
X1140882Y878836D01*
X1145114Y874604D01*
Y866140D01*
Y872488D01*
X1136650D01*
X1110955Y834040D02*
Y842504D01*
X1115187Y846736D01*
X1119419Y842504D01*
Y834040D01*
Y840388D01*
X1110955D01*
X1025865Y867060D02*
Y875524D01*
X1030097Y879756D01*
X1034329Y875524D01*
Y867060D01*
Y873408D01*
X1025865D01*
X1031240Y811530D02*
Y819994D01*
X1035472Y824226D01*
X1039704Y819994D01*
Y811530D01*
Y817878D01*
X1031240D01*
X1017270Y737870D02*
Y746334D01*
X1021502Y750566D01*
X1025734Y746334D01*
Y737870D01*
Y744218D01*
X1017270D01*
X1271270Y646430D02*
Y654894D01*
X1275502Y659126D01*
X1279734Y654894D01*
Y646430D01*
Y652778D01*
X1271270D01*
X1004570Y737870D02*
Y746334D01*
X1008802Y750566D01*
X1013034Y746334D01*
Y737870D01*
Y744218D01*
X1004570D01*
X1256030Y648970D02*
Y657434D01*
X1260262Y661666D01*
X1264494Y657434D01*
Y648970D01*
Y655318D01*
X1256030D01*
X1201420Y642620D02*
Y651084D01*
X1205652Y655316D01*
X1209884Y651084D01*
Y642620D01*
Y648968D01*
X1201420D01*
X1060450Y814070D02*
Y822534D01*
X1064682Y826766D01*
X1068914Y822534D01*
Y814070D01*
Y820418D01*
X1060450D01*
X963930Y831850D02*
Y840314D01*
X968162Y844546D01*
X972394Y840314D01*
Y831850D01*
Y838198D01*
X963930D01*
X839470Y835660D02*
Y844124D01*
X843702Y848356D01*
X847934Y844124D01*
Y835660D01*
Y842008D01*
X839470D01*
X867410Y857250D02*
Y865714D01*
X871642Y869946D01*
X875874Y865714D01*
Y857250D01*
Y863598D01*
X867410D01*
X949960Y812800D02*
Y821264D01*
X954192Y825496D01*
X958424Y821264D01*
Y812800D01*
Y819148D01*
X949960D01*
X844255Y781970D02*
Y790434D01*
X848487Y794666D01*
X852719Y790434D01*
Y781970D01*
Y788318D01*
X844255D01*
X1004570Y789940D02*
Y798404D01*
X1008802Y802636D01*
X1013034Y798404D01*
Y789940D01*
Y796288D01*
X1004570D01*
X1084580Y867410D02*
Y875874D01*
X1088812Y880106D01*
X1093044Y875874D01*
Y867410D01*
Y873758D01*
X1084580D01*
X1071626Y838454D02*
Y846918D01*
X1075858Y851150D01*
X1080090Y846918D01*
Y838454D01*
Y844802D01*
X1071626D01*
X1065530Y867410D02*
Y875874D01*
X1069762Y880106D01*
X1073994Y875874D01*
Y867410D01*
Y873758D01*
X1065530D01*
X1421130Y791210D02*
Y799674D01*
X1425362Y803906D01*
X1429594Y799674D01*
Y791210D01*
Y797558D01*
X1421130D01*
X1287780Y744220D02*
Y752684D01*
X1292012Y756916D01*
X1296244Y752684D01*
Y744220D01*
Y750568D01*
X1287780D01*
X1323340Y690880D02*
Y699344D01*
X1327572Y703576D01*
X1331804Y699344D01*
Y690880D01*
Y697228D01*
X1323340D01*
X1252220Y750570D02*
Y759034D01*
X1256452Y763266D01*
X1260684Y759034D01*
Y750570D01*
Y756918D01*
X1252220D01*
X1372870Y689610D02*
Y698074D01*
X1377102Y702306D01*
X1381334Y698074D01*
Y689610D01*
Y695958D01*
X1372870D01*
X826770Y834390D02*
Y842854D01*
X831002Y847086D01*
X835234Y842854D01*
Y834390D01*
Y840738D01*
X826770D01*
X806450Y830580D02*
Y839044D01*
X810682Y843276D01*
X814914Y839044D01*
Y830580D01*
Y836928D01*
X806450D01*
X1003300Y814070D02*
Y822534D01*
X1007532Y826766D01*
X1011764Y822534D01*
Y814070D01*
Y820418D01*
X1003300D01*
X1038860Y836930D02*
Y845394D01*
X1043092Y849626D01*
X1047324Y845394D01*
Y836930D01*
Y843278D01*
X1038860D01*
X1192530Y744220D02*
Y752684D01*
X1196762Y756916D01*
X1200994Y752684D01*
Y744220D01*
Y750568D01*
X1192530D01*
X1595120Y840740D02*
Y849204D01*
X1599352Y853436D01*
X1603584Y849204D01*
Y840740D01*
Y847088D01*
X1595120D01*
X1578610Y769620D02*
Y778084D01*
X1582842Y782316D01*
X1587074Y778084D01*
Y769620D01*
Y775968D01*
X1578610D01*
X1588770Y765810D02*
Y774274D01*
X1593002Y778506D01*
X1597234Y774274D01*
Y765810D01*
Y772158D01*
X1588770D01*
X804797Y819027D02*
Y827491D01*
X809029Y831723D01*
X813261Y827491D01*
Y819027D01*
Y825375D01*
X804797D01*
X914400Y830580D02*
Y839044D01*
X918632Y843276D01*
X922864Y839044D01*
Y830580D01*
Y836928D01*
X914400D01*
X901700Y830580D02*
Y839044D01*
X905932Y843276D01*
X910164Y839044D01*
Y830580D01*
Y836928D01*
X901700D01*
X889000Y831850D02*
Y840314D01*
X893232Y844546D01*
X897464Y840314D01*
Y831850D01*
Y838198D01*
X889000D01*
X1155700Y830580D02*
Y839044D01*
X1159932Y843276D01*
X1164164Y839044D01*
Y830580D01*
Y836928D01*
X1155700D01*
X1143000Y830580D02*
Y839044D01*
X1147232Y843276D01*
X1151464Y839044D01*
Y830580D01*
Y836928D01*
X1143000D01*
X1130300Y830580D02*
Y839044D01*
X1134532Y843276D01*
X1138764Y839044D01*
Y830580D01*
Y836928D01*
X1130300D01*
X1341120Y744220D02*
Y752684D01*
X1345352Y756916D01*
X1349584Y752684D01*
Y744220D01*
Y750568D01*
X1341120D01*
X1348740Y748030D02*
Y756494D01*
X1352972Y760726D01*
X1357204Y756494D01*
Y748030D01*
Y754378D01*
X1348740D01*
X1330960Y745490D02*
Y753954D01*
X1335192Y758186D01*
X1339424Y753954D01*
Y745490D01*
Y751838D01*
X1330960D01*
X1322070Y749300D02*
Y757764D01*
X1326302Y761996D01*
X1330534Y757764D01*
Y749300D01*
Y755648D01*
X1322070D01*
X1388110Y359410D02*
Y367874D01*
X1392342Y372106D01*
X1396574Y367874D01*
Y359410D01*
Y365758D01*
X1388110D01*
X1452880Y307340D02*
Y315804D01*
X1457112Y320036D01*
X1461344Y315804D01*
Y307340D01*
Y313688D01*
X1452880D01*
X1272540Y674370D02*
Y682834D01*
X1276772Y687066D01*
X1281004Y682834D01*
Y674370D01*
Y680718D01*
X1272540D01*
X1160780Y896620D02*
Y905084D01*
X1165012Y909316D01*
X1169244Y905084D01*
Y896620D01*
Y902968D01*
X1160780D01*
X1080770Y895350D02*
Y903814D01*
X1085002Y908046D01*
X1089234Y903814D01*
Y895350D01*
Y901698D01*
X1080770D01*
X869950Y891540D02*
Y900004D01*
X874182Y904236D01*
X878414Y900004D01*
Y891540D01*
Y897888D01*
X869950D01*
X789940Y773430D02*
Y781894D01*
X794172Y786126D01*
X798404Y781894D01*
Y773430D01*
Y779778D01*
X789940D01*
X869950Y768350D02*
Y776814D01*
X874182Y781046D01*
X878414Y776814D01*
Y768350D01*
Y774698D01*
X869950D01*
X1032510Y755650D02*
Y764114D01*
X1036742Y768346D01*
X1040974Y764114D01*
Y755650D01*
Y761998D01*
X1032510D01*
X1065530Y544830D02*
Y553294D01*
X1069762Y557526D01*
X1073994Y553294D01*
Y544830D01*
Y551178D01*
X1065530D01*
X1287780Y681990D02*
Y690454D01*
X1292012Y694686D01*
X1296244Y690454D01*
Y681990D01*
Y688338D01*
X1287780D01*
X1069340Y513080D02*
Y521544D01*
X1073572Y525776D01*
X1077804Y521544D01*
Y513080D01*
Y519428D01*
X1069340D01*
X1051560Y429260D02*
Y437724D01*
X1055792Y441956D01*
X1060024Y437724D01*
Y429260D01*
Y435608D01*
X1051560D01*
X1264920Y661670D02*
Y670134D01*
X1269152Y674366D01*
X1273384Y670134D01*
Y661670D01*
Y668018D01*
X1264920D01*
X974090Y637540D02*
Y646004D01*
X978322Y650236D01*
X982554Y646004D01*
Y637540D01*
Y643888D01*
X974090D01*
X1220470Y359410D02*
Y367874D01*
X1224702Y372106D01*
X1228934Y367874D01*
Y359410D01*
Y365758D01*
X1220470D01*
X1236980Y360680D02*
Y369144D01*
X1241212Y373376D01*
X1245444Y369144D01*
Y360680D01*
Y367028D01*
X1236980D01*
X1257300Y636270D02*
Y644734D01*
X1261532Y648966D01*
X1265764Y644734D01*
Y636270D01*
Y642618D01*
X1257300D01*
X1253490Y628650D02*
Y637114D01*
X1257722Y641346D01*
X1261954Y637114D01*
Y628650D01*
Y634998D01*
X1253490D01*
X1366520Y642620D02*
Y651084D01*
X1370752Y655316D01*
X1374984Y651084D01*
Y642620D01*
Y648968D01*
X1366520D01*
X1363980Y651510D02*
Y659974D01*
X1368212Y664206D01*
X1372444Y659974D01*
Y651510D01*
Y657858D01*
X1363980D01*
X1360170Y659130D02*
Y667594D01*
X1364402Y671826D01*
X1368634Y667594D01*
Y659130D01*
Y665478D01*
X1360170D01*
X1151890Y459740D02*
Y468204D01*
X1156122Y472436D01*
X1160354Y468204D01*
Y459740D01*
Y466088D01*
X1151890D01*
Y520700D02*
Y529164D01*
X1156122Y533396D01*
X1160354Y529164D01*
Y520700D01*
Y527048D01*
X1151890D01*
X1356360Y668020D02*
Y676484D01*
X1360592Y680716D01*
X1364824Y676484D01*
Y668020D01*
Y674368D01*
X1356360D01*
X1569720Y1176020D02*
Y1184484D01*
X1573952Y1188716D01*
X1578184Y1184484D01*
Y1176020D01*
Y1182368D01*
X1569720D01*
X1520190Y1206500D02*
Y1214964D01*
X1524422Y1219196D01*
X1528654Y1214964D01*
Y1206500D01*
Y1212848D01*
X1520190D01*
X1414780Y670560D02*
Y679024D01*
X1419012Y683256D01*
X1423244Y679024D01*
Y670560D01*
Y676908D01*
X1414780D01*
X1416050Y689610D02*
Y698074D01*
X1420282Y702306D01*
X1424514Y698074D01*
Y689610D01*
Y695958D01*
X1416050D01*
X1437640Y692150D02*
Y700614D01*
X1441872Y704846D01*
X1446104Y700614D01*
Y692150D01*
Y698498D01*
X1437640D01*
X1569720Y1202690D02*
Y1211154D01*
X1573952Y1215386D01*
X1578184Y1211154D01*
Y1202690D01*
Y1209038D01*
X1569720D01*
X1520190Y1219200D02*
Y1227664D01*
X1524422Y1231896D01*
X1528654Y1227664D01*
Y1219200D01*
Y1225548D01*
X1520190D01*
X1427480Y692150D02*
Y700614D01*
X1431712Y704846D01*
X1435944Y700614D01*
Y692150D01*
Y698498D01*
X1427480D01*
X1231900Y595630D02*
Y604094D01*
X1236132Y608326D01*
X1240364Y604094D01*
Y595630D01*
Y601978D01*
X1231900D01*
X1341120Y661670D02*
Y670134D01*
X1345352Y674366D01*
X1349584Y670134D01*
Y661670D01*
Y668018D01*
X1341120D01*
X1249360Y540700D02*
Y549164D01*
X1253592Y553396D01*
X1257824Y549164D01*
Y540700D01*
Y547048D01*
X1249360D01*
X1352550Y692150D02*
Y700614D01*
X1356782Y704846D01*
X1361014Y700614D01*
Y692150D01*
Y698498D01*
X1352550D01*
X1348180Y780490D02*
Y788954D01*
X1352412Y793186D01*
X1356644Y788954D01*
Y780490D01*
Y786838D01*
X1348180D01*
X1600200Y1127760D02*
Y1136224D01*
X1604432Y1140456D01*
X1608664Y1136224D01*
Y1127760D01*
Y1134108D01*
X1600200D01*
X1520190Y1193800D02*
Y1202264D01*
X1524422Y1206496D01*
X1528654Y1202264D01*
Y1193800D01*
Y1200148D01*
X1520190D01*
X1398270Y822960D02*
Y831424D01*
X1402502Y835656D01*
X1406734Y831424D01*
Y822960D01*
Y829308D01*
X1398270D01*
X1360170Y819150D02*
Y827614D01*
X1364402Y831846D01*
X1368634Y827614D01*
Y819150D01*
Y825498D01*
X1360170D01*
X1276350Y822960D02*
Y831424D01*
X1280582Y835656D01*
X1284814Y831424D01*
Y822960D01*
Y829308D01*
X1276350D01*
X1209040Y904240D02*
Y912704D01*
X1213272Y916936D01*
X1217504Y912704D01*
Y904240D01*
Y910588D01*
X1209040D01*
X647700Y1008380D02*
Y1016844D01*
X651932Y1021076D01*
X656164Y1016844D01*
Y1008380D01*
Y1014728D01*
X647700D01*
X980440Y476250D02*
Y484714D01*
X984672Y488946D01*
X988904Y484714D01*
Y476250D01*
Y482598D01*
X980440D01*
X1099820Y476250D02*
Y484714D01*
X1104052Y488946D01*
X1108284Y484714D01*
Y476250D01*
Y482598D01*
X1099820D01*
X1299210Y508000D02*
Y516464D01*
X1303442Y520696D01*
X1307674Y516464D01*
Y508000D01*
Y514348D01*
X1299210D01*
X1314450Y520700D02*
Y529164D01*
X1318682Y533396D01*
X1322914Y529164D01*
Y520700D01*
Y527048D01*
X1314450D01*
Y697230D02*
Y705694D01*
X1318682Y709926D01*
X1322914Y705694D01*
Y697230D01*
Y703578D01*
X1314450D01*
X1305560Y697230D02*
Y705694D01*
X1309792Y709926D01*
X1314024Y705694D01*
Y697230D01*
Y703578D01*
X1305560D01*
X1328420Y402590D02*
Y411054D01*
X1332652Y415286D01*
X1336884Y411054D01*
Y402590D01*
Y408938D01*
X1328420D01*
X1268730Y636270D02*
Y644734D01*
X1272962Y648966D01*
X1277194Y644734D01*
Y636270D01*
Y642618D01*
X1268730D01*
X1285240Y528320D02*
Y536784D01*
X1289472Y541016D01*
X1293704Y536784D01*
Y528320D01*
Y534668D01*
X1285240D01*
X1277620Y636270D02*
Y644734D01*
X1281852Y648966D01*
X1286084Y644734D01*
Y636270D01*
Y642618D01*
X1277620D01*
X1286510Y636270D02*
Y644734D01*
X1290742Y648966D01*
X1294974Y644734D01*
Y636270D01*
Y642618D01*
X1286510D01*
X1291590Y519430D02*
Y527894D01*
X1295822Y532126D01*
X1300054Y527894D01*
Y519430D01*
Y525778D01*
X1291590D01*
X1322070Y596900D02*
Y605364D01*
X1326302Y609596D01*
X1330534Y605364D01*
Y596900D01*
Y603248D01*
X1322070D01*
X1329690Y452120D02*
Y460584D01*
X1333922Y464816D01*
X1338154Y460584D01*
Y452120D01*
Y458468D01*
X1329690D01*
X1005840Y527050D02*
Y535514D01*
X1010072Y539746D01*
X1014304Y535514D01*
Y527050D01*
Y533398D01*
X1005840D01*
X668020Y1012190D02*
Y1020654D01*
X672252Y1024886D01*
X676484Y1020654D01*
Y1012190D01*
Y1018538D01*
X668020D01*
X1108710Y483870D02*
Y492334D01*
X1112942Y496566D01*
X1117174Y492334D01*
Y483870D01*
Y490218D01*
X1108710D01*
X1283970Y501650D02*
Y510114D01*
X1288202Y514346D01*
X1292434Y510114D01*
Y501650D01*
Y507998D01*
X1283970D01*
X1040130Y932180D02*
Y940644D01*
X1044362Y944876D01*
X1048594Y940644D01*
Y932180D01*
Y938528D01*
X1040130D01*
X994410Y521129D02*
Y529593D01*
X998642Y533825D01*
X1002874Y529593D01*
Y521129D01*
Y527477D01*
X994410D01*
X1290320Y455930D02*
Y464394D01*
X1294552Y468626D01*
X1298784Y464394D01*
Y455930D01*
Y462278D01*
X1290320D01*
X1332230Y534670D02*
Y543134D01*
X1336462Y547366D01*
X1340694Y543134D01*
Y534670D01*
Y541018D01*
X1332230D01*
X1275080Y656590D02*
Y665054D01*
X1279312Y669286D01*
X1283544Y665054D01*
Y656590D01*
Y662938D01*
X1275080D01*
X1028700Y933450D02*
Y941914D01*
X1032932Y946146D01*
X1037164Y941914D01*
Y933450D01*
Y939798D01*
X1028700D01*
X976630Y529022D02*
Y537486D01*
X980862Y541718D01*
X985094Y537486D01*
Y529022D01*
Y535370D01*
X976630D01*
X662940Y1043940D02*
Y1052404D01*
X667172Y1056636D01*
X671404Y1052404D01*
Y1043940D01*
Y1050288D01*
X662940D01*
X1357630Y483870D02*
Y492334D01*
X1361862Y496566D01*
X1366094Y492334D01*
Y483870D01*
Y490218D01*
X1357630D01*
X1344930Y539750D02*
Y548214D01*
X1349162Y552446D01*
X1353394Y548214D01*
Y539750D01*
Y546098D01*
X1344930D01*
X1281430Y664210D02*
Y672674D01*
X1285662Y676906D01*
X1289894Y672674D01*
Y664210D01*
Y670558D01*
X1281430D01*
X1026160Y944880D02*
Y953344D01*
X1030392Y957576D01*
X1034624Y953344D01*
Y944880D01*
Y951228D01*
X1026160D01*
X965200Y533400D02*
Y541864D01*
X969432Y546096D01*
X973664Y541864D01*
Y533400D01*
Y539748D01*
X965200D01*
X398780Y1131570D02*
Y1140034D01*
X403012Y1144266D01*
X407244Y1140034D01*
Y1131570D01*
Y1137918D01*
X398780D01*
X1374140Y478790D02*
Y487254D01*
X1378372Y491486D01*
X1382604Y487254D01*
Y478790D01*
Y485138D01*
X1374140D01*
X1299210Y662940D02*
Y671404D01*
X1303442Y675636D01*
X1307674Y671404D01*
Y662940D01*
Y669288D01*
X1299210D01*
X1028700Y960120D02*
Y968584D01*
X1032932Y972816D01*
X1037164Y968584D01*
Y960120D01*
Y966468D01*
X1028700D01*
X1336040Y552450D02*
Y560914D01*
X1340272Y565146D01*
X1344504Y560914D01*
Y552450D01*
Y558798D01*
X1336040D01*
X1332230Y679450D02*
Y687914D01*
X1336462Y692146D01*
X1340694Y687914D01*
Y679450D01*
Y685798D01*
X1332230D01*
X1451610Y401320D02*
Y409784D01*
X1455842Y414016D01*
X1460074Y409784D01*
Y401320D01*
Y407668D01*
X1451610D01*
X1324610Y652780D02*
Y661244D01*
X1328842Y665476D01*
X1333074Y661244D01*
Y652780D01*
Y659128D01*
X1324610D01*
X1423670Y651510D02*
Y659974D01*
X1427902Y664206D01*
X1432134Y659974D01*
Y651510D01*
Y657858D01*
X1423670D01*
X1336040Y637540D02*
Y646004D01*
X1340272Y650236D01*
X1344504Y646004D01*
Y637540D01*
Y643888D01*
X1336040D01*
X1339850Y628650D02*
Y637114D01*
X1344082Y641346D01*
X1348314Y637114D01*
Y628650D01*
Y634998D01*
X1339850D01*
X1344930Y643890D02*
Y652354D01*
X1349162Y656586D01*
X1353394Y652354D01*
Y643890D01*
Y650238D01*
X1344930D01*
X1360170Y636270D02*
Y644734D01*
X1364402Y648966D01*
X1368634Y644734D01*
Y636270D01*
Y642618D01*
X1360170D01*
X1372870Y626110D02*
Y634574D01*
X1377102Y638806D01*
X1381334Y634574D01*
Y626110D01*
Y632458D01*
X1372870D01*
X1370330Y598170D02*
Y606634D01*
X1374562Y610866D01*
X1378794Y606634D01*
Y598170D01*
Y604518D01*
X1370330D01*
X1182370Y839470D02*
Y847934D01*
X1186602Y852166D01*
X1190834Y847934D01*
Y839470D01*
Y845818D01*
X1182370D01*
X1191260Y782320D02*
Y790784D01*
X1195492Y795016D01*
X1199724Y790784D01*
Y782320D01*
Y788668D01*
X1191260D01*
X1109980Y556260D02*
Y564724D01*
X1114212Y568956D01*
X1118444Y564724D01*
Y556260D01*
Y562608D01*
X1109980D01*
X952050Y952530D02*
Y960994D01*
X956282Y965226D01*
X960514Y960994D01*
Y952530D01*
Y958878D01*
X952050D01*
X1445260Y688340D02*
Y696804D01*
X1449492Y701036D01*
X1453724Y696804D01*
Y688340D01*
Y694688D01*
X1445260D01*
X590124Y517310D02*
X588008Y519426D01*
X583776D01*
X581660Y517310D01*
Y508846D01*
X583776Y506730D01*
X588008D01*
X590124Y508846D01*
X397510Y1170936D02*
Y1158240D01*
X403858D01*
X405974Y1160356D01*
Y1162472D01*
X403858Y1164588D01*
X397510D01*
X403858D01*
X405974Y1166704D01*
Y1168820D01*
X403858Y1170936D01*
X397510D01*
X431374Y1222160D02*
X429258Y1224276D01*
X425026D01*
X422910Y1222160D01*
Y1213696D01*
X425026Y1211580D01*
X429258D01*
X431374Y1213696D01*
X1743284Y1222160D02*
X1741168Y1224276D01*
X1736936D01*
X1734820Y1222160D01*
Y1213696D01*
X1736936Y1211580D01*
X1741168D01*
X1743284Y1213696D01*
X1744554Y316650D02*
X1742438Y318766D01*
X1738206D01*
X1736090Y316650D01*
Y308186D01*
X1738206Y306070D01*
X1742438D01*
X1744554Y308186D01*
X542290Y873760D02*
Y882224D01*
X546522Y886456D01*
X550754Y882224D01*
Y873760D01*
Y880108D01*
X542290D01*
X539750Y820420D02*
Y828884D01*
X543982Y833116D01*
X548214Y828884D01*
Y820420D01*
Y826768D01*
X539750D01*
X1172210Y661670D02*
Y670134D01*
X1176442Y674366D01*
X1180674Y670134D01*
Y661670D01*
Y668018D01*
X1172210D01*
X1075690Y737870D02*
Y746334D01*
X1079922Y750566D01*
X1084154Y746334D01*
Y737870D01*
Y744218D01*
X1075690D01*
X1295400Y830580D02*
Y839044D01*
X1299632Y843276D01*
X1303864Y839044D01*
Y830580D01*
Y836928D01*
X1295400D01*
X1320800Y791210D02*
Y799674D01*
X1325032Y803906D01*
X1329264Y799674D01*
Y791210D01*
Y797558D01*
X1320800D01*
X1361440Y833120D02*
Y841584D01*
X1365672Y845816D01*
X1369904Y841584D01*
Y833120D01*
Y839468D01*
X1361440D01*
X1343660Y829310D02*
Y837774D01*
X1347892Y842006D01*
X1352124Y837774D01*
Y829310D01*
Y835658D01*
X1343660D01*
X635000Y854710D02*
Y863174D01*
X639232Y867406D01*
X643464Y863174D01*
Y854710D01*
Y861058D01*
X635000D01*
X645160Y772160D02*
Y780624D01*
X649392Y784856D01*
X653624Y780624D01*
Y772160D01*
Y778508D01*
X645160D01*
X692150Y772160D02*
Y780624D01*
X696382Y784856D01*
X700614Y780624D01*
Y772160D01*
Y778508D01*
X692150D01*
X1399540Y408940D02*
Y417404D01*
X1403772Y421636D01*
X1408004Y417404D01*
Y408940D01*
Y415288D01*
X1399540D01*
X1457960Y420370D02*
Y428834D01*
X1462192Y433066D01*
X1466424Y428834D01*
Y420370D01*
Y426718D01*
X1457960D01*
X1559560Y631190D02*
Y639654D01*
X1563792Y643886D01*
X1568024Y639654D01*
Y631190D01*
Y637538D01*
X1559560D01*
X814070Y756920D02*
Y765384D01*
X818302Y769616D01*
X822534Y765384D01*
Y756920D01*
Y763268D01*
X814070D01*
X1405890Y396240D02*
Y404704D01*
X1410122Y408936D01*
X1414354Y404704D01*
Y396240D01*
Y402588D01*
X1405890D01*
X1457942Y410772D02*
Y419236D01*
X1462174Y423468D01*
X1466406Y419236D01*
Y410772D01*
Y417120D01*
X1457942D01*
X558800Y753110D02*
Y761574D01*
X563032Y765806D01*
X567264Y761574D01*
Y753110D01*
Y759458D01*
X558800D01*
X1267460Y853440D02*
Y861904D01*
X1271692Y866136D01*
X1275924Y861904D01*
Y853440D01*
Y859788D01*
X1267460D01*
X1267590Y811660D02*
Y820124D01*
X1271822Y824356D01*
X1276054Y820124D01*
Y811660D01*
Y818008D01*
X1267590D01*
X1197610Y461010D02*
Y469474D01*
X1201842Y473706D01*
X1206074Y469474D01*
Y461010D01*
Y467358D01*
X1197610D01*
X1268730Y436880D02*
Y445344D01*
X1272962Y449576D01*
X1277194Y445344D01*
Y436880D01*
Y443228D01*
X1268730D01*
X1216660Y585470D02*
Y593934D01*
X1220892Y598166D01*
X1225124Y593934D01*
Y585470D01*
Y591818D01*
X1216660D01*
X1752600Y461010D02*
Y469474D01*
X1756832Y473706D01*
X1761064Y469474D01*
Y461010D01*
Y467358D01*
X1752600D01*
X1711960Y445770D02*
Y454234D01*
X1716192Y458466D01*
X1720424Y454234D01*
Y445770D01*
Y452118D01*
X1711960D01*
X1720850Y497840D02*
Y506304D01*
X1725082Y510536D01*
X1729314Y506304D01*
Y497840D01*
Y504188D01*
X1720850D01*
X1644650Y474980D02*
Y483444D01*
X1648882Y487676D01*
X1653114Y483444D01*
Y474980D01*
Y481328D01*
X1644650D01*
X1639570Y436880D02*
Y445344D01*
X1643802Y449576D01*
X1648034Y445344D01*
Y436880D01*
Y443228D01*
X1639570D01*
X593090Y972820D02*
Y981284D01*
X597322Y985516D01*
X601554Y981284D01*
Y972820D01*
Y979168D01*
X593090D01*
X629920Y934720D02*
Y943184D01*
X634152Y947416D01*
X638384Y943184D01*
Y934720D01*
Y941068D01*
X629920D01*
X750570Y892810D02*
Y901274D01*
X754802Y905506D01*
X759034Y901274D01*
Y892810D01*
Y899158D01*
X750570D01*
X1409700Y775970D02*
Y784434D01*
X1413932Y788666D01*
X1418164Y784434D01*
Y775970D01*
Y782318D01*
X1409700D01*
X1408430Y784860D02*
Y793324D01*
X1412662Y797556D01*
X1416894Y793324D01*
Y784860D01*
Y791208D01*
X1408430D01*
X539750Y1045210D02*
Y1053674D01*
X543982Y1057906D01*
X548214Y1053674D01*
Y1045210D01*
Y1051558D01*
X539750D01*
X1393190Y1047750D02*
Y1056214D01*
X1397422Y1060446D01*
X1401654Y1056214D01*
Y1047750D01*
Y1054098D01*
X1393190D01*
X1464310Y1130300D02*
Y1138764D01*
X1468542Y1142996D01*
X1472774Y1138764D01*
Y1130300D01*
Y1136648D01*
X1464310D01*
X1583690Y1068070D02*
Y1076534D01*
X1587922Y1080766D01*
X1592154Y1076534D01*
Y1068070D01*
Y1074418D01*
X1583690D01*
X1595120Y1060450D02*
Y1068914D01*
X1599352Y1073146D01*
X1603584Y1068914D01*
Y1060450D01*
Y1066798D01*
X1595120D01*
X1524000Y1131566D02*
Y1118870D01*
X1530348D01*
X1532464Y1120986D01*
Y1123102D01*
X1530348Y1125218D01*
X1524000D01*
X1530348D01*
X1532464Y1127334D01*
Y1129450D01*
X1530348Y1131566D01*
X1524000D01*
Y1117596D02*
Y1104900D01*
X1530348D01*
X1532464Y1107016D01*
Y1109132D01*
X1530348Y1111248D01*
X1524000D01*
X1530348D01*
X1532464Y1113364D01*
Y1115480D01*
X1530348Y1117596D01*
X1524000D01*
X1741170Y806450D02*
Y814914D01*
X1745402Y819146D01*
X1749634Y814914D01*
Y806450D01*
Y812798D01*
X1741170D01*
Y781050D02*
Y789514D01*
X1745402Y793746D01*
X1749634Y789514D01*
Y781050D01*
Y787398D01*
X1741170D01*
X1739900Y755650D02*
Y764114D01*
X1744132Y768346D01*
X1748364Y764114D01*
Y755650D01*
Y761998D01*
X1739900D01*
X1555750Y822960D02*
Y831424D01*
X1559982Y835656D01*
X1564214Y831424D01*
Y822960D01*
Y829308D01*
X1555750D01*
X1531620Y833120D02*
Y841584D01*
X1535852Y845816D01*
X1540084Y841584D01*
Y833120D01*
Y839468D01*
X1531620D01*
X1615440Y1229360D02*
Y1237824D01*
X1619672Y1242056D01*
X1623904Y1237824D01*
Y1229360D01*
Y1235708D01*
X1615440D01*
Y1197610D02*
Y1206074D01*
X1619672Y1210306D01*
X1623904Y1206074D01*
Y1197610D01*
Y1203958D01*
X1615440D01*
X1559560Y1177290D02*
Y1185754D01*
X1563792Y1189986D01*
X1568024Y1185754D01*
Y1177290D01*
Y1183638D01*
X1559560D01*
X1662430Y1196340D02*
Y1204804D01*
X1666662Y1209036D01*
X1670894Y1204804D01*
Y1196340D01*
Y1202688D01*
X1662430D01*
X1351280Y853440D02*
Y861904D01*
X1355512Y866136D01*
X1359744Y861904D01*
Y853440D01*
Y859788D01*
X1351280D01*
X1137920Y529590D02*
Y538054D01*
X1142152Y542286D01*
X1146384Y538054D01*
Y529590D01*
Y535938D01*
X1137920D01*
X1129030Y562610D02*
Y571074D01*
X1133262Y575306D01*
X1137494Y571074D01*
Y562610D01*
Y568958D01*
X1129030D01*
Y518160D02*
Y526624D01*
X1133262Y530856D01*
X1137494Y526624D01*
Y518160D01*
Y524508D01*
X1129030D01*
X1664970Y420370D02*
Y428834D01*
X1669202Y433066D01*
X1673434Y428834D01*
Y420370D01*
Y426718D01*
X1664970D01*
X1673860Y594360D02*
Y602824D01*
X1678092Y607056D01*
X1682324Y602824D01*
Y594360D01*
Y600708D01*
X1673860D01*
X1760220Y863600D02*
Y872064D01*
X1764452Y876296D01*
X1768684Y872064D01*
Y863600D01*
Y869948D01*
X1760220D01*
X1456690Y1117600D02*
Y1126064D01*
X1460922Y1130296D01*
X1465154Y1126064D01*
Y1117600D01*
Y1123948D01*
X1456690D01*
X1536700Y861060D02*
Y869524D01*
X1540932Y873756D01*
X1545164Y869524D01*
Y861060D01*
Y867408D01*
X1536700D01*
X1393190Y946150D02*
Y954614D01*
X1397422Y958846D01*
X1401654Y954614D01*
Y946150D01*
Y952498D01*
X1393190D01*
Y976630D02*
Y985094D01*
X1397422Y989326D01*
X1401654Y985094D01*
Y976630D01*
Y982978D01*
X1393190D01*
X1376680Y1016000D02*
Y1024464D01*
X1380912Y1028696D01*
X1385144Y1024464D01*
Y1016000D01*
Y1022348D01*
X1376680D01*
X1405890Y676910D02*
Y685374D01*
X1410122Y689606D01*
X1414354Y685374D01*
Y676910D01*
Y683258D01*
X1405890D01*
X1446530Y387350D02*
Y395814D01*
X1450762Y400046D01*
X1454994Y395814D01*
Y387350D01*
Y393698D01*
X1446530D01*
X831611Y301225D02*
Y288529D01*
X837959D01*
X840075Y290645D01*
Y292761D01*
X837959Y294877D01*
X831611D01*
X837959D01*
X840075Y296993D01*
Y299109D01*
X837959Y301225D01*
X831611D01*
X505460Y316226D02*
Y303530D01*
X511808D01*
X513924Y305646D01*
Y307762D01*
X511808Y309878D01*
X505460D01*
X511808D01*
X513924Y311994D01*
Y314110D01*
X511808Y316226D01*
X505460D01*
X513080Y741680D02*
Y750144D01*
X517312Y754376D01*
X521544Y750144D01*
Y741680D01*
Y748028D01*
X513080D01*
X281940Y355600D02*
Y364064D01*
X286172Y368296D01*
X290404Y364064D01*
Y355600D01*
Y361948D01*
X281940D01*
X582930Y269240D02*
Y277704D01*
X587162Y281936D01*
X591394Y277704D01*
Y269240D01*
Y275588D01*
X582930D01*
X777240Y867410D02*
Y875874D01*
X781472Y880106D01*
X785704Y875874D01*
Y867410D01*
Y873758D01*
X777240D01*
X1016000Y789940D02*
Y798404D01*
X1020232Y802636D01*
X1024464Y798404D01*
Y789940D01*
Y796288D01*
X1016000D01*
X934720Y789940D02*
Y798404D01*
X938952Y802636D01*
X943184Y798404D01*
Y789940D01*
Y796288D01*
X934720D01*
X935990Y867410D02*
Y875874D01*
X940222Y880106D01*
X944454Y875874D01*
Y867410D01*
Y873758D01*
X935990D01*
X1016000Y867410D02*
Y875874D01*
X1020232Y880106D01*
X1024464Y875874D01*
Y867410D01*
Y873758D01*
X1016000D01*
X1176020Y868680D02*
Y877144D01*
X1180252Y881376D01*
X1184484Y877144D01*
Y868680D01*
Y875028D01*
X1176020D01*
X1079500Y579120D02*
Y587584D01*
X1083732Y591816D01*
X1087964Y587584D01*
Y579120D01*
Y585468D01*
X1079500D01*
X1057910Y584200D02*
Y592664D01*
X1062142Y596896D01*
X1066374Y592664D01*
Y584200D01*
Y590548D01*
X1057910D01*
X783590Y948690D02*
Y957154D01*
X787822Y961386D01*
X792054Y957154D01*
Y948690D01*
Y955038D01*
X783590D01*
X703580Y810260D02*
Y818724D01*
X707812Y822956D01*
X712044Y818724D01*
Y810260D01*
Y816608D01*
X703580D01*
X732790Y835660D02*
Y844124D01*
X737022Y848356D01*
X741254Y844124D01*
Y835660D01*
Y842008D01*
X732790D01*
X659130Y791210D02*
Y799674D01*
X663362Y803906D01*
X667594Y799674D01*
Y791210D01*
Y797558D01*
X659130D01*
X666750Y821690D02*
Y830154D01*
X670982Y834386D01*
X675214Y830154D01*
Y821690D01*
Y828038D01*
X666750D01*
X654050Y825500D02*
Y833964D01*
X658282Y838196D01*
X662514Y833964D01*
Y825500D01*
Y831848D01*
X654050D01*
X624840Y895350D02*
Y903814D01*
X629072Y908046D01*
X633304Y903814D01*
Y895350D01*
Y901698D01*
X624840D01*
X638810Y925830D02*
Y934294D01*
X643042Y938526D01*
X647274Y934294D01*
Y925830D01*
Y932178D01*
X638810D01*
X634730Y810260D02*
Y818724D01*
X638962Y822956D01*
X643194Y818724D01*
Y810260D01*
Y816608D01*
X634730D01*
X584200Y817880D02*
Y826344D01*
X588432Y830576D01*
X592664Y826344D01*
Y817880D01*
Y824228D01*
X584200D01*
Y847090D02*
Y855554D01*
X588432Y859786D01*
X592664Y855554D01*
Y847090D01*
Y853438D01*
X584200D01*
X584350Y910740D02*
Y919204D01*
X588582Y923436D01*
X592814Y919204D01*
Y910740D01*
Y917088D01*
X584350D01*
X584200Y880110D02*
Y888574D01*
X588432Y892806D01*
X592664Y888574D01*
Y880110D01*
Y886458D01*
X584200D01*
X693420Y756920D02*
Y765384D01*
X697652Y769616D01*
X701884Y765384D01*
Y756920D01*
Y763268D01*
X693420D01*
X591820Y756920D02*
Y765384D01*
X596052Y769616D01*
X600284Y765384D01*
Y756920D01*
Y763268D01*
X591820D01*
X601980Y392430D02*
Y400894D01*
X606212Y405126D01*
X610444Y400894D01*
Y392430D01*
Y398778D01*
X601980D01*
X439420Y812800D02*
Y821264D01*
X443652Y825496D01*
X447884Y821264D01*
Y812800D01*
Y819148D01*
X439420D01*
Y840740D02*
Y849204D01*
X443652Y853436D01*
X447884Y849204D01*
Y840740D01*
Y847088D01*
X439420D01*
X1395730Y1104896D02*
Y1092200D01*
X1402078D01*
X1404194Y1094316D01*
Y1102780D01*
X1402078Y1104896D01*
X1395730D01*
X1449070Y1155700D02*
Y1164164D01*
X1453302Y1168396D01*
X1457534Y1164164D01*
Y1155700D01*
Y1162048D01*
X1449070D01*
X1454150Y1206500D02*
Y1214964D01*
X1458382Y1219196D01*
X1462614Y1214964D01*
Y1206500D01*
Y1212848D01*
X1454150D01*
Y1219200D02*
Y1227664D01*
X1458382Y1231896D01*
X1462614Y1227664D01*
Y1219200D01*
Y1225548D01*
X1454150D01*
X1746250Y1137920D02*
Y1146384D01*
X1750482Y1150616D01*
X1754714Y1146384D01*
Y1137920D01*
Y1144268D01*
X1746250D01*
X1677670Y1160780D02*
Y1169244D01*
X1681902Y1173476D01*
X1686134Y1169244D01*
Y1160780D01*
Y1167128D01*
X1677670D01*
X1520190Y1231900D02*
Y1240364D01*
X1524422Y1244596D01*
X1528654Y1240364D01*
Y1231900D01*
Y1238248D01*
X1520190D01*
X1569720Y1228090D02*
Y1236554D01*
X1573952Y1240786D01*
X1578184Y1236554D01*
Y1228090D01*
Y1234438D01*
X1569720D01*
X1452880Y1117596D02*
Y1104900D01*
X1459228D01*
X1461344Y1107016D01*
Y1109132D01*
X1459228Y1111248D01*
X1452880D01*
X1459228D01*
X1461344Y1113364D01*
Y1115480D01*
X1459228Y1117596D01*
X1452880D01*
X1367790Y1153156D02*
Y1140460D01*
X1374138D01*
X1376254Y1142576D01*
Y1144692D01*
X1374138Y1146808D01*
X1367790D01*
X1374138D01*
X1376254Y1148924D01*
Y1151040D01*
X1374138Y1153156D01*
X1367790D01*
X588010D02*
Y1140460D01*
X594358D01*
X596474Y1142576D01*
Y1144692D01*
X594358Y1146808D01*
X588010D01*
X594358D01*
X596474Y1148924D01*
Y1151040D01*
X594358Y1153156D01*
X588010D01*
X988060Y1094736D02*
Y1082040D01*
X994408D01*
X996524Y1084156D01*
Y1086272D01*
X994408Y1088388D01*
X988060D01*
X994408D01*
X996524Y1090504D01*
Y1092620D01*
X994408Y1094736D01*
X988060D01*
X1104900Y1103626D02*
Y1090930D01*
X1111248D01*
X1113364Y1093046D01*
Y1095162D01*
X1111248Y1097278D01*
X1104900D01*
X1111248D01*
X1113364Y1099394D01*
Y1101510D01*
X1111248Y1103626D01*
X1104900D01*
X988060Y1253486D02*
Y1240790D01*
X994408D01*
X996524Y1242906D01*
Y1245022D01*
X994408Y1247138D01*
X988060D01*
X994408D01*
X996524Y1249254D01*
Y1251370D01*
X994408Y1253486D01*
X988060D01*
X1104900Y1244596D02*
Y1231900D01*
X1111248D01*
X1113364Y1234016D01*
Y1236132D01*
X1111248Y1238248D01*
X1104900D01*
X1111248D01*
X1113364Y1240364D01*
Y1242480D01*
X1111248Y1244596D01*
X1104900D01*
D208*
X1621282Y979932D02*
G03*
X1621282Y979932I-5080J0D01*
G01*
Y553974D02*
G03*
X1621282Y553974I-5080J0D01*
G01*
X565150Y833120D02*
G03*
X565150Y833120I-5080J0D01*
G01*
Y807720D02*
G03*
X565150Y807720I-5080J0D01*
G01*
Y782320D02*
G03*
X565150Y782320I-5080J0D01*
G01*
X566420Y947420D02*
G03*
X566420Y947420I-5080J0D01*
G01*
Y922020D02*
G03*
X566420Y922020I-5080J0D01*
G01*
Y896620D02*
G03*
X566420Y896620I-5080J0D01*
G01*
D209*
X563118Y833120D02*
G03*
X563118Y833120I-3048J0D01*
G01*
Y807720D02*
G03*
X563118Y807720I-3048J0D01*
G01*
Y782320D02*
G03*
X563118Y782320I-3048J0D01*
G01*
X564388Y947420D02*
G03*
X564388Y947420I-3048J0D01*
G01*
Y922020D02*
G03*
X564388Y922020I-3048J0D01*
G01*
Y896620D02*
G03*
X564388Y896620I-3048J0D01*
G01*
%TF.MD5,0601af05d406688a2267fc9acd88aceb*%
M02*
