%TF.GenerationSoftware,Altium Limited,Altium Designer,22.2.1 (43)*%
G04 Layer_Color=32768*
%FSLAX44Y44*%
%MOMM*%
%TF.SameCoordinates,040CE2E0-B857-4D47-B26F-9B72162B56B4*%
%TF.FilePolarity,Positive*%
%TF.FileFunction,Other,Mechanical_15*%
%TF.Part,Single*%
G01*
G75*
%TA.AperFunction,NonConductor*%
%ADD185C,0.0500*%
D185*
X773770Y1096010D02*
G03*
X773770Y1096010I-34630J0D01*
G01*
X1510740Y820140D02*
X1555040D01*
X1510740Y797840D02*
X1555040D01*
X1510740D02*
Y820140D01*
X1555040Y797840D02*
Y820140D01*
X1510740Y794740D02*
X1555040D01*
X1510740Y772440D02*
X1555040D01*
X1510740D02*
Y794740D01*
X1555040Y772440D02*
Y794740D01*
X1512010Y530580D02*
X1556310D01*
X1512010Y508280D02*
X1556310D01*
X1512010Y530580D02*
X1512010Y508280D01*
X1556310D02*
Y530580D01*
X1512010Y505180D02*
X1556310D01*
X1512010Y482880D02*
X1556310D01*
X1512010D02*
Y505180D01*
X1556310Y482880D02*
Y505180D01*
X1512010Y601700D02*
X1556310D01*
X1512010Y579400D02*
X1556310D01*
X1512010D02*
Y601700D01*
X1556310Y579400D02*
Y601700D01*
X1512010Y627100D02*
X1556310D01*
X1512010Y604800D02*
X1556310D01*
X1512010D02*
Y627100D01*
X1556310Y604800D02*
Y627100D01*
X1512010Y698220D02*
X1556310D01*
X1512010Y675920D02*
X1556310D01*
X1512010D02*
Y698220D01*
X1556310Y675920D02*
Y698220D01*
X1512450Y723620D02*
X1556750D01*
X1512450Y701320D02*
X1556750D01*
X1512450D02*
Y723620D01*
X1556750Y701320D02*
X1556750Y723620D01*
X1461650Y427949D02*
X1500150D01*
X1461650Y393949D02*
X1500150D01*
Y427949D01*
X1461650Y393949D02*
Y427949D01*
X1581030Y365719D02*
X1619530D01*
X1581030Y331719D02*
X1619530D01*
Y365719D01*
X1581030Y331719D02*
Y365719D01*
X1461210Y455650D02*
X1505510D01*
X1461210Y433350D02*
X1505510D01*
X1461210D02*
Y455650D01*
X1505510Y433350D02*
Y455650D01*
X1512010Y434060D02*
X1556310D01*
X1512010Y411760D02*
X1556310D01*
X1512010D02*
Y434060D01*
X1556310Y411760D02*
Y434060D01*
X1512010Y408660D02*
X1556310D01*
X1512010Y386360D02*
X1556310D01*
X1512010D02*
Y408660D01*
X1556310Y386360D02*
Y408660D01*
X1581860Y393420D02*
X1626160D01*
X1581860Y371120D02*
X1626160D01*
X1581860D02*
Y393420D01*
X1626160Y371120D02*
Y393420D01*
X1580590Y326110D02*
X1624890D01*
X1580590Y303810D02*
X1624890D01*
X1580590D02*
Y326110D01*
X1624890Y303810D02*
Y326110D01*
X1632660Y346430D02*
X1676960Y346430D01*
X1632660Y324130D02*
X1676960Y324130D01*
X1632660Y324130D02*
X1632660Y346430D01*
X1676960Y324130D02*
Y346430D01*
X1632660Y371830D02*
X1676960D01*
X1632660Y349530D02*
X1676960D01*
X1632660D02*
Y371830D01*
X1676960D02*
X1676960Y349530D01*
X1461210Y388340D02*
X1505510D01*
X1461210Y366040D02*
X1505510D01*
X1461210D02*
Y388340D01*
X1505510Y366040D02*
Y388340D01*
X1226080Y602510D02*
Y776710D01*
X1400280Y602510D02*
Y776710D01*
X1226080D02*
X1400280D01*
X1226080Y602510D02*
X1400280D01*
X1519610Y848260D02*
Y1051660D01*
X1402910Y848260D02*
X1519610D01*
X1402910D02*
Y1051660D01*
X1519610D01*
X1461210Y581380D02*
X1505510D01*
X1461210Y559080D02*
X1505510D01*
X1461210D02*
Y581380D01*
X1505510Y559080D02*
Y581380D01*
X1461210Y677900D02*
X1505510D01*
X1461210Y655600D02*
X1505510D01*
X1461210D02*
Y677900D01*
X1505510Y655600D02*
Y677900D01*
X1291630Y348990D02*
X1398230D01*
X1291630Y151190D02*
Y348990D01*
Y151190D02*
X1398230D01*
Y348990D01*
X1320310Y979010D02*
X1354310D01*
X1320310Y959010D02*
X1354310D01*
X1320310D02*
Y979010D01*
X1354310Y959010D02*
Y979010D01*
X1112300Y891930D02*
Y921630D01*
X1097500Y891930D02*
Y921630D01*
Y891930D02*
X1112300D01*
X1097500Y921630D02*
X1112300D01*
X1139260Y874240D02*
Y921540D01*
X1116260Y874240D02*
X1139260D01*
X1116260D02*
Y921540D01*
X1139260D01*
X1174360Y905780D02*
Y920480D01*
X1144660Y905780D02*
Y920480D01*
X1174360D01*
X1144660Y905780D02*
X1174360D01*
X483910Y1317210D02*
X679410D01*
X483910Y1187210D02*
Y1317210D01*
Y1187210D02*
X679410D01*
Y1317210D01*
X1170980Y318850D02*
X1252180D01*
X1170980Y174050D02*
Y318850D01*
Y174050D02*
X1252180D01*
Y318850D01*
X1148040Y174050D02*
Y318850D01*
X1066840Y174050D02*
X1148040D01*
X1066840D02*
Y318850D01*
X1148040D01*
X1007820Y868960D02*
Y891260D01*
X1052120Y868960D02*
Y891260D01*
X1007820D02*
X1052120D01*
X1007820Y868960D02*
X1052120D01*
X1142560Y689020D02*
Y774020D01*
X1087560Y689020D02*
X1142560D01*
X1087560D02*
Y774020D01*
X1142560D01*
X933810Y718470D02*
X1029610D01*
Y617570D02*
Y718470D01*
X933810Y617570D02*
X1029610D01*
X933810D02*
Y718470D01*
X1549790Y437100D02*
Y451900D01*
X1579490Y437100D02*
Y451900D01*
X1549790Y437100D02*
X1579490D01*
X1549790Y451900D02*
X1579490D01*
X1280480Y566280D02*
X1320480D01*
Y548780D02*
Y566280D01*
X1280480Y548780D02*
X1320480D01*
X1280480D02*
Y566280D01*
Y570370D02*
X1320480D01*
X1280480D02*
Y587870D01*
X1320480D01*
Y570370D02*
Y587870D01*
X1224280Y570370D02*
X1264280D01*
X1224280D02*
Y587870D01*
X1264280D01*
Y570370D02*
Y587870D01*
X1224280Y566280D02*
X1264280D01*
Y548780D02*
Y566280D01*
X1224280Y548780D02*
X1264280D01*
X1224280D02*
Y566280D01*
X1727760Y470180D02*
Y492480D01*
X1683460Y470180D02*
Y492480D01*
Y470180D02*
X1727760D01*
X1683460Y492480D02*
X1727760D01*
X1649950Y482210D02*
X1664750D01*
X1649950Y452510D02*
X1664750D01*
Y482210D01*
X1649950Y452510D02*
Y482210D01*
X1644870Y414410D02*
X1659670D01*
X1644870Y444110D02*
X1659670D01*
X1644870Y414410D02*
Y444110D01*
X1659670Y414410D02*
Y444110D01*
X1745200Y425840D02*
X1760000D01*
X1745200Y455540D02*
X1760000D01*
X1745200Y425840D02*
Y455540D01*
X1760000Y425840D02*
Y455540D01*
X1461570Y490468D02*
Y524469D01*
X1500070Y490468D02*
Y524469D01*
X1461570Y490468D02*
X1500070D01*
X1461570Y524469D02*
X1500070D01*
X1505510Y529870D02*
Y552170D01*
X1461210Y529870D02*
Y552170D01*
Y529870D02*
X1505510D01*
X1461210Y552170D02*
X1505510D01*
Y462560D02*
Y484860D01*
X1461210Y462560D02*
Y484860D01*
Y462560D02*
X1505510D01*
X1461210Y484860D02*
X1505510D01*
X1461570Y586988D02*
Y620989D01*
X1500070Y586988D02*
Y620989D01*
X1461570Y586988D02*
X1500070D01*
X1461570Y620989D02*
X1500070D01*
X1505510Y626390D02*
Y648690D01*
X1461210Y626390D02*
Y648690D01*
Y626390D02*
X1505510D01*
X1461210Y648690D02*
X1505510D01*
X1460740Y683508D02*
Y717509D01*
X1499240Y683508D02*
Y717509D01*
X1460740Y683508D02*
X1499240D01*
X1460740Y717509D02*
X1499240D01*
X1505510Y722910D02*
Y745210D01*
X1461210Y722910D02*
Y745210D01*
Y722910D02*
X1505510D01*
X1461210Y745210D02*
X1505510D01*
X1461210Y780029D02*
Y814029D01*
X1499710Y780029D02*
Y814029D01*
X1461210Y780029D02*
X1499710D01*
X1461210Y814029D02*
X1499710D01*
X1505510Y819430D02*
Y841730D01*
X1461210Y819430D02*
Y841730D01*
Y819430D02*
X1505510D01*
X1461210Y841730D02*
X1505510D01*
Y752120D02*
Y774420D01*
X1461210Y752120D02*
Y774420D01*
Y752120D02*
X1505510D01*
X1461210Y774420D02*
X1505510D01*
X1068290Y702700D02*
X1083090D01*
X1068290Y732400D02*
X1083090D01*
X1068290Y702700D02*
Y732400D01*
X1083090Y702700D02*
Y732400D01*
X1071000Y571280D02*
X1100700D01*
X1071000Y556480D02*
X1100700D01*
X1071000D02*
Y571280D01*
X1100700Y556480D02*
Y571280D01*
X523020Y922410D02*
Y952110D01*
X508220Y922410D02*
Y952110D01*
X523020D01*
X508220Y922410D02*
X523020D01*
Y1041790D02*
Y1071490D01*
X508220Y1041790D02*
Y1071490D01*
X523020D01*
X508220Y1041790D02*
X523020D01*
X1532670Y873610D02*
X1578830D01*
X1532670Y896770D02*
X1578830D01*
Y873610D02*
Y896770D01*
X1532670Y873610D02*
Y896770D01*
X1533940Y925680D02*
X1580100D01*
X1533940Y948840D02*
X1580100D01*
Y925680D02*
Y948840D01*
X1533940Y925680D02*
Y948840D01*
X1532630Y1027280D02*
X1578790D01*
X1532630Y1050440D02*
X1578790D01*
Y1027280D02*
Y1050440D01*
X1532630Y1027280D02*
Y1050440D01*
X1533940Y976480D02*
X1580100D01*
X1533940Y999640D02*
X1580100D01*
Y976480D02*
Y999640D01*
X1533940Y976480D02*
Y999640D01*
X1356640Y1030680D02*
Y1074980D01*
X1378940Y1030680D02*
Y1074980D01*
X1356640Y1030680D02*
X1378940D01*
X1356640Y1074980D02*
X1378940D01*
X1385570Y985660D02*
Y1003160D01*
X1345570Y985660D02*
X1385570D01*
X1345570D02*
Y1003160D01*
X1385570D01*
X1385250Y964070D02*
Y981570D01*
X1345250Y964070D02*
X1385250D01*
X1345250D02*
Y981570D01*
X1385250D01*
Y942480D02*
Y959980D01*
X1345250Y942480D02*
X1385250D01*
X1345250D02*
Y959980D01*
X1385250D01*
Y920890D02*
Y938390D01*
X1345250Y920890D02*
X1385250D01*
X1345250D02*
Y938390D01*
X1385250D01*
X1385010Y1080490D02*
X1429310D01*
X1385010Y1058190D02*
X1429310D01*
X1385010D02*
Y1080490D01*
X1429310Y1058190D02*
Y1080490D01*
X1384580Y1104340D02*
Y1148640D01*
X1406880Y1104340D02*
Y1148640D01*
X1384580Y1104340D02*
X1406880D01*
X1384580Y1148640D02*
X1406880D01*
X1495670Y1244820D02*
Y1259620D01*
X1465970Y1244820D02*
Y1259620D01*
Y1244820D02*
X1495670D01*
X1465970Y1259620D02*
X1495670D01*
X1634270Y1224670D02*
Y1254370D01*
X1619470Y1224670D02*
Y1254370D01*
X1634270D01*
X1619470Y1224670D02*
X1634270D01*
X1619470Y1221350D02*
X1634270D01*
X1619470Y1191650D02*
X1634270D01*
Y1221350D01*
X1619470Y1191650D02*
Y1221350D01*
X1622180Y1173700D02*
Y1188500D01*
X1651880Y1173700D02*
Y1188500D01*
X1622180D02*
X1651880D01*
X1622180Y1173700D02*
X1651880D01*
X1619470Y1125610D02*
X1634270D01*
X1619470Y1155310D02*
X1634270D01*
X1619470Y1125610D02*
Y1155310D01*
X1634270Y1125610D02*
Y1155310D01*
X1610384Y1225100D02*
Y1251700D01*
X1574184D02*
X1610384D01*
X1574184Y1225100D02*
Y1251700D01*
Y1225100D02*
X1610384D01*
X769060Y868960D02*
X813360D01*
X769060Y891260D02*
X813360D01*
Y868960D02*
Y891260D01*
X769060Y868960D02*
Y891260D01*
X927810Y843560D02*
Y865860D01*
X972110Y843560D02*
Y865860D01*
X927810D02*
X972110D01*
X927810Y843560D02*
X972110D01*
X1007820D02*
Y865860D01*
X1052120Y843560D02*
Y865860D01*
X1007820D02*
X1052120D01*
X1007820Y843560D02*
X1052120D01*
X1169110Y870230D02*
X1213410D01*
X1169110Y892530D02*
X1213410D01*
Y870230D02*
Y892530D01*
X1169110Y870230D02*
Y892530D01*
X1089100Y868960D02*
X1133400D01*
X1089100Y891260D02*
X1133400D01*
Y868960D02*
Y891260D01*
X1089100Y868960D02*
Y891260D01*
X927810Y868960D02*
X972110D01*
X927810Y891260D02*
X972110D01*
Y868960D02*
Y891260D01*
X927810Y868960D02*
Y891260D01*
X848630Y868960D02*
X892930D01*
X848630Y891260D02*
X892930D01*
Y868960D02*
Y891260D01*
X848630Y868960D02*
Y891260D01*
X1168920Y896840D02*
Y911640D01*
X1198620Y896840D02*
Y911640D01*
X1168920D02*
X1198620D01*
X1168920Y896840D02*
X1198620D01*
X1088780Y895570D02*
Y910370D01*
X1118480Y895570D02*
Y910370D01*
X1088780D02*
X1118480D01*
X1088780Y895570D02*
X1118480D01*
X1007630D02*
Y910370D01*
X1037330Y895570D02*
Y910370D01*
X1007630D02*
X1037330D01*
X1007630Y895570D02*
X1037330D01*
X927490D02*
Y910370D01*
X957190Y895570D02*
Y910370D01*
X927490D02*
X957190D01*
X927490Y895570D02*
X957190D01*
X848750D02*
Y910370D01*
X878450Y895570D02*
Y910370D01*
X848750D02*
X878450D01*
X848750Y895570D02*
X878450D01*
X768740D02*
Y910370D01*
X798440Y895570D02*
Y910370D01*
X768740D02*
X798440D01*
X768740Y895570D02*
X798440D01*
X1216940Y843990D02*
Y888290D01*
X1239240Y843990D02*
Y888290D01*
X1216940Y843990D02*
X1239240D01*
X1216940Y888290D02*
X1239240D01*
X1139470Y842720D02*
Y887020D01*
X1161770Y842720D02*
Y887020D01*
X1139470Y842720D02*
X1161770D01*
X1139470Y887020D02*
X1161770D01*
X1059460Y842720D02*
Y887020D01*
X1081760Y842720D02*
Y887020D01*
X1059460Y842720D02*
X1081760D01*
X1059460Y887020D02*
X1081760D01*
X978180Y842720D02*
Y887020D01*
X1000480Y842720D02*
Y887020D01*
X978180Y842720D02*
X1000480D01*
X978180Y887020D02*
X1000480D01*
X898170Y842720D02*
Y887020D01*
X920470Y842720D02*
Y887020D01*
X898170Y842720D02*
X920470D01*
X898170Y887020D02*
X920470D01*
X848630Y843560D02*
Y865860D01*
X892930Y843560D02*
Y865860D01*
X848630D02*
X892930D01*
X848630Y843560D02*
X892930D01*
X818160Y843160D02*
Y887460D01*
X840460Y843160D02*
Y887460D01*
X818160Y843160D02*
X840460D01*
X818160Y887460D02*
X840460D01*
X769060Y843560D02*
Y865860D01*
X813360Y843560D02*
Y865860D01*
X769060D02*
X813360D01*
X769060Y843560D02*
X813360D01*
X927810Y791490D02*
X972110D01*
X927810Y813790D02*
X972110D01*
Y791490D02*
Y813790D01*
X927810Y791490D02*
Y813790D01*
X848630Y791490D02*
X892930D01*
X848630Y813790D02*
X892930D01*
Y791490D02*
Y813790D01*
X848630Y791490D02*
Y813790D01*
X768740Y818100D02*
Y832900D01*
X798440Y818100D02*
Y832900D01*
X768740D02*
X798440D01*
X768740Y818100D02*
X798440D01*
X848750D02*
Y832900D01*
X878450Y818100D02*
Y832900D01*
X848750D02*
X878450D01*
X848750Y818100D02*
X878450D01*
X769060Y791490D02*
X813360D01*
X769060Y813790D02*
X813360D01*
Y791490D02*
Y813790D01*
X769060Y791490D02*
Y813790D01*
Y766090D02*
Y788390D01*
X813360Y766090D02*
Y788390D01*
X769060D02*
X813360D01*
X769060Y766090D02*
X813360D01*
X818160Y765250D02*
Y809550D01*
X840460Y765250D02*
Y809550D01*
X818160Y765250D02*
X840460D01*
X818160Y809550D02*
X840460D01*
X848630Y764820D02*
Y787120D01*
X892930Y764820D02*
Y787120D01*
X848630D02*
X892930D01*
X848630Y764820D02*
X892930D01*
X898170Y763980D02*
Y808280D01*
X920470Y763980D02*
Y808280D01*
X898170Y763980D02*
X920470D01*
X898170Y808280D02*
X920470D01*
X927810Y764820D02*
Y787120D01*
X972110Y764820D02*
Y787120D01*
X927810D02*
X972110D01*
X927810Y764820D02*
X972110D01*
X978180Y763980D02*
Y808280D01*
X1000480Y763980D02*
Y808280D01*
X978180Y763980D02*
X1000480D01*
X978180Y808280D02*
X1000480D01*
X1007820Y791490D02*
X1052120D01*
X1007820Y813790D02*
X1052120D01*
Y791490D02*
Y813790D01*
X1007820Y791490D02*
Y813790D01*
X1007630Y818100D02*
Y832900D01*
X1037330Y818100D02*
Y832900D01*
X1007630D02*
X1037330D01*
X1007630Y818100D02*
X1037330D01*
X1059460Y765250D02*
Y809550D01*
X1081760Y765250D02*
Y809550D01*
X1059460Y765250D02*
X1081760D01*
X1059460Y809550D02*
X1081760D01*
X1007820Y766090D02*
X1052120D01*
X1007820Y788390D02*
X1052120D01*
Y766090D02*
Y788390D01*
X1007820Y766090D02*
Y788390D01*
X1101970Y553940D02*
Y568740D01*
X1072270Y553940D02*
Y568740D01*
X1101970D01*
X1072270Y553940D02*
X1101970D01*
X735610Y827330D02*
X757910D01*
X735610Y783030D02*
X757910D01*
X735610D02*
Y827330D01*
X757910Y783030D02*
Y827330D01*
X675860Y839080D02*
X690660D01*
X675860Y809380D02*
X690660D01*
X675860D02*
Y839080D01*
X690660Y809380D02*
Y839080D01*
X649250Y804620D02*
Y848920D01*
X671550Y804620D02*
Y848920D01*
X649250D02*
X671550D01*
X649250Y804620D02*
X671550D01*
X630140Y849240D02*
X644940D01*
X630140Y819540D02*
X644940D01*
X630140D02*
Y849240D01*
X644940Y819540D02*
Y849240D01*
X728270Y844830D02*
Y867130D01*
X683970Y844830D02*
Y867130D01*
X728270D01*
X683970Y844830D02*
X728270D01*
X738150Y917060D02*
X760450D01*
X738150Y872760D02*
X760450D01*
X738150D02*
Y917060D01*
X760450Y872760D02*
Y917060D01*
X717770Y872880D02*
X732570D01*
X717770Y902580D02*
X732570D01*
Y872880D02*
Y902580D01*
X717770Y872880D02*
Y902580D01*
X650520Y931470D02*
X672820D01*
X650520Y887170D02*
X672820D01*
X650520D02*
Y931470D01*
X672820Y887170D02*
Y931470D01*
X588960Y804580D02*
X625160D01*
Y831180D01*
X588960D02*
X625160D01*
X588960Y804580D02*
Y831180D01*
X588400Y835060D02*
X624600D01*
Y861660D01*
X588400D02*
X624600D01*
X588400Y835060D02*
Y861660D01*
X588960Y866810D02*
X625160D01*
Y893410D01*
X588960D02*
X625160D01*
X588960Y866810D02*
Y893410D01*
X588400Y897440D02*
X624600D01*
Y924040D01*
X588400D02*
X624600D01*
X588400Y897440D02*
Y924040D01*
X631410Y912740D02*
X646210D01*
X631410Y883040D02*
X646210D01*
X631410D02*
Y912740D01*
X646210Y883040D02*
Y912740D01*
X619370Y928590D02*
Y943390D01*
X589670Y928590D02*
Y943390D01*
X619370D01*
X589670Y928590D02*
X619370D01*
X1544995Y1142020D02*
Y1260820D01*
X1632545D01*
Y1142020D02*
Y1260820D01*
X1544995Y1142020D02*
X1632545D01*
X1638820Y1153380D02*
Y1168180D01*
X1668520Y1153380D02*
Y1168180D01*
X1638820Y1153380D02*
X1668520D01*
X1638820Y1168180D02*
X1668520D01*
X1691080Y1126770D02*
Y1149070D01*
X1735380Y1126770D02*
Y1149070D01*
X1691080Y1126770D02*
X1735380D01*
X1691080Y1149070D02*
X1735380D01*
X1683310Y1126770D02*
Y1149070D01*
X1639010Y1126770D02*
Y1149070D01*
X1683310D01*
X1639010Y1126770D02*
X1683310D01*
X1592360Y1104020D02*
Y1133720D01*
X1577560Y1104020D02*
Y1133720D01*
Y1104020D02*
X1592360D01*
X1577560Y1133720D02*
X1592360D01*
X1573310Y1104020D02*
Y1133720D01*
X1558510Y1104020D02*
Y1133720D01*
Y1104020D02*
X1573310D01*
X1558510Y1133720D02*
X1573310D01*
X733500Y933730D02*
Y956030D01*
X777800Y933730D02*
Y956030D01*
X733500Y933730D02*
X777800D01*
X733500Y956030D02*
X777800D01*
X777730Y960280D02*
Y980280D01*
X743730Y960280D02*
Y980280D01*
Y960280D02*
X777730D01*
X743730Y980280D02*
X777730D01*
X780560Y990350D02*
Y1054350D01*
X687560D02*
X780560D01*
X687560Y990350D02*
Y1054350D01*
Y990350D02*
X780560D01*
X1089900Y951270D02*
Y963270D01*
X1070150D02*
X1089900D01*
X1050900Y982520D02*
X1070150Y963270D01*
X1050900Y982520D02*
Y1071270D01*
X1089900D01*
Y1083270D01*
X1119900D01*
Y1071270D02*
Y1083270D01*
Y1071270D02*
X1158900D01*
Y982520D02*
Y1071270D01*
X1139650Y963270D02*
X1158900Y982520D01*
X1119900Y963270D02*
X1139650D01*
X1119900Y951270D02*
Y963270D01*
X1089900Y951270D02*
X1119900D01*
X973060Y962540D02*
Y974540D01*
X960310D02*
X973060D01*
X944060Y990790D02*
X960310Y974540D01*
X944060Y990790D02*
Y1062540D01*
X973060D01*
Y1074540D01*
X1003060D01*
Y1062540D02*
Y1074540D01*
Y1062540D02*
X1032060D01*
Y990790D02*
Y1062540D01*
X1015810Y974540D02*
X1032060Y990790D01*
X1003060Y974540D02*
X1015810D01*
X1003060Y962540D02*
Y974540D01*
X973060Y962540D02*
X1003060D01*
X1479830Y1133400D02*
X1502130D01*
X1479830Y1089100D02*
X1502130D01*
X1479830D02*
Y1133400D01*
X1502130Y1089100D02*
Y1133400D01*
X1446920Y1065750D02*
Y1080550D01*
X1476620Y1065750D02*
Y1080550D01*
X1446920Y1065750D02*
X1476620D01*
X1446920Y1080550D02*
X1476620D01*
X1429630Y1065750D02*
Y1080550D01*
X1399930Y1065750D02*
Y1080550D01*
X1429630D01*
X1399930Y1065750D02*
X1429630D01*
X1356640Y1128320D02*
X1378940D01*
X1356640Y1084020D02*
X1378940D01*
X1356640D02*
Y1128320D01*
X1378940Y1084020D02*
Y1128320D01*
X1318920Y1055430D02*
Y1126430D01*
X1346920D01*
Y1055430D02*
Y1126430D01*
X1318920Y1055430D02*
X1346920D01*
X1355310Y563000D02*
Y592700D01*
X1370110Y563000D02*
Y592700D01*
X1355310D02*
X1370110D01*
X1355310Y563000D02*
X1370110D01*
X1383310Y1178000D02*
X1405610D01*
X1383310Y1222300D02*
X1405610D01*
Y1178000D02*
Y1222300D01*
X1383310Y1178000D02*
Y1222300D01*
X1380710Y1256910D02*
X1395510D01*
X1380710Y1227210D02*
X1395510D01*
X1380710D02*
Y1256910D01*
X1395510Y1227210D02*
Y1256910D01*
X1306580Y1162540D02*
Y1255540D01*
X1370580D01*
Y1162540D02*
Y1255540D01*
X1306580Y1162540D02*
X1370580D01*
X1479770Y1139580D02*
X1494570D01*
X1479770Y1169280D02*
X1494570D01*
Y1139580D02*
Y1169280D01*
X1479770Y1139580D02*
Y1169280D01*
X1354380Y933730D02*
Y956030D01*
X1310080Y933730D02*
Y956030D01*
X1354380D01*
X1310080Y933730D02*
X1354380D01*
X1244990Y799880D02*
X1274690D01*
X1244990Y785080D02*
X1274690D01*
Y799880D01*
X1244990Y785080D02*
Y799880D01*
X1279540Y797970D02*
X1290940D01*
X1279540Y817470D02*
X1290940D01*
Y797970D02*
Y817470D01*
X1279540Y797970D02*
Y817470D01*
X1323750Y837580D02*
Y848980D01*
X1343250Y837580D02*
Y848980D01*
X1323750Y837580D02*
X1343250D01*
X1323750Y848980D02*
X1343250D01*
X1314430Y835800D02*
Y866000D01*
X1299230Y835800D02*
X1314430D01*
X1299230D02*
Y866000D01*
X1314430D01*
X1279110Y836050D02*
X1293910D01*
X1279110Y865750D02*
X1293910D01*
Y836050D02*
Y865750D01*
X1279110Y836050D02*
Y865750D01*
X1376270Y837580D02*
Y848980D01*
X1356770Y837580D02*
Y848980D01*
X1376270D01*
X1356770Y837580D02*
X1376270D01*
X1382170D02*
Y848980D01*
X1401670Y837580D02*
Y848980D01*
X1382170Y837580D02*
X1401670D01*
X1382170Y848980D02*
X1401670D01*
X1365720Y832460D02*
X1392720D01*
Y813460D02*
Y832460D01*
X1365720Y813460D02*
X1392720D01*
X1365720D02*
Y832460D01*
X1349130Y790160D02*
X1378830D01*
X1349130Y804960D02*
X1378830D01*
X1349130Y790160D02*
Y804960D01*
X1378830Y790160D02*
Y804960D01*
X1406110Y743340D02*
Y773040D01*
X1420910Y743340D02*
Y773040D01*
X1406110D02*
X1420910D01*
X1406110Y743340D02*
X1420910D01*
X1412380Y712490D02*
X1442580D01*
X1412380D02*
Y727690D01*
X1442580D01*
Y712490D02*
Y727690D01*
X1463110Y723860D02*
X1554410D01*
Y591860D02*
Y723860D01*
X1463110Y591860D02*
X1554410D01*
X1463110D02*
Y723860D01*
X1490490Y553900D02*
X1524490D01*
X1490490Y512900D02*
Y553900D01*
X1524490Y512900D02*
Y553900D01*
X1490490Y512900D02*
X1524490D01*
X1472580Y549500D02*
X1483980D01*
X1472580Y530000D02*
X1483980D01*
X1472580D02*
Y549500D01*
X1483980Y530000D02*
Y549500D01*
X1532030Y516270D02*
Y527670D01*
X1551530Y516270D02*
Y527670D01*
X1532030Y516270D02*
X1551530D01*
X1532030Y527670D02*
X1551530D01*
X1467130Y398350D02*
X1540230D01*
X1467130D02*
Y503350D01*
X1540230D01*
Y398350D02*
Y503350D01*
X1549620Y399170D02*
X1564420D01*
X1549620Y428870D02*
X1564420D01*
Y399170D02*
Y428870D01*
X1549620Y399170D02*
Y428870D01*
X1083170Y590760D02*
Y648760D01*
Y590760D02*
X1157370D01*
Y648760D01*
X1083170D02*
X1157370D01*
X1164980Y631410D02*
X1194680D01*
X1164980Y646210D02*
X1194680D01*
X1164980Y631410D02*
Y646210D01*
X1194680Y631410D02*
Y646210D01*
X1039140Y700040D02*
X1061440D01*
X1039140Y744340D02*
X1061440D01*
Y700040D02*
Y744340D01*
X1039140Y700040D02*
Y744340D01*
X683330Y751050D02*
Y798350D01*
X660330Y751050D02*
X683330D01*
X660330D02*
Y798350D01*
X683330D01*
X634010Y798120D02*
X656310D01*
X634010Y753820D02*
X656310D01*
X634010D02*
Y798120D01*
X656310Y753820D02*
Y798120D01*
X606070Y737310D02*
Y781610D01*
X628370Y737310D02*
Y781610D01*
X606070D02*
X628370D01*
X606070Y737310D02*
X628370D01*
X580670D02*
X602970D01*
X580670Y781610D02*
X602970D01*
Y737310D02*
Y781610D01*
X580670Y737310D02*
Y781610D01*
X589670Y787620D02*
Y802420D01*
X619370Y787620D02*
Y802420D01*
X589670Y787620D02*
X619370D01*
X589670Y802420D02*
X619370D01*
X544870Y767120D02*
X575270D01*
Y848320D01*
X544870D02*
X575270D01*
X544870Y767120D02*
Y848320D01*
X546140Y881420D02*
X576540D01*
Y962620D01*
X546140D02*
X576540D01*
X546140Y881420D02*
Y962620D01*
X636200Y938250D02*
Y985550D01*
X659200D01*
Y938250D02*
Y985550D01*
X636200Y938250D02*
X659200D01*
X607340Y993700D02*
X629640D01*
X607340Y949400D02*
X629640D01*
X607340D02*
Y993700D01*
X629640Y949400D02*
Y993700D01*
X580670D02*
X602970D01*
X580670Y949400D02*
X602970D01*
X580670D02*
Y993700D01*
X602970Y949400D02*
Y993700D01*
X1194260Y1086760D02*
X1277160D01*
Y1144180D01*
X1292410D01*
Y1257610D01*
X1179010D02*
X1292410D01*
X1179010Y1144180D02*
Y1257610D01*
Y1144180D02*
X1194260D01*
Y1086760D02*
Y1144180D01*
X1089900Y1106050D02*
Y1118050D01*
X1077150D02*
X1089900D01*
X1060900Y1134300D02*
X1077150Y1118050D01*
X1060900Y1134300D02*
Y1206050D01*
X1089900D01*
Y1218050D01*
X1119900D01*
Y1206050D02*
Y1218050D01*
Y1206050D02*
X1148900D01*
Y1134300D02*
Y1206050D01*
X1132650Y1118050D02*
X1148900Y1134300D01*
X1119900Y1118050D02*
X1132650D01*
X1119900Y1106050D02*
Y1118050D01*
X1089900Y1106050D02*
X1119900D01*
X973060Y1097420D02*
Y1109420D01*
X953310D02*
X973060D01*
X934060Y1128670D02*
X953310Y1109420D01*
X934060Y1128670D02*
Y1217420D01*
X973060D01*
Y1229420D01*
X1003060D01*
Y1217420D02*
Y1229420D01*
Y1217420D02*
X1042060D01*
Y1128670D02*
Y1217420D01*
X1022810Y1109420D02*
X1042060Y1128670D01*
X1003060Y1109420D02*
X1022810D01*
X1003060Y1097420D02*
Y1109420D01*
X973060Y1097420D02*
X1003060D01*
X893670Y1087940D02*
Y1141890D01*
X908170D01*
Y1258940D01*
X796170D02*
X908170D01*
X796170Y1141890D02*
Y1258940D01*
Y1141890D02*
X810670D01*
Y1087940D02*
Y1141890D01*
Y1087940D02*
X893670D01*
X708410Y1139680D02*
X772410D01*
Y1232680D01*
X708410D02*
X772410D01*
X708410Y1139680D02*
Y1232680D01*
X650950Y1130580D02*
Y1152880D01*
X695250Y1130580D02*
Y1152880D01*
X650950Y1130580D02*
X695250D01*
X650950Y1152880D02*
X695250D01*
X597610Y1130580D02*
Y1152880D01*
X641910Y1130580D02*
Y1152880D01*
X597610Y1130580D02*
X641910D01*
X597610Y1152880D02*
X641910D01*
X452400Y1131010D02*
X474700D01*
X452400Y1175310D02*
X474700D01*
Y1131010D02*
Y1175310D01*
X452400Y1131010D02*
Y1175310D01*
X425730Y1131010D02*
X448030D01*
X425730Y1175310D02*
X448030D01*
Y1131010D02*
Y1175310D01*
X425730Y1131010D02*
Y1175310D01*
X347640Y1124620D02*
Y1176620D01*
X368640D01*
Y1124620D02*
Y1176620D01*
X347640Y1124620D02*
X368640D01*
Y1031910D02*
Y1083910D01*
X347640Y1031910D02*
X368640D01*
X347640D02*
Y1083910D01*
X368640D01*
X348910Y869350D02*
Y921350D01*
X369910D01*
Y869350D02*
Y921350D01*
X348910Y869350D02*
X369910D01*
X347640Y827370D02*
X368640D01*
X347640Y775370D02*
Y827370D01*
Y775370D02*
X368640D01*
Y827370D01*
X675760Y675920D02*
Y698220D01*
X631460Y675920D02*
Y698220D01*
X675760D01*
X631460Y675920D02*
X675760D01*
X631970Y705010D02*
Y725010D01*
X665970Y705010D02*
Y725010D01*
X631970D02*
X665970D01*
X631970Y705010D02*
X665970D01*
X585330Y675960D02*
Y715960D01*
X567830Y675960D02*
X585330D01*
X567830D02*
Y715960D01*
X585330D01*
X462770Y739390D02*
X555770D01*
Y675390D02*
Y739390D01*
X462770Y675390D02*
X555770D01*
X462770D02*
Y739390D01*
X358630Y675390D02*
X451630D01*
X358630D02*
Y739390D01*
X451630D01*
Y675390D02*
Y739390D01*
X304240Y675920D02*
Y698220D01*
X348540Y675920D02*
Y698220D01*
X304240Y675920D02*
X348540D01*
X304240Y698220D02*
X348540D01*
X304310Y705010D02*
Y725010D01*
X338310Y705010D02*
Y725010D01*
X304310D02*
X338310D01*
X304310Y705010D02*
X338310D01*
X304420Y298610D02*
X338420D01*
X304420Y318610D02*
X338420D01*
Y298610D02*
Y318610D01*
X304420Y298610D02*
Y318610D01*
X266980Y301700D02*
Y346000D01*
X289280Y301700D02*
Y346000D01*
X266980D02*
X289280D01*
X266980Y301700D02*
X289280D01*
X918070Y272100D02*
Y312100D01*
X900570Y272100D02*
X918070D01*
X900570D02*
Y312100D01*
X918070D01*
X785350Y270260D02*
Y334260D01*
Y270260D02*
X878350D01*
Y334260D01*
X785350D02*
X878350D01*
X774210Y270260D02*
Y334260D01*
X681210D02*
X774210D01*
X681210Y270260D02*
Y334260D01*
Y270260D02*
X774210D01*
X634510Y299880D02*
X668510D01*
X634510Y319880D02*
X668510D01*
Y299880D02*
Y319880D01*
X634510Y299880D02*
Y319880D01*
X629360Y270790D02*
X673660D01*
X629360Y293090D02*
X673660D01*
X629360Y270790D02*
Y293090D01*
X673660Y270790D02*
Y293090D01*
X609380Y300110D02*
Y329810D01*
X594580Y300110D02*
Y329810D01*
Y300110D02*
X609380D01*
X594580Y329810D02*
X609380D01*
X567830Y294960D02*
X585330D01*
Y334960D01*
X567830D02*
X585330D01*
X567830Y294960D02*
Y334960D01*
X461500Y271530D02*
Y335530D01*
Y271530D02*
X554500D01*
Y335530D01*
X461500D02*
X554500D01*
X450360Y271530D02*
Y335530D01*
X357360D02*
X450360D01*
X357360Y271530D02*
Y335530D01*
Y271530D02*
X450360D01*
X1039140Y589990D02*
X1061440D01*
X1039140Y634290D02*
X1061440D01*
Y589990D02*
Y634290D01*
X1039140Y589990D02*
Y634290D01*
X1052610Y549030D02*
Y578730D01*
X1037810Y549030D02*
Y578730D01*
Y549030D02*
X1052610D01*
X1037810Y578730D02*
X1052610D01*
X932540Y609250D02*
X1028340D01*
Y508350D02*
Y609250D01*
X932540Y508350D02*
X1028340D01*
X932540D02*
Y609250D01*
X1039140Y480770D02*
X1061440D01*
X1039140Y525070D02*
X1061440D01*
Y480770D02*
Y525070D01*
X1039140Y480770D02*
Y525070D01*
X1067020Y465210D02*
X1081820D01*
X1067020Y494910D02*
X1081820D01*
Y465210D02*
Y494910D01*
X1067020Y465210D02*
Y494910D01*
X1037810Y469510D02*
X1052610D01*
X1037810Y439810D02*
X1052610D01*
X1037810D02*
Y469510D01*
X1052610Y439810D02*
Y469510D01*
X932540Y399130D02*
Y500030D01*
Y399130D02*
X1028340D01*
Y500030D01*
X932540D02*
X1028340D01*
X1039080Y360290D02*
X1053880D01*
X1039080Y330590D02*
X1053880D01*
X1039080D02*
Y360290D01*
X1053880Y330590D02*
Y360290D01*
X933810Y289910D02*
Y390810D01*
Y289910D02*
X1029610D01*
Y390810D01*
X933810D02*
X1029610D01*
X1040410Y371550D02*
X1062710D01*
X1040410Y415850D02*
X1062710D01*
Y371550D02*
Y415850D01*
X1040410Y371550D02*
Y415850D01*
X1067020Y355990D02*
X1081820D01*
X1067020Y385690D02*
X1081820D01*
Y355990D02*
Y385690D01*
X1067020Y355990D02*
Y385690D01*
X1249900Y358530D02*
Y388230D01*
X1264700Y358530D02*
Y388230D01*
X1249900D02*
X1264700D01*
X1249900Y358530D02*
X1264700D01*
X1367230Y448140D02*
X1411530D01*
X1367230Y425840D02*
X1411530D01*
Y448140D01*
X1367230Y425840D02*
Y448140D01*
X1337130Y426270D02*
Y470570D01*
X1359430Y426270D02*
Y470570D01*
X1337130D02*
X1359430D01*
X1337130Y426270D02*
X1359430D01*
X1246120Y425840D02*
X1290420D01*
X1246120Y448140D02*
X1290420D01*
X1246120Y425840D02*
Y448140D01*
X1290420Y425840D02*
Y448140D01*
X1297760Y426270D02*
Y470570D01*
X1320060Y426270D02*
Y470570D01*
X1297760D02*
X1320060D01*
X1297760Y426270D02*
X1320060D01*
X1365410Y418430D02*
X1385410D01*
X1365410Y384430D02*
X1385410D01*
Y418430D01*
X1365410Y384430D02*
Y418430D01*
X1338740Y418430D02*
X1358741D01*
X1338740Y384430D02*
X1358741D01*
Y418430D01*
X1338740Y384430D02*
Y418430D01*
X1298910Y418430D02*
X1318910D01*
X1298910Y384430D02*
X1318910D01*
Y418430D01*
X1298910Y384430D02*
Y418430D01*
X1273510Y418320D02*
X1293510D01*
X1273510Y384320D02*
X1293510D01*
Y418320D01*
X1273510Y384320D02*
Y418320D01*
X899300Y698820D02*
X916800D01*
Y738820D01*
X899300D02*
X916800D01*
X899300Y698820D02*
Y738820D01*
X925610Y433590D02*
Y463290D01*
X910810Y433590D02*
Y463290D01*
Y433590D02*
X925610D01*
X910810Y463290D02*
X925610D01*
X449020Y774980D02*
X493320D01*
X449020Y797280D02*
X493320D01*
X449020Y774980D02*
Y797280D01*
X493320Y774980D02*
Y797280D01*
X449020Y851466D02*
X493320D01*
X449020Y829167D02*
X493320D01*
Y851466D01*
X449020Y829167D02*
Y851466D01*
Y824373D02*
X493320D01*
X449020Y802074D02*
X493320D01*
Y824373D01*
X449020Y802074D02*
Y824373D01*
X447750Y856260D02*
X492050D01*
X447750Y878560D02*
X492050D01*
X447750Y856260D02*
Y878560D01*
X492050Y856260D02*
Y878560D01*
X1089100Y843560D02*
X1133400D01*
X1089100Y865860D02*
X1133400D01*
Y843560D02*
Y865860D01*
X1089100Y843560D02*
Y865860D01*
X1169110Y844830D02*
X1213410D01*
X1169110Y867130D02*
X1213410D01*
Y844830D02*
Y867130D01*
X1169110Y844830D02*
Y867130D01*
X927490Y818100D02*
X957190D01*
X927490Y832900D02*
X957190D01*
Y818100D02*
Y832900D01*
X927490Y818100D02*
Y832900D01*
X912080Y645550D02*
Y675250D01*
X926880Y645550D02*
Y675250D01*
X912080Y645550D02*
X926880D01*
X912080Y675250D02*
X926880D01*
X1573624Y1137320D02*
X1609824D01*
X1573624D02*
Y1163920D01*
X1609824D01*
Y1137320D02*
Y1163920D01*
X1573624Y1166530D02*
X1609824D01*
X1573624D02*
Y1193130D01*
X1609824D01*
Y1166530D02*
Y1193130D01*
X1573624Y1195740D02*
X1609824D01*
X1573624D02*
Y1222340D01*
X1609824D01*
Y1195740D02*
Y1222340D01*
X1423170Y341066D02*
X1583170D01*
Y171066D02*
Y341066D01*
X1423170Y171066D02*
X1583170D01*
X1423170D02*
Y341066D01*
X1338760Y794530D02*
Y828530D01*
X1297760D02*
X1338760D01*
X1297760Y794530D02*
X1338760D01*
X1297760D02*
Y828530D01*
X1205450Y769230D02*
X1220250D01*
X1205450Y739530D02*
X1220250D01*
X1205450D02*
Y769230D01*
X1220250Y739530D02*
Y769230D01*
X1079430Y383320D02*
X1229930D01*
Y546320D01*
X1196930D02*
X1229930D01*
X1196930Y533320D02*
Y546320D01*
X1098430Y533320D02*
X1196930D01*
X1098430D02*
Y536320D01*
X1079430D02*
X1098430D01*
X1079430Y383320D02*
Y536320D01*
X683750Y675390D02*
X776750D01*
X683750D02*
Y739390D01*
X776750D01*
Y675390D02*
Y739390D01*
X1052610Y658250D02*
Y687950D01*
X1037810Y658250D02*
Y687950D01*
Y658250D02*
X1052610D01*
X1037810Y687950D02*
X1052610D01*
X788130Y675390D02*
Y739390D01*
Y675390D02*
X881130D01*
Y739390D01*
X788130D02*
X881130D01*
X1061940Y658250D02*
Y687950D01*
X1076740Y658250D02*
Y687950D01*
X1061940D02*
X1076740D01*
X1061940Y658250D02*
X1076740D01*
X926880Y326780D02*
Y356480D01*
X912080Y326780D02*
Y356480D01*
Y326780D02*
X926880D01*
X912080Y356480D02*
X926880D01*
X925610Y544080D02*
Y573780D01*
X910810Y544080D02*
Y573780D01*
Y544080D02*
X925610D01*
X910810Y573780D02*
X925610D01*
%TF.MD5,78a7c0c648161f5fc1059c86c2f8da72*%
M02*
