%TF.GenerationSoftware,Altium Limited,Altium Designer,22.2.1 (43)*%
G04 Layer_Color=16711935*
%FSLAX44Y44*%
%MOMM*%
%TF.SameCoordinates,040CE2E0-B857-4D47-B26F-9B72162B56B4*%
%TF.FilePolarity,Negative*%
%TF.FileFunction,Soldermask,Bot*%
%TF.Part,Single*%
G01*
G75*
%TA.AperFunction,SMDPad,CuDef*%
%ADD99O,2.0032X0.8032*%
%ADD100R,2.0032X0.8032*%
%ADD101R,1.1732X1.9332*%
G04:AMPARAMS|DCode=102|XSize=1.4332mm|YSize=0.8032mm|CornerRadius=0.1766mm|HoleSize=0mm|Usage=FLASHONLY|Rotation=180.000|XOffset=0mm|YOffset=0mm|HoleType=Round|Shape=RoundedRectangle|*
%AMROUNDEDRECTD102*
21,1,1.4332,0.4500,0,0,180.0*
21,1,1.0800,0.8032,0,0,180.0*
1,1,0.3532,-0.5400,0.2250*
1,1,0.3532,0.5400,0.2250*
1,1,0.3532,0.5400,-0.2250*
1,1,0.3532,-0.5400,-0.2250*
%
%ADD102ROUNDEDRECTD102*%
%ADD103R,2.2932X1.5932*%
%ADD104R,1.1832X1.1232*%
%ADD105R,2.1844X0.7620*%
%ADD106R,1.1232X1.1832*%
%ADD107R,1.2632X2.0232*%
%ADD108R,1.9332X1.1732*%
%ADD109R,1.3532X1.3532*%
G04:AMPARAMS|DCode=110|XSize=1.3932mm|YSize=0.6032mm|CornerRadius=0.1516mm|HoleSize=0mm|Usage=FLASHONLY|Rotation=180.000|XOffset=0mm|YOffset=0mm|HoleType=Round|Shape=RoundedRectangle|*
%AMROUNDEDRECTD110*
21,1,1.3932,0.3000,0,0,180.0*
21,1,1.0900,0.6032,0,0,180.0*
1,1,0.3032,-0.5450,0.1500*
1,1,0.3032,0.5450,0.1500*
1,1,0.3032,0.5450,-0.1500*
1,1,0.3032,-0.5450,-0.1500*
%
%ADD110ROUNDEDRECTD110*%
%ADD111R,1.0032X1.7032*%
%ADD112R,1.6032X2.1032*%
%ADD113R,1.5032X1.6032*%
%ADD114R,1.1532X1.2032*%
%TA.AperFunction,ComponentPad*%
%ADD115C,4.2926*%
%ADD116C,2.5146*%
%ADD117C,2.0066*%
%ADD118C,1.7632*%
%ADD119R,1.7632X1.7632*%
%ADD120C,2.1532*%
%ADD121R,2.1532X2.1532*%
%ADD122C,1.3432*%
%ADD123R,1.3432X1.3432*%
%ADD124C,4.3180*%
%ADD125O,4.3942X2.2987*%
%ADD126C,1.9732*%
%ADD127R,1.9732X1.9732*%
%ADD128C,1.8082*%
%ADD129R,1.8082X1.8082*%
%ADD130C,1.7018*%
%ADD131R,1.7018X1.7018*%
%ADD132R,1.3032X1.3032*%
%ADD133C,1.3032*%
%ADD134C,2.2582*%
%ADD135R,2.2582X2.2582*%
%ADD136R,1.6312X1.6312*%
%ADD137C,1.6312*%
%ADD138C,3.5492*%
%TA.AperFunction,ViaPad*%
%ADD139C,0.7032*%
%ADD140C,1.0032*%
%ADD141C,6.2032*%
%ADD142C,0.8032*%
%ADD143C,1.7032*%
D99*
X1540510Y1092200D02*
D03*
X1423510Y1104900D02*
D03*
Y1117600D02*
D03*
Y1130300D02*
D03*
Y1143000D02*
D03*
Y1155700D02*
D03*
Y1168400D02*
D03*
Y1181100D02*
D03*
Y1193800D02*
D03*
Y1206500D02*
D03*
Y1219200D02*
D03*
Y1231900D02*
D03*
X1540510Y1104900D02*
D03*
Y1117600D02*
D03*
Y1130300D02*
D03*
Y1143000D02*
D03*
Y1155700D02*
D03*
Y1168400D02*
D03*
Y1181100D02*
D03*
Y1193800D02*
D03*
Y1206500D02*
D03*
Y1219200D02*
D03*
Y1231900D02*
D03*
D100*
X1423510Y1092200D02*
D03*
D101*
X1518090Y808990D02*
D03*
X1547690Y808990D02*
D03*
X1518090Y783590D02*
D03*
X1547690Y783590D02*
D03*
X1519360Y519430D02*
D03*
X1548960D02*
D03*
X1519360Y494030D02*
D03*
X1548960D02*
D03*
X1519360Y590550D02*
D03*
X1548960D02*
D03*
X1519360Y615950D02*
D03*
X1548960D02*
D03*
X1519360Y687070D02*
D03*
X1548960D02*
D03*
X1519800Y712470D02*
D03*
X1549400D02*
D03*
X1468560Y444500D02*
D03*
X1498160D02*
D03*
X1519360Y422910D02*
D03*
X1548960D02*
D03*
X1519360Y397510D02*
D03*
X1548960D02*
D03*
X1589210Y382270D02*
D03*
X1618810D02*
D03*
X1587940Y314960D02*
D03*
X1617540D02*
D03*
X1640010Y335280D02*
D03*
X1669610Y335280D02*
D03*
X1640010Y360680D02*
D03*
X1669610Y360680D02*
D03*
X1468560Y377190D02*
D03*
X1498160D02*
D03*
X1468560Y570230D02*
D03*
X1498160D02*
D03*
X1468560Y666750D02*
D03*
X1498160D02*
D03*
X1015170Y880110D02*
D03*
X1044770D02*
D03*
X1720410Y481330D02*
D03*
X1690810D02*
D03*
X1498160Y541020D02*
D03*
X1468560D02*
D03*
X1498160Y473710D02*
D03*
X1468560D02*
D03*
X1498160Y637540D02*
D03*
X1468560D02*
D03*
X1498160Y734060D02*
D03*
X1468560D02*
D03*
X1498160Y830580D02*
D03*
X1468560D02*
D03*
X1498160Y763270D02*
D03*
X1468560D02*
D03*
X1392360Y1069340D02*
D03*
X1421960D02*
D03*
X806010Y880110D02*
D03*
X776410D02*
D03*
X935160Y854710D02*
D03*
X964760D02*
D03*
X1015170D02*
D03*
X1044770D02*
D03*
X1206060Y881380D02*
D03*
X1176460D02*
D03*
X1126050Y880110D02*
D03*
X1096450D02*
D03*
X964760D02*
D03*
X935160D02*
D03*
X885580D02*
D03*
X855980D02*
D03*
Y854710D02*
D03*
X885580D02*
D03*
X776410D02*
D03*
X806010D02*
D03*
X964760Y802640D02*
D03*
X935160D02*
D03*
X885580D02*
D03*
X855980D02*
D03*
X806010D02*
D03*
X776410D02*
D03*
Y777240D02*
D03*
X806010D02*
D03*
X855980Y775970D02*
D03*
X885580D02*
D03*
X935160D02*
D03*
X964760D02*
D03*
X1044770Y802640D02*
D03*
X1015170D02*
D03*
X1044770Y777240D02*
D03*
X1015170D02*
D03*
X1126050Y854710D02*
D03*
X1096450D02*
D03*
X1206060Y855980D02*
D03*
X1176460D02*
D03*
D102*
X1491500Y420449D02*
D03*
X1470300Y410949D02*
D03*
X1491500Y401449D02*
D03*
X1610880Y358219D02*
D03*
X1589680Y348719D02*
D03*
X1610880Y339219D02*
D03*
X1491420Y497968D02*
D03*
X1470220Y507468D02*
D03*
X1491420Y516968D02*
D03*
Y594488D02*
D03*
X1470220Y603988D02*
D03*
X1491420Y613489D02*
D03*
X1490590Y691008D02*
D03*
X1469390Y700508D02*
D03*
X1490590Y710008D02*
D03*
X1491060Y787529D02*
D03*
X1469860Y797029D02*
D03*
X1491060Y806529D02*
D03*
D103*
X1415860Y1038860D02*
D03*
Y1013460D02*
D03*
Y988060D02*
D03*
Y962660D02*
D03*
Y937260D02*
D03*
Y911860D02*
D03*
Y886460D02*
D03*
Y861060D02*
D03*
X1506660D02*
D03*
Y886460D02*
D03*
Y911860D02*
D03*
Y937260D02*
D03*
Y962660D02*
D03*
Y988060D02*
D03*
Y1013460D02*
D03*
Y1038860D02*
D03*
D104*
X1657350Y475110D02*
D03*
Y459610D02*
D03*
X1652270Y421510D02*
D03*
Y437010D02*
D03*
X1752600Y432940D02*
D03*
Y448440D02*
D03*
X1075690Y709800D02*
D03*
Y725300D02*
D03*
X515620Y945010D02*
D03*
Y929510D02*
D03*
Y1064390D02*
D03*
Y1048890D02*
D03*
X1626870Y1247270D02*
D03*
Y1231770D02*
D03*
Y1214250D02*
D03*
Y1198750D02*
D03*
Y1132710D02*
D03*
Y1148210D02*
D03*
X919480Y652650D02*
D03*
Y668150D02*
D03*
D105*
X1680614Y458470D02*
D03*
Y445770D02*
D03*
Y433070D02*
D03*
Y420370D02*
D03*
X1727858D02*
D03*
Y433070D02*
D03*
Y445770D02*
D03*
Y458470D02*
D03*
D106*
X1078100Y563880D02*
D03*
X1093600D02*
D03*
X1488570Y1252220D02*
D03*
X1473070D02*
D03*
X1629280Y1181100D02*
D03*
X1644780D02*
D03*
X1176020Y904240D02*
D03*
X1191520D02*
D03*
X1095880Y902970D02*
D03*
X1111380D02*
D03*
X1014730D02*
D03*
X1030230D02*
D03*
X934590D02*
D03*
X950090D02*
D03*
X855850D02*
D03*
X871350D02*
D03*
X775840D02*
D03*
X791340D02*
D03*
X775840Y825500D02*
D03*
X791340D02*
D03*
X855850D02*
D03*
X871350D02*
D03*
X1014730D02*
D03*
X1030230D02*
D03*
X950090D02*
D03*
X934590D02*
D03*
D107*
X1571030Y885190D02*
D03*
X1540470D02*
D03*
X1572300Y937260D02*
D03*
X1541740D02*
D03*
X1570990Y1038860D02*
D03*
X1540430D02*
D03*
X1572300Y988060D02*
D03*
X1541740D02*
D03*
D108*
X1367790Y1038030D02*
D03*
Y1067630D02*
D03*
X1395730Y1111690D02*
D03*
Y1141290D02*
D03*
X1228090Y851340D02*
D03*
Y880940D02*
D03*
X1150620Y850070D02*
D03*
Y879670D02*
D03*
X1070610Y850070D02*
D03*
Y879670D02*
D03*
X989330Y850070D02*
D03*
Y879670D02*
D03*
X909320Y850070D02*
D03*
Y879670D02*
D03*
X829310Y850510D02*
D03*
Y880110D02*
D03*
Y772600D02*
D03*
Y802200D02*
D03*
X909320Y771330D02*
D03*
Y800930D02*
D03*
X989330Y771330D02*
D03*
Y800930D02*
D03*
X1070610Y772600D02*
D03*
Y802200D02*
D03*
D109*
X1377320Y994410D02*
D03*
X1353820D02*
D03*
X1377000Y972820D02*
D03*
X1353500D02*
D03*
X1377000Y951230D02*
D03*
X1353500D02*
D03*
X1377000Y929640D02*
D03*
X1353500D02*
D03*
D110*
X1601884Y1244900D02*
D03*
Y1238400D02*
D03*
Y1231900D02*
D03*
X1582684D02*
D03*
Y1244900D02*
D03*
X1582124Y1157120D02*
D03*
Y1144120D02*
D03*
X1601324D02*
D03*
Y1150620D02*
D03*
Y1157120D02*
D03*
X1582124Y1186330D02*
D03*
Y1173330D02*
D03*
X1601324D02*
D03*
Y1179830D02*
D03*
Y1186330D02*
D03*
X1582124Y1215540D02*
D03*
Y1202540D02*
D03*
X1601324D02*
D03*
Y1209040D02*
D03*
Y1215540D02*
D03*
D111*
X1096830Y501420D02*
D03*
X1107830D02*
D03*
X1118830Y503420D02*
D03*
X1129830Y501420D02*
D03*
X1140830Y503420D02*
D03*
X1151830Y501420D02*
D03*
X1162830Y497420D02*
D03*
X1173830Y501420D02*
D03*
D112*
X1088930Y524320D02*
D03*
X1220430Y534320D02*
D03*
D113*
X1104930Y392820D02*
D03*
X1161930D02*
D03*
D114*
X1118830Y390820D02*
D03*
D115*
X1654556Y1021080D02*
D03*
Y513080D02*
D03*
D116*
X1616202Y979932D02*
D03*
Y553974D02*
D03*
D117*
X1701038Y915416D02*
D03*
X1676146D02*
D03*
X1651000D02*
D03*
X1626108D02*
D03*
X1701038Y878586D02*
D03*
X1676146D02*
D03*
X1651000D02*
D03*
X1626108D02*
D03*
X1701038Y843534D02*
D03*
X1676146D02*
D03*
X1651000D02*
D03*
X1626108D02*
D03*
X1701038Y818388D02*
D03*
X1676146D02*
D03*
X1651000D02*
D03*
X1626108D02*
D03*
X1701038Y793496D02*
D03*
X1676146D02*
D03*
X1651000D02*
D03*
X1626108D02*
D03*
X1701038Y768604D02*
D03*
X1676146D02*
D03*
X1651000D02*
D03*
X1626108D02*
D03*
X1701038Y743458D02*
D03*
X1676146D02*
D03*
X1651000D02*
D03*
X1626108D02*
D03*
X1701038Y718566D02*
D03*
X1676146D02*
D03*
X1651000D02*
D03*
X1626108D02*
D03*
X1701038Y693420D02*
D03*
X1676146D02*
D03*
X1651000D02*
D03*
X1626108D02*
D03*
X1701038Y668528D02*
D03*
X1676146D02*
D03*
X1651000D02*
D03*
X1626108D02*
D03*
X1701038Y643382D02*
D03*
X1676146D02*
D03*
X1651000D02*
D03*
X1626108D02*
D03*
X1701038Y618490D02*
D03*
X1676146D02*
D03*
X1651000D02*
D03*
X1626108D02*
D03*
D118*
X1383030Y275590D02*
D03*
X1357630D02*
D03*
X1332230D02*
D03*
D119*
X1306830D02*
D03*
D120*
X534010Y1235710D02*
D03*
D121*
X629310D02*
D03*
D122*
X1021410Y706120D02*
D03*
Y680720D02*
D03*
Y655320D02*
D03*
Y629920D02*
D03*
X942010D02*
D03*
Y655320D02*
D03*
Y680720D02*
D03*
X1020140Y596900D02*
D03*
Y571500D02*
D03*
Y546100D02*
D03*
Y520700D02*
D03*
X940740D02*
D03*
Y546100D02*
D03*
Y571500D02*
D03*
Y462280D02*
D03*
Y436880D02*
D03*
Y411480D02*
D03*
X1020140D02*
D03*
Y436880D02*
D03*
Y462280D02*
D03*
Y487680D02*
D03*
X942010Y353060D02*
D03*
Y327660D02*
D03*
Y302260D02*
D03*
X1021410D02*
D03*
Y327660D02*
D03*
Y353060D02*
D03*
Y378460D02*
D03*
D123*
X942010Y706120D02*
D03*
X940740Y596900D02*
D03*
Y487680D02*
D03*
X942010Y378460D02*
D03*
D124*
X848360Y588010D02*
D03*
Y424180D02*
D03*
X521970Y588010D02*
D03*
Y424180D02*
D03*
D125*
X645160Y533400D02*
D03*
Y588010D02*
D03*
Y642620D02*
D03*
Y369570D02*
D03*
Y424180D02*
D03*
Y478790D02*
D03*
X318770Y533400D02*
D03*
Y588010D02*
D03*
Y642620D02*
D03*
Y478790D02*
D03*
Y424180D02*
D03*
Y369570D02*
D03*
D126*
X1334770Y1113730D02*
D03*
Y1090930D02*
D03*
D127*
Y1068130D02*
D03*
D128*
X560070Y833120D02*
D03*
Y807720D02*
D03*
X561340Y947420D02*
D03*
Y922020D02*
D03*
D129*
X560070Y782320D02*
D03*
X561340Y896620D02*
D03*
D130*
X488950Y979170D02*
D03*
Y953770D02*
D03*
Y928370D02*
D03*
Y902970D02*
D03*
X412750D02*
D03*
Y928370D02*
D03*
Y953770D02*
D03*
X487680Y1099820D02*
D03*
Y1074420D02*
D03*
Y1049020D02*
D03*
Y1023620D02*
D03*
X411480D02*
D03*
Y1049020D02*
D03*
Y1074420D02*
D03*
D131*
X412750Y979170D02*
D03*
X411480Y1099820D02*
D03*
D132*
X764140Y1096010D02*
D03*
D133*
X714140D02*
D03*
D134*
X320040Y834340D02*
D03*
Y808990D02*
D03*
X318770Y962594D02*
D03*
Y937243D02*
D03*
Y1090847D02*
D03*
Y1065497D02*
D03*
Y1219100D02*
D03*
Y1193750D02*
D03*
D135*
X320040Y783640D02*
D03*
X318770Y911893D02*
D03*
Y1040147D02*
D03*
Y1168400D02*
D03*
D136*
X1515670Y323166D02*
D03*
D137*
X1490670D02*
D03*
Y303165D02*
D03*
X1515670D02*
D03*
D138*
X1442970Y276066D02*
D03*
X1563370D02*
D03*
D139*
X824230Y812800D02*
D03*
X1559560Y834390D02*
D03*
X1593850Y814070D02*
D03*
X1249680Y838200D02*
D03*
X1243330Y773430D02*
D03*
X1217930Y775970D02*
D03*
X1229360Y784860D02*
D03*
X1217930Y820420D02*
D03*
X1239520Y792480D02*
D03*
X1336040Y859790D02*
D03*
X1250950Y693420D02*
D03*
X1591310Y448310D02*
D03*
X1573530Y388620D02*
D03*
X1558290Y374650D02*
D03*
X1569542Y848327D02*
D03*
X1643380Y377190D02*
D03*
X1541780Y369570D02*
D03*
X1717040Y372110D02*
D03*
X1757680Y736600D02*
D03*
X1390650Y463550D02*
D03*
X1526540Y643890D02*
D03*
X1449070Y568960D02*
D03*
X1593850Y830580D02*
D03*
X1770380Y608330D02*
D03*
X1534160Y723900D02*
D03*
X1645920Y387350D02*
D03*
X1527810Y796290D02*
D03*
X1595120Y725170D02*
D03*
X1583690Y690880D02*
D03*
Y674370D02*
D03*
X1593850D02*
D03*
X1586230Y427990D02*
D03*
X1590040Y516890D02*
D03*
X1588770Y506730D02*
D03*
X1574800Y402590D02*
D03*
X1291590Y365760D02*
D03*
X1438910Y869950D02*
D03*
Y880110D02*
D03*
X1442720Y1022350D02*
D03*
X1445260Y805180D02*
D03*
X1441450Y816610D02*
D03*
X1437640Y746760D02*
D03*
X1609090Y637540D02*
D03*
X1450340Y472440D02*
D03*
X1463040Y590550D02*
D03*
X1295400Y783590D02*
D03*
X1306830Y960120D02*
D03*
X1250950Y914400D02*
D03*
X1084580Y904240D02*
D03*
X1094740Y914400D02*
D03*
X890270Y916940D02*
D03*
X919480Y946150D02*
D03*
X1153160Y982980D02*
D03*
X1108710Y802640D02*
D03*
X867410Y801370D02*
D03*
X843280Y866140D02*
D03*
X1366520Y929640D02*
D03*
X1107690Y763020D02*
D03*
X1195070Y839470D02*
D03*
X1083310Y830580D02*
D03*
X1136650Y866140D02*
D03*
X1110955Y834040D02*
D03*
X1025865Y867060D02*
D03*
X1031240Y811530D02*
D03*
X1017270Y737870D02*
D03*
X1271270Y646430D02*
D03*
X1004570Y737870D02*
D03*
X1256030Y648970D02*
D03*
X1201420Y642620D02*
D03*
X1060450Y814070D02*
D03*
X963930Y831850D02*
D03*
X839470Y835660D02*
D03*
X867410Y857250D02*
D03*
X949960Y812800D02*
D03*
X844255Y781970D02*
D03*
X1004570Y789940D02*
D03*
X1084580Y867410D02*
D03*
X1071626Y838454D02*
D03*
X1065530Y867410D02*
D03*
X1421130Y791210D02*
D03*
X1287780Y744220D02*
D03*
X1323340Y690880D02*
D03*
X1252220Y750570D02*
D03*
X1372870Y689610D02*
D03*
X826770Y834390D02*
D03*
X806450Y830580D02*
D03*
X1003300Y814070D02*
D03*
X1038860Y836930D02*
D03*
X1192530Y744220D02*
D03*
X1595120Y840740D02*
D03*
X1578610Y769620D02*
D03*
X1588770Y765810D02*
D03*
X804797Y819027D02*
D03*
X914400Y830580D02*
D03*
X901700D02*
D03*
X889000Y831850D02*
D03*
X1155700Y830580D02*
D03*
X1143000D02*
D03*
X1130300D02*
D03*
X1341120Y744220D02*
D03*
X1348740Y748030D02*
D03*
X1330960Y745490D02*
D03*
X1322070Y749300D02*
D03*
X1388110Y359410D02*
D03*
X1452880Y307340D02*
D03*
X1272540Y674370D02*
D03*
X1160780Y896620D02*
D03*
X1080770Y895350D02*
D03*
X869950Y891540D02*
D03*
X789940Y773430D02*
D03*
X869950Y768350D02*
D03*
X1032510Y755650D02*
D03*
X1065530Y544830D02*
D03*
X1287780Y681990D02*
D03*
X1069340Y513080D02*
D03*
X1051560Y429260D02*
D03*
X1264920Y661670D02*
D03*
X974090Y637540D02*
D03*
X1220470Y359410D02*
D03*
X1236980Y360680D02*
D03*
X1257300Y636270D02*
D03*
X1253490Y628650D02*
D03*
X1366520Y642620D02*
D03*
X1363980Y651510D02*
D03*
X1360170Y659130D02*
D03*
X1151890Y459740D02*
D03*
Y520700D02*
D03*
X1356360Y668020D02*
D03*
X1569720Y1176020D02*
D03*
X1520190Y1206500D02*
D03*
X1414780Y670560D02*
D03*
X1416050Y689610D02*
D03*
X1437640Y692150D02*
D03*
X1569720Y1202690D02*
D03*
X1520190Y1219200D02*
D03*
X1427480Y692150D02*
D03*
X1231900Y595630D02*
D03*
X1341120Y661670D02*
D03*
X1249360Y540700D02*
D03*
X1352550Y692150D02*
D03*
X1348180Y780490D02*
D03*
X1600200Y1127760D02*
D03*
X1520190Y1193800D02*
D03*
X1398270Y822960D02*
D03*
X1360170Y819150D02*
D03*
X1276350Y822960D02*
D03*
X1209040Y904240D02*
D03*
X647700Y1008380D02*
D03*
X980440Y476250D02*
D03*
X1099820D02*
D03*
X1299210Y508000D02*
D03*
X1314450Y520700D02*
D03*
Y697230D02*
D03*
X1305560D02*
D03*
X1328420Y402590D02*
D03*
X1268730Y636270D02*
D03*
X1285240Y528320D02*
D03*
X1277620Y636270D02*
D03*
X1286510D02*
D03*
X1291590Y519430D02*
D03*
X1322070Y596900D02*
D03*
X1329690Y452120D02*
D03*
X1005840Y527050D02*
D03*
X668020Y1012190D02*
D03*
X1108710Y483870D02*
D03*
X1283970Y501650D02*
D03*
X1040130Y932180D02*
D03*
X994410Y521129D02*
D03*
X1290320Y455930D02*
D03*
X1332230Y534670D02*
D03*
X1275080Y656590D02*
D03*
X1028700Y933450D02*
D03*
X976630Y529022D02*
D03*
X662940Y1043940D02*
D03*
X1357630Y483870D02*
D03*
X1344930Y539750D02*
D03*
X1281430Y664210D02*
D03*
X1026160Y944880D02*
D03*
X965200Y533400D02*
D03*
X398780Y1131570D02*
D03*
X1374140Y478790D02*
D03*
X1299210Y662940D02*
D03*
X1028700Y960120D02*
D03*
X1336040Y552450D02*
D03*
X1332230Y679450D02*
D03*
X1451610Y401320D02*
D03*
X1324610Y652780D02*
D03*
X1423670Y651510D02*
D03*
X1336040Y637540D02*
D03*
X1339850Y628650D02*
D03*
X1344930Y643890D02*
D03*
X1360170Y636270D02*
D03*
X1372870Y626110D02*
D03*
X1370330Y598170D02*
D03*
X1182370Y839470D02*
D03*
X1191260Y782320D02*
D03*
X1109980Y556260D02*
D03*
X952050Y952530D02*
D03*
X1445260Y688340D02*
D03*
X542290Y873760D02*
D03*
X539750Y820420D02*
D03*
X1172210Y661670D02*
D03*
X1075690Y737870D02*
D03*
X1295400Y830580D02*
D03*
X1320800Y791210D02*
D03*
X1361440Y833120D02*
D03*
X1343660Y829310D02*
D03*
X635000Y854710D02*
D03*
X645160Y772160D02*
D03*
X692150D02*
D03*
X1399540Y408940D02*
D03*
X1457960Y420370D02*
D03*
X1559560Y631190D02*
D03*
X814070Y756920D02*
D03*
X1405890Y396240D02*
D03*
X1457942Y410772D02*
D03*
X558800Y753110D02*
D03*
X1267460Y853440D02*
D03*
X1267590Y811660D02*
D03*
X1197610Y461010D02*
D03*
X1268730Y436880D02*
D03*
X1216660Y585470D02*
D03*
X1752600Y461010D02*
D03*
X1711960Y445770D02*
D03*
X1720850Y497840D02*
D03*
X1644650Y474980D02*
D03*
X1639570Y436880D02*
D03*
X593090Y972820D02*
D03*
X629920Y934720D02*
D03*
X750570Y892810D02*
D03*
X1409700Y775970D02*
D03*
X1408430Y784860D02*
D03*
X539750Y1045210D02*
D03*
X1393190Y1047750D02*
D03*
X1464310Y1130300D02*
D03*
X1583690Y1068070D02*
D03*
X1595120Y1060450D02*
D03*
X1741170Y806450D02*
D03*
Y781050D02*
D03*
X1739900Y755650D02*
D03*
X1555750Y822960D02*
D03*
X1531620Y833120D02*
D03*
X1615440Y1229360D02*
D03*
Y1197610D02*
D03*
X1559560Y1177290D02*
D03*
X1662430Y1196340D02*
D03*
X1351280Y853440D02*
D03*
X1137920Y529590D02*
D03*
X1129030Y562610D02*
D03*
Y518160D02*
D03*
X1664970Y420370D02*
D03*
X1673860Y594360D02*
D03*
X1760220Y863600D02*
D03*
X1456690Y1117600D02*
D03*
X1536700Y861060D02*
D03*
X1393190Y946150D02*
D03*
Y976630D02*
D03*
X1376680Y1016000D02*
D03*
X1405890Y676910D02*
D03*
X1446530Y387350D02*
D03*
X513080Y741680D02*
D03*
X281940Y355600D02*
D03*
X582930Y269240D02*
D03*
X777240Y867410D02*
D03*
X1016000Y789940D02*
D03*
X934720D02*
D03*
X935990Y867410D02*
D03*
X1016000D02*
D03*
X1176020Y868680D02*
D03*
X1079500Y579120D02*
D03*
X1057910Y584200D02*
D03*
X783590Y948690D02*
D03*
X703580Y810260D02*
D03*
X732790Y835660D02*
D03*
X659130Y791210D02*
D03*
X666750Y821690D02*
D03*
X654050Y825500D02*
D03*
X624840Y895350D02*
D03*
X638810Y925830D02*
D03*
X634730Y810260D02*
D03*
X584200Y817880D02*
D03*
Y847090D02*
D03*
X584350Y910740D02*
D03*
X584200Y880110D02*
D03*
X693420Y756920D02*
D03*
X591820D02*
D03*
X601980Y392430D02*
D03*
X439420Y812800D02*
D03*
Y840740D02*
D03*
X1449070Y1155700D02*
D03*
X1454150Y1206500D02*
D03*
Y1219200D02*
D03*
X1746250Y1137920D02*
D03*
X1677670Y1160780D02*
D03*
X1520190Y1231900D02*
D03*
X1569720Y1228090D02*
D03*
D140*
X1572260Y430530D02*
D03*
X1699647Y359410D02*
D03*
X397510Y1158240D02*
D03*
X831611Y288529D02*
D03*
X505460Y303530D02*
D03*
D141*
X581660Y506730D02*
D03*
X422910Y1211580D02*
D03*
X1734820D02*
D03*
X1736090Y306070D02*
D03*
D142*
X1524000Y1118870D02*
D03*
Y1104900D02*
D03*
X1452880D02*
D03*
X1367790Y1140460D02*
D03*
X588010D02*
D03*
X988060Y1082040D02*
D03*
X1104900Y1090930D02*
D03*
X988060Y1240790D02*
D03*
X1104900Y1231900D02*
D03*
D143*
X1395730Y1092200D02*
D03*
%TF.MD5,9578c002cd832f327331b1907f5ed6c2*%
M02*
