%TF.GenerationSoftware,Altium Limited,Altium Designer,22.2.1 (43)*%
G04 Layer_Color=37055*
%FSLAX44Y44*%
%MOMM*%
%TF.SameCoordinates,040CE2E0-B857-4D47-B26F-9B72162B56B4*%
%TF.FilePolarity,Positive*%
%TF.FileFunction,Other,Top_Designator*%
%TF.Part,Single*%
G01*
G75*
%TA.AperFunction,NonConductor*%
%ADD95C,0.2000*%
%ADD98C,0.1270*%
%ADD184C,0.1000*%
%ADD185C,0.0500*%
D95*
X700670Y771520D02*
G03*
X700670Y771520I-1000J0D01*
G01*
D02*
G03*
X700670Y771520I-1000J0D01*
G01*
X709760Y940440D02*
G03*
X709760Y940440I-1000J0D01*
G01*
D02*
G03*
X709760Y940440I-1000J0D01*
G01*
D98*
X697220Y822970D02*
X727720D01*
X697220Y792470D02*
X727720D01*
Y822970D01*
X697220Y792470D02*
Y822970D01*
X727720D01*
X697220Y792470D02*
X727720D01*
Y822970D01*
X697220Y792470D02*
Y822970D01*
X680710Y888990D02*
X711210D01*
X680710Y919490D02*
X711210D01*
X680710Y888990D02*
Y919490D01*
X711210Y888990D02*
Y919490D01*
X680710Y888990D02*
X711210D01*
X680710Y919490D02*
X711210D01*
X680710Y888990D02*
Y919490D01*
X711210Y888990D02*
Y919490D01*
X858518Y998221D02*
Y1005839D01*
X853440D01*
X845822D02*
X850900D01*
X845822Y1000760D01*
Y999491D01*
X847092Y998221D01*
X849631D01*
X850900Y999491D01*
X1240788Y998221D02*
Y1005839D01*
X1235710D01*
X1233171D02*
X1230632D01*
X1231901D01*
Y998221D01*
X1233171Y999491D01*
D184*
X288540Y768320D02*
X301220Y755640D01*
X288540D02*
X335540D01*
Y862340D01*
X288540D02*
X335540D01*
X288540Y755640D02*
Y862340D01*
Y768320D02*
X301220Y755640D01*
X288540D02*
X335540D01*
Y862340D01*
X288540D02*
X335540D01*
X288540Y755640D02*
Y862340D01*
X287270Y896573D02*
X299950Y883894D01*
X287270D02*
X334270D01*
Y990593D01*
X287270D02*
X334270D01*
X287270Y883894D02*
Y990593D01*
Y896573D02*
X299950Y883894D01*
X287270D02*
X334270D01*
Y990593D01*
X287270D02*
X334270D01*
X287270Y883894D02*
Y990593D01*
Y1024827D02*
X299950Y1012147D01*
X287270D02*
X334270D01*
Y1118847D01*
X287270D02*
X334270D01*
X287270Y1012147D02*
Y1118847D01*
Y1024827D02*
X299950Y1012147D01*
X287270D02*
X334270D01*
Y1118847D01*
X287270D02*
X334270D01*
X287270Y1012147D02*
Y1118847D01*
Y1153080D02*
X299950Y1140400D01*
X287270D02*
X334270D01*
Y1247100D01*
X287270D02*
X334270D01*
X287270Y1140400D02*
Y1247100D01*
Y1153080D02*
X299950Y1140400D01*
X287270D02*
X334270D01*
Y1247100D01*
X287270D02*
X334270D01*
X287270Y1140400D02*
Y1247100D01*
D185*
X286040Y753140D02*
X338040D01*
Y864840D01*
X286040D02*
X338040D01*
X286040Y753140D02*
Y864840D01*
Y753140D02*
X338040D01*
Y864840D01*
X286040D02*
X338040D01*
X286040Y753140D02*
Y864840D01*
X284770Y881393D02*
X336770D01*
Y993093D01*
X284770D02*
X336770D01*
X284770Y881393D02*
Y993093D01*
Y881393D02*
X336770D01*
Y993093D01*
X284770D02*
X336770D01*
X284770Y881393D02*
Y993093D01*
Y1009646D02*
X336770D01*
Y1121347D01*
X284770D02*
X336770D01*
X284770Y1009646D02*
Y1121347D01*
Y1009646D02*
X336770D01*
Y1121347D01*
X284770D02*
X336770D01*
X284770Y1009646D02*
Y1121347D01*
Y1137900D02*
X336770D01*
Y1249600D01*
X284770D02*
X336770D01*
X284770Y1137900D02*
Y1249600D01*
Y1137900D02*
X336770D01*
Y1249600D01*
X284770D02*
X336770D01*
X284770Y1137900D02*
Y1249600D01*
%TF.MD5,3901e15e5ae32827882b8dc09d0ceda5*%
M02*
