%TF.GenerationSoftware,Altium Limited,Altium Designer,22.2.1 (43)*%
G04 Layer_Color=255*
%FSLAX44Y44*%
%MOMM*%
%TF.SameCoordinates,040CE2E0-B857-4D47-B26F-9B72162B56B4*%
%TF.FilePolarity,Positive*%
%TF.FileFunction,Pads,Bot*%
%TF.Part,Single*%
G01*
G75*
%TA.AperFunction,SMDPad,CuDef*%
%ADD16R,0.9800X0.9200*%
%ADD22R,0.9200X0.9800*%
%ADD23R,1.1500X1.1500*%
%ADD24R,1.7300X0.9700*%
%ADD26R,0.9700X1.7300*%
G04:AMPARAMS|DCode=27|XSize=1.19mm|YSize=0.4mm|CornerRadius=0.05mm|HoleSize=0mm|Usage=FLASHONLY|Rotation=0.000|XOffset=0mm|YOffset=0mm|HoleType=Round|Shape=RoundedRectangle|*
%AMROUNDEDRECTD27*
21,1,1.1900,0.3000,0,0,0.0*
21,1,1.0900,0.4000,0,0,0.0*
1,1,0.1000,0.5450,-0.1500*
1,1,0.1000,-0.5450,-0.1500*
1,1,0.1000,-0.5450,0.1500*
1,1,0.1000,0.5450,0.1500*
%
%ADD27ROUNDEDRECTD27*%
%TA.AperFunction,ComponentPad*%
%ADD56C,4.0894*%
%ADD57C,2.3114*%
%ADD58C,1.8034*%
%ADD59C,1.5600*%
%ADD60R,1.5600X1.5600*%
%ADD61C,1.9500*%
%ADD62R,1.9500X1.9500*%
%ADD63C,1.1400*%
%ADD64R,1.1400X1.1400*%
%ADD65C,4.1148*%
%ADD66O,4.1910X2.0955*%
%ADD67C,1.7700*%
%ADD68R,1.7700X1.7700*%
%ADD69C,1.6050*%
%ADD70R,1.6050X1.6050*%
%ADD71C,1.4986*%
%ADD72R,1.4986X1.4986*%
%ADD73R,1.1000X1.1000*%
%ADD74C,1.1000*%
%ADD75C,2.0550*%
%ADD76R,2.0550X2.0550*%
%ADD77R,1.4280X1.4280*%
%ADD78C,1.4280*%
%ADD79C,3.3460*%
%TA.AperFunction,SMDPad,CuDef*%
%ADD85O,1.8000X0.6000*%
%ADD86R,1.8000X0.6000*%
G04:AMPARAMS|DCode=87|XSize=1.23mm|YSize=0.6mm|CornerRadius=0.075mm|HoleSize=0mm|Usage=FLASHONLY|Rotation=180.000|XOffset=0mm|YOffset=0mm|HoleType=Round|Shape=RoundedRectangle|*
%AMROUNDEDRECTD87*
21,1,1.2300,0.4500,0,0,180.0*
21,1,1.0800,0.6000,0,0,180.0*
1,1,0.1500,-0.5400,0.2250*
1,1,0.1500,0.5400,0.2250*
1,1,0.1500,0.5400,-0.2250*
1,1,0.1500,-0.5400,-0.2250*
%
%ADD87ROUNDEDRECTD87*%
%ADD88R,2.0900X1.3900*%
%ADD89R,1.9812X0.5588*%
%ADD90R,1.0600X1.8200*%
%ADD91R,0.8000X1.5000*%
%ADD92R,1.4000X1.9000*%
%ADD93R,1.3000X1.4000*%
%ADD94R,0.9500X1.0000*%
D16*
X1657350Y475110D02*
D03*
Y459610D02*
D03*
X1652270Y421510D02*
D03*
Y437010D02*
D03*
X1752600Y432940D02*
D03*
Y448440D02*
D03*
X1075690Y709800D02*
D03*
Y725300D02*
D03*
X515620Y945010D02*
D03*
Y929510D02*
D03*
Y1064390D02*
D03*
Y1048890D02*
D03*
X1626870Y1247270D02*
D03*
Y1231770D02*
D03*
Y1214250D02*
D03*
Y1198750D02*
D03*
Y1132710D02*
D03*
Y1148210D02*
D03*
X919480Y652650D02*
D03*
Y668150D02*
D03*
D22*
X1078100Y563880D02*
D03*
X1093600D02*
D03*
X1488570Y1252220D02*
D03*
X1473070D02*
D03*
X1629280Y1181100D02*
D03*
X1644780D02*
D03*
X1176020Y904240D02*
D03*
X1191520D02*
D03*
X1095880Y902970D02*
D03*
X1111380D02*
D03*
X1014730D02*
D03*
X1030230D02*
D03*
X934590D02*
D03*
X950090D02*
D03*
X855850D02*
D03*
X871350D02*
D03*
X775840D02*
D03*
X791340D02*
D03*
X775840Y825500D02*
D03*
X791340D02*
D03*
X855850D02*
D03*
X871350D02*
D03*
X1014730D02*
D03*
X1030230D02*
D03*
X950090D02*
D03*
X934590D02*
D03*
D23*
X1377320Y994410D02*
D03*
X1353820D02*
D03*
X1377000Y972820D02*
D03*
X1353500D02*
D03*
X1377000Y951230D02*
D03*
X1353500D02*
D03*
X1377000Y929640D02*
D03*
X1353500D02*
D03*
D24*
X1367790Y1038030D02*
D03*
Y1067630D02*
D03*
X1395730Y1111690D02*
D03*
Y1141290D02*
D03*
X1228090Y851340D02*
D03*
Y880940D02*
D03*
X1150620Y850070D02*
D03*
Y879670D02*
D03*
X1070610Y850070D02*
D03*
Y879670D02*
D03*
X989330Y850070D02*
D03*
Y879670D02*
D03*
X909320Y850070D02*
D03*
Y879670D02*
D03*
X829310Y850510D02*
D03*
Y880110D02*
D03*
Y772600D02*
D03*
Y802200D02*
D03*
X909320Y771330D02*
D03*
Y800930D02*
D03*
X989330Y771330D02*
D03*
Y800930D02*
D03*
X1070610Y772600D02*
D03*
Y802200D02*
D03*
D26*
X1518090Y808990D02*
D03*
X1547690Y808990D02*
D03*
X1518090Y783590D02*
D03*
X1547690Y783590D02*
D03*
X1519360Y519430D02*
D03*
X1548960D02*
D03*
X1519360Y494030D02*
D03*
X1548960D02*
D03*
X1519360Y590550D02*
D03*
X1548960D02*
D03*
X1519360Y615950D02*
D03*
X1548960D02*
D03*
X1519360Y687070D02*
D03*
X1548960D02*
D03*
X1519800Y712470D02*
D03*
X1549400D02*
D03*
X1468560Y444500D02*
D03*
X1498160D02*
D03*
X1519360Y422910D02*
D03*
X1548960D02*
D03*
X1519360Y397510D02*
D03*
X1548960D02*
D03*
X1589210Y382270D02*
D03*
X1618810D02*
D03*
X1587940Y314960D02*
D03*
X1617540D02*
D03*
X1640010Y335280D02*
D03*
X1669610Y335280D02*
D03*
X1640010Y360680D02*
D03*
X1669610Y360680D02*
D03*
X1468560Y377190D02*
D03*
X1498160D02*
D03*
X1468560Y570230D02*
D03*
X1498160D02*
D03*
X1468560Y666750D02*
D03*
X1498160D02*
D03*
X1015170Y880110D02*
D03*
X1044770D02*
D03*
X1720410Y481330D02*
D03*
X1690810D02*
D03*
X1498160Y541020D02*
D03*
X1468560D02*
D03*
X1498160Y473710D02*
D03*
X1468560D02*
D03*
X1498160Y637540D02*
D03*
X1468560D02*
D03*
X1498160Y734060D02*
D03*
X1468560D02*
D03*
X1498160Y830580D02*
D03*
X1468560D02*
D03*
X1498160Y763270D02*
D03*
X1468560D02*
D03*
X1392360Y1069340D02*
D03*
X1421960D02*
D03*
X806010Y880110D02*
D03*
X776410D02*
D03*
X935160Y854710D02*
D03*
X964760D02*
D03*
X1015170D02*
D03*
X1044770D02*
D03*
X1206060Y881380D02*
D03*
X1176460D02*
D03*
X1126050Y880110D02*
D03*
X1096450D02*
D03*
X964760D02*
D03*
X935160D02*
D03*
X885580D02*
D03*
X855980D02*
D03*
Y854710D02*
D03*
X885580D02*
D03*
X776410D02*
D03*
X806010D02*
D03*
X964760Y802640D02*
D03*
X935160D02*
D03*
X885580D02*
D03*
X855980D02*
D03*
X806010D02*
D03*
X776410D02*
D03*
Y777240D02*
D03*
X806010D02*
D03*
X855980Y775970D02*
D03*
X885580D02*
D03*
X935160D02*
D03*
X964760D02*
D03*
X1044770Y802640D02*
D03*
X1015170D02*
D03*
X1044770Y777240D02*
D03*
X1015170D02*
D03*
X1126050Y854710D02*
D03*
X1096450D02*
D03*
X1206060Y855980D02*
D03*
X1176460D02*
D03*
D27*
X1601884Y1244900D02*
D03*
Y1238400D02*
D03*
Y1231900D02*
D03*
X1582684D02*
D03*
Y1244900D02*
D03*
X1582124Y1157120D02*
D03*
Y1144120D02*
D03*
X1601324D02*
D03*
Y1150620D02*
D03*
Y1157120D02*
D03*
X1582124Y1186330D02*
D03*
Y1173330D02*
D03*
X1601324D02*
D03*
Y1179830D02*
D03*
Y1186330D02*
D03*
X1582124Y1215540D02*
D03*
Y1202540D02*
D03*
X1601324D02*
D03*
Y1209040D02*
D03*
Y1215540D02*
D03*
D56*
X1654556Y1021080D02*
D03*
Y513080D02*
D03*
D57*
X1616202Y979932D02*
D03*
Y553974D02*
D03*
D58*
X1701038Y915416D02*
D03*
X1676146D02*
D03*
X1651000D02*
D03*
X1626108D02*
D03*
X1701038Y878586D02*
D03*
X1676146D02*
D03*
X1651000D02*
D03*
X1626108D02*
D03*
X1701038Y843534D02*
D03*
X1676146D02*
D03*
X1651000D02*
D03*
X1626108D02*
D03*
X1701038Y818388D02*
D03*
X1676146D02*
D03*
X1651000D02*
D03*
X1626108D02*
D03*
X1701038Y793496D02*
D03*
X1676146D02*
D03*
X1651000D02*
D03*
X1626108D02*
D03*
X1701038Y768604D02*
D03*
X1676146D02*
D03*
X1651000D02*
D03*
X1626108D02*
D03*
X1701038Y743458D02*
D03*
X1676146D02*
D03*
X1651000D02*
D03*
X1626108D02*
D03*
X1701038Y718566D02*
D03*
X1676146D02*
D03*
X1651000D02*
D03*
X1626108D02*
D03*
X1701038Y693420D02*
D03*
X1676146D02*
D03*
X1651000D02*
D03*
X1626108D02*
D03*
X1701038Y668528D02*
D03*
X1676146D02*
D03*
X1651000D02*
D03*
X1626108D02*
D03*
X1701038Y643382D02*
D03*
X1676146D02*
D03*
X1651000D02*
D03*
X1626108D02*
D03*
X1701038Y618490D02*
D03*
X1676146D02*
D03*
X1651000D02*
D03*
X1626108D02*
D03*
D59*
X1383030Y275590D02*
D03*
X1357630D02*
D03*
X1332230D02*
D03*
D60*
X1306830D02*
D03*
D61*
X534010Y1235710D02*
D03*
D62*
X629310D02*
D03*
D63*
X1021410Y706120D02*
D03*
Y680720D02*
D03*
Y655320D02*
D03*
Y629920D02*
D03*
X942010D02*
D03*
Y655320D02*
D03*
Y680720D02*
D03*
X1020140Y596900D02*
D03*
Y571500D02*
D03*
Y546100D02*
D03*
Y520700D02*
D03*
X940740D02*
D03*
Y546100D02*
D03*
Y571500D02*
D03*
Y462280D02*
D03*
Y436880D02*
D03*
Y411480D02*
D03*
X1020140D02*
D03*
Y436880D02*
D03*
Y462280D02*
D03*
Y487680D02*
D03*
X942010Y353060D02*
D03*
Y327660D02*
D03*
Y302260D02*
D03*
X1021410D02*
D03*
Y327660D02*
D03*
Y353060D02*
D03*
Y378460D02*
D03*
D64*
X942010Y706120D02*
D03*
X940740Y596900D02*
D03*
Y487680D02*
D03*
X942010Y378460D02*
D03*
D65*
X848360Y588010D02*
D03*
Y424180D02*
D03*
X521970Y588010D02*
D03*
Y424180D02*
D03*
D66*
X645160Y533400D02*
D03*
Y588010D02*
D03*
Y642620D02*
D03*
Y369570D02*
D03*
Y424180D02*
D03*
Y478790D02*
D03*
X318770Y533400D02*
D03*
Y588010D02*
D03*
Y642620D02*
D03*
Y478790D02*
D03*
Y424180D02*
D03*
Y369570D02*
D03*
D67*
X1334770Y1113730D02*
D03*
Y1090930D02*
D03*
D68*
Y1068130D02*
D03*
D69*
X560070Y833120D02*
D03*
Y807720D02*
D03*
X561340Y947420D02*
D03*
Y922020D02*
D03*
D70*
X560070Y782320D02*
D03*
X561340Y896620D02*
D03*
D71*
X488950Y979170D02*
D03*
Y953770D02*
D03*
Y928370D02*
D03*
Y902970D02*
D03*
X412750D02*
D03*
Y928370D02*
D03*
Y953770D02*
D03*
X487680Y1099820D02*
D03*
Y1074420D02*
D03*
Y1049020D02*
D03*
Y1023620D02*
D03*
X411480D02*
D03*
Y1049020D02*
D03*
Y1074420D02*
D03*
D72*
X412750Y979170D02*
D03*
X411480Y1099820D02*
D03*
D73*
X764140Y1096010D02*
D03*
D74*
X714140D02*
D03*
D75*
X320040Y834340D02*
D03*
Y808990D02*
D03*
X318770Y962594D02*
D03*
Y937243D02*
D03*
Y1090847D02*
D03*
Y1065497D02*
D03*
Y1219100D02*
D03*
Y1193750D02*
D03*
D76*
X320040Y783640D02*
D03*
X318770Y911893D02*
D03*
Y1040147D02*
D03*
Y1168400D02*
D03*
D77*
X1515670Y323166D02*
D03*
D78*
X1490670D02*
D03*
Y303165D02*
D03*
X1515670D02*
D03*
D79*
X1442970Y276066D02*
D03*
X1563370D02*
D03*
D85*
X1540510Y1092200D02*
D03*
X1423510Y1104900D02*
D03*
Y1117600D02*
D03*
Y1130300D02*
D03*
Y1143000D02*
D03*
Y1155700D02*
D03*
Y1168400D02*
D03*
Y1181100D02*
D03*
Y1193800D02*
D03*
Y1206500D02*
D03*
Y1219200D02*
D03*
Y1231900D02*
D03*
X1540510Y1104900D02*
D03*
Y1117600D02*
D03*
Y1130300D02*
D03*
Y1143000D02*
D03*
Y1155700D02*
D03*
Y1168400D02*
D03*
Y1181100D02*
D03*
Y1193800D02*
D03*
Y1206500D02*
D03*
Y1219200D02*
D03*
Y1231900D02*
D03*
D86*
X1423510Y1092200D02*
D03*
D87*
X1491500Y420449D02*
D03*
X1470300Y410949D02*
D03*
X1491500Y401449D02*
D03*
X1610880Y358219D02*
D03*
X1589680Y348719D02*
D03*
X1610880Y339219D02*
D03*
X1491420Y497968D02*
D03*
X1470220Y507468D02*
D03*
X1491420Y516968D02*
D03*
Y594488D02*
D03*
X1470220Y603988D02*
D03*
X1491420Y613489D02*
D03*
X1490590Y691008D02*
D03*
X1469390Y700508D02*
D03*
X1490590Y710008D02*
D03*
X1491060Y787529D02*
D03*
X1469860Y797029D02*
D03*
X1491060Y806529D02*
D03*
D88*
X1415860Y1038860D02*
D03*
Y1013460D02*
D03*
Y988060D02*
D03*
Y962660D02*
D03*
Y937260D02*
D03*
Y911860D02*
D03*
Y886460D02*
D03*
Y861060D02*
D03*
X1506660D02*
D03*
Y886460D02*
D03*
Y911860D02*
D03*
Y937260D02*
D03*
Y962660D02*
D03*
Y988060D02*
D03*
Y1013460D02*
D03*
Y1038860D02*
D03*
D89*
X1680614Y458470D02*
D03*
Y445770D02*
D03*
Y433070D02*
D03*
Y420370D02*
D03*
X1727858D02*
D03*
Y433070D02*
D03*
Y445770D02*
D03*
Y458470D02*
D03*
D90*
X1571030Y885190D02*
D03*
X1540470D02*
D03*
X1572300Y937260D02*
D03*
X1541740D02*
D03*
X1570990Y1038860D02*
D03*
X1540430D02*
D03*
X1572300Y988060D02*
D03*
X1541740D02*
D03*
D91*
X1096830Y501420D02*
D03*
X1107830D02*
D03*
X1118830Y503420D02*
D03*
X1129830Y501420D02*
D03*
X1140830Y503420D02*
D03*
X1151830Y501420D02*
D03*
X1162830Y497420D02*
D03*
X1173830Y501420D02*
D03*
D92*
X1088930Y524320D02*
D03*
X1220430Y534320D02*
D03*
D93*
X1104930Y392820D02*
D03*
X1161930D02*
D03*
D94*
X1118830Y390820D02*
D03*
%TF.MD5,99a71beb8d1fc6ca314fabe599ff2173*%
M02*
