%TF.GenerationSoftware,Altium Limited,Altium Designer,22.2.1 (43)*%
G04 Layer_Color=16711935*
%FSLAX44Y44*%
%MOMM*%
%TF.SameCoordinates,040CE2E0-B857-4D47-B26F-9B72162B56B4*%
%TF.FilePolarity,Positive*%
%TF.FileFunction,Other,Mechanical_13*%
%TF.Part,Single*%
G01*
G75*
%TA.AperFunction,NonConductor*%
%ADD95C,0.2000*%
%ADD96C,0.5080*%
%ADD97C,0.3000*%
%ADD98C,0.1270*%
%ADD144C,0.1524*%
%ADD146C,0.0508*%
%ADD183C,0.0000*%
%ADD184C,0.1000*%
%ADD186C,0.2649*%
G36*
X770730Y964280D02*
X765730D01*
Y976280D01*
X770730D01*
Y964280D01*
D02*
G37*
G36*
X755730D02*
X750730D01*
Y976280D01*
X755730D01*
Y964280D01*
D02*
G37*
G36*
X1347310Y963010D02*
X1342310D01*
Y975010D01*
X1347310D01*
Y963010D01*
D02*
G37*
G36*
X1332310D02*
X1327310D01*
Y975010D01*
X1332310D01*
Y963010D01*
D02*
G37*
G36*
X658970Y709010D02*
X653970D01*
Y721010D01*
X658970D01*
Y709010D01*
D02*
G37*
G36*
X643970D02*
X638970D01*
Y721010D01*
X643970D01*
Y709010D01*
D02*
G37*
G36*
X331310D02*
X326310D01*
Y721010D01*
X331310D01*
Y709010D01*
D02*
G37*
G36*
X316310D02*
X311310D01*
Y721010D01*
X316310D01*
Y709010D01*
D02*
G37*
G36*
X665480Y636270D02*
X643890D01*
Y648970D01*
X665480D01*
Y636270D01*
D02*
G37*
G36*
X339090D02*
X317500D01*
Y648970D01*
X339090D01*
Y636270D01*
D02*
G37*
G36*
X665480Y581660D02*
X643890D01*
Y594360D01*
X665480D01*
Y581660D01*
D02*
G37*
G36*
X339090D02*
X317500D01*
Y594360D01*
X339090D01*
Y581660D01*
D02*
G37*
G36*
X665480Y527050D02*
X643890D01*
Y539750D01*
X665480D01*
Y527050D01*
D02*
G37*
G36*
X339090D02*
X317500D01*
Y539750D01*
X339090D01*
Y527050D01*
D02*
G37*
G36*
X665480Y472440D02*
X643890D01*
Y485140D01*
X665480D01*
Y472440D01*
D02*
G37*
G36*
X339090D02*
X317500D01*
Y485140D01*
X339090D01*
Y472440D01*
D02*
G37*
G36*
X665480Y417830D02*
X643890D01*
Y430530D01*
X665480D01*
Y417830D01*
D02*
G37*
G36*
X339090D02*
X317500D01*
Y430530D01*
X339090D01*
Y417830D01*
D02*
G37*
G36*
X1381410Y406430D02*
X1369410D01*
Y411430D01*
X1381410D01*
Y406430D01*
D02*
G37*
G36*
X1314910D02*
X1302910D01*
Y411430D01*
X1314910D01*
Y406430D01*
D02*
G37*
G36*
X1354740Y406430D02*
X1342740D01*
Y411430D01*
X1354740D01*
Y406430D01*
D02*
G37*
G36*
X1289510Y406320D02*
X1277510D01*
Y411320D01*
X1289510D01*
Y406320D01*
D02*
G37*
G36*
X1381410Y391430D02*
X1369410D01*
Y396430D01*
X1381410D01*
Y391430D01*
D02*
G37*
G36*
X1314910D02*
X1302910D01*
Y396430D01*
X1314910D01*
Y391430D01*
D02*
G37*
G36*
X1354740Y391430D02*
X1342740D01*
Y396430D01*
X1354740D01*
Y391430D01*
D02*
G37*
G36*
X1289510Y391320D02*
X1277510D01*
Y396320D01*
X1289510D01*
Y391320D01*
D02*
G37*
G36*
X665480Y363220D02*
X643890D01*
Y375920D01*
X665480D01*
Y363220D01*
D02*
G37*
G36*
X339090D02*
X317500D01*
Y375920D01*
X339090D01*
Y363220D01*
D02*
G37*
G36*
X661510Y303880D02*
X656510D01*
Y315880D01*
X661510D01*
Y303880D01*
D02*
G37*
G36*
X646510D02*
X641510D01*
Y315880D01*
X646510D01*
Y303880D01*
D02*
G37*
G36*
X331420Y302610D02*
X326420D01*
Y314610D01*
X331420D01*
Y302610D01*
D02*
G37*
G36*
X316420D02*
X311420D01*
Y314610D01*
X316420D01*
Y302610D01*
D02*
G37*
D95*
X1504400Y423949D02*
G03*
X1504400Y423949I-1000J0D01*
G01*
X1623780Y361719D02*
G03*
X1623780Y361719I-1000J0D01*
G01*
X1374180Y784010D02*
G03*
X1374180Y784010I-1000J0D01*
G01*
X1528260Y1040960D02*
G03*
X1528260Y1040960I-1000J0D01*
G01*
X1290130Y275590D02*
G03*
X1290130Y275590I-1000J0D01*
G01*
X1128760Y928040D02*
G03*
X1128760Y928040I-1000J0D01*
G01*
X630310Y1183710D02*
G03*
X630310Y1183710I-1000J0D01*
G01*
X1257180Y300450D02*
G03*
X1257180Y300450I-1000J0D01*
G01*
X1153040D02*
G03*
X1153040Y300450I-1000J0D01*
G01*
X1097060Y685020D02*
G03*
X1097060Y685020I-1000J0D01*
G01*
X930710Y706020D02*
G03*
X930710Y706020I-1000J0D01*
G01*
X1504320Y520468D02*
G03*
X1504320Y520468I-1000J0D01*
G01*
Y616988D02*
G03*
X1504320Y616988I-1000J0D01*
G01*
X1503490Y713508D02*
G03*
X1503490Y713508I-1000J0D01*
G01*
X1503960Y810029D02*
G03*
X1503960Y810029I-1000J0D01*
G01*
X1614284Y1244900D02*
G03*
X1614284Y1244900I-1000J0D01*
G01*
X587060Y824380D02*
G03*
X587060Y824380I-1000J0D01*
G01*
X586500Y854860D02*
G03*
X586500Y854860I-1000J0D01*
G01*
X587060Y886610D02*
G03*
X587060Y886610I-1000J0D01*
G01*
X586500Y917240D02*
G03*
X586500Y917240I-1000J0D01*
G01*
X1570720Y1134520D02*
G03*
X1570720Y1134520I-1000J0D01*
G01*
X785060Y1022350D02*
G03*
X785060Y1022350I-1000J0D01*
G01*
X1084900Y954270D02*
G03*
X1084900Y954270I-1000J0D01*
G01*
X969060Y970540D02*
G03*
X969060Y970540I-1000J0D01*
G01*
X1335770Y1051820D02*
G03*
X1335770Y1051820I-1000J0D01*
G01*
X1339580Y1159040D02*
G03*
X1339580Y1159040I-1000J0D01*
G01*
X1558760Y607060D02*
G03*
X1558760Y607060I-1000J0D01*
G01*
X1486490Y544400D02*
G03*
X1486490Y544400I-1000J0D01*
G01*
X1532180Y393300D02*
G03*
X1532180Y393300I-1000J0D01*
G01*
X672830Y804850D02*
G03*
X672830Y804850I-1000J0D01*
G01*
X561070Y764020D02*
G03*
X561070Y764020I-1000J0D01*
G01*
X562340Y878320D02*
G03*
X562340Y878320I-1000J0D01*
G01*
X648700Y931750D02*
G03*
X648700Y931750I-1000J0D01*
G01*
X1198710Y1082210D02*
G03*
X1198710Y1082210I-1000J0D01*
G01*
X1085900Y1114050D02*
G03*
X1085900Y1114050I-1000J0D01*
G01*
X968060Y1100420D02*
G03*
X968060Y1100420I-1000J0D01*
G01*
X819170Y1081440D02*
G03*
X819170Y1081440I-1000J0D01*
G01*
X779770Y1096010D02*
G03*
X779770Y1096010I-1000J0D01*
G01*
X741410Y1136180D02*
G03*
X741410Y1136180I-1000J0D01*
G01*
X460270Y707390D02*
G03*
X460270Y707390I-1000J0D01*
G01*
X456130D02*
G03*
X456130Y707390I-1000J0D01*
G01*
X782850Y302260D02*
G03*
X782850Y302260I-1000J0D01*
G01*
X778710D02*
G03*
X778710Y302260I-1000J0D01*
G01*
X459000Y303530D02*
G03*
X459000Y303530I-1000J0D01*
G01*
X454860D02*
G03*
X454860Y303530I-1000J0D01*
G01*
X929440Y596800D02*
G03*
X929440Y596800I-1000J0D01*
G01*
Y487580D02*
G03*
X929440Y487580I-1000J0D01*
G01*
X930710Y378360D02*
G03*
X930710Y378360I-1000J0D01*
G01*
X1613724Y1157120D02*
G03*
X1613724Y1157120I-1000J0D01*
G01*
Y1186330D02*
G03*
X1613724Y1186330I-1000J0D01*
G01*
Y1215540D02*
G03*
X1613724Y1215540I-1000J0D01*
G01*
X1330260Y833530D02*
G03*
X1330260Y833530I-1000J0D01*
G01*
X781250Y707390D02*
G03*
X781250Y707390I-1000J0D01*
G01*
X785630D02*
G03*
X785630Y707390I-1000J0D01*
G01*
X1327310Y975010D02*
X1347310D01*
Y963010D02*
Y975010D01*
X1327310Y963010D02*
X1347310D01*
X1327310D02*
Y975010D01*
X750730Y964280D02*
Y976280D01*
Y964280D02*
X770730D01*
Y976280D01*
X750730D02*
X770730D01*
X658970Y709010D02*
Y721010D01*
X638970D02*
X658970D01*
X638970Y709010D02*
Y721010D01*
Y709010D02*
X658970D01*
X331310D02*
Y721010D01*
X311310D02*
X331310D01*
X311310Y709010D02*
Y721010D01*
Y709010D02*
X331310D01*
X311420Y302610D02*
X331420D01*
X311420D02*
Y314610D01*
X331420D01*
Y302610D02*
Y314610D01*
X641510Y303880D02*
X661510D01*
X641510D02*
Y315880D01*
X661510D01*
Y303880D02*
Y315880D01*
X1369411Y391430D02*
X1381411D01*
Y411430D01*
X1369411D02*
X1381411D01*
X1369411Y391430D02*
Y411430D01*
X1342740Y391430D02*
X1354740D01*
Y411430D01*
X1342740D02*
X1354740D01*
X1342740Y391430D02*
Y411430D01*
X1302910Y391430D02*
X1314910D01*
Y411430D01*
X1302910D02*
X1314910D01*
X1302910Y391430D02*
Y411430D01*
X1277510Y391320D02*
X1289510D01*
Y411320D01*
X1277510D02*
X1289510D01*
X1277510Y391320D02*
Y411320D01*
D96*
X1607058Y622300D02*
G03*
X1607058Y614680I0J-3810D01*
G01*
D02*
G03*
X1607058Y622300I0J3810D01*
G01*
D97*
X1106210Y638760D02*
G03*
X1106210Y638760I-1000J0D01*
G01*
X1175430Y501820D02*
G03*
X1175430Y501820I-1000J0D01*
G01*
D98*
X764140Y1096010D02*
G03*
X764140Y1096010I-25000J0D01*
G01*
X1516890Y817490D02*
X1548890D01*
X1516890Y800490D02*
X1548890Y800490D01*
Y817490D01*
X1516890D02*
X1516890Y800490D01*
X1516890Y792090D02*
X1548890Y792090D01*
X1516890Y775090D02*
X1548890D01*
X1548890Y792090D02*
X1548890Y775090D01*
X1516890D02*
Y792090D01*
X1518160Y527930D02*
X1550160D01*
X1518160Y510930D02*
X1550160D01*
Y527930D01*
X1518160Y510930D02*
Y527930D01*
Y502530D02*
X1550160D01*
X1518160Y485530D02*
X1550160D01*
Y502530D01*
X1518160Y485530D02*
Y502530D01*
X1518160Y599050D02*
X1550160D01*
X1518160Y582050D02*
X1550160Y582050D01*
Y599050D01*
X1518160Y582050D02*
X1518160Y599050D01*
X1518160Y624450D02*
X1550160D01*
X1518160Y607450D02*
X1550160D01*
Y624450D01*
X1518160Y607450D02*
Y624450D01*
Y695570D02*
X1550160D01*
X1518160Y678570D02*
X1550160D01*
Y695570D01*
X1518160Y678570D02*
Y695570D01*
X1518600Y720970D02*
X1550600D01*
X1518600Y703970D02*
X1550600D01*
Y720970D01*
X1518600Y703970D02*
Y720970D01*
X1487400Y396449D02*
Y425449D01*
X1474400D02*
X1487400D01*
X1474400Y396449D02*
Y425449D01*
Y396449D02*
X1487400D01*
X1606780Y334219D02*
Y363219D01*
X1593780D02*
X1606780D01*
X1593780Y334219D02*
Y363219D01*
Y334219D02*
X1606780D01*
X1467360Y453000D02*
X1499360D01*
X1467360Y436000D02*
X1499360D01*
Y453000D01*
X1467360Y436000D02*
Y453000D01*
X1518160Y431410D02*
X1550160D01*
X1518160Y414410D02*
X1550160D01*
Y431410D01*
X1518160Y414410D02*
Y431410D01*
Y406010D02*
X1550160D01*
X1518160Y389010D02*
X1550160D01*
Y406010D01*
X1518160Y389010D02*
Y406010D01*
X1588010Y390770D02*
X1620010D01*
X1588010Y373770D02*
X1620010D01*
Y390770D01*
X1588010Y373770D02*
Y390770D01*
X1586740Y323460D02*
X1618740D01*
X1586740Y306460D02*
X1618740D01*
Y323460D01*
X1586740Y306460D02*
Y323460D01*
X1638810Y343780D02*
X1670810D01*
X1638810Y326780D02*
X1670810D01*
X1670810Y343780D01*
X1638810D02*
X1638810Y326780D01*
X1638810Y369180D02*
X1670810Y369180D01*
X1638810Y352180D02*
X1670810Y352180D01*
X1670810Y369180D02*
X1670810Y352180D01*
X1638810Y369180D02*
X1638810Y352180D01*
X1467360Y385690D02*
X1499360D01*
X1467360Y368690D02*
X1499360D01*
Y385690D01*
X1467360Y368690D02*
Y385690D01*
X1243180Y619610D02*
Y759610D01*
X1383180Y619610D02*
Y759610D01*
X1243180Y619610D02*
X1383180D01*
X1243180Y759610D02*
X1383180D01*
X1493760Y850760D02*
Y1049160D01*
X1428760Y850760D02*
X1493760D01*
X1428760D02*
Y1049160D01*
X1493760D01*
X1467360Y578730D02*
X1499360D01*
X1467360Y561730D02*
X1499360D01*
Y578730D01*
X1467360Y561730D02*
Y578730D01*
Y675250D02*
X1499360D01*
X1467360Y658250D02*
X1499360D01*
Y675250D01*
X1467360Y658250D02*
Y675250D01*
X1109700Y897980D02*
Y915580D01*
X1100100Y897980D02*
Y915580D01*
X1109700D01*
X1100100Y897980D02*
X1109700D01*
X1136760Y884140D02*
Y911640D01*
X1118760Y884140D02*
X1136760D01*
X1118760D02*
Y911640D01*
X1136760D01*
X1150710Y908330D02*
Y917930D01*
X1168310Y908330D02*
Y917930D01*
X1150710D02*
X1168310D01*
X1150710Y908330D02*
X1168310D01*
X486410Y1314710D02*
X676910D01*
X486410Y1189710D02*
Y1314710D01*
Y1189710D02*
X676910D01*
Y1314710D01*
X1045970Y871610D02*
Y888610D01*
X1013970Y871610D02*
Y888610D01*
X1045970D01*
X1013970Y871610D02*
X1045970D01*
X1140060Y707020D02*
Y756020D01*
X1090060Y707020D02*
X1140060D01*
X1090060D02*
Y756020D01*
X1140060D01*
X949960Y715970D02*
X1013460D01*
Y620070D02*
Y715970D01*
X949960Y620070D02*
X1013460D01*
X949960D02*
Y715970D01*
X1573440Y439700D02*
Y449300D01*
X1555840Y439700D02*
Y449300D01*
Y439700D02*
X1573440D01*
X1555840Y449300D02*
X1573440D01*
X1290480Y551280D02*
X1310480D01*
X1290480Y563780D02*
X1310480D01*
Y551280D02*
Y563780D01*
X1290480Y551280D02*
Y563780D01*
Y585370D02*
X1310480D01*
X1290480Y572870D02*
X1310480D01*
X1290480D02*
Y585370D01*
X1310480Y572870D02*
Y585370D01*
X1234280D02*
X1254280D01*
X1234280Y572870D02*
X1254280D01*
X1234280D02*
Y585370D01*
X1254280Y572870D02*
Y585370D01*
X1234280Y551280D02*
X1254280D01*
X1234280Y563780D02*
X1254280D01*
Y551280D02*
Y563780D01*
X1234280Y551280D02*
Y563780D01*
X1689610Y472830D02*
Y489830D01*
X1721610Y472830D02*
Y489830D01*
X1689610Y472830D02*
X1721610D01*
X1689610Y489830D02*
X1721610D01*
X1652550Y458560D02*
X1662150D01*
X1652550Y476160D02*
X1662150D01*
Y458560D02*
Y476160D01*
X1652550Y458560D02*
Y476160D01*
X1647470Y438060D02*
X1657070D01*
X1647470Y420460D02*
X1657070D01*
X1647470D02*
Y438060D01*
X1657070Y420460D02*
Y438060D01*
X1747800Y449490D02*
X1757400D01*
X1747800Y431890D02*
X1757400D01*
X1747800D02*
Y449490D01*
X1757400Y431890D02*
Y449490D01*
X1474320Y492969D02*
X1487320D01*
X1474320D02*
Y521968D01*
X1487320D01*
Y492969D02*
Y521968D01*
X1467360Y532520D02*
Y549520D01*
X1499360Y532520D02*
Y549520D01*
X1467360Y532520D02*
X1499360D01*
X1467360Y549520D02*
X1499360D01*
X1467360Y465210D02*
Y482210D01*
X1499360Y465210D02*
Y482210D01*
X1467360Y465210D02*
X1499360D01*
X1467360Y482210D02*
X1499360D01*
X1474320Y589489D02*
X1487320D01*
X1474320D02*
Y618488D01*
X1487320D01*
Y589489D02*
Y618488D01*
X1467360Y629040D02*
Y646040D01*
X1499360Y629040D02*
Y646040D01*
X1467360Y629040D02*
X1499360D01*
X1467360Y646040D02*
X1499360D01*
X1473490Y686009D02*
X1486490D01*
X1473490D02*
Y715008D01*
X1486490D01*
Y686009D02*
Y715008D01*
X1467360Y725560D02*
Y742560D01*
X1499360Y725560D02*
Y742560D01*
X1467360Y725560D02*
X1499360D01*
X1467360Y742560D02*
X1499360D01*
X1473960Y782529D02*
X1486960D01*
X1473960D02*
Y811529D01*
X1486960D01*
Y782529D02*
Y811529D01*
X1467360Y822080D02*
Y839080D01*
X1499360Y822080D02*
Y839080D01*
X1467360Y822080D02*
X1499360D01*
X1467360Y839080D02*
X1499360D01*
X1467360Y754770D02*
Y771770D01*
X1499360Y754770D02*
Y771770D01*
X1467360Y754770D02*
X1499360D01*
X1467360Y771770D02*
X1499360D01*
X1070890Y726350D02*
X1080490D01*
X1070890Y708750D02*
X1080490D01*
X1070890D02*
Y726350D01*
X1080490Y708750D02*
Y726350D01*
X1077050Y568680D02*
X1094650D01*
X1077050Y559080D02*
X1094650D01*
Y568680D01*
X1077050Y559080D02*
Y568680D01*
X520420Y928460D02*
Y946060D01*
X510820Y928460D02*
Y946060D01*
Y928460D02*
X520420D01*
X510820Y946060D02*
X520420D01*
Y1047840D02*
Y1065440D01*
X510820Y1047840D02*
Y1065440D01*
Y1047840D02*
X520420D01*
X510820Y1065440D02*
X520420D01*
X1538750Y876190D02*
X1572750D01*
X1538750Y894190D02*
X1572750D01*
X1538750Y876190D02*
Y894190D01*
X1572750Y876190D02*
Y894190D01*
X1540020Y928260D02*
X1574020D01*
X1540020Y946260D02*
X1574020D01*
X1540020Y928260D02*
Y946260D01*
X1574020Y928260D02*
Y946260D01*
X1538710Y1029860D02*
X1572710D01*
X1538710Y1047860D02*
X1572710D01*
X1538710Y1029860D02*
Y1047860D01*
X1572710Y1029860D02*
Y1047860D01*
X1540020Y979060D02*
X1574020D01*
X1540020Y997060D02*
X1574020D01*
X1540020Y979060D02*
Y997060D01*
X1574020Y979060D02*
Y997060D01*
X1359290Y1036830D02*
Y1068830D01*
X1376290Y1036830D02*
Y1068830D01*
X1359290D02*
X1376290D01*
X1359290Y1036830D02*
X1376290D01*
X1375570Y988160D02*
Y1000660D01*
X1355570Y988160D02*
Y1000660D01*
X1375570D01*
X1355570Y988160D02*
X1375570D01*
X1375250Y966570D02*
Y979070D01*
X1355250Y966570D02*
Y979070D01*
X1375250D01*
X1355250Y966570D02*
X1375250D01*
Y944980D02*
Y957480D01*
X1355250Y944980D02*
Y957480D01*
X1375250D01*
X1355250Y944980D02*
X1375250D01*
Y923390D02*
Y935890D01*
X1355250Y923390D02*
Y935890D01*
X1375250D01*
X1355250Y923390D02*
X1375250D01*
X1391160Y1077840D02*
X1423160D01*
X1391160Y1060840D02*
X1423160D01*
Y1077840D01*
X1391160Y1060840D02*
Y1077840D01*
X1387230Y1110490D02*
Y1142490D01*
X1404230Y1110490D02*
Y1142490D01*
X1387230D02*
X1404230D01*
X1387230Y1110490D02*
X1404230D01*
X1472020Y1247420D02*
Y1257020D01*
X1489620Y1247420D02*
Y1257020D01*
X1472020Y1247420D02*
X1489620D01*
X1472020Y1257020D02*
X1489620D01*
X1631670Y1230720D02*
Y1248320D01*
X1622070Y1230720D02*
Y1248320D01*
Y1230720D02*
X1631670D01*
X1622070Y1248320D02*
X1631670D01*
X1622070Y1197700D02*
X1631670D01*
X1622070Y1215300D02*
X1631670D01*
Y1197700D02*
Y1215300D01*
X1622070Y1197700D02*
Y1215300D01*
X1645830Y1176300D02*
Y1185900D01*
X1628230Y1176300D02*
Y1185900D01*
X1645830D01*
X1628230Y1176300D02*
X1645830D01*
X1622070Y1149260D02*
X1631670D01*
X1622070Y1131660D02*
X1631670D01*
X1622070D02*
Y1149260D01*
X1631670Y1131660D02*
Y1149260D01*
X1598534Y1228400D02*
Y1248400D01*
X1586034D02*
X1598534D01*
X1586034Y1228400D02*
Y1248400D01*
Y1228400D02*
X1598534D01*
X775210Y871610D02*
X807210D01*
X775210Y888610D02*
X807210D01*
X775210Y871610D02*
Y888610D01*
X807210Y871610D02*
Y888610D01*
X965960Y846210D02*
Y863210D01*
X933960Y846210D02*
Y863210D01*
X965960D01*
X933960Y846210D02*
X965960D01*
X1045970D02*
Y863210D01*
X1013970Y846210D02*
Y863210D01*
X1045970D01*
X1013970Y846210D02*
X1045970D01*
X1175260Y872880D02*
X1207260D01*
X1175260Y889880D02*
X1207260D01*
X1175260Y872880D02*
Y889880D01*
X1207260Y872880D02*
Y889880D01*
X1095250Y871610D02*
X1127250D01*
X1095250Y888610D02*
X1127250D01*
X1095250Y871610D02*
Y888610D01*
X1127250Y871610D02*
Y888610D01*
X933960Y871610D02*
X965960D01*
X933960Y888610D02*
X965960D01*
X933960Y871610D02*
Y888610D01*
X965960Y871610D02*
Y888610D01*
X854780Y871610D02*
X886780D01*
X854780Y888610D02*
X886780D01*
X854780Y871610D02*
Y888610D01*
X886780Y871610D02*
Y888610D01*
X1192570Y899440D02*
Y909040D01*
X1174970Y899440D02*
Y909040D01*
X1192570D01*
X1174970Y899440D02*
X1192570D01*
X1112430Y898170D02*
Y907770D01*
X1094830Y898170D02*
Y907770D01*
X1112430D01*
X1094830Y898170D02*
X1112430D01*
X1031280D02*
Y907770D01*
X1013680Y898170D02*
Y907770D01*
X1031280D01*
X1013680Y898170D02*
X1031280D01*
X951140D02*
Y907770D01*
X933540Y898170D02*
Y907770D01*
X951140D01*
X933540Y898170D02*
X951140D01*
X872400D02*
Y907770D01*
X854800Y898170D02*
Y907770D01*
X872400D01*
X854800Y898170D02*
X872400D01*
X792390D02*
Y907770D01*
X774790Y898170D02*
Y907770D01*
X792390D01*
X774790Y898170D02*
X792390D01*
X1219590Y850140D02*
Y882140D01*
X1236590Y850140D02*
Y882140D01*
X1219590D02*
X1236590D01*
X1219590Y850140D02*
X1236590D01*
X1142120Y848870D02*
Y880870D01*
X1159120Y848870D02*
Y880870D01*
X1142120D02*
X1159120D01*
X1142120Y848870D02*
X1159120D01*
X1062110D02*
Y880870D01*
X1079110Y848870D02*
Y880870D01*
X1062110D02*
X1079110D01*
X1062110Y848870D02*
X1079110D01*
X980830D02*
Y880870D01*
X997830Y848870D02*
Y880870D01*
X980830D02*
X997830D01*
X980830Y848870D02*
X997830D01*
X900820D02*
Y880870D01*
X917820Y848870D02*
Y880870D01*
X900820D02*
X917820D01*
X900820Y848870D02*
X917820D01*
X886780Y846210D02*
Y863210D01*
X854780Y846210D02*
Y863210D01*
X886780D01*
X854780Y846210D02*
X886780D01*
X820810Y849310D02*
Y881310D01*
X837810Y849310D02*
Y881310D01*
X820810D02*
X837810D01*
X820810Y849310D02*
X837810D01*
X807210Y846210D02*
Y863210D01*
X775210Y846210D02*
Y863210D01*
X807210D01*
X775210Y846210D02*
X807210D01*
X933960Y794140D02*
X965960D01*
X933960Y811140D02*
X965960D01*
X933960Y794140D02*
Y811140D01*
X965960Y794140D02*
Y811140D01*
X854780Y794140D02*
X886780D01*
X854780Y811140D02*
X886780D01*
X854780Y794140D02*
Y811140D01*
X886780Y794140D02*
Y811140D01*
X792390Y820700D02*
Y830300D01*
X774790Y820700D02*
Y830300D01*
X792390D01*
X774790Y820700D02*
X792390D01*
X872400D02*
Y830300D01*
X854800Y820700D02*
Y830300D01*
X872400D01*
X854800Y820700D02*
X872400D01*
X775210Y794140D02*
X807210D01*
X775210Y811140D02*
X807210D01*
X775210Y794140D02*
Y811140D01*
X807210Y794140D02*
Y811140D01*
Y768740D02*
Y785740D01*
X775210Y768740D02*
Y785740D01*
X807210D01*
X775210Y768740D02*
X807210D01*
X820810Y771400D02*
Y803400D01*
X837810Y771400D02*
Y803400D01*
X820810D02*
X837810D01*
X820810Y771400D02*
X837810D01*
X886780Y767470D02*
Y784470D01*
X854780Y767470D02*
Y784470D01*
X886780D01*
X854780Y767470D02*
X886780D01*
X900820Y770130D02*
Y802130D01*
X917820Y770130D02*
Y802130D01*
X900820D02*
X917820D01*
X900820Y770130D02*
X917820D01*
X965960Y767470D02*
Y784470D01*
X933960Y767470D02*
Y784470D01*
X965960D01*
X933960Y767470D02*
X965960D01*
X980830Y770130D02*
Y802130D01*
X997830Y770130D02*
Y802130D01*
X980830D02*
X997830D01*
X980830Y770130D02*
X997830D01*
X1013970Y794140D02*
X1045970D01*
X1013970Y811140D02*
X1045970D01*
X1013970Y794140D02*
Y811140D01*
X1045970Y794140D02*
Y811140D01*
X1031280Y820700D02*
Y830300D01*
X1013680Y820700D02*
Y830300D01*
X1031280D01*
X1013680Y820700D02*
X1031280D01*
X1062110Y771400D02*
Y803400D01*
X1079110Y771400D02*
Y803400D01*
X1062110D02*
X1079110D01*
X1062110Y771400D02*
X1079110D01*
X1013970Y768740D02*
X1045970D01*
X1013970Y785740D02*
X1045970D01*
X1013970Y768740D02*
Y785740D01*
X1045970Y768740D02*
Y785740D01*
X1078320Y556540D02*
Y566140D01*
X1095920Y556540D02*
Y566140D01*
X1078320D02*
X1095920D01*
X1078320Y556540D02*
X1095920D01*
X738260Y789180D02*
X755260D01*
X738260Y821180D02*
X755260D01*
X738260Y789180D02*
Y821180D01*
X755260Y789180D02*
Y821180D01*
X678460Y815430D02*
X688060D01*
X678460Y833030D02*
X688060D01*
X678460Y815430D02*
Y833030D01*
X688060Y815430D02*
Y833030D01*
X651900Y810770D02*
Y842770D01*
X668900Y810770D02*
Y842770D01*
X651900Y810770D02*
X668900D01*
X651900Y842770D02*
X668900D01*
X632740Y825590D02*
X642340D01*
X632740Y843190D02*
X642340D01*
X632740Y825590D02*
Y843190D01*
X642340Y825590D02*
Y843190D01*
X690120Y847480D02*
Y864480D01*
X722120Y847480D02*
Y864480D01*
X690120D02*
X722120D01*
X690120Y847480D02*
X722120D01*
X740800Y878910D02*
X757800D01*
X740800Y910910D02*
X757800D01*
X740800Y878910D02*
Y910910D01*
X757800Y878910D02*
Y910910D01*
X720370Y896530D02*
X729970D01*
X720370Y878930D02*
X729970D01*
Y896530D01*
X720370Y878930D02*
Y896530D01*
X653170Y893320D02*
X670170D01*
X653170Y925320D02*
X670170D01*
X653170Y893320D02*
Y925320D01*
X670170Y893320D02*
Y925320D01*
X600810Y807880D02*
X613310D01*
Y827880D01*
X600810D02*
X613310D01*
X600810Y807880D02*
Y827880D01*
X600250Y838360D02*
X612750D01*
Y858360D01*
X600250D02*
X612750D01*
X600250Y838360D02*
Y858360D01*
X600810Y870110D02*
X613310D01*
Y890110D01*
X600810D02*
X613310D01*
X600810Y870110D02*
Y890110D01*
X600250Y900740D02*
X612750D01*
Y920740D01*
X600250D02*
X612750D01*
X600250Y900740D02*
Y920740D01*
X634010Y889090D02*
X643610D01*
X634010Y906690D02*
X643610D01*
X634010Y889090D02*
Y906690D01*
X643610Y889090D02*
Y906690D01*
X595720Y931190D02*
Y940790D01*
X613320Y931190D02*
Y940790D01*
X595720D02*
X613320D01*
X595720Y931190D02*
X613320D01*
X1547495Y1160145D02*
X1630045D01*
Y1242695D01*
X1547495D02*
X1630045D01*
X1547495Y1160145D02*
Y1242695D01*
X1662470Y1155980D02*
Y1165580D01*
X1644870Y1155980D02*
Y1165580D01*
Y1155980D02*
X1662470D01*
X1644870Y1165580D02*
X1662470D01*
X1729230Y1129420D02*
Y1146420D01*
X1697230Y1129420D02*
Y1146420D01*
Y1129420D02*
X1729230D01*
X1697230Y1146420D02*
X1729230D01*
X1645160Y1129420D02*
Y1146420D01*
X1677160Y1129420D02*
Y1146420D01*
X1645160D02*
X1677160D01*
X1645160Y1129420D02*
X1677160D01*
X1589760Y1110070D02*
Y1127670D01*
X1580160Y1110070D02*
Y1127670D01*
X1589760D01*
X1580160Y1110070D02*
X1589760D01*
X1570710D02*
Y1127670D01*
X1561110Y1110070D02*
Y1127670D01*
X1570710D01*
X1561110Y1110070D02*
X1570710D01*
X771650Y936380D02*
Y953380D01*
X739650Y936380D02*
Y953380D01*
Y936380D02*
X771650D01*
X739650Y953380D02*
X771650D01*
X768435Y992850D02*
Y1051850D01*
X699685D02*
X768435D01*
X699685Y992850D02*
Y1051850D01*
Y992850D02*
X768435D01*
X1071400Y965770D02*
X1138400D01*
X1156400Y983770D01*
Y1068770D01*
X1053400D02*
X1156400D01*
X1053400Y983770D02*
Y1068770D01*
Y983770D02*
X1071400Y965770D01*
X961560Y977040D02*
X1014560D01*
X1029560Y992040D01*
Y1060040D01*
X946560D02*
X1029560D01*
X946560Y992040D02*
Y1060040D01*
Y992040D02*
X961560Y977040D01*
X1482480Y1095250D02*
X1499480D01*
X1482480Y1127250D02*
X1499480D01*
X1482480Y1095250D02*
Y1127250D01*
X1499480Y1095250D02*
Y1127250D01*
X1470570Y1068350D02*
Y1077950D01*
X1452970Y1068350D02*
Y1077950D01*
Y1068350D02*
X1470570D01*
X1452970Y1077950D02*
X1470570D01*
X1405980Y1068350D02*
Y1077950D01*
X1423580Y1068350D02*
Y1077950D01*
X1405980D02*
X1423580D01*
X1405980Y1068350D02*
X1423580D01*
X1359290Y1090170D02*
X1376290D01*
X1359290Y1122170D02*
X1376290D01*
X1359290Y1090170D02*
Y1122170D01*
X1376290Y1090170D02*
Y1122170D01*
X1321420Y1057930D02*
X1344420D01*
Y1123930D01*
X1321420D02*
X1344420D01*
X1321420Y1057930D02*
Y1123930D01*
X1357910Y569050D02*
Y586650D01*
X1367510Y569050D02*
Y586650D01*
X1357910Y569050D02*
X1367510D01*
X1357910Y586650D02*
X1367510D01*
X1385960Y1216150D02*
X1402960D01*
X1385960Y1184150D02*
X1402960D01*
Y1216150D01*
X1385960Y1184150D02*
Y1216150D01*
X1383310Y1233260D02*
X1392910D01*
X1383310Y1250860D02*
X1392910D01*
X1383310Y1233260D02*
Y1250860D01*
X1392910Y1233260D02*
Y1250860D01*
X1309080Y1174665D02*
Y1243415D01*
X1368080D01*
Y1174665D02*
Y1243415D01*
X1309080Y1174665D02*
X1368080D01*
X1482370Y1163230D02*
X1491970D01*
X1482370Y1145630D02*
X1491970D01*
Y1163230D01*
X1482370Y1145630D02*
Y1163230D01*
X1316230Y936380D02*
Y953380D01*
X1348230Y936380D02*
Y953380D01*
X1316230D02*
X1348230D01*
X1316230Y936380D02*
X1348230D01*
X1251040Y797280D02*
X1268640D01*
X1251040Y787680D02*
X1268640D01*
X1251040D02*
Y797280D01*
X1268640Y787680D02*
Y797280D01*
X1282240Y813320D02*
X1288240D01*
X1282240Y802120D02*
X1288240D01*
Y813320D01*
X1282240Y802120D02*
Y813320D01*
X1339100Y840280D02*
Y846280D01*
X1327900Y840280D02*
Y846280D01*
Y840280D02*
X1339100D01*
X1327900Y846280D02*
X1339100D01*
X1311830Y841900D02*
Y859900D01*
X1301830Y841900D02*
Y859900D01*
Y841900D02*
X1311830D01*
X1301830Y859900D02*
X1311830D01*
X1281710Y859700D02*
X1291310D01*
X1281710Y842100D02*
X1291310D01*
Y859700D01*
X1281710Y842100D02*
Y859700D01*
X1360920Y840280D02*
Y846280D01*
X1372120Y840280D02*
Y846280D01*
X1360920D02*
X1372120D01*
X1360920Y840280D02*
X1372120D01*
X1397520D02*
Y846280D01*
X1386320Y840280D02*
Y846280D01*
Y840280D02*
X1397520D01*
X1386320Y846280D02*
X1397520D01*
X1369220Y816960D02*
X1389220D01*
X1369220Y828960D02*
X1389220D01*
Y816960D02*
Y828960D01*
X1369220Y816960D02*
Y828960D01*
X1355180Y792760D02*
X1372780D01*
X1355180Y802360D02*
X1372780D01*
Y792760D02*
Y802360D01*
X1355180Y792760D02*
Y802360D01*
X1408710Y749390D02*
Y766990D01*
X1418310Y749390D02*
Y766990D01*
X1408710Y749390D02*
X1418310D01*
X1408710Y766990D02*
X1418310D01*
X1418480Y715090D02*
X1436480D01*
X1418480Y725090D02*
X1436480D01*
X1418480Y715090D02*
Y725090D01*
X1436480Y715090D02*
Y725090D01*
X1494990Y549400D02*
X1519990D01*
Y517400D02*
Y549400D01*
X1494990Y517400D02*
Y549400D01*
Y517400D02*
X1519990D01*
X1475280Y534150D02*
X1481280D01*
X1475280Y545350D02*
X1481280D01*
X1475280Y534150D02*
Y545350D01*
X1481280Y534150D02*
Y545350D01*
X1547380Y518970D02*
Y524970D01*
X1536180Y518970D02*
Y524970D01*
Y518970D02*
X1547380D01*
X1536180Y524970D02*
X1547380D01*
X1484180Y500850D02*
X1523180D01*
X1484180Y400850D02*
Y500850D01*
Y400850D02*
X1523180D01*
Y500850D01*
X1552220Y422820D02*
X1561820D01*
X1552220Y405220D02*
X1561820D01*
Y422820D01*
X1552220Y405220D02*
Y422820D01*
X1099270Y593260D02*
Y646260D01*
Y593260D02*
X1141270D01*
Y646260D01*
X1099270D02*
X1141270D01*
X1171030Y634010D02*
X1188630D01*
X1171030Y643610D02*
X1188630D01*
Y634010D02*
Y643610D01*
X1171030Y634010D02*
Y643610D01*
X1041790Y738190D02*
X1058790D01*
X1041790Y706190D02*
X1058790D01*
Y738190D01*
X1041790Y706190D02*
Y738190D01*
X680830Y760950D02*
Y788450D01*
X662830Y760950D02*
X680830D01*
X662830D02*
Y788450D01*
X680830D01*
X636660Y759970D02*
X653660D01*
X636660Y791970D02*
X653660D01*
X636660Y759970D02*
Y791970D01*
X653660Y759970D02*
Y791970D01*
X608720Y743460D02*
Y775460D01*
X625720Y743460D02*
Y775460D01*
X608720Y743460D02*
X625720D01*
X608720Y775460D02*
X625720D01*
X583320D02*
X600320D01*
X583320Y743460D02*
X600320D01*
Y775460D01*
X583320Y743460D02*
Y775460D01*
X613320Y790220D02*
Y799820D01*
X595720Y790220D02*
Y799820D01*
Y790220D02*
X613320D01*
X595720Y799820D02*
X613320D01*
X547370Y769620D02*
X572770D01*
Y845820D01*
X547370D02*
X572770D01*
X547370Y769620D02*
Y845820D01*
X548640Y883920D02*
X574040D01*
Y960120D01*
X548640D02*
X574040D01*
X548640Y883920D02*
Y960120D01*
X638700Y948150D02*
Y975650D01*
X656700D01*
Y948150D02*
Y975650D01*
X638700Y948150D02*
X656700D01*
X609990Y955550D02*
X626990D01*
X609990Y987550D02*
X626990D01*
X609990Y955550D02*
Y987550D01*
X626990Y955550D02*
Y987550D01*
X583320Y955550D02*
X600320D01*
X583320Y987550D02*
X600320D01*
X583320Y955550D02*
Y987550D01*
X600320Y955550D02*
Y987550D01*
X1184910Y1235890D02*
X1286510D01*
Y1146680D02*
Y1235890D01*
X1184910Y1146680D02*
X1286510D01*
X1184910D02*
Y1235890D01*
X1078400Y1120550D02*
X1131400D01*
X1146400Y1135550D01*
Y1203550D01*
X1063400D02*
X1146400D01*
X1063400Y1135550D02*
Y1203550D01*
Y1135550D02*
X1078400Y1120550D01*
X954560Y1111920D02*
X1021560D01*
X1039560Y1129920D01*
Y1214920D01*
X936560D02*
X1039560D01*
X936560Y1129920D02*
Y1214920D01*
Y1129920D02*
X954560Y1111920D01*
X801370Y1144390D02*
X902970D01*
Y1233640D01*
X801370D02*
X902970D01*
X801370Y1144390D02*
Y1233640D01*
X710910Y1151805D02*
X769910D01*
Y1220555D01*
X710910D02*
X769910D01*
X710910Y1151805D02*
Y1220555D01*
X689100Y1133230D02*
Y1150230D01*
X657100Y1133230D02*
Y1150230D01*
Y1133230D02*
X689100D01*
X657100Y1150230D02*
X689100D01*
X635760Y1133230D02*
Y1150230D01*
X603760Y1133230D02*
Y1150230D01*
Y1133230D02*
X635760D01*
X603760Y1150230D02*
X635760D01*
X455050Y1169160D02*
X472050D01*
X455050Y1137160D02*
X472050D01*
Y1169160D01*
X455050Y1137160D02*
Y1169160D01*
X428380D02*
X445380D01*
X428380Y1137160D02*
X445380D01*
Y1169160D01*
X428380Y1137160D02*
Y1169160D01*
X366140Y1134620D02*
Y1166620D01*
X350140Y1134620D02*
Y1166620D01*
X366140D01*
X350140Y1134620D02*
X366140D01*
X350140Y1041910D02*
Y1073910D01*
X366140Y1041910D02*
Y1073910D01*
X350140Y1041910D02*
X366140D01*
X350140Y1073910D02*
X366140D01*
X367410Y879350D02*
Y911350D01*
X351410Y879350D02*
Y911350D01*
X367410D01*
X351410Y879350D02*
X367410D01*
X350140Y817370D02*
X366140D01*
X350140Y785370D02*
X366140D01*
Y817370D01*
X350140Y785370D02*
Y817370D01*
X637610Y678570D02*
Y695570D01*
X669610Y678570D02*
Y695570D01*
X637610D02*
X669610D01*
X637610Y678570D02*
X669610D01*
X570330Y685960D02*
Y705960D01*
X582830Y685960D02*
Y705960D01*
X570330Y685960D02*
X582830D01*
X570330Y705960D02*
X582830D01*
X474895Y736890D02*
X543645D01*
Y677890D02*
Y736890D01*
X474895Y677890D02*
X543645D01*
X474895D02*
Y736890D01*
X370755Y677890D02*
X439505D01*
X370755D02*
Y736890D01*
X439505D01*
Y677890D02*
Y736890D01*
X342390Y678570D02*
Y695570D01*
X310390Y678570D02*
Y695570D01*
Y678570D02*
X342390D01*
X310390Y695570D02*
X342390D01*
X269630Y307850D02*
Y339850D01*
X286630Y307850D02*
Y339850D01*
X269630Y307850D02*
X286630D01*
X269630Y339850D02*
X286630D01*
X903070Y282100D02*
Y302100D01*
X915570Y282100D02*
Y302100D01*
X903070Y282100D02*
X915570D01*
X903070Y302100D02*
X915570D01*
X797475Y272760D02*
Y331760D01*
Y272760D02*
X866225D01*
Y331760D01*
X797475D02*
X866225D01*
X762085Y272760D02*
Y331760D01*
X693335D02*
X762085D01*
X693335Y272760D02*
Y331760D01*
Y272760D02*
X762085D01*
X635510Y273440D02*
X667510D01*
X635510Y290440D02*
X667510D01*
Y273440D02*
Y290440D01*
X635510Y273440D02*
Y290440D01*
X606780Y306160D02*
Y323760D01*
X597180Y306160D02*
Y323760D01*
X606780D01*
X597180Y306160D02*
X606780D01*
X570330Y304960D02*
X582830D01*
X570330Y324960D02*
X582830D01*
X570330Y304960D02*
Y324960D01*
X582830Y304960D02*
Y324960D01*
X473625Y274030D02*
Y333030D01*
Y274030D02*
X542375D01*
Y333030D01*
X473625D02*
X542375D01*
X438235Y274030D02*
Y333030D01*
X369485D02*
X438235D01*
X369485Y274030D02*
Y333030D01*
Y274030D02*
X438235D01*
X1041790Y628140D02*
X1058790D01*
X1041790Y596140D02*
X1058790D01*
Y628140D01*
X1041790Y596140D02*
Y628140D01*
X1050010Y555080D02*
Y572680D01*
X1040410Y555080D02*
Y572680D01*
X1050010D01*
X1040410Y555080D02*
X1050010D01*
X948690Y606750D02*
X1012190D01*
Y510850D02*
Y606750D01*
X948690Y510850D02*
X1012190D01*
X948690D02*
Y606750D01*
X1041790Y518920D02*
X1058790D01*
X1041790Y486920D02*
X1058790D01*
Y518920D01*
X1041790Y486920D02*
Y518920D01*
X1069620Y488860D02*
X1079220D01*
X1069620Y471260D02*
X1079220D01*
Y488860D01*
X1069620Y471260D02*
Y488860D01*
X1040410Y445860D02*
X1050010D01*
X1040410Y463460D02*
X1050010D01*
X1040410Y445860D02*
Y463460D01*
X1050010Y445860D02*
Y463460D01*
X948690Y401630D02*
Y497530D01*
Y401630D02*
X1012190D01*
Y497530D01*
X948690D02*
X1012190D01*
X1041680Y336640D02*
X1051280D01*
X1041680Y354240D02*
X1051280D01*
X1041680Y336640D02*
Y354240D01*
X1051280Y336640D02*
Y354240D01*
X949960Y292410D02*
Y388310D01*
Y292410D02*
X1013460D01*
Y388310D01*
X949960D02*
X1013460D01*
X1043060Y409700D02*
X1060060D01*
X1043060Y377700D02*
X1060060D01*
Y409700D01*
X1043060Y377700D02*
Y409700D01*
X1069620Y379640D02*
X1079220D01*
X1069620Y362040D02*
X1079220D01*
Y379640D01*
X1069620Y362040D02*
Y379640D01*
X1252500Y364580D02*
Y382180D01*
X1262100Y364580D02*
Y382180D01*
X1252500Y364580D02*
X1262100D01*
X1252500Y382180D02*
X1262100D01*
X1373380Y445490D02*
X1405380D01*
X1373380Y428490D02*
X1405380D01*
X1373380D02*
Y445490D01*
X1405380Y428490D02*
Y445490D01*
X1339780Y432420D02*
Y464420D01*
X1356780Y432420D02*
Y464420D01*
X1339780Y432420D02*
X1356780D01*
X1339780Y464420D02*
X1356780D01*
X1252270Y428490D02*
X1284270D01*
X1252270Y445490D02*
X1284270D01*
Y428490D02*
Y445490D01*
X1252270Y428490D02*
Y445490D01*
X1300410Y432420D02*
Y464420D01*
X1317410Y432420D02*
Y464420D01*
X1300410Y432420D02*
X1317410D01*
X1300410Y464420D02*
X1317410D01*
X901800Y708820D02*
X914300D01*
X901800Y728820D02*
X914300D01*
X901800Y708820D02*
Y728820D01*
X914300Y708820D02*
Y728820D01*
X923010Y439640D02*
Y457240D01*
X913410Y439640D02*
Y457240D01*
X923010D01*
X913410Y439640D02*
X923010D01*
X455170Y777630D02*
X487170D01*
X455170Y794630D02*
X487170D01*
Y777630D02*
Y794630D01*
X455170Y777630D02*
Y794630D01*
Y848817D02*
X487170D01*
X455170Y831816D02*
X487170D01*
X455170D02*
Y848817D01*
X487170Y831816D02*
Y848817D01*
X455170Y821723D02*
X487170D01*
X455170Y804723D02*
X487170D01*
X455170D02*
Y821723D01*
X487170Y804723D02*
Y821723D01*
X453900Y858910D02*
X485900D01*
X453900Y875910D02*
X485900D01*
Y858910D02*
Y875910D01*
X453900Y858910D02*
Y875910D01*
X1095250Y846210D02*
X1127250D01*
X1095250Y863210D02*
X1127250D01*
X1095250Y846210D02*
Y863210D01*
X1127250Y846210D02*
Y863210D01*
X1175260Y847480D02*
X1207260D01*
X1175260Y864480D02*
X1207260D01*
X1175260Y847480D02*
Y864480D01*
X1207260Y847480D02*
Y864480D01*
X933540Y820700D02*
X951140D01*
X933540Y830300D02*
X951140D01*
X933540Y820700D02*
Y830300D01*
X951140Y820700D02*
Y830300D01*
X914680Y651600D02*
Y669200D01*
X924280Y651600D02*
Y669200D01*
X914680D02*
X924280D01*
X914680Y651600D02*
X924280D01*
X1585474Y1140620D02*
X1597974D01*
X1585474D02*
Y1160620D01*
X1597974D01*
Y1140620D02*
Y1160620D01*
X1585474Y1169830D02*
X1597974D01*
X1585474D02*
Y1189830D01*
X1597974D01*
Y1169830D02*
Y1189830D01*
X1585474Y1199040D02*
X1597974D01*
X1585474D02*
Y1219040D01*
X1597974D01*
Y1199040D02*
Y1219040D01*
X1334260Y799030D02*
Y824030D01*
X1302260Y799030D02*
X1334260D01*
X1302260Y824030D02*
X1334260D01*
X1302260Y799030D02*
Y824030D01*
X1208050Y745580D02*
X1217650D01*
X1208050Y763180D02*
X1217650D01*
X1208050Y745580D02*
Y763180D01*
X1217650Y745580D02*
Y763180D01*
X1084430Y388820D02*
X1224430D01*
Y540820D01*
X1199430D02*
X1224430D01*
X1199430Y530820D02*
Y540820D01*
X1084430Y530820D02*
X1199430D01*
X1084430Y388820D02*
Y530820D01*
X695875Y677890D02*
X764625D01*
X695875D02*
Y736890D01*
X764625D01*
Y677890D02*
Y736890D01*
X1050010Y664300D02*
Y681900D01*
X1040410Y664300D02*
Y681900D01*
X1050010D01*
X1040410Y664300D02*
X1050010D01*
X800255Y677890D02*
Y736890D01*
Y677890D02*
X869005D01*
Y736890D01*
X800255D02*
X869005D01*
X1064540Y664300D02*
Y681900D01*
X1074140Y664300D02*
Y681900D01*
X1064540Y664300D02*
X1074140D01*
X1064540Y681900D02*
X1074140D01*
X924280Y332830D02*
Y350430D01*
X914680Y332830D02*
Y350430D01*
X924280D01*
X914680Y332830D02*
X924280D01*
X923010Y550130D02*
Y567730D01*
X913410Y550130D02*
Y567730D01*
X923010D01*
X913410Y550130D02*
X923010D01*
X1736240Y469136D02*
X1731161Y464058D01*
X1736240D02*
X1731161Y469136D01*
X1736240Y466597D02*
X1731161D01*
X1733701Y464058D02*
Y469136D01*
X1725826Y456944D02*
X1720748Y451866D01*
X1725826D02*
X1720748Y456944D01*
X1725826Y454405D02*
X1720748D01*
X1723287Y451866D02*
Y456944D01*
D144*
X780034Y820166D02*
G03*
X780034Y826262I0J3048D01*
G01*
X1022350Y822452D02*
G03*
X1022350Y828548I0J3048D01*
G01*
X780034Y800862D02*
X846074D01*
X780034D02*
Y820166D01*
Y826262D01*
Y845566D01*
X846074D01*
Y800862D02*
Y845566D01*
X782320D02*
Y855218D01*
X785368D01*
X785368Y845566D01*
X782320D02*
X785368D01*
X788670Y845566D02*
Y855218D01*
X791718D01*
Y845566D02*
Y855218D01*
X788670Y845566D02*
X791718Y845566D01*
X795274D02*
Y855218D01*
X798322D01*
X798322Y845566D02*
X798322Y855218D01*
X795274Y845566D02*
X798322D01*
X801878D02*
Y855218D01*
X804926Y855218D01*
Y845566D02*
Y855218D01*
X801878Y845566D02*
X804926D01*
X808228D02*
Y855218D01*
X811276D01*
Y845566D02*
Y855218D01*
X808228Y845566D02*
X811276Y845566D01*
X814832D02*
Y855218D01*
X817880D01*
Y845566D02*
Y855218D01*
X814832Y845566D02*
X817880Y845566D01*
X821182D02*
Y855218D01*
X824230Y855218D01*
Y845566D02*
Y855218D01*
X821182Y845566D02*
X824230D01*
X827786Y855218D02*
X827786Y845566D01*
X827786Y855218D02*
X830834D01*
Y845566D02*
Y855218D01*
X827786Y845566D02*
X830834D01*
X834390D02*
Y855218D01*
X837438D01*
Y845566D02*
Y855218D01*
X834390Y845566D02*
X837438Y845566D01*
X840740Y845566D02*
X840740Y855218D01*
X843788D01*
Y845566D02*
Y855218D01*
X840740Y845566D02*
X843788D01*
Y791210D02*
Y800862D01*
X840740Y791210D02*
X843788D01*
X840740Y800862D02*
X840740Y791210D01*
X840740Y800862D02*
X843788D01*
X837438Y791210D02*
Y800862D01*
X834390Y791210D02*
X837438D01*
X834390D02*
Y800862D01*
X837438Y800862D01*
X830834Y791210D02*
Y800862D01*
X827786Y791210D02*
X830834D01*
X827786D02*
X827786Y800862D01*
X830834D01*
X824230Y791210D02*
Y800862D01*
X821182Y791210D02*
X824230Y791210D01*
X821182Y791210D02*
Y800862D01*
X824230D01*
X817880Y791210D02*
Y800862D01*
X814832Y791210D02*
X817880D01*
X814832D02*
Y800862D01*
X817880Y800862D01*
X811276Y791210D02*
Y800862D01*
X808228Y791210D02*
X811276D01*
X808228D02*
Y800862D01*
X811276Y800862D01*
X804926Y791210D02*
Y800862D01*
X801878Y791210D02*
X804926Y791210D01*
X801878Y791210D02*
Y800862D01*
X804926D01*
X798322D02*
X798322Y791210D01*
X795274D02*
X798322D01*
X795274D02*
Y800862D01*
X798322D01*
X791718Y791210D02*
Y800862D01*
X788670Y791210D02*
X791718D01*
X788670D02*
Y800862D01*
X791718Y800862D01*
X785368Y791210D02*
X785368Y800862D01*
X782320Y791210D02*
X785368D01*
X782320D02*
Y800862D01*
X785368D01*
X781812Y861314D02*
X785622D01*
Y863854D01*
X781812D02*
X785622D01*
X840486Y785114D02*
X844296D01*
Y782574D02*
Y785114D01*
X840486Y782574D02*
X844296D01*
X1606042Y417576D02*
X2096008D01*
X1606042D02*
Y1116584D01*
X2096008D01*
Y417576D02*
Y1116584D01*
X1082802Y784860D02*
X1086612D01*
Y787400D01*
X1082802D02*
X1086612D01*
X1024128Y866140D02*
X1027938D01*
Y863600D02*
Y866140D01*
X1024128Y863600D02*
X1027938D01*
X1024636Y803148D02*
X1027684D01*
X1024636Y793496D02*
Y803148D01*
Y793496D02*
X1027684D01*
X1027684Y803148D01*
X1030986Y803148D02*
X1034034Y803148D01*
X1030986Y793496D02*
Y803148D01*
Y793496D02*
X1034034D01*
Y803148D01*
X1037590D02*
X1040638D01*
X1037590Y793496D02*
Y803148D01*
Y793496D02*
X1040638D01*
X1040638Y803148D02*
X1040638Y793496D01*
X1044194Y803148D02*
X1047242D01*
X1044194Y793496D02*
Y803148D01*
Y793496D02*
X1047242Y793496D01*
Y803148D01*
X1050544D02*
X1053592Y803148D01*
X1050544Y793496D02*
Y803148D01*
Y793496D02*
X1053592D01*
Y803148D01*
X1057148D02*
X1060196Y803148D01*
X1057148Y793496D02*
Y803148D01*
Y793496D02*
X1060196D01*
Y803148D01*
X1063498D02*
X1066546D01*
X1063498Y793496D02*
Y803148D01*
Y793496D02*
X1066546Y793496D01*
Y803148D01*
X1070102D02*
X1073150D01*
X1070102Y793496D02*
X1070102Y803148D01*
X1070102Y793496D02*
X1073150D01*
Y803148D01*
X1076706D02*
X1079754Y803148D01*
X1076706Y793496D02*
Y803148D01*
Y793496D02*
X1079754D01*
Y803148D01*
X1083056Y803148D02*
X1086104D01*
X1083056D02*
X1083056Y793496D01*
X1086104D01*
Y803148D01*
X1083056Y847852D02*
X1086104D01*
Y857504D01*
X1083056D02*
X1086104D01*
X1083056Y847852D02*
X1083056Y857504D01*
X1076706Y847852D02*
X1079754Y847852D01*
Y857504D01*
X1076706D02*
X1079754D01*
X1076706Y847852D02*
Y857504D01*
X1070102Y847852D02*
X1073150D01*
Y857504D01*
X1070102D02*
X1073150D01*
X1070102D02*
X1070102Y847852D01*
X1063498D02*
X1066546D01*
Y857504D01*
X1063498Y857504D02*
X1066546Y857504D01*
X1063498Y847852D02*
Y857504D01*
X1057148Y847852D02*
X1060196Y847852D01*
Y857504D01*
X1057148D02*
X1060196D01*
X1057148Y847852D02*
Y857504D01*
X1050544Y847852D02*
X1053592Y847852D01*
Y857504D01*
X1050544D02*
X1053592D01*
X1050544Y847852D02*
Y857504D01*
X1044194Y847852D02*
X1047242D01*
Y857504D01*
X1044194Y857504D02*
X1047242Y857504D01*
X1044194Y847852D02*
Y857504D01*
X1037590Y847852D02*
X1040638D01*
X1040638Y857504D01*
X1037590D02*
X1040638D01*
X1037590Y847852D02*
Y857504D01*
X1030986Y847852D02*
X1034034Y847852D01*
Y857504D01*
X1030986D02*
X1034034D01*
X1030986Y847852D02*
Y857504D01*
X1024636Y847852D02*
X1027684D01*
X1027684Y857504D02*
X1027684Y847852D01*
X1024636Y857504D02*
X1027684D01*
X1024636Y847852D02*
Y857504D01*
X1088390Y803148D02*
Y847852D01*
X1022350D02*
X1088390D01*
X1022350Y828548D02*
Y847852D01*
Y822452D02*
Y828548D01*
Y803148D02*
Y822452D01*
Y803148D02*
X1088390D01*
X1683408Y465328D02*
X1725064D01*
X1683408Y413512D02*
X1725064D01*
X1723794Y415036D02*
Y463804D01*
X1707284D02*
X1723794D01*
X1684678D02*
X1707284D01*
X1684678Y415036D02*
Y463804D01*
Y415036D02*
X1723794D01*
X1674264Y461010D02*
X1684678D01*
X1674264Y455930D02*
Y461010D01*
Y455930D02*
X1684678D01*
Y461010D01*
X1674264Y448310D02*
X1684678D01*
X1674264Y443230D02*
Y448310D01*
Y443230D02*
X1684678D01*
Y448310D01*
X1674264Y435610D02*
X1684678D01*
X1674264Y430530D02*
Y435610D01*
Y430530D02*
X1684678D01*
Y435610D01*
X1674264Y422910D02*
X1684678D01*
X1674264Y417830D02*
Y422910D01*
Y417830D02*
X1684678D01*
Y422910D01*
X1723794Y417830D02*
X1734208D01*
Y422910D01*
X1723794D02*
X1734208D01*
X1723794Y417830D02*
Y422910D01*
Y430530D02*
X1734208D01*
Y435610D01*
X1723794D02*
X1734208D01*
X1723794Y430530D02*
Y435610D01*
Y443230D02*
X1734208D01*
Y448310D01*
X1723794D02*
X1734208D01*
X1723794Y443230D02*
Y448310D01*
Y455930D02*
X1734208D01*
Y461010D01*
X1723794D02*
X1734208D01*
X1723794Y455930D02*
Y461010D01*
X417830Y892048D02*
Y990092D01*
X483870D01*
Y892048D02*
Y990092D01*
X417830Y892048D02*
X483870D01*
Y984250D02*
X493776D01*
Y974090D02*
Y984250D01*
X483870Y974090D02*
X493776D01*
X483870D02*
Y984250D01*
Y958850D02*
X493776D01*
Y948690D02*
Y958850D01*
X483870Y948690D02*
X493776D01*
X483870D02*
Y958850D01*
Y933450D02*
X493776D01*
Y923544D02*
Y933450D01*
X483870Y923290D02*
X493776Y923544D01*
X483870Y923290D02*
Y933450D01*
Y908050D02*
X493776D01*
Y898144D02*
Y908050D01*
X483870Y897890D02*
X493776Y898144D01*
X483870Y897890D02*
Y908050D01*
X407924Y897890D02*
X417830D01*
X407924D02*
Y907796D01*
X417830Y908050D01*
Y897890D02*
Y908050D01*
X407924Y923290D02*
X417830D01*
X407924D02*
Y933450D01*
X417830D01*
Y923290D02*
Y933450D01*
X407924Y948690D02*
X417830D01*
X407924D02*
Y958850D01*
X417830D01*
Y948690D02*
Y958850D01*
X407924Y974090D02*
X417830D01*
X407924D02*
Y984250D01*
X417830D01*
Y974090D02*
Y984250D01*
X416560Y1012698D02*
Y1110742D01*
X482600D01*
Y1012698D02*
Y1110742D01*
X416560Y1012698D02*
X482600D01*
Y1104900D02*
X492506D01*
Y1094740D02*
Y1104900D01*
X482600Y1094740D02*
X492506D01*
X482600D02*
Y1104900D01*
Y1079500D02*
X492506D01*
Y1069340D02*
Y1079500D01*
X482600Y1069340D02*
X492506D01*
X482600D02*
Y1079500D01*
Y1054100D02*
X492506D01*
Y1044194D02*
Y1054100D01*
X482600Y1043940D02*
X492506Y1044194D01*
X482600Y1043940D02*
Y1054100D01*
Y1028700D02*
X492506D01*
Y1018794D02*
Y1028700D01*
X482600Y1018540D02*
X492506Y1018794D01*
X482600Y1018540D02*
Y1028700D01*
X406654Y1018540D02*
X416560D01*
X406654D02*
Y1028446D01*
X416560Y1028700D01*
Y1018540D02*
Y1028700D01*
X406654Y1043940D02*
X416560D01*
X406654D02*
Y1054100D01*
X416560D01*
Y1043940D02*
Y1054100D01*
X406654Y1069340D02*
X416560D01*
X406654D02*
Y1079500D01*
X416560D01*
Y1069340D02*
Y1079500D01*
X406654Y1094740D02*
X416560D01*
X406654D02*
Y1104900D01*
X416560D01*
Y1094740D02*
Y1104900D01*
D146*
X683260Y664210D02*
X689610Y657860D01*
X803910D02*
X810260Y664210D01*
X803910Y518160D02*
X810260Y511810D01*
X683260D02*
X689610Y518160D01*
X683260Y500380D02*
X689610Y494030D01*
X803910D02*
X810260Y500380D01*
X803910Y354330D02*
X810260Y347980D01*
X683260D02*
X689610Y354330D01*
X356870Y664210D02*
X363220Y657860D01*
X477520D02*
X483870Y664210D01*
X477520Y518160D02*
X483870Y511810D01*
X356870D02*
X363220Y518160D01*
X356870Y347980D02*
X363220Y354330D01*
X477520D02*
X483870Y347980D01*
X477520Y494030D02*
X483870Y500380D01*
X356870D02*
X363220Y494030D01*
D183*
X1161542Y828548D02*
G03*
X1161542Y822452I0J-3048D01*
G01*
X870458D02*
G03*
X870458Y828548I0J3048D01*
G01*
X1111758Y845566D02*
X1161542D01*
Y828548D02*
Y845566D01*
Y822452D02*
Y828548D01*
Y805434D02*
Y822452D01*
X1111758Y805434D02*
X1161542D01*
X1111758D02*
Y845566D01*
X1158240Y794512D02*
Y805434D01*
X1153160Y794512D02*
X1158240D01*
X1153160D02*
Y805434D01*
X1158240D01*
X1145540Y794512D02*
Y805434D01*
X1140460Y794512D02*
X1145540D01*
X1140460D02*
Y805434D01*
X1145540D01*
X1132840Y794512D02*
Y805434D01*
X1127760Y794512D02*
X1132840D01*
X1127760D02*
Y805434D01*
X1132840D01*
X1120140Y794512D02*
Y805434D01*
X1115060Y794512D02*
X1120140D01*
X1115060D02*
Y805434D01*
X1120140D01*
X1115060Y845566D02*
Y856488D01*
X1120140D01*
Y845566D02*
Y856488D01*
X1115060Y845566D02*
X1120140D01*
X1127760D02*
Y856488D01*
X1132840D01*
Y845566D02*
Y856488D01*
X1127760Y845566D02*
X1132840D01*
X1140460D02*
Y856488D01*
X1145540D01*
Y845566D02*
Y856488D01*
X1140460Y845566D02*
X1145540D01*
X1153160D02*
Y856488D01*
X1158240D01*
Y845566D02*
Y856488D01*
X1153160Y845566D02*
X1158240D01*
X870458Y805434D02*
X920242D01*
X870458D02*
Y822452D01*
Y828548D01*
Y845566D01*
X920242D01*
Y805434D02*
Y845566D01*
X873760D02*
Y856488D01*
X878840D01*
Y845566D02*
Y856488D01*
X873760Y845566D02*
X878840D01*
X886460D02*
Y856488D01*
X891540D01*
Y845566D02*
Y856488D01*
X886460Y845566D02*
X891540D01*
X899160D02*
Y856488D01*
X904240D01*
Y845566D02*
Y856488D01*
X899160Y845566D02*
X904240D01*
X911860D02*
Y856488D01*
X916940D01*
Y845566D02*
Y856488D01*
X911860Y845566D02*
X916940D01*
Y794512D02*
Y805434D01*
X911860Y794512D02*
X916940D01*
X911860D02*
Y805434D01*
X916940D01*
X904240Y794512D02*
Y805434D01*
X899160Y794512D02*
X904240D01*
X899160D02*
Y805434D01*
X904240D01*
X891540Y794512D02*
Y805434D01*
X886460Y794512D02*
X891540D01*
X886460D02*
Y805434D01*
X891540D01*
X878840Y794512D02*
Y805434D01*
X873760Y794512D02*
X878840D01*
X873760D02*
Y805434D01*
X878840D01*
D184*
X1294130Y234990D02*
Y260390D01*
X1395730D01*
Y234990D02*
Y260390D01*
X1294130Y234990D02*
X1395730D01*
X1294130Y153690D02*
Y234990D01*
Y153690D02*
X1395730D01*
Y234990D01*
X1173480Y176550D02*
Y260350D01*
Y176550D02*
X1249680D01*
Y260350D01*
X1173480D02*
X1249680D01*
X1173480Y234950D02*
Y260350D01*
Y234950D02*
X1249680D01*
Y260350D01*
X1145540Y234950D02*
Y260350D01*
X1069340Y234950D02*
X1145540D01*
X1069340D02*
Y260350D01*
X1145540D01*
Y176550D02*
Y260350D01*
X1069340Y176550D02*
X1145540D01*
X1069340D02*
Y260350D01*
X1483360Y721360D02*
X1534160D01*
Y594360D02*
Y721360D01*
X1483360Y594360D02*
X1534160D01*
X1483360D02*
Y721360D01*
D186*
X770895Y786565D02*
X779375Y795046D01*
Y786565D02*
X770895Y795046D01*
X775135Y786565D02*
Y795046D01*
X779375Y790806D02*
X770895D01*
X1013211Y788851D02*
X1021691Y797332D01*
Y788851D02*
X1013211Y797332D01*
X1017451Y788851D02*
Y797332D01*
X1021691Y793092D02*
X1013211D01*
%TF.MD5,09d266bb5e543ea68964226e096ebd5c*%
M02*
