%TF.GenerationSoftware,Altium Limited,Altium Designer,22.2.1 (43)*%
G04 Layer_Color=8421504*
%FSLAX44Y44*%
%MOMM*%
%TF.SameCoordinates,040CE2E0-B857-4D47-B26F-9B72162B56B4*%
%TF.FilePolarity,Positive*%
%TF.FileFunction,Paste,Top*%
%TF.Part,Single*%
G01*
G75*
%TA.AperFunction,SMDPad,CuDef*%
%ADD10R,0.3556X1.4732*%
G04:AMPARAMS|DCode=11|XSize=0.28mm|YSize=1.56mm|CornerRadius=0.035mm|HoleSize=0mm|Usage=FLASHONLY|Rotation=270.000|XOffset=0mm|YOffset=0mm|HoleType=Round|Shape=RoundedRectangle|*
%AMROUNDEDRECTD11*
21,1,0.2800,1.4900,0,0,270.0*
21,1,0.2100,1.5600,0,0,270.0*
1,1,0.0700,-0.7450,-0.1050*
1,1,0.0700,-0.7450,0.1050*
1,1,0.0700,0.7450,0.1050*
1,1,0.0700,0.7450,-0.1050*
%
%ADD11ROUNDEDRECTD11*%
G04:AMPARAMS|DCode=12|XSize=1.56mm|YSize=0.28mm|CornerRadius=0.035mm|HoleSize=0mm|Usage=FLASHONLY|Rotation=270.000|XOffset=0mm|YOffset=0mm|HoleType=Round|Shape=RoundedRectangle|*
%AMROUNDEDRECTD12*
21,1,1.5600,0.2100,0,0,270.0*
21,1,1.4900,0.2800,0,0,270.0*
1,1,0.0700,-0.1050,-0.7450*
1,1,0.0700,-0.1050,0.7450*
1,1,0.0700,0.1050,0.7450*
1,1,0.0700,0.1050,-0.7450*
%
%ADD12ROUNDEDRECTD12*%
%TA.AperFunction,ConnectorPad*%
%ADD13R,1.2700X3.1750*%
%TA.AperFunction,SMDPad,CuDef*%
%ADD14R,1.1000X1.4500*%
%ADD15R,1.2000X0.8000*%
%ADD16R,0.9800X0.9200*%
%ADD17R,1.0900X1.0800*%
%ADD18R,1.0000X0.9700*%
%ADD19R,1.2700X3.1800*%
%ADD20R,1.0000X1.7000*%
%ADD21R,0.5588X1.9812*%
%ADD22R,0.9200X0.9800*%
%ADD23R,1.1500X1.1500*%
%ADD24R,1.7300X0.9700*%
%ADD25R,0.2800X1.4700*%
%ADD26R,0.9700X1.7300*%
G04:AMPARAMS|DCode=27|XSize=1.19mm|YSize=0.4mm|CornerRadius=0.05mm|HoleSize=0mm|Usage=FLASHONLY|Rotation=0.000|XOffset=0mm|YOffset=0mm|HoleType=Round|Shape=RoundedRectangle|*
%AMROUNDEDRECTD27*
21,1,1.1900,0.3000,0,0,0.0*
21,1,1.0900,0.4000,0,0,0.0*
1,1,0.1000,0.5450,-0.1500*
1,1,0.1000,-0.5450,-0.1500*
1,1,0.1000,-0.5450,0.1500*
1,1,0.1000,0.5450,0.1500*
%
%ADD27ROUNDEDRECTD27*%
%ADD28R,0.5700X2.0200*%
%ADD29R,5.4000X2.9000*%
%ADD30R,2.0000X3.6000*%
%ADD32R,3.6000X2.0000*%
%ADD33R,0.6400X0.6000*%
%ADD34R,0.6000X0.6400*%
G04:AMPARAMS|DCode=35|XSize=0.94mm|YSize=1.02mm|CornerRadius=0.094mm|HoleSize=0mm|Usage=FLASHONLY|Rotation=270.000|XOffset=0mm|YOffset=0mm|HoleType=Round|Shape=RoundedRectangle|*
%AMROUNDEDRECTD35*
21,1,0.9400,0.8320,0,0,270.0*
21,1,0.7520,1.0200,0,0,270.0*
1,1,0.1880,-0.4160,-0.3760*
1,1,0.1880,-0.4160,0.3760*
1,1,0.1880,0.4160,0.3760*
1,1,0.1880,0.4160,-0.3760*
%
%ADD35ROUNDEDRECTD35*%
%ADD36R,0.7500X1.4000*%
G04:AMPARAMS|DCode=37|XSize=0.94mm|YSize=1.02mm|CornerRadius=0.094mm|HoleSize=0mm|Usage=FLASHONLY|Rotation=180.000|XOffset=0mm|YOffset=0mm|HoleType=Round|Shape=RoundedRectangle|*
%AMROUNDEDRECTD37*
21,1,0.9400,0.8320,0,0,180.0*
21,1,0.7520,1.0200,0,0,180.0*
1,1,0.1880,-0.3760,0.4160*
1,1,0.1880,0.3760,0.4160*
1,1,0.1880,0.3760,-0.4160*
1,1,0.1880,-0.3760,-0.4160*
%
%ADD37ROUNDEDRECTD37*%
%ADD38R,3.6800X1.2700*%
%ADD39R,1.2000X1.4000*%
G04:AMPARAMS|DCode=40|XSize=1.31mm|YSize=0.62mm|CornerRadius=0.0775mm|HoleSize=0mm|Usage=FLASHONLY|Rotation=180.000|XOffset=0mm|YOffset=0mm|HoleType=Round|Shape=RoundedRectangle|*
%AMROUNDEDRECTD40*
21,1,1.3100,0.4650,0,0,180.0*
21,1,1.1550,0.6200,0,0,180.0*
1,1,0.1550,-0.5775,0.2325*
1,1,0.1550,0.5775,0.2325*
1,1,0.1550,0.5775,-0.2325*
1,1,0.1550,-0.5775,-0.2325*
%
%ADD40ROUNDEDRECTD40*%
%ADD41R,1.5600X0.6200*%
%ADD42R,0.9900X3.7900*%
%ADD46R,1.5000X1.2500*%
%ADD47R,1.1500X1.1500*%
%ADD48R,1.4500X1.1000*%
%ADD49R,1.4000X1.2000*%
%ADD148R,0.9000X3.3000*%
%ADD149R,10.6000X8.5000*%
G36*
X1287210Y1234410D02*
X1274710D01*
Y1249610D01*
X1287210D01*
Y1234410D01*
D02*
G37*
G36*
X1269110D02*
X1256610D01*
Y1249610D01*
X1269110D01*
Y1234410D01*
D02*
G37*
G36*
X1251010D02*
X1238510D01*
Y1249610D01*
X1251010D01*
Y1234410D01*
D02*
G37*
G36*
X1232910D02*
X1220410D01*
Y1249610D01*
X1232910D01*
Y1234410D01*
D02*
G37*
G36*
X1214810D02*
X1202310D01*
Y1249610D01*
X1214810D01*
Y1234410D01*
D02*
G37*
G36*
X1196710D02*
X1184210D01*
Y1249610D01*
X1196710D01*
Y1234410D01*
D02*
G37*
G36*
X1287210Y1208110D02*
X1274710D01*
Y1223310D01*
X1287210D01*
Y1208110D01*
D02*
G37*
G36*
X1269110D02*
X1256610D01*
Y1223310D01*
X1269110D01*
Y1208110D01*
D02*
G37*
G36*
X1251010D02*
X1238510D01*
Y1223310D01*
X1251010D01*
Y1208110D01*
D02*
G37*
G36*
X1232910D02*
X1220410D01*
Y1223310D01*
X1232910D01*
Y1208110D01*
D02*
G37*
G36*
X1214810D02*
X1202310D01*
Y1223310D01*
X1214810D01*
Y1208110D01*
D02*
G37*
G36*
X1196710D02*
X1184210D01*
Y1223310D01*
X1196710D01*
Y1208110D01*
D02*
G37*
G36*
X1000560Y1207920D02*
X1011560D01*
Y1194920D01*
X1000560D01*
Y1182920D01*
X975560D01*
Y1194920D01*
X964560D01*
Y1207920D01*
X975560D01*
Y1226920D01*
X1000560D01*
Y1207920D01*
D02*
G37*
G36*
X1287210Y1181810D02*
X1274710D01*
Y1197010D01*
X1287210D01*
Y1181810D01*
D02*
G37*
G36*
X1269110D02*
X1256610D01*
Y1197010D01*
X1269110D01*
Y1181810D01*
D02*
G37*
G36*
X1251010D02*
X1238510D01*
Y1197010D01*
X1251010D01*
Y1181810D01*
D02*
G37*
G36*
X1232910D02*
X1220410D01*
Y1197010D01*
X1232910D01*
Y1181810D01*
D02*
G37*
G36*
X1214810D02*
X1202310D01*
Y1197010D01*
X1214810D01*
Y1181810D01*
D02*
G37*
G36*
X1196710D02*
X1184210D01*
Y1197010D01*
X1196710D01*
Y1181810D01*
D02*
G37*
G36*
X1117400Y1198550D02*
X1128400D01*
Y1185550D01*
X1117400D01*
Y1175550D01*
X1092400D01*
Y1185550D01*
X1081400D01*
Y1198550D01*
X1092400D01*
Y1215550D01*
X1117400D01*
Y1198550D01*
D02*
G37*
G36*
Y1138550D02*
X1128400D01*
Y1125550D01*
X1117400D01*
Y1108550D01*
X1092400D01*
Y1125550D01*
X1081400D01*
Y1138550D01*
X1092400D01*
Y1148550D01*
X1117400D01*
Y1138550D01*
D02*
G37*
G36*
X1000560Y1131920D02*
X1011560D01*
Y1118920D01*
X1000560D01*
Y1099920D01*
X975560D01*
Y1118920D01*
X964560D01*
Y1131920D01*
X975560D01*
Y1143920D01*
X1000560D01*
Y1131920D01*
D02*
G37*
G36*
X1117400Y1061770D02*
X1128400D01*
Y1048770D01*
X1117400D01*
Y1036770D01*
X1092400D01*
Y1048770D01*
X1081400D01*
Y1061770D01*
X1092400D01*
Y1080770D01*
X1117400D01*
Y1061770D01*
D02*
G37*
G36*
X1000560Y1055040D02*
X1011560D01*
Y1042040D01*
X1000560D01*
Y1032040D01*
X975560D01*
Y1042040D01*
X964560D01*
Y1055040D01*
X975560D01*
Y1072040D01*
X1000560D01*
Y1055040D01*
D02*
G37*
G36*
Y995040D02*
X1011560D01*
Y982040D01*
X1000560D01*
Y965040D01*
X975560D01*
Y982040D01*
X964560D01*
Y995040D01*
X975560D01*
Y1005040D01*
X1000560D01*
Y995040D01*
D02*
G37*
G36*
X1117400Y985770D02*
X1128400D01*
Y972770D01*
X1117400D01*
Y953770D01*
X1092400D01*
Y972770D01*
X1081400D01*
Y985770D01*
X1092400D01*
Y997770D01*
X1117400D01*
Y985770D01*
D02*
G37*
G36*
X1393830Y264790D02*
X1372230D01*
Y286390D01*
X1393830D01*
Y264790D01*
D02*
G37*
G36*
X1368430D02*
X1346830D01*
Y286390D01*
X1368430D01*
Y264790D01*
D02*
G37*
G36*
X1343030D02*
X1321430D01*
Y286390D01*
X1343030D01*
Y264790D01*
D02*
G37*
G36*
X1317630D02*
X1296030D01*
Y286390D01*
X1317630D01*
Y264790D01*
D02*
G37*
D10*
X783844Y851408D02*
D03*
X790194D02*
D03*
X796798D02*
D03*
X803402D02*
D03*
X809752D02*
D03*
X816356D02*
D03*
X822706D02*
D03*
X829310D02*
D03*
X835914D02*
D03*
X842264D02*
D03*
Y795020D02*
D03*
X835914D02*
D03*
X829310D02*
D03*
X822706D02*
D03*
X816356D02*
D03*
X809752D02*
D03*
X803402D02*
D03*
X796798D02*
D03*
X790194D02*
D03*
X783844D02*
D03*
X1026160Y797306D02*
D03*
X1032510D02*
D03*
X1039114D02*
D03*
X1045718D02*
D03*
X1052068D02*
D03*
X1058672D02*
D03*
X1065022D02*
D03*
X1071626D02*
D03*
X1078230D02*
D03*
X1084580D02*
D03*
Y853694D02*
D03*
X1078230D02*
D03*
X1071626D02*
D03*
X1065022D02*
D03*
X1058672D02*
D03*
X1052068D02*
D03*
X1045718D02*
D03*
X1039114D02*
D03*
X1032510D02*
D03*
X1026160D02*
D03*
D11*
X1236380Y749610D02*
D03*
Y744610D02*
D03*
Y739610D02*
D03*
Y734610D02*
D03*
Y729610D02*
D03*
Y724610D02*
D03*
Y719610D02*
D03*
Y714610D02*
D03*
Y709610D02*
D03*
Y704610D02*
D03*
Y699610D02*
D03*
Y694610D02*
D03*
Y689610D02*
D03*
Y684610D02*
D03*
Y679610D02*
D03*
Y674610D02*
D03*
Y669610D02*
D03*
Y664610D02*
D03*
Y659610D02*
D03*
Y654610D02*
D03*
Y649610D02*
D03*
Y644610D02*
D03*
Y639610D02*
D03*
Y634610D02*
D03*
Y629610D02*
D03*
X1389980D02*
D03*
Y634610D02*
D03*
Y639610D02*
D03*
Y644610D02*
D03*
Y649610D02*
D03*
Y654610D02*
D03*
Y659610D02*
D03*
Y664610D02*
D03*
Y669610D02*
D03*
Y674610D02*
D03*
Y679610D02*
D03*
Y684610D02*
D03*
Y689610D02*
D03*
Y694610D02*
D03*
Y699610D02*
D03*
Y704610D02*
D03*
Y709610D02*
D03*
Y714610D02*
D03*
Y719610D02*
D03*
Y724610D02*
D03*
Y729610D02*
D03*
Y734610D02*
D03*
Y739610D02*
D03*
Y744610D02*
D03*
Y749610D02*
D03*
D12*
X1373180Y766410D02*
D03*
X1368180D02*
D03*
X1363180D02*
D03*
X1358180D02*
D03*
X1353180D02*
D03*
X1348180D02*
D03*
X1343180D02*
D03*
X1338180D02*
D03*
X1333180D02*
D03*
X1328180D02*
D03*
X1323180D02*
D03*
X1318180D02*
D03*
X1313180D02*
D03*
X1308180D02*
D03*
X1303180D02*
D03*
X1298180D02*
D03*
X1293180D02*
D03*
X1288180D02*
D03*
X1283180D02*
D03*
X1278180D02*
D03*
X1273180D02*
D03*
X1268180D02*
D03*
X1263180D02*
D03*
X1258180D02*
D03*
X1253180D02*
D03*
Y612810D02*
D03*
X1258180D02*
D03*
X1263180D02*
D03*
X1268180D02*
D03*
X1273180D02*
D03*
X1278180D02*
D03*
X1283180D02*
D03*
X1288180D02*
D03*
X1293180D02*
D03*
X1298180D02*
D03*
X1303180D02*
D03*
X1308180D02*
D03*
X1313180D02*
D03*
X1318180D02*
D03*
X1323180D02*
D03*
X1328180D02*
D03*
X1333180D02*
D03*
X1338180D02*
D03*
X1343180D02*
D03*
X1348180D02*
D03*
X1353180D02*
D03*
X1358180D02*
D03*
X1363180D02*
D03*
X1368180D02*
D03*
X1373180D02*
D03*
D13*
X1383030Y330700D02*
D03*
X1357630D02*
D03*
X1332230D02*
D03*
X1306830D02*
D03*
D14*
X1328310Y969010D02*
D03*
X1346310D02*
D03*
X769730Y970280D02*
D03*
X751730D02*
D03*
X639970Y715010D02*
D03*
X657970D02*
D03*
X312310D02*
D03*
X330310D02*
D03*
X330420Y308610D02*
D03*
X312420D02*
D03*
X660510Y309880D02*
D03*
X642510D02*
D03*
D15*
X1192530Y885190D02*
D03*
Y913190D02*
D03*
D16*
X1104900Y899030D02*
D03*
Y914530D02*
D03*
X683260Y831980D02*
D03*
Y816480D02*
D03*
X637540Y842140D02*
D03*
Y826640D02*
D03*
X725170Y879980D02*
D03*
Y895480D02*
D03*
X638810Y905640D02*
D03*
Y890140D02*
D03*
X1584960Y1111120D02*
D03*
Y1126620D02*
D03*
X1565910Y1111120D02*
D03*
Y1126620D02*
D03*
X1362710Y585600D02*
D03*
Y570100D02*
D03*
X1388110Y1249810D02*
D03*
Y1234310D02*
D03*
X1487170Y1146680D02*
D03*
Y1162180D02*
D03*
X1286510Y843150D02*
D03*
Y858650D02*
D03*
X1413510Y765940D02*
D03*
Y750440D02*
D03*
X1557020Y406270D02*
D03*
Y421770D02*
D03*
X601980Y307210D02*
D03*
Y322710D02*
D03*
X1045210Y556130D02*
D03*
Y571630D02*
D03*
X1074420Y472310D02*
D03*
Y487810D02*
D03*
X1045210Y462410D02*
D03*
Y446910D02*
D03*
X1046480Y353190D02*
D03*
Y337690D02*
D03*
X1074420Y363090D02*
D03*
Y378590D02*
D03*
X1257300Y381130D02*
D03*
Y365630D02*
D03*
X918210Y440690D02*
D03*
Y456190D02*
D03*
X1212850Y762130D02*
D03*
Y746630D02*
D03*
X1045210Y665350D02*
D03*
Y680850D02*
D03*
X1069340D02*
D03*
Y665350D02*
D03*
X919480Y333880D02*
D03*
Y349380D02*
D03*
X918210Y551180D02*
D03*
Y566680D02*
D03*
D17*
X1127760Y882140D02*
D03*
Y913640D02*
D03*
X671830Y758950D02*
D03*
Y790450D02*
D03*
X647700Y977650D02*
D03*
Y946150D02*
D03*
D18*
X1166860Y913130D02*
D03*
X1152160D02*
D03*
D19*
X1186180Y300450D02*
D03*
X1211580D02*
D03*
X1236980D02*
D03*
X1132840D02*
D03*
X1107440D02*
D03*
X1082040D02*
D03*
D20*
X1134060Y763020D02*
D03*
Y700020D02*
D03*
X1096060D02*
D03*
Y763020D02*
D03*
D21*
X1155700Y800862D02*
D03*
X1143000D02*
D03*
X1130300D02*
D03*
X1117600D02*
D03*
Y850138D02*
D03*
X1130300D02*
D03*
X1143000D02*
D03*
X1155700D02*
D03*
X876300D02*
D03*
X889000D02*
D03*
X901700D02*
D03*
X914400D02*
D03*
Y800862D02*
D03*
X901700D02*
D03*
X889000D02*
D03*
X876300D02*
D03*
D22*
X1556890Y444500D02*
D03*
X1572390D02*
D03*
X1094870Y561340D02*
D03*
X1079370D02*
D03*
X612270Y935990D02*
D03*
X596770D02*
D03*
X1645920Y1160780D02*
D03*
X1661420D02*
D03*
X1454020Y1073150D02*
D03*
X1469520D02*
D03*
X1422530D02*
D03*
X1407030D02*
D03*
X1267590Y792480D02*
D03*
X1252090D02*
D03*
X1356230Y797560D02*
D03*
X1371730D02*
D03*
X1172080Y638810D02*
D03*
X1187580D02*
D03*
X596770Y795020D02*
D03*
X612270D02*
D03*
D23*
X1312230Y557530D02*
D03*
X1288730D02*
D03*
Y579120D02*
D03*
X1312230D02*
D03*
X1232530D02*
D03*
X1256030D02*
D03*
Y557530D02*
D03*
X1232530D02*
D03*
D24*
X746760Y819980D02*
D03*
Y790380D02*
D03*
X660400Y841570D02*
D03*
Y811970D02*
D03*
X749300Y909710D02*
D03*
Y880110D02*
D03*
X661670Y924120D02*
D03*
Y894520D02*
D03*
X1490980Y1126050D02*
D03*
Y1096450D02*
D03*
X1367790Y1120970D02*
D03*
Y1091370D02*
D03*
X1394460Y1185350D02*
D03*
Y1214950D02*
D03*
X1050290Y707390D02*
D03*
Y736990D02*
D03*
X645160Y790770D02*
D03*
Y761170D02*
D03*
X617220Y774260D02*
D03*
Y744660D02*
D03*
X591820D02*
D03*
Y774260D02*
D03*
X618490Y986350D02*
D03*
Y956750D02*
D03*
X591820Y986350D02*
D03*
Y956750D02*
D03*
X463550Y1138360D02*
D03*
Y1167960D02*
D03*
X436880Y1138360D02*
D03*
Y1167960D02*
D03*
X278130Y338650D02*
D03*
Y309050D02*
D03*
X1050290Y597340D02*
D03*
Y626940D02*
D03*
Y488120D02*
D03*
Y517720D02*
D03*
X1051560Y378900D02*
D03*
Y408500D02*
D03*
X1348280Y463220D02*
D03*
Y433620D02*
D03*
X1308910Y463220D02*
D03*
Y433620D02*
D03*
D25*
X702470Y829220D02*
D03*
X707470D02*
D03*
X712470D02*
D03*
X717470D02*
D03*
X722470D02*
D03*
Y786220D02*
D03*
X717470D02*
D03*
X712470D02*
D03*
X707470D02*
D03*
X702470D02*
D03*
X705960Y882740D02*
D03*
X700960D02*
D03*
X695960D02*
D03*
X690960D02*
D03*
X685960D02*
D03*
Y925740D02*
D03*
X690960D02*
D03*
X695960D02*
D03*
X700960D02*
D03*
X705960D02*
D03*
D26*
X720920Y855980D02*
D03*
X691320D02*
D03*
X1698430Y1137920D02*
D03*
X1728030D02*
D03*
X1675960D02*
D03*
X1646360D02*
D03*
X740850Y944880D02*
D03*
X770450D02*
D03*
X1347030D02*
D03*
X1317430D02*
D03*
X658300Y1141730D02*
D03*
X687900D02*
D03*
X604960D02*
D03*
X634560D02*
D03*
X668410Y687070D02*
D03*
X638810D02*
D03*
X311590D02*
D03*
X341190D02*
D03*
X636710Y281940D02*
D03*
X666310D02*
D03*
X1404180Y436990D02*
D03*
X1374580D02*
D03*
X1253470Y436990D02*
D03*
X1283070D02*
D03*
X456370Y786130D02*
D03*
X485970D02*
D03*
Y840317D02*
D03*
X456370D02*
D03*
X485970Y813223D02*
D03*
X456370D02*
D03*
X455100Y867410D02*
D03*
X484700D02*
D03*
D27*
X616660Y824380D02*
D03*
Y811380D02*
D03*
X597460D02*
D03*
Y817880D02*
D03*
Y824380D02*
D03*
X616100Y854860D02*
D03*
Y841860D02*
D03*
X596900D02*
D03*
Y848360D02*
D03*
Y854860D02*
D03*
X616660Y886610D02*
D03*
Y873610D02*
D03*
X597460D02*
D03*
Y880110D02*
D03*
Y886610D02*
D03*
X616100Y917240D02*
D03*
Y904240D02*
D03*
X596900D02*
D03*
Y910740D02*
D03*
Y917240D02*
D03*
D28*
X1569720Y1248220D02*
D03*
X1582420D02*
D03*
X1595120D02*
D03*
X1607820D02*
D03*
Y1154620D02*
D03*
X1595120D02*
D03*
X1582420D02*
D03*
X1569720D02*
D03*
D29*
X852170Y1051530D02*
D03*
Y952530D02*
D03*
X1235710Y1051530D02*
D03*
Y952530D02*
D03*
D30*
X768060Y1022350D02*
D03*
X700060D02*
D03*
X543270Y707390D02*
D03*
X475270D02*
D03*
X371130D02*
D03*
X439130D02*
D03*
X797850Y302260D02*
D03*
X865850D02*
D03*
X761710D02*
D03*
X693710D02*
D03*
X474000Y303530D02*
D03*
X542000D02*
D03*
X437860D02*
D03*
X369860D02*
D03*
X696250Y707390D02*
D03*
X764250D02*
D03*
X800630D02*
D03*
X868630D02*
D03*
D32*
X1338580Y1243040D02*
D03*
Y1175040D02*
D03*
X740410Y1152180D02*
D03*
Y1220180D02*
D03*
D33*
X1285240Y803460D02*
D03*
Y811980D02*
D03*
X1478280Y544010D02*
D03*
Y535490D02*
D03*
D34*
X1329240Y843280D02*
D03*
X1337760D02*
D03*
X1370780D02*
D03*
X1362260D02*
D03*
X1387660D02*
D03*
X1396180D02*
D03*
X1537520Y521970D02*
D03*
X1546040D02*
D03*
D35*
X1306830Y858800D02*
D03*
Y843000D02*
D03*
D36*
X1386470Y822960D02*
D03*
X1371970D02*
D03*
D37*
X1435380Y720090D02*
D03*
X1419580D02*
D03*
D38*
X1533510Y607060D02*
D03*
X1484010D02*
D03*
X1533510Y632460D02*
D03*
X1484010D02*
D03*
X1533510Y657860D02*
D03*
X1484010D02*
D03*
X1533510Y683260D02*
D03*
X1484010D02*
D03*
X1533510Y708660D02*
D03*
X1484010D02*
D03*
D39*
X1498990Y544400D02*
D03*
Y522400D02*
D03*
X1515990D02*
D03*
Y544400D02*
D03*
D40*
X1476180Y406400D02*
D03*
Y419100D02*
D03*
X1531180Y495300D02*
D03*
X1476180Y482600D02*
D03*
X1531180D02*
D03*
Y457200D02*
D03*
X1476180Y495300D02*
D03*
X1531180Y469900D02*
D03*
X1476180D02*
D03*
Y457200D02*
D03*
Y431800D02*
D03*
X1531180Y444500D02*
D03*
Y431800D02*
D03*
Y406400D02*
D03*
X1476180Y444500D02*
D03*
X1531180Y419100D02*
D03*
D41*
X1147070Y638810D02*
D03*
Y626110D02*
D03*
Y613410D02*
D03*
Y600710D02*
D03*
X1093470D02*
D03*
Y613410D02*
D03*
Y626110D02*
D03*
Y638810D02*
D03*
D42*
X1201710Y1108210D02*
D03*
X1218710D02*
D03*
X1235710D02*
D03*
X1252710D02*
D03*
X1269710D02*
D03*
D46*
X358140Y1167870D02*
D03*
Y1133370D02*
D03*
Y1040660D02*
D03*
Y1075160D02*
D03*
X359410Y912600D02*
D03*
Y878100D02*
D03*
X358140Y818620D02*
D03*
Y784120D02*
D03*
D47*
X576580Y684210D02*
D03*
Y707710D02*
D03*
X909320Y280350D02*
D03*
Y303850D02*
D03*
X576580Y303210D02*
D03*
Y326710D02*
D03*
X908050Y707070D02*
D03*
Y730570D02*
D03*
D48*
X1375410Y410430D02*
D03*
Y392430D02*
D03*
X1348741Y410430D02*
D03*
Y392430D02*
D03*
X1308910Y410430D02*
D03*
Y392430D02*
D03*
X1283510Y410320D02*
D03*
Y392320D02*
D03*
D49*
X1329260Y820030D02*
D03*
X1307260D02*
D03*
Y803030D02*
D03*
X1329260D02*
D03*
D148*
X818170Y1107440D02*
D03*
X835170D02*
D03*
X852170D02*
D03*
X869170D02*
D03*
X886170D02*
D03*
D149*
X852170Y1213440D02*
D03*
%TF.MD5,01ed31d2b6c2b85ad663904f7f2d3719*%
M02*
